<?xml version="1.0" encoding="UTF-8" standalone="no"?><svg xmlns="http://www.w3.org/2000/svg" xmlns:xlink="http://www.w3.org/1999/xlink" contentStyleType="text/css" height="150px" preserveAspectRatio="none" style="width:868px;height:150px;background:#FFFFFF;" version="1.1" viewBox="0 0 868 150" width="868px" zoomAndPan="magnify"><defs/><g><!--MD5=[d57c6da8d0d52a18870917c12a0570c6]
class MaskedBitmap--><g id="elem_MaskedBitmap"><rect codeLine="1" fill="#F1F1F1" height="129.1406" id="MaskedBitmap" rx="2.5" ry="2.5" style="stroke:#181818;stroke-width:0.5;" width="847" x="7" y="7"/><ellipse cx="380.25" cy="28.3516" fill="#ADD1B2" rx="11" ry="11" style="stroke:#181818;stroke-width:1.0;"/><path d="M383.0156,24.2266 Q383.1719,24.0078 383.3594,23.8984 Q383.5469,23.7891 383.7656,23.7891 Q384.1406,23.7891 384.375,24.0547 Q384.6094,24.3047 384.6094,24.9141 L384.6094,26.3672 Q384.6094,26.9766 384.375,27.2422 Q384.1406,27.5078 383.7656,27.5078 Q383.4219,27.5078 383.2188,27.3047 Q383.0156,27.1172 382.9063,26.6016 Q382.8594,26.2422 382.6719,26.0547 Q382.3438,25.6797 381.7344,25.4609 Q381.125,25.2422 380.5,25.2422 Q379.7344,25.2422 379.0938,25.5703 Q378.4688,25.8984 377.9688,26.6484 Q377.4844,27.3984 377.4844,28.4297 L377.4844,29.5234 Q377.4844,30.7578 378.375,31.5859 Q379.2656,32.3984 380.8594,32.3984 Q381.7969,32.3984 382.4531,32.1484 Q382.8438,31.9922 383.2656,31.5547 Q383.5313,31.2891 383.6719,31.2109 Q383.8281,31.1328 384.0313,31.1328 Q384.3594,31.1328 384.6094,31.3984 Q384.875,31.6484 384.875,31.9922 Q384.875,32.3359 384.5313,32.7422 Q384.0313,33.3203 383.2344,33.6484 Q382.1563,34.1016 380.8594,34.1016 Q379.3438,34.1016 378.1406,33.4766 Q377.1563,32.9766 376.4688,31.9141 Q375.7813,30.8359 375.7813,29.5547 L375.7813,28.3984 Q375.7813,27.0703 376.3906,25.9297 Q377.0156,24.7734 378.1094,24.1641 Q379.2031,23.5391 380.4375,23.5391 Q381.1719,23.5391 381.8125,23.7109 Q382.4688,23.8672 383.0156,24.2266 Z " fill="#000000"/><text fill="#000000" font-family="sans-serif" font-size="12" font-style="italic" lengthAdjust="spacing" textLength="51" x="421.25" y="24.457">«sealed»</text><text fill="#000000" font-family="sans-serif" font-size="14" lengthAdjust="spacing" textLength="92" x="400.75" y="41.627">MaskedBitmap</text><line style="stroke:#181818;stroke-width:0.5;" x1="8" x2="853" y1="49.7031" y2="49.7031"/><line style="stroke:#181818;stroke-width:0.5;" x1="8" x2="853" y1="57.7031" y2="57.7031"/><ellipse cx="18" cy="68.7031" fill="#84BE84" rx="3" ry="3" style="stroke:#038048;stroke-width:1.0;"/><text fill="#000000" font-family="sans-serif" font-size="14" lengthAdjust="spacing" text-decoration="underline" textLength="821" x="27" y="76.2363">SaveAsPng(image:Bitmap, size:Size, fullFileName:string, allowPartialOpacity:bool, opacityThreshold:byte, invertedMask:bool) : void</text><ellipse cx="18" cy="86.3125" fill="#84BE84" rx="3" ry="3" style="stroke:#038048;stroke-width:1.0;"/><text fill="#000000" font-family="sans-serif" font-size="14" lengthAdjust="spacing" text-decoration="underline" textLength="681" x="27" y="93.8457">GetImageMask(original:Bitmap, allowPartialOpacity:bool, opacityThreshold:byte, invertedMask:bool) : Bitmap</text><ellipse cx="18" cy="103.9219" fill="#84BE84" rx="3" ry="3" style="stroke:#038048;stroke-width:1.0;"/><text fill="#000000" font-family="sans-serif" font-size="14" lengthAdjust="spacing" text-decoration="underline" textLength="697" x="27" y="111.4551">GetMaskedImage(original:Bitmap, allowPartialOpacity:bool, opacityThreshold:byte, invertedMask:bool) : Bitmap</text><rect fill="#F24D5C" height="6" style="stroke:#C82930;stroke-width:1.0;" width="6" x="15" y="118.5313"/><text fill="#000000" font-family="sans-serif" font-size="14" lengthAdjust="spacing" text-decoration="underline" textLength="389" x="27" y="129.0645">Create32bppImageAndClearAlpha(tmpImage:Bitmap) : Bitmap</text></g><!--MD5=[29382aea9d4c8b1d3e79156091426765]
@startuml
class MaskedBitmap <<sealed>> {
    + {static} SaveAsPng(image:Bitmap, size:Size, fullFileName:string, allowPartialOpacity:bool, opacityThreshold:byte, invertedMask:bool) : void
    + {static} GetImageMask(original:Bitmap, allowPartialOpacity:bool, opacityThreshold:byte, invertedMask:bool) : Bitmap
    + {static} GetMaskedImage(original:Bitmap, allowPartialOpacity:bool, opacityThreshold:byte, invertedMask:bool) : Bitmap
    - {static} Create32bppImageAndClearAlpha(tmpImage:Bitmap) : Bitmap
}
@enduml

PlantUML version 1.2022.5(Sat Apr 30 20:55:52 AEST 2022)
(GPL source distribution)
Java Runtime: OpenJDK Runtime Environment
JVM: OpenJDK 64-Bit Server VM
Default Encoding: Cp1252
Language: en
Country: AU
--></g></svg>