<?xml version="1.0" encoding="UTF-8" standalone="no"?><svg xmlns="http://www.w3.org/2000/svg" xmlns:xlink="http://www.w3.org/1999/xlink" contentStyleType="text/css" height="385px" preserveAspectRatio="none" style="width:508px;height:385px;background:#FFFFFF;" version="1.1" viewBox="0 0 508 385" width="508px" zoomAndPan="magnify"><defs/><g><!--MD5=[b5cc41df376116c85f08b04330992113]
class CalloutRow--><g id="elem_CalloutRow"><rect codeLine="1" fill="#F1F1F1" height="364.9688" id="CalloutRow" rx="2.5" ry="2.5" style="stroke:#181818;stroke-width:0.5;" width="487" x="7" y="7"/><ellipse cx="210.75" cy="23" fill="#ADD1B2" rx="11" ry="11" style="stroke:#181818;stroke-width:1.0;"/><path d="M213.5156,18.875 Q213.6719,18.6563 213.8594,18.5469 Q214.0469,18.4375 214.2656,18.4375 Q214.6406,18.4375 214.875,18.7031 Q215.1094,18.9531 215.1094,19.5625 L215.1094,21.0156 Q215.1094,21.625 214.875,21.8906 Q214.6406,22.1563 214.2656,22.1563 Q213.9219,22.1563 213.7188,21.9531 Q213.5156,21.7656 213.4063,21.25 Q213.3594,20.8906 213.1719,20.7031 Q212.8438,20.3281 212.2344,20.1094 Q211.625,19.8906 211,19.8906 Q210.2344,19.8906 209.5938,20.2188 Q208.9688,20.5469 208.4688,21.2969 Q207.9844,22.0469 207.9844,23.0781 L207.9844,24.1719 Q207.9844,25.4063 208.875,26.2344 Q209.7656,27.0469 211.3594,27.0469 Q212.2969,27.0469 212.9531,26.7969 Q213.3438,26.6406 213.7656,26.2031 Q214.0313,25.9375 214.1719,25.8594 Q214.3281,25.7813 214.5313,25.7813 Q214.8594,25.7813 215.1094,26.0469 Q215.375,26.2969 215.375,26.6406 Q215.375,26.9844 215.0313,27.3906 Q214.5313,27.9688 213.7344,28.2969 Q212.6563,28.75 211.3594,28.75 Q209.8438,28.75 208.6406,28.125 Q207.6563,27.625 206.9688,26.5625 Q206.2813,25.4844 206.2813,24.2031 L206.2813,23.0469 Q206.2813,21.7188 206.8906,20.5781 Q207.5156,19.4219 208.6094,18.8125 Q209.7031,18.1875 210.9375,18.1875 Q211.6719,18.1875 212.3125,18.3594 Q212.9688,18.5156 213.5156,18.875 Z " fill="#000000"/><text fill="#000000" font-family="sans-serif" font-size="14" lengthAdjust="spacing" textLength="71" x="231.25" y="28.7285">CalloutRow</text><line style="stroke:#181818;stroke-width:0.5;" x1="8" x2="493" y1="39" y2="39"/><rect fill="none" height="6" style="stroke:#C82930;stroke-width:1.0;" width="6" x="15" y="47"/><text fill="#000000" font-family="sans-serif" font-size="14" lengthAdjust="spacing" textLength="97" x="27" y="57.5332">_rowVal : string</text><rect fill="none" height="6" style="stroke:#C82930;stroke-width:1.0;" width="6" x="15" y="64.6094"/><text fill="#000000" font-family="sans-serif" font-size="14" lengthAdjust="spacing" textLength="96" x="27" y="75.1426">_rowLbl : string</text><rect fill="none" height="6" style="stroke:#C82930;stroke-width:1.0;" width="6" x="15" y="82.2188"/><text fill="#000000" font-family="sans-serif" font-size="14" lengthAdjust="spacing" textLength="127" x="27" y="92.752">_rolColor : SysColor</text><rect fill="none" height="6" style="stroke:#C82930;stroke-width:1.0;" width="6" x="15" y="99.8281"/><text fill="#000000" font-family="sans-serif" font-size="14" lengthAdjust="spacing" textLength="127" x="27" y="110.3613">_rowIsInactive : bool</text><rect fill="none" height="6" style="stroke:#C82930;stroke-width:1.0;" width="6" x="15" y="117.4375"/><text fill="#000000" font-family="sans-serif" font-size="14" lengthAdjust="spacing" textLength="95" x="27" y="127.9707">_ignored : bool</text><rect fill="none" height="6" style="stroke:#C82930;stroke-width:1.0;" width="6" x="15" y="135.0469"/><text fill="#000000" font-family="sans-serif" font-size="14" lengthAdjust="spacing" textLength="246" x="27" y="145.5801">_target : Tuple&lt;double,double,double&gt;</text><text fill="#000000" font-family="sans-serif" font-size="14" lengthAdjust="spacing" textLength="249" x="27" y="163.1895">«internal» Callout : ICallout «get» «set»</text><ellipse cx="18" cy="173.2656" fill="none" rx="3" ry="3" style="stroke:#038048;stroke-width:1.0;"/><text fill="#000000" font-family="sans-serif" font-size="14" lengthAdjust="spacing" textLength="162" x="27" y="180.7988">Value : string «get» «set»</text><ellipse cx="18" cy="190.875" fill="none" rx="3" ry="3" style="stroke:#038048;stroke-width:1.0;"/><text fill="#000000" font-family="sans-serif" font-size="14" lengthAdjust="spacing" textLength="161" x="27" y="198.4082">Label : string «get» «set»</text><ellipse cx="18" cy="208.4844" fill="none" rx="3" ry="3" style="stroke:#038048;stroke-width:1.0;"/><text fill="#000000" font-family="sans-serif" font-size="14" lengthAdjust="spacing" textLength="168" x="27" y="216.0176">Id : int «get» «internal set»</text><ellipse cx="18" cy="226.0938" fill="none" rx="3" ry="3" style="stroke:#038048;stroke-width:1.0;"/><text fill="#000000" font-family="sans-serif" font-size="14" lengthAdjust="spacing" textLength="209" x="27" y="233.627">TextColor : SysColor «get» «set»</text><ellipse cx="18" cy="243.7031" fill="none" rx="3" ry="3" style="stroke:#038048;stroke-width:1.0;"/><text fill="#000000" font-family="sans-serif" font-size="14" lengthAdjust="spacing" textLength="202" x="27" y="251.2363">ValueInactive : bool «get» «set»</text><ellipse cx="18" cy="261.3125" fill="none" rx="3" ry="3" style="stroke:#038048;stroke-width:1.0;"/><text fill="#000000" font-family="sans-serif" font-size="14" lengthAdjust="spacing" textLength="322" x="27" y="268.8457">Target : Tuple&lt;double,double,double&gt; «get» «set»</text><ellipse cx="18" cy="278.9219" fill="none" rx="3" ry="3" style="stroke:#038048;stroke-width:1.0;"/><text fill="#000000" font-family="sans-serif" font-size="14" lengthAdjust="spacing" textLength="194" x="27" y="286.4551">IgnoreValue : bool «get» «set»</text><ellipse cx="18" cy="296.5313" fill="none" rx="3" ry="3" style="stroke:#038048;stroke-width:1.0;"/><text fill="#000000" font-family="sans-serif" font-size="14" lengthAdjust="spacing" textLength="461" x="27" y="304.0645">«event» OnTargetChanged : Action&lt;int, Tuple&lt;double, double, double&gt;&gt;</text><ellipse cx="18" cy="314.1406" fill="none" rx="3" ry="3" style="stroke:#038048;stroke-width:1.0;"/><text fill="#000000" font-family="sans-serif" font-size="14" lengthAdjust="spacing" textLength="309" x="27" y="321.6738">«event» OnValueChanged : CalloutEventHandler</text><line style="stroke:#181818;stroke-width:0.5;" x1="8" x2="493" y1="328.75" y2="328.75"/><ellipse cx="18" cy="339.75" fill="#84BE84" rx="3" ry="3" style="stroke:#038048;stroke-width:1.0;"/><text fill="#000000" font-family="sans-serif" font-size="14" lengthAdjust="spacing" textLength="231" x="27" y="347.2832">CalloutRow(label:string, value:string)</text><rect fill="#F24D5C" height="6" style="stroke:#C82930;stroke-width:1.0;" width="6" x="15" y="354.3594"/><text fill="#000000" font-family="sans-serif" font-size="14" lengthAdjust="spacing" textLength="203" x="27" y="364.8926">ValueChanged(text:string) : void</text></g><!--MD5=[a8572acfa644abc3c5afc3f549bd72ea]
@startuml
class CalloutRow {
    - _rowVal : string
    - _rowLbl : string
    - _rolColor : SysColor
    - _rowIsInactive : bool
    - _ignored : bool
    - _target : Tuple<double,double,double>
    + CalloutRow(label:string, value:string)
    <<internal>> Callout : ICallout <<get>> <<set>>
    + Value : string <<get>> <<set>>
    + Label : string <<get>> <<set>>
    + Id : int <<get>> <<internal set>>
    + TextColor : SysColor <<get>> <<set>>
    + ValueInactive : bool <<get>> <<set>>
    + Target : Tuple<double,double,double> <<get>> <<set>>
    + IgnoreValue : bool <<get>> <<set>>
    - ValueChanged(text:string) : void
    +  <<event>> OnTargetChanged : Action<int, Tuple<double, double, double>> 
    +  <<event>> OnValueChanged : CalloutEventHandler 
}
@enduml

PlantUML version 1.2022.5(Sat Apr 30 20:55:52 AEST 2022)
(GPL source distribution)
Java Runtime: OpenJDK Runtime Environment
JVM: OpenJDK 64-Bit Server VM
Default Encoding: Cp1252
Language: en
Country: AU
--></g></svg>