<?xml version="1.0" encoding="UTF-8" standalone="no"?><svg xmlns="http://www.w3.org/2000/svg" xmlns:xlink="http://www.w3.org/1999/xlink" contentStyleType="text/css" height="174px" preserveAspectRatio="none" style="width:190px;height:174px;background:#FFFFFF;" version="1.1" viewBox="0 0 190 174" width="190px" zoomAndPan="magnify"><defs/><g><!--MD5=[e3c760a6cfadf2c1cafe05bced5b4099]
class SliderStyles--><g id="elem_SliderStyles"><rect codeLine="1" fill="#F1F1F1" height="153.6563" id="SliderStyles" rx="2.5" ry="2.5" style="stroke:#181818;stroke-width:0.5;" width="169" x="7" y="7"/><ellipse cx="50.35" cy="23" fill="#EB937F" rx="11" ry="11" style="stroke:#181818;stroke-width:1.0;"/><path d="M49.2094,23.7969 L49.2094,26.2969 L53.5375,26.2969 L53.5375,25.375 Q53.5375,24.7656 53.7719,24.5 Q54.0219,24.2344 54.3969,24.2344 Q54.7719,24.2344 55.0063,24.5 Q55.2406,24.7656 55.2406,25.375 L55.2406,28 L47.2406,28 Q46.6156,28 46.35,27.7656 Q46.1,27.5313 46.1,27.1406 Q46.1,26.7656 46.3656,26.5313 Q46.6313,26.2969 47.2406,26.2969 L47.5063,26.2969 L47.5063,19.6406 L47.2406,19.6406 Q46.6156,19.6406 46.35,19.4063 Q46.1,19.1719 46.1,18.7813 Q46.1,18.4063 46.35,18.1719 Q46.6156,17.9375 47.2406,17.9375 L54.8656,17.9375 L54.8656,20.5313 Q54.8656,21.1406 54.6313,21.4063 Q54.4125,21.6563 54.0219,21.6563 Q53.6469,21.6563 53.4125,21.4063 Q53.1781,21.1406 53.1781,20.5313 L53.1781,19.6406 L49.2094,19.6406 L49.2094,22.0938 L50.6938,22.0938 Q50.6938,21.4375 50.8188,21.25 Q51.0844,20.8438 51.5531,20.8438 Q51.9281,20.8438 52.1625,21.1094 Q52.3969,21.3594 52.3969,21.9688 L52.3969,23.9375 Q52.3969,24.4844 52.2719,24.6719 Q52.0063,25.0625 51.5531,25.0625 Q51.0844,25.0625 50.8188,24.6563 Q50.6938,24.4688 50.6938,23.7969 L49.2094,23.7969 Z " fill="#000000"/><text fill="#000000" font-family="sans-serif" font-size="14" lengthAdjust="spacing" textLength="74" x="70.65" y="28.7285">SliderStyles</text><line style="stroke:#181818;stroke-width:0.5;" x1="8" x2="175" y1="39" y2="39"/><text fill="#000000" font-family="sans-serif" font-size="14" lengthAdjust="spacing" textLength="74" x="13" y="57.5332">NoTicks= 0,</text><text fill="#000000" font-family="sans-serif" font-size="14" lengthAdjust="spacing" textLength="71" x="13" y="75.1426">Vertical= 1,</text><text fill="#000000" font-family="sans-serif" font-size="14" lengthAdjust="spacing" textLength="86" x="13" y="92.752">AutoTicks= 2,</text><text fill="#000000" font-family="sans-serif" font-size="14" lengthAdjust="spacing" textLength="125" x="13" y="110.3613">BottomLeftTicks= 4,</text><text fill="#000000" font-family="sans-serif" font-size="14" lengthAdjust="spacing" textLength="115" x="13" y="127.9707">TopRightTicks= 8,</text><text fill="#000000" font-family="sans-serif" font-size="14" lengthAdjust="spacing" textLength="157" x="13" y="145.5801">NotifyWhileTracking= 16,</text><line style="stroke:#181818;stroke-width:0.5;" x1="8" x2="175" y1="152.6563" y2="152.6563"/></g><!--MD5=[9cfa36f351ca0d766adf3575064a275d]
@startuml
enum SliderStyles {
    NoTicks= 0,
    Vertical= 1,
    AutoTicks= 2,
    BottomLeftTicks= 4,
    TopRightTicks= 8,
    NotifyWhileTracking= 16,
}
@enduml

PlantUML version 1.2022.5(Sat Apr 30 20:55:52 AEST 2022)
(GPL source distribution)
Java Runtime: OpenJDK Runtime Environment
JVM: OpenJDK 64-Bit Server VM
Default Encoding: Cp1252
Language: en
Country: AU
--></g></svg>