<?xml version="1.0" encoding="UTF-8" standalone="no"?><svg xmlns="http://www.w3.org/2000/svg" xmlns:xlink="http://www.w3.org/1999/xlink" contentStyleType="text/css" height="310px" preserveAspectRatio="none" style="width:637px;height:310px;background:#FFFFFF;" version="1.1" viewBox="0 0 637 310" width="637px" zoomAndPan="magnify"><defs/><g><!--MD5=[8b44a2712164120b69171b5302f03801]
class PmpBitmap--><g id="elem_PmpBitmap"><rect codeLine="1" fill="#F1F1F1" height="188.875" id="PmpBitmap" rx="2.5" ry="2.5" style="stroke:#181818;stroke-width:0.5;" width="623" x="7" y="115"/><ellipse cx="278.75" cy="131" fill="#ADD1B2" rx="11" ry="11" style="stroke:#181818;stroke-width:1.0;"/><path d="M281.5156,126.875 Q281.6719,126.6563 281.8594,126.5469 Q282.0469,126.4375 282.2656,126.4375 Q282.6406,126.4375 282.875,126.7031 Q283.1094,126.9531 283.1094,127.5625 L283.1094,129.0156 Q283.1094,129.625 282.875,129.8906 Q282.6406,130.1563 282.2656,130.1563 Q281.9219,130.1563 281.7188,129.9531 Q281.5156,129.7656 281.4063,129.25 Q281.3594,128.8906 281.1719,128.7031 Q280.8438,128.3281 280.2344,128.1094 Q279.625,127.8906 279,127.8906 Q278.2344,127.8906 277.5938,128.2188 Q276.9688,128.5469 276.4688,129.2969 Q275.9844,130.0469 275.9844,131.0781 L275.9844,132.1719 Q275.9844,133.4063 276.875,134.2344 Q277.7656,135.0469 279.3594,135.0469 Q280.2969,135.0469 280.9531,134.7969 Q281.3438,134.6406 281.7656,134.2031 Q282.0313,133.9375 282.1719,133.8594 Q282.3281,133.7813 282.5313,133.7813 Q282.8594,133.7813 283.1094,134.0469 Q283.375,134.2969 283.375,134.6406 Q283.375,134.9844 283.0313,135.3906 Q282.5313,135.9688 281.7344,136.2969 Q280.6563,136.75 279.3594,136.75 Q277.8438,136.75 276.6406,136.125 Q275.6563,135.625 274.9688,134.5625 Q274.2813,133.4844 274.2813,132.2031 L274.2813,131.0469 Q274.2813,129.7188 274.8906,128.5781 Q275.5156,127.4219 276.6094,126.8125 Q277.7031,126.1875 278.9375,126.1875 Q279.6719,126.1875 280.3125,126.3594 Q280.9688,126.5156 281.5156,126.875 Z " fill="#000000"/><text fill="#000000" font-family="sans-serif" font-size="14" lengthAdjust="spacing" textLength="71" x="299.25" y="136.7285">PmpBitmap</text><line style="stroke:#181818;stroke-width:0.5;" x1="8" x2="629" y1="147" y2="147"/><rect fill="none" height="6" style="stroke:#C82930;stroke-width:1.0;" width="6" x="15" y="155"/><text fill="#000000" font-family="sans-serif" font-size="14" lengthAdjust="spacing" textLength="105" x="27" y="165.5332">_bitmap : Bitmap</text><rect fill="none" height="6" style="stroke:#C82930;stroke-width:1.0;" width="6" x="15" y="172.6094"/><text fill="#000000" font-family="sans-serif" font-size="14" lengthAdjust="spacing" textLength="92" x="27" y="183.1426">_opacity : byte</text><rect fill="none" height="6" style="stroke:#C82930;stroke-width:1.0;" width="6" x="15" y="190.2188"/><text fill="#000000" font-family="sans-serif" font-size="14" lengthAdjust="spacing" textLength="108" x="27" y="200.752">_filename : string</text><rect fill="none" height="6" style="stroke:#C82930;stroke-width:1.0;" width="6" x="15" y="207.8281"/><text fill="#000000" font-family="sans-serif" font-size="14" lengthAdjust="spacing" textLength="221" x="27" y="218.3613">_resizeStyles : ControlResizeStyles</text><line style="stroke:#181818;stroke-width:0.5;" x1="8" x2="629" y1="225.4375" y2="225.4375"/><ellipse cx="18" cy="236.4375" fill="#84BE84" rx="3" ry="3" style="stroke:#038048;stroke-width:1.0;"/><text fill="#000000" font-family="sans-serif" font-size="14" lengthAdjust="spacing" textLength="568" x="27" y="243.9707">PmpBitmap(bitmap:Bitmap, fileName:string, resizeStyles:ControlResizeStyles, opacity:byte)</text><rect fill="#F24D5C" height="6" style="stroke:#C82930;stroke-width:1.0;" width="6" x="15" y="251.0469"/><text fill="#000000" font-family="sans-serif" font-size="14" lengthAdjust="spacing" textLength="597" x="27" y="261.5801">PmpBitmap_OnDisplay(sender:IPmpControl, eventArgs:PmpControlDisplayingEventArgs) : void</text><rect fill="#F24D5C" height="6" style="stroke:#C82930;stroke-width:1.0;" width="6" x="15" y="268.6563"/><text fill="#000000" font-family="sans-serif" font-size="14" lengthAdjust="spacing" textLength="199" x="27" y="279.1895">PmpBitmap_OnRegister() : void</text><ellipse cx="18" cy="289.2656" fill="#84BE84" rx="3" ry="3" style="stroke:#038048;stroke-width:1.0;"/><text fill="#000000" font-family="sans-serif" font-size="14" lengthAdjust="spacing" textLength="411" x="27" y="296.7988">UpdatePicture(bitmap:Bitmap, fileName:string, opacity:byte) : void</text></g><!--MD5=[22a3ac4e8783a88ac869ee0e2318b515]
class PmpControl`1--><g id="elem_PmpControl`1"><rect fill="#F1F1F1" height="48" id="PmpControl`1" rx="2.5" ry="2.5" style="stroke:#181818;stroke-width:0.5;" width="119" x="259" y="7"/><ellipse cx="274" cy="23" fill="#ADD1B2" rx="11" ry="11" style="stroke:#181818;stroke-width:1.0;"/><path d="M276.7656,18.875 Q276.9219,18.6563 277.1094,18.5469 Q277.2969,18.4375 277.5156,18.4375 Q277.8906,18.4375 278.125,18.7031 Q278.3594,18.9531 278.3594,19.5625 L278.3594,21.0156 Q278.3594,21.625 278.125,21.8906 Q277.8906,22.1563 277.5156,22.1563 Q277.1719,22.1563 276.9688,21.9531 Q276.7656,21.7656 276.6563,21.25 Q276.6094,20.8906 276.4219,20.7031 Q276.0938,20.3281 275.4844,20.1094 Q274.875,19.8906 274.25,19.8906 Q273.4844,19.8906 272.8438,20.2188 Q272.2188,20.5469 271.7188,21.2969 Q271.2344,22.0469 271.2344,23.0781 L271.2344,24.1719 Q271.2344,25.4063 272.125,26.2344 Q273.0156,27.0469 274.6094,27.0469 Q275.5469,27.0469 276.2031,26.7969 Q276.5938,26.6406 277.0156,26.2031 Q277.2813,25.9375 277.4219,25.8594 Q277.5781,25.7813 277.7813,25.7813 Q278.1094,25.7813 278.3594,26.0469 Q278.625,26.2969 278.625,26.6406 Q278.625,26.9844 278.2813,27.3906 Q277.7813,27.9688 276.9844,28.2969 Q275.9063,28.75 274.6094,28.75 Q273.0938,28.75 271.8906,28.125 Q270.9063,27.625 270.2188,26.5625 Q269.5313,25.4844 269.5313,24.2031 L269.5313,23.0469 Q269.5313,21.7188 270.1406,20.5781 Q270.7656,19.4219 271.8594,18.8125 Q272.9531,18.1875 274.1875,18.1875 Q274.9219,18.1875 275.5625,18.3594 Q276.2188,18.5156 276.7656,18.875 Z " fill="#000000"/><text fill="#000000" font-family="sans-serif" font-size="14" lengthAdjust="spacing" textLength="87" x="288" y="28.7285">PmpControl`1</text><line style="stroke:#181818;stroke-width:0.5;" x1="260" x2="377" y1="39" y2="39"/><line style="stroke:#181818;stroke-width:0.5;" x1="260" x2="377" y1="47" y2="47"/></g><!--MD5=[55150b6637b77c96094c8ff203143a47]
reverse link PmpControl`1 to PmpBitmap--><g id="link_PmpControl`1_PmpBitmap"><path codeLine="11" d="M318.5,75.38 C318.5,87.4 318.5,100.93 318.5,114.65 " fill="none" id="PmpControl`1-backto-PmpBitmap" style="stroke:#181818;stroke-width:1.0;"/><polygon fill="none" points="311.5,75.07,318.5,55.07,325.5,75.07,311.5,75.07" style="stroke:#181818;stroke-width:1.0;"/><text fill="#000000" font-family="sans-serif" font-size="13" lengthAdjust="spacing" textLength="186" x="109.8313" y="76.425">&lt;PropertyManagerPageBitmap&gt;</text></g><!--MD5=[22ec53f6b16cebcac406b9d215fcbae8]
@startuml
class PmpBitmap {
    - _bitmap : Bitmap
    - _opacity : byte
    - _filename : string
    - _resizeStyles : ControlResizeStyles
    + PmpBitmap(bitmap:Bitmap, fileName:string, resizeStyles:ControlResizeStyles, opacity:byte)
    - PmpBitmap_OnDisplay(sender:IPmpControl, eventArgs:PmpControlDisplayingEventArgs) : void
    - PmpBitmap_OnRegister() : void
    + UpdatePicture(bitmap:Bitmap, fileName:string, opacity:byte) : void
}
"PmpControl`1" "<PropertyManagerPageBitmap>" <|- - PmpBitmap
@enduml

PlantUML version 1.2022.5(Sat Apr 30 20:55:52 AEST 2022)
(GPL source distribution)
Java Runtime: OpenJDK Runtime Environment
JVM: OpenJDK 64-Bit Server VM
Default Encoding: Cp1252
Language: en
Country: AU
--></g></svg>