<?xml version="1.0" encoding="UTF-8" standalone="no"?><svg xmlns="http://www.w3.org/2000/svg" xmlns:xlink="http://www.w3.org/1999/xlink" contentStyleType="text/css" height="275px" preserveAspectRatio="none" style="width:290px;height:275px;background:#FFFFFF;" version="1.1" viewBox="0 0 290 275" width="290px" zoomAndPan="magnify"><defs/><g><!--MD5=[ccd27cc53c5b09d9b4914a1393b18306]
class AddinAttribute--><g id="elem_AddinAttribute"><rect codeLine="1" fill="#F1F1F1" height="153.6563" id="AddinAttribute" rx="2.5" ry="2.5" style="stroke:#181818;stroke-width:0.5;" width="276" x="7" y="115"/><ellipse cx="96.25" cy="131" fill="#ADD1B2" rx="11" ry="11" style="stroke:#181818;stroke-width:1.0;"/><path d="M99.0156,126.875 Q99.1719,126.6563 99.3594,126.5469 Q99.5469,126.4375 99.7656,126.4375 Q100.1406,126.4375 100.375,126.7031 Q100.6094,126.9531 100.6094,127.5625 L100.6094,129.0156 Q100.6094,129.625 100.375,129.8906 Q100.1406,130.1563 99.7656,130.1563 Q99.4219,130.1563 99.2188,129.9531 Q99.0156,129.7656 98.9063,129.25 Q98.8594,128.8906 98.6719,128.7031 Q98.3438,128.3281 97.7344,128.1094 Q97.125,127.8906 96.5,127.8906 Q95.7344,127.8906 95.0938,128.2188 Q94.4688,128.5469 93.9688,129.2969 Q93.4844,130.0469 93.4844,131.0781 L93.4844,132.1719 Q93.4844,133.4063 94.375,134.2344 Q95.2656,135.0469 96.8594,135.0469 Q97.7969,135.0469 98.4531,134.7969 Q98.8438,134.6406 99.2656,134.2031 Q99.5313,133.9375 99.6719,133.8594 Q99.8281,133.7813 100.0313,133.7813 Q100.3594,133.7813 100.6094,134.0469 Q100.875,134.2969 100.875,134.6406 Q100.875,134.9844 100.5313,135.3906 Q100.0313,135.9688 99.2344,136.2969 Q98.1563,136.75 96.8594,136.75 Q95.3438,136.75 94.1406,136.125 Q93.1563,135.625 92.4688,134.5625 Q91.7813,133.4844 91.7813,132.2031 L91.7813,131.0469 Q91.7813,129.7188 92.3906,128.5781 Q93.0156,127.4219 94.1094,126.8125 Q95.2031,126.1875 96.4375,126.1875 Q97.1719,126.1875 97.8125,126.3594 Q98.4688,126.5156 99.0156,126.875 Z " fill="#000000"/><text fill="#000000" font-family="sans-serif" font-size="14" lengthAdjust="spacing" textLength="89" x="116.75" y="136.7285">AddinAttribute</text><line style="stroke:#181818;stroke-width:0.5;" x1="8" x2="282" y1="147" y2="147"/><rect fill="none" height="6" style="stroke:#C82930;stroke-width:1.0;" width="6" x="15" y="155"/><text fill="#000000" font-family="sans-serif" font-size="14" lengthAdjust="spacing" textLength="81" x="27" y="165.5332">_icon : string</text><ellipse cx="18" cy="175.6094" fill="none" rx="3" ry="3" style="stroke:#038048;stroke-width:1.0;"/><text fill="#000000" font-family="sans-serif" font-size="14" lengthAdjust="spacing" textLength="188" x="27" y="183.1426">AddinIcon : string «get» «set»</text><ellipse cx="18" cy="193.2188" fill="none" rx="3" ry="3" style="stroke:#038048;stroke-width:1.0;"/><text fill="#000000" font-family="sans-serif" font-size="14" lengthAdjust="spacing" textLength="250" x="27" y="200.752">LoadAtStartup : bool «get» «set» = true</text><ellipse cx="18" cy="210.8281" fill="none" rx="3" ry="3" style="stroke:#038048;stroke-width:1.0;"/><text fill="#000000" font-family="sans-serif" font-size="14" lengthAdjust="spacing" textLength="197" x="27" y="218.3613">Description : string «get» «set»</text><ellipse cx="18" cy="228.4375" fill="none" rx="3" ry="3" style="stroke:#038048;stroke-width:1.0;"/><text fill="#000000" font-family="sans-serif" font-size="14" lengthAdjust="spacing" textLength="153" x="27" y="235.9707">Title : string «get» «set»</text><line style="stroke:#181818;stroke-width:0.5;" x1="8" x2="282" y1="243.0469" y2="243.0469"/><ellipse cx="18" cy="254.0469" fill="#84BE84" rx="3" ry="3" style="stroke:#038048;stroke-width:1.0;"/><text fill="#000000" font-family="sans-serif" font-size="14" lengthAdjust="spacing" textLength="160" x="27" y="261.5801">AddinAttribute(title:string)</text></g><!--MD5=[787494ff879e99315e413996e631a796]
class Attribute--><g id="elem_Attribute"><rect fill="#F1F1F1" height="48" id="Attribute" rx="2.5" ry="2.5" style="stroke:#181818;stroke-width:0.5;" width="85" x="102.5" y="7"/><ellipse cx="117.5" cy="23" fill="#ADD1B2" rx="11" ry="11" style="stroke:#181818;stroke-width:1.0;"/><path d="M120.2656,18.875 Q120.4219,18.6563 120.6094,18.5469 Q120.7969,18.4375 121.0156,18.4375 Q121.3906,18.4375 121.625,18.7031 Q121.8594,18.9531 121.8594,19.5625 L121.8594,21.0156 Q121.8594,21.625 121.625,21.8906 Q121.3906,22.1563 121.0156,22.1563 Q120.6719,22.1563 120.4688,21.9531 Q120.2656,21.7656 120.1563,21.25 Q120.1094,20.8906 119.9219,20.7031 Q119.5938,20.3281 118.9844,20.1094 Q118.375,19.8906 117.75,19.8906 Q116.9844,19.8906 116.3438,20.2188 Q115.7188,20.5469 115.2188,21.2969 Q114.7344,22.0469 114.7344,23.0781 L114.7344,24.1719 Q114.7344,25.4063 115.625,26.2344 Q116.5156,27.0469 118.1094,27.0469 Q119.0469,27.0469 119.7031,26.7969 Q120.0938,26.6406 120.5156,26.2031 Q120.7813,25.9375 120.9219,25.8594 Q121.0781,25.7813 121.2813,25.7813 Q121.6094,25.7813 121.8594,26.0469 Q122.125,26.2969 122.125,26.6406 Q122.125,26.9844 121.7813,27.3906 Q121.2813,27.9688 120.4844,28.2969 Q119.4063,28.75 118.1094,28.75 Q116.5938,28.75 115.3906,28.125 Q114.4063,27.625 113.7188,26.5625 Q113.0313,25.4844 113.0313,24.2031 L113.0313,23.0469 Q113.0313,21.7188 113.6406,20.5781 Q114.2656,19.4219 115.3594,18.8125 Q116.4531,18.1875 117.6875,18.1875 Q118.4219,18.1875 119.0625,18.3594 Q119.7188,18.5156 120.2656,18.875 Z " fill="#000000"/><text fill="#000000" font-family="sans-serif" font-size="14" lengthAdjust="spacing" textLength="53" x="131.5" y="28.7285">Attribute</text><line style="stroke:#181818;stroke-width:0.5;" x1="103.5" x2="186.5" y1="39" y2="39"/><line style="stroke:#181818;stroke-width:0.5;" x1="103.5" x2="186.5" y1="47" y2="47"/></g><!--MD5=[bd1b5a356030fa7dc87f39ba0ebc9aeb]
reverse link Attribute to AddinAttribute--><g id="link_Attribute_AddinAttribute"><path codeLine="9" d="M145,75.21 C145,87.43 145,101.11 145,114.67 " fill="none" id="Attribute-backto-AddinAttribute" style="stroke:#181818;stroke-width:1.0;"/><polygon fill="none" points="138,75.12,145,55.12,152,75.12,138,75.12" style="stroke:#181818;stroke-width:1.0;"/></g><!--MD5=[4a479419910e5098a8286443086fa545]
@startuml
class AddinAttribute {
    - _icon : string
    + AddinIcon : string <<get>> <<set>>
    + LoadAtStartup : bool <<get>> <<set>> = true
    + Description : string <<get>> <<set>>
    + Title : string <<get>> <<set>>
    + AddinAttribute(title:string)
}
Attribute <|- - AddinAttribute
@enduml

PlantUML version 1.2022.5(Sat Apr 30 20:55:52 AEST 2022)
(GPL source distribution)
Java Runtime: OpenJDK Runtime Environment
JVM: OpenJDK 64-Bit Server VM
Default Encoding: Cp1252
Language: en
Country: AU
--></g></svg>