<?xml version="1.0" encoding="UTF-8" standalone="no"?><svg xmlns="http://www.w3.org/2000/svg" xmlns:xlink="http://www.w3.org/1999/xlink" contentStyleType="text/css" height="575px" preserveAspectRatio="none" style="width:999px;height:575px;background:#FFFFFF;" version="1.1" viewBox="0 0 999 575" width="999px" zoomAndPan="magnify"><defs/><g><!--MD5=[6c006ef8ace427d960f7e4233567b1ac]
class PmpNumberBox--><g id="elem_PmpNumberBox"><rect codeLine="1" fill="#F1F1F1" height="453.0156" id="PmpNumberBox" rx="2.5" ry="2.5" style="stroke:#181818;stroke-width:0.5;" width="985" x="7" y="115"/><ellipse cx="445.25" cy="131" fill="#ADD1B2" rx="11" ry="11" style="stroke:#181818;stroke-width:1.0;"/><path d="M448.0156,126.875 Q448.1719,126.6563 448.3594,126.5469 Q448.5469,126.4375 448.7656,126.4375 Q449.1406,126.4375 449.375,126.7031 Q449.6094,126.9531 449.6094,127.5625 L449.6094,129.0156 Q449.6094,129.625 449.375,129.8906 Q449.1406,130.1563 448.7656,130.1563 Q448.4219,130.1563 448.2188,129.9531 Q448.0156,129.7656 447.9063,129.25 Q447.8594,128.8906 447.6719,128.7031 Q447.3438,128.3281 446.7344,128.1094 Q446.125,127.8906 445.5,127.8906 Q444.7344,127.8906 444.0938,128.2188 Q443.4688,128.5469 442.9688,129.2969 Q442.4844,130.0469 442.4844,131.0781 L442.4844,132.1719 Q442.4844,133.4063 443.375,134.2344 Q444.2656,135.0469 445.8594,135.0469 Q446.7969,135.0469 447.4531,134.7969 Q447.8438,134.6406 448.2656,134.2031 Q448.5313,133.9375 448.6719,133.8594 Q448.8281,133.7813 449.0313,133.7813 Q449.3594,133.7813 449.6094,134.0469 Q449.875,134.2969 449.875,134.6406 Q449.875,134.9844 449.5313,135.3906 Q449.0313,135.9688 448.2344,136.2969 Q447.1563,136.75 445.8594,136.75 Q444.3438,136.75 443.1406,136.125 Q442.1563,135.625 441.4688,134.5625 Q440.7813,133.4844 440.7813,132.2031 L440.7813,131.0469 Q440.7813,129.7188 441.3906,128.5781 Q442.0156,127.4219 443.1094,126.8125 Q444.2031,126.1875 445.4375,126.1875 Q446.1719,126.1875 446.8125,126.3594 Q447.4688,126.5156 448.0156,126.875 Z " fill="#000000"/><text fill="#000000" font-family="sans-serif" font-size="14" lengthAdjust="spacing" textLength="100" x="465.75" y="136.7285">PmpNumberBox</text><line style="stroke:#181818;stroke-width:0.5;" x1="8" x2="991" y1="147" y2="147"/><rect fill="none" height="6" style="stroke:#C82930;stroke-width:1.0;" width="6" x="15" y="155"/><text fill="#000000" font-family="sans-serif" font-size="14" lengthAdjust="spacing" textLength="159" x="27" y="165.5332">_style : NumberBoxStyles</text><rect fill="none" height="6" style="stroke:#C82930;stroke-width:1.0;" width="6" x="15" y="172.6094"/><text fill="#000000" font-family="sans-serif" font-size="14" lengthAdjust="spacing" textLength="184" x="27" y="183.1426">_displayUnit : NumberBoxUnit</text><rect fill="none" height="6" style="stroke:#C82930;stroke-width:1.0;" width="6" x="15" y="190.2188"/><text fill="#000000" font-family="sans-serif" font-size="14" lengthAdjust="spacing" textLength="97" x="27" y="200.752">_value : double</text><rect fill="none" height="6" style="stroke:#C82930;stroke-width:1.0;" width="6" x="15" y="207.8281"/><text fill="#000000" font-family="sans-serif" font-size="14" lengthAdjust="spacing" textLength="91" x="27" y="218.3613">_height : short</text><ellipse cx="18" cy="228.4375" fill="none" rx="3" ry="3" style="stroke:#038048;stroke-width:1.0;"/><text fill="#000000" font-family="sans-serif" font-size="14" lengthAdjust="spacing" textLength="170" x="27" y="235.9707">Value : double «get» «set»</text><ellipse cx="18" cy="246.0469" fill="none" rx="3" ry="3" style="stroke:#038048;stroke-width:1.0;"/><text fill="#000000" font-family="sans-serif" font-size="14" lengthAdjust="spacing" textLength="163" x="27" y="253.5801">Height : short «get» «set»</text><ellipse cx="18" cy="263.6563" fill="none" rx="3" ry="3" style="stroke:#038048;stroke-width:1.0;"/><text fill="#000000" font-family="sans-serif" font-size="14" lengthAdjust="spacing" textLength="232" x="27" y="271.1895">Style : NumberBoxStyles «get» «set»</text><ellipse cx="18" cy="281.2656" fill="none" rx="3" ry="3" style="stroke:#038048;stroke-width:1.0;"/><text fill="#000000" font-family="sans-serif" font-size="14" lengthAdjust="spacing" textLength="273" x="27" y="288.7988">DisplayedUnit : NumberBoxUnit «get» «set»</text><ellipse cx="18" cy="298.875" fill="none" rx="3" ry="3" style="stroke:#038048;stroke-width:1.0;"/><text fill="#000000" font-family="sans-serif" font-size="14" lengthAdjust="spacing" textLength="288" x="27" y="306.4082">«event» TextChanged : EventHandler&lt;string&gt;</text><ellipse cx="18" cy="316.4844" fill="none" rx="3" ry="3" style="stroke:#038048;stroke-width:1.0;"/><text fill="#000000" font-family="sans-serif" font-size="14" lengthAdjust="spacing" textLength="272" x="27" y="324.0176">«event» Changing : EventHandler&lt;double&gt;</text><ellipse cx="18" cy="334.0938" fill="none" rx="3" ry="3" style="stroke:#038048;stroke-width:1.0;"/><text fill="#000000" font-family="sans-serif" font-size="14" lengthAdjust="spacing" textLength="334" x="27" y="341.627">«event» TrackingCompleted : EventHandler&lt;double&gt;</text><ellipse cx="18" cy="351.7031" fill="none" rx="3" ry="3" style="stroke:#038048;stroke-width:1.0;"/><text fill="#000000" font-family="sans-serif" font-size="14" lengthAdjust="spacing" textLength="319" x="27" y="359.2363">«event» SelectionChanged : EventHandler&lt;string&gt;</text><ellipse cx="18" cy="369.3125" fill="none" rx="3" ry="3" style="stroke:#038048;stroke-width:1.0;"/><text fill="#000000" font-family="sans-serif" font-size="14" lengthAdjust="spacing" textLength="431" x="27" y="376.8457">«new»  «event» Displaying : PmpNumberBoxDisplayingEventHandler</text><line style="stroke:#181818;stroke-width:0.5;" x1="8" x2="991" y1="383.9219" y2="383.9219"/><ellipse cx="18" cy="394.9219" fill="#84BE84" rx="3" ry="3" style="stroke:#038048;stroke-width:1.0;"/><text fill="#000000" font-family="sans-serif" font-size="14" lengthAdjust="spacing" textLength="253" x="27" y="402.4551">PmpNumberBox(style:NumberBoxStyles)</text><ellipse cx="18" cy="412.5313" fill="#84BE84" rx="3" ry="3" style="stroke:#038048;stroke-width:1.0;"/><text fill="#000000" font-family="sans-serif" font-size="14" lengthAdjust="spacing" textLength="246" x="27" y="420.0645">InsertItem(item:short, text:string) : short</text><ellipse cx="18" cy="430.1406" fill="#84BE84" rx="3" ry="3" style="stroke:#038048;stroke-width:1.0;"/><text fill="#000000" font-family="sans-serif" font-size="14" lengthAdjust="spacing" textLength="959" x="27" y="437.6738">SetRange(Units:NumberBoxUnit, Minimum:double, Maximum:double, Inclusive:bool, Increment:double, fastIncrement:double, slowIncrement:double) : void</text><ellipse cx="18" cy="447.75" fill="#84BE84" rx="3" ry="3" style="stroke:#038048;stroke-width:1.0;"/><text fill="#000000" font-family="sans-serif" font-size="14" lengthAdjust="spacing" textLength="186" x="27" y="455.2832">AddItems(items:string[]) : void</text><ellipse cx="18" cy="465.3594" fill="#84BE84" rx="3" ry="3" style="stroke:#038048;stroke-width:1.0;"/><text fill="#000000" font-family="sans-serif" font-size="14" lengthAdjust="spacing" textLength="396" x="27" y="472.8926">SetSliderParameters(positionCount:int, divisionCount:int) : void</text><text fill="#000000" font-family="sans-serif" font-size="14" lengthAdjust="spacing" textLength="315" x="27" y="490.502">«internal» TextChangedCallback(text:string) : void</text><text fill="#000000" font-family="sans-serif" font-size="14" lengthAdjust="spacing" textLength="308" x="27" y="508.1113">«internal» ChangedCallback(value:double) : void</text><text fill="#000000" font-family="sans-serif" font-size="14" lengthAdjust="spacing" textLength="306" x="27" y="525.7207">«internal» «override» DisplayingCallback() : void</text><text fill="#000000" font-family="sans-serif" font-size="14" lengthAdjust="spacing" textLength="357" x="27" y="543.3301">«internal» TrackingCompletedCallback(val:double) : void</text><text fill="#000000" font-family="sans-serif" font-size="14" lengthAdjust="spacing" textLength="330" x="27" y="560.9395">«internal» SelectionChangedCallback(item:int) : void</text></g><!--MD5=[0e4f282a4d71a359fc4b0132b5573ff6]
class PmpTextBase`1--><g id="elem_PmpTextBase`1"><rect fill="#F1F1F1" height="48" id="PmpTextBase`1" rx="2.5" ry="2.5" style="stroke:#181818;stroke-width:0.5;" width="132" x="433.5" y="7"/><ellipse cx="448.5" cy="23" fill="#ADD1B2" rx="11" ry="11" style="stroke:#181818;stroke-width:1.0;"/><path d="M451.2656,18.875 Q451.4219,18.6563 451.6094,18.5469 Q451.7969,18.4375 452.0156,18.4375 Q452.3906,18.4375 452.625,18.7031 Q452.8594,18.9531 452.8594,19.5625 L452.8594,21.0156 Q452.8594,21.625 452.625,21.8906 Q452.3906,22.1563 452.0156,22.1563 Q451.6719,22.1563 451.4688,21.9531 Q451.2656,21.7656 451.1563,21.25 Q451.1094,20.8906 450.9219,20.7031 Q450.5938,20.3281 449.9844,20.1094 Q449.375,19.8906 448.75,19.8906 Q447.9844,19.8906 447.3438,20.2188 Q446.7188,20.5469 446.2188,21.2969 Q445.7344,22.0469 445.7344,23.0781 L445.7344,24.1719 Q445.7344,25.4063 446.625,26.2344 Q447.5156,27.0469 449.1094,27.0469 Q450.0469,27.0469 450.7031,26.7969 Q451.0938,26.6406 451.5156,26.2031 Q451.7813,25.9375 451.9219,25.8594 Q452.0781,25.7813 452.2813,25.7813 Q452.6094,25.7813 452.8594,26.0469 Q453.125,26.2969 453.125,26.6406 Q453.125,26.9844 452.7813,27.3906 Q452.2813,27.9688 451.4844,28.2969 Q450.4063,28.75 449.1094,28.75 Q447.5938,28.75 446.3906,28.125 Q445.4063,27.625 444.7188,26.5625 Q444.0313,25.4844 444.0313,24.2031 L444.0313,23.0469 Q444.0313,21.7188 444.6406,20.5781 Q445.2656,19.4219 446.3594,18.8125 Q447.4531,18.1875 448.6875,18.1875 Q449.4219,18.1875 450.0625,18.3594 Q450.7188,18.5156 451.2656,18.875 Z " fill="#000000"/><text fill="#000000" font-family="sans-serif" font-size="14" lengthAdjust="spacing" textLength="100" x="462.5" y="28.7285">PmpTextBase`1</text><line style="stroke:#181818;stroke-width:0.5;" x1="434.5" x2="564.5" y1="39" y2="39"/><line style="stroke:#181818;stroke-width:0.5;" x1="434.5" x2="564.5" y1="47" y2="47"/></g><!--MD5=[1f2c152bb83284fdcbabc70b5c07663d]
reverse link PmpTextBase`1 to PmpNumberBox--><g id="link_PmpTextBase`1_PmpNumberBox"><path codeLine="26" d="M499.5,75.19 C499.5,86.84 499.5,100.29 499.5,114.83 " fill="none" id="PmpTextBase`1-backto-PmpNumberBox" style="stroke:#181818;stroke-width:1.0;"/><polygon fill="none" points="492.5,75.19,499.5,55.19,506.5,75.19,492.5,75.19" style="stroke:#181818;stroke-width:1.0;"/><text fill="#000000" font-family="sans-serif" font-size="13" lengthAdjust="spacing" textLength="214" x="259.4188" y="76.5743">&lt;IPropertyManagerPageNumberbox&gt;</text></g><!--MD5=[50ece5a1c6a61fd56fa49f4cf0d94723]
@startuml
class PmpNumberBox {
    - _style : NumberBoxStyles
    - _displayUnit : NumberBoxUnit
    - _value : double
    - _height : short
    + PmpNumberBox(style:NumberBoxStyles)
    + InsertItem(item:short, text:string) : short
    + SetRange(Units:NumberBoxUnit, Minimum:double, Maximum:double, Inclusive:bool, Increment:double, fastIncrement:double, slowIncrement:double) : void
    + AddItems(items:string[]) : void
    + SetSliderParameters(positionCount:int, divisionCount:int) : void
    + Value : double <<get>> <<set>>
    + Height : short <<get>> <<set>>
    + Style : NumberBoxStyles <<get>> <<set>>
    + DisplayedUnit : NumberBoxUnit <<get>> <<set>>
    <<internal>> TextChangedCallback(text:string) : void
    <<internal>> ChangedCallback(value:double) : void
    <<internal>> <<override>> DisplayingCallback() : void
    <<internal>> TrackingCompletedCallback(val:double) : void
    <<internal>> SelectionChangedCallback(item:int) : void
    +  <<event>> TextChanged : EventHandler<string> 
    +  <<event>> Changing : EventHandler<double> 
    +  <<event>> TrackingCompleted : EventHandler<double> 
    +  <<event>> SelectionChanged : EventHandler<string> 
    + <<new>>  <<event>> Displaying : PmpNumberBoxDisplayingEventHandler 
}
"PmpTextBase`1" "<IPropertyManagerPageNumberbox>" <|- - PmpNumberBox
@enduml

PlantUML version 1.2022.5(Sat Apr 30 20:55:52 AEST 2022)
(GPL source distribution)
Java Runtime: OpenJDK Runtime Environment
JVM: OpenJDK 64-Bit Server VM
Default Encoding: Cp1252
Language: en
Country: AU
--></g></svg>