<?xml version="1.0" encoding="UTF-8" standalone="no"?><svg xmlns="http://www.w3.org/2000/svg" xmlns:xlink="http://www.w3.org/1999/xlink" contentStyleType="text/css" height="222px" preserveAspectRatio="none" style="width:508px;height:222px;background:#FFFFFF;" version="1.1" viewBox="0 0 508 222" width="508px" zoomAndPan="magnify"><defs/><g><!--MD5=[9fbd1d3a5987a5034180c703586db155]
class PmpWinFormContoller`1--><g id="elem_PmpWinFormContoller`1"><rect codeLine="1" fill="#F1F1F1" height="100.8281" id="PmpWinFormContoller`1" rx="2.5" ry="2.5" style="stroke:#181818;stroke-width:0.5;" width="391" x="106.675" y="115"/><ellipse cx="214.925" cy="131" fill="#ADD1B2" rx="11" ry="11" style="stroke:#181818;stroke-width:1.0;"/><path d="M217.6906,126.875 Q217.8469,126.6563 218.0344,126.5469 Q218.2219,126.4375 218.4406,126.4375 Q218.8156,126.4375 219.05,126.7031 Q219.2844,126.9531 219.2844,127.5625 L219.2844,129.0156 Q219.2844,129.625 219.05,129.8906 Q218.8156,130.1563 218.4406,130.1563 Q218.0969,130.1563 217.8938,129.9531 Q217.6906,129.7656 217.5813,129.25 Q217.5344,128.8906 217.3469,128.7031 Q217.0188,128.3281 216.4094,128.1094 Q215.8,127.8906 215.175,127.8906 Q214.4094,127.8906 213.7688,128.2188 Q213.1438,128.5469 212.6438,129.2969 Q212.1594,130.0469 212.1594,131.0781 L212.1594,132.1719 Q212.1594,133.4063 213.05,134.2344 Q213.9406,135.0469 215.5344,135.0469 Q216.4719,135.0469 217.1281,134.7969 Q217.5188,134.6406 217.9406,134.2031 Q218.2063,133.9375 218.3469,133.8594 Q218.5031,133.7813 218.7063,133.7813 Q219.0344,133.7813 219.2844,134.0469 Q219.55,134.2969 219.55,134.6406 Q219.55,134.9844 219.2063,135.3906 Q218.7063,135.9688 217.9094,136.2969 Q216.8313,136.75 215.5344,136.75 Q214.0188,136.75 212.8156,136.125 Q211.8313,135.625 211.1438,134.5625 Q210.4563,133.4844 210.4563,132.2031 L210.4563,131.0469 Q210.4563,129.7188 211.0656,128.5781 Q211.6906,127.4219 212.7844,126.8125 Q213.8781,126.1875 215.1125,126.1875 Q215.8469,126.1875 216.4875,126.3594 Q217.1438,126.5156 217.6906,126.875 Z " fill="#000000"/><text fill="#000000" font-family="sans-serif" font-size="14" lengthAdjust="spacing" textLength="155" x="235.425" y="136.7285">PmpWinFormContoller`1</text><rect fill="#FFFFFF" height="17.0938" style="stroke:#000000;stroke-width:1.0;stroke-dasharray:2.0,2.0;" width="9" x="491.675" y="112"/><text fill="#000000" font-family="sans-serif" font-size="12" font-style="italic" lengthAdjust="spacing" textLength="7" x="492.675" y="125.457">T</text><line style="stroke:#181818;stroke-width:0.5;" x1="107.675" x2="496.675" y1="147" y2="147"/><text fill="#000000" font-family="sans-serif" font-size="14" lengthAdjust="spacing" textLength="241" x="126.675" y="165.5332">«internal» UiController : T «get» «set»</text><ellipse cx="117.675" cy="175.6094" fill="none" rx="3" ry="3" style="stroke:#038048;stroke-width:1.0;"/><text fill="#000000" font-family="sans-serif" font-size="14" lengthAdjust="spacing" textLength="242" x="126.675" y="183.1426">«override» Enabled : bool «get» «set»</text><line style="stroke:#181818;stroke-width:0.5;" x1="107.675" x2="496.675" y1="190.2188" y2="190.2188"/><ellipse cx="117.675" cy="201.2188" fill="#84BE84" rx="3" ry="3" style="stroke:#038048;stroke-width:1.0;"/><text fill="#000000" font-family="sans-serif" font-size="14" lengthAdjust="spacing" textLength="365" x="126.675" y="208.752">PmpWinFormContoller(height:int, caption:string, tip:string)</text></g><!--MD5=[22a3ac4e8783a88ac869ee0e2318b515]
class PmpControl`1--><g id="elem_PmpControl`1"><rect fill="#F1F1F1" height="48" id="PmpControl`1" rx="2.5" ry="2.5" style="stroke:#181818;stroke-width:0.5;" width="119" x="242.675" y="7"/><ellipse cx="257.675" cy="23" fill="#ADD1B2" rx="11" ry="11" style="stroke:#181818;stroke-width:1.0;"/><path d="M260.4406,18.875 Q260.5969,18.6563 260.7844,18.5469 Q260.9719,18.4375 261.1906,18.4375 Q261.5656,18.4375 261.8,18.7031 Q262.0344,18.9531 262.0344,19.5625 L262.0344,21.0156 Q262.0344,21.625 261.8,21.8906 Q261.5656,22.1563 261.1906,22.1563 Q260.8469,22.1563 260.6438,21.9531 Q260.4406,21.7656 260.3313,21.25 Q260.2844,20.8906 260.0969,20.7031 Q259.7688,20.3281 259.1594,20.1094 Q258.55,19.8906 257.925,19.8906 Q257.1594,19.8906 256.5188,20.2188 Q255.8938,20.5469 255.3938,21.2969 Q254.9094,22.0469 254.9094,23.0781 L254.9094,24.1719 Q254.9094,25.4063 255.8,26.2344 Q256.6906,27.0469 258.2844,27.0469 Q259.2219,27.0469 259.8781,26.7969 Q260.2688,26.6406 260.6906,26.2031 Q260.9563,25.9375 261.0969,25.8594 Q261.2531,25.7813 261.4563,25.7813 Q261.7844,25.7813 262.0344,26.0469 Q262.3,26.2969 262.3,26.6406 Q262.3,26.9844 261.9563,27.3906 Q261.4563,27.9688 260.6594,28.2969 Q259.5813,28.75 258.2844,28.75 Q256.7688,28.75 255.5656,28.125 Q254.5813,27.625 253.8938,26.5625 Q253.2063,25.4844 253.2063,24.2031 L253.2063,23.0469 Q253.2063,21.7188 253.8156,20.5781 Q254.4406,19.4219 255.5344,18.8125 Q256.6281,18.1875 257.8625,18.1875 Q258.5969,18.1875 259.2375,18.3594 Q259.8938,18.5156 260.4406,18.875 Z " fill="#000000"/><text fill="#000000" font-family="sans-serif" font-size="14" lengthAdjust="spacing" textLength="87" x="271.675" y="28.7285">PmpControl`1</text><line style="stroke:#181818;stroke-width:0.5;" x1="243.675" x2="360.675" y1="39" y2="39"/><line style="stroke:#181818;stroke-width:0.5;" x1="243.675" x2="360.675" y1="47" y2="47"/></g><!--MD5=[a6fa355eb3cb3b943985ec96e1f22ede]
reverse link PmpControl`1 to PmpWinFormContoller`1--><g id="link_PmpControl`1_PmpWinFormContoller`1"><path codeLine="6" d="M302.175,75.34 C302.175,87.95 302.175,101.82 302.175,114.8 " fill="none" id="PmpControl`1-backto-PmpWinFormContoller`1" style="stroke:#181818;stroke-width:1.0;"/><polygon fill="none" points="295.175,75.08,302.175,55.08,309.175,75.08,295.175,75.08" style="stroke:#181818;stroke-width:1.0;"/><text fill="#000000" font-family="sans-serif" font-size="13" lengthAdjust="spacing" textLength="264" x="6" y="76.4375">&lt;IPropertyManagerPageWindowFromHandle&gt;</text></g><!--MD5=[3e92cb95866862361b215d0579c3396e]
@startuml
class "PmpWinFormContoller`1"<T> {
    <<internal>> UiController : T <<get>> <<set>>
    + PmpWinFormContoller(height:int, caption:string, tip:string)
    + <<override>> Enabled : bool <<get>> <<set>>
}
"PmpControl`1" "<IPropertyManagerPageWindowFromHandle>" <|- - "PmpWinFormContoller`1"
@enduml

PlantUML version 1.2022.5(Sat Apr 30 20:55:52 AEST 2022)
(GPL source distribution)
Java Runtime: OpenJDK Runtime Environment
JVM: OpenJDK 64-Bit Server VM
Default Encoding: Cp1252
Language: en
Country: AU
--></g></svg>