<?xml version="1.0" encoding="UTF-8" standalone="no"?><svg xmlns="http://www.w3.org/2000/svg" xmlns:xlink="http://www.w3.org/1999/xlink" contentStyleType="text/css" height="275px" preserveAspectRatio="none" style="width:439px;height:275px;background:#FFFFFF;" version="1.1" viewBox="0 0 439 275" width="439px" zoomAndPan="magnify"><defs/><g><!--MD5=[627a3ab3073ffe01f1f93b6436fbceee]
class AddinCommandTab--><g id="elem_AddinCommandTab"><rect codeLine="1" fill="#F1F1F1" height="153.6563" id="AddinCommandTab" rx="2.5" ry="2.5" style="stroke:#181818;stroke-width:0.5;" width="425" x="7" y="115"/><ellipse cx="152.75" cy="131" fill="#ADD1B2" rx="11" ry="11" style="stroke:#181818;stroke-width:1.0;"/><path d="M155.5156,126.875 Q155.6719,126.6563 155.8594,126.5469 Q156.0469,126.4375 156.2656,126.4375 Q156.6406,126.4375 156.875,126.7031 Q157.1094,126.9531 157.1094,127.5625 L157.1094,129.0156 Q157.1094,129.625 156.875,129.8906 Q156.6406,130.1563 156.2656,130.1563 Q155.9219,130.1563 155.7188,129.9531 Q155.5156,129.7656 155.4063,129.25 Q155.3594,128.8906 155.1719,128.7031 Q154.8438,128.3281 154.2344,128.1094 Q153.625,127.8906 153,127.8906 Q152.2344,127.8906 151.5938,128.2188 Q150.9688,128.5469 150.4688,129.2969 Q149.9844,130.0469 149.9844,131.0781 L149.9844,132.1719 Q149.9844,133.4063 150.875,134.2344 Q151.7656,135.0469 153.3594,135.0469 Q154.2969,135.0469 154.9531,134.7969 Q155.3438,134.6406 155.7656,134.2031 Q156.0313,133.9375 156.1719,133.8594 Q156.3281,133.7813 156.5313,133.7813 Q156.8594,133.7813 157.1094,134.0469 Q157.375,134.2969 157.375,134.6406 Q157.375,134.9844 157.0313,135.3906 Q156.5313,135.9688 155.7344,136.2969 Q154.6563,136.75 153.3594,136.75 Q151.8438,136.75 150.6406,136.125 Q149.6563,135.625 148.9688,134.5625 Q148.2813,133.4844 148.2813,132.2031 L148.2813,131.0469 Q148.2813,129.7188 148.8906,128.5781 Q149.5156,127.4219 150.6094,126.8125 Q151.7031,126.1875 152.9375,126.1875 Q153.6719,126.1875 154.3125,126.3594 Q154.9688,126.5156 155.5156,126.875 Z " fill="#000000"/><text fill="#000000" font-family="sans-serif" font-size="14" lengthAdjust="spacing" textLength="125" x="173.25" y="136.7285">AddinCommandTab</text><line style="stroke:#181818;stroke-width:0.5;" x1="8" x2="431" y1="147" y2="147"/><rect fill="none" height="6" style="stroke:#C82930;stroke-width:1.0;" width="6" x="15" y="155"/><text fill="#000000" font-family="sans-serif" font-size="14" lengthAdjust="spacing" textLength="293" x="27" y="165.5332">_commandGroup : AddinCommandGroupBase</text><ellipse cx="18" cy="175.6094" fill="none" rx="3" ry="3" style="stroke:#038048;stroke-width:1.0;"/><text fill="#000000" font-family="sans-serif" font-size="14" lengthAdjust="spacing" textLength="178" x="27" y="183.1426">TabTitle : string «get» «set»</text><ellipse cx="18" cy="193.2188" fill="none" rx="3" ry="3" style="stroke:#038048;stroke-width:1.0;"/><text fill="#000000" font-family="sans-serif" font-size="14" lengthAdjust="spacing" textLength="360" x="27" y="200.752">Types : IEnumerable&lt;swDocumentTypes_e&gt; «get» «set»</text><ellipse cx="18" cy="210.8281" fill="none" rx="3" ry="3" style="stroke:#038048;stroke-width:1.0;"/><text fill="#000000" font-family="sans-serif" font-size="14" lengthAdjust="spacing" textLength="367" x="27" y="218.3613">CommandGroup : AddinCommandGroupBase «get» «set»</text><ellipse cx="18" cy="228.4375" fill="none" rx="3" ry="3" style="stroke:#038048;stroke-width:1.0;"/><text fill="#000000" font-family="sans-serif" font-size="14" lengthAdjust="spacing" textLength="249" x="27" y="235.9707">SolidworksObject : CommandTab «get»</text><line style="stroke:#181818;stroke-width:0.5;" x1="8" x2="431" y1="243.0469" y2="243.0469"/><text fill="#000000" font-family="sans-serif" font-size="14" lengthAdjust="spacing" textLength="413" x="13" y="261.5801">«internal» Register(commandManager:ICommandManager) : bool</text></g><!--MD5=[ab8e484bdef87b57c10aff892c535b8f]
class IWrapSolidworksObject`1--><g id="elem_IWrapSolidworksObject`1"><rect fill="#F1F1F1" height="48" id="IWrapSolidworksObject`1" rx="2.5" ry="2.5" style="stroke:#181818;stroke-width:0.5;" width="190" x="124.5" y="7"/><ellipse cx="139.5" cy="23" fill="#ADD1B2" rx="11" ry="11" style="stroke:#181818;stroke-width:1.0;"/><path d="M142.2656,18.875 Q142.4219,18.6563 142.6094,18.5469 Q142.7969,18.4375 143.0156,18.4375 Q143.3906,18.4375 143.625,18.7031 Q143.8594,18.9531 143.8594,19.5625 L143.8594,21.0156 Q143.8594,21.625 143.625,21.8906 Q143.3906,22.1563 143.0156,22.1563 Q142.6719,22.1563 142.4688,21.9531 Q142.2656,21.7656 142.1563,21.25 Q142.1094,20.8906 141.9219,20.7031 Q141.5938,20.3281 140.9844,20.1094 Q140.375,19.8906 139.75,19.8906 Q138.9844,19.8906 138.3438,20.2188 Q137.7188,20.5469 137.2188,21.2969 Q136.7344,22.0469 136.7344,23.0781 L136.7344,24.1719 Q136.7344,25.4063 137.625,26.2344 Q138.5156,27.0469 140.1094,27.0469 Q141.0469,27.0469 141.7031,26.7969 Q142.0938,26.6406 142.5156,26.2031 Q142.7813,25.9375 142.9219,25.8594 Q143.0781,25.7813 143.2813,25.7813 Q143.6094,25.7813 143.8594,26.0469 Q144.125,26.2969 144.125,26.6406 Q144.125,26.9844 143.7813,27.3906 Q143.2813,27.9688 142.4844,28.2969 Q141.4063,28.75 140.1094,28.75 Q138.5938,28.75 137.3906,28.125 Q136.4063,27.625 135.7188,26.5625 Q135.0313,25.4844 135.0313,24.2031 L135.0313,23.0469 Q135.0313,21.7188 135.6406,20.5781 Q136.2656,19.4219 137.3594,18.8125 Q138.4531,18.1875 139.6875,18.1875 Q140.4219,18.1875 141.0625,18.3594 Q141.7188,18.5156 142.2656,18.875 Z " fill="#000000"/><text fill="#000000" font-family="sans-serif" font-size="14" lengthAdjust="spacing" textLength="158" x="153.5" y="28.7285">IWrapSolidworksObject`1</text><line style="stroke:#181818;stroke-width:0.5;" x1="125.5" x2="313.5" y1="39" y2="39"/><line style="stroke:#181818;stroke-width:0.5;" x1="125.5" x2="313.5" y1="47" y2="47"/></g><!--MD5=[a585642354bfecdbb78d8497ef6d98b8]
reverse link IWrapSolidworksObject`1 to AddinCommandTab--><g id="link_IWrapSolidworksObject`1_AddinCommandTab"><path codeLine="9" d="M219.5,75.21 C219.5,87.43 219.5,101.11 219.5,114.67 " fill="none" id="IWrapSolidworksObject`1-backto-AddinCommandTab" style="stroke:#181818;stroke-width:1.0;"/><polygon fill="none" points="212.5,75.12,219.5,55.12,226.5,75.12,212.5,75.12" style="stroke:#181818;stroke-width:1.0;"/><text fill="#000000" font-family="sans-serif" font-size="13" lengthAdjust="spacing" textLength="96" x="111.8" y="76.4872">&lt;CommandTab&gt;</text></g><!--MD5=[e65b55d81b11e6fc2b72892689657232]
@startuml
class AddinCommandTab {
    - _commandGroup : AddinCommandGroupBase
    + TabTitle : string <<get>> <<set>>
    + Types : IEnumerable<swDocumentTypes_e> <<get>> <<set>>
    + CommandGroup : AddinCommandGroupBase <<get>> <<set>>
    + SolidworksObject : CommandTab <<get>>
    <<internal>> Register(commandManager:ICommandManager) : bool
}
"IWrapSolidworksObject`1" "<CommandTab>" <|- - AddinCommandTab
@enduml

PlantUML version 1.2022.5(Sat Apr 30 20:55:52 AEST 2022)
(GPL source distribution)
Java Runtime: OpenJDK Runtime Environment
JVM: OpenJDK 64-Bit Server VM
Default Encoding: Cp1252
Language: en
Country: AU
--></g></svg>