<?xml version="1.0" encoding="UTF-8" standalone="no"?><svg xmlns="http://www.w3.org/2000/svg" xmlns:xlink="http://www.w3.org/1999/xlink" contentStyleType="text/css" height="227px" preserveAspectRatio="none" style="width:578px;height:227px;background:#FFFFFF;" version="1.1" viewBox="0 0 578 227" width="578px" zoomAndPan="magnify"><defs/><g><!--MD5=[681b15abd921304ebab1ca708b81af7f]
class PopUpMenueItem--><g id="elem_PopUpMenueItem"><rect codeLine="1" fill="#F1F1F1" height="206.4844" id="PopUpMenueItem" rx="2.5" ry="2.5" style="stroke:#181818;stroke-width:0.5;" width="557" x="7" y="7"/><ellipse cx="225.75" cy="23" fill="#ADD1B2" rx="11" ry="11" style="stroke:#181818;stroke-width:1.0;"/><path d="M228.5156,18.875 Q228.6719,18.6563 228.8594,18.5469 Q229.0469,18.4375 229.2656,18.4375 Q229.6406,18.4375 229.875,18.7031 Q230.1094,18.9531 230.1094,19.5625 L230.1094,21.0156 Q230.1094,21.625 229.875,21.8906 Q229.6406,22.1563 229.2656,22.1563 Q228.9219,22.1563 228.7188,21.9531 Q228.5156,21.7656 228.4063,21.25 Q228.3594,20.8906 228.1719,20.7031 Q227.8438,20.3281 227.2344,20.1094 Q226.625,19.8906 226,19.8906 Q225.2344,19.8906 224.5938,20.2188 Q223.9688,20.5469 223.4688,21.2969 Q222.9844,22.0469 222.9844,23.0781 L222.9844,24.1719 Q222.9844,25.4063 223.875,26.2344 Q224.7656,27.0469 226.3594,27.0469 Q227.2969,27.0469 227.9531,26.7969 Q228.3438,26.6406 228.7656,26.2031 Q229.0313,25.9375 229.1719,25.8594 Q229.3281,25.7813 229.5313,25.7813 Q229.8594,25.7813 230.1094,26.0469 Q230.375,26.2969 230.375,26.6406 Q230.375,26.9844 230.0313,27.3906 Q229.5313,27.9688 228.7344,28.2969 Q227.6563,28.75 226.3594,28.75 Q224.8438,28.75 223.6406,28.125 Q222.6563,27.625 221.9688,26.5625 Q221.2813,25.4844 221.2813,24.2031 L221.2813,23.0469 Q221.2813,21.7188 221.8906,20.5781 Q222.5156,19.4219 223.6094,18.8125 Q224.7031,18.1875 225.9375,18.1875 Q226.6719,18.1875 227.3125,18.3594 Q227.9688,18.5156 228.5156,18.875 Z " fill="#000000"/><text fill="#000000" font-family="sans-serif" font-size="14" lengthAdjust="spacing" textLength="111" x="246.25" y="28.7285">PopUpMenueItem</text><line style="stroke:#181818;stroke-width:0.5;" x1="8" x2="563" y1="39" y2="39"/><ellipse cx="18" cy="50" fill="none" rx="3" ry="3" style="stroke:#038048;stroke-width:1.0;"/><text fill="#000000" font-family="sans-serif" font-size="14" lengthAdjust="spacing" textLength="158" x="27" y="57.5332">«event» Pressed : Action</text><ellipse cx="18" cy="67.6094" fill="none" rx="3" ry="3" style="stroke:#038048;stroke-width:1.0;"/><text fill="#000000" font-family="sans-serif" font-size="14" lengthAdjust="spacing" textLength="190" x="27" y="75.1426">«event» Updated : Action&lt;int&gt;</text><ellipse cx="18" cy="85.2188" fill="none" rx="3" ry="3" style="stroke:#038048;stroke-width:1.0;"/><text fill="#000000" font-family="sans-serif" font-size="14" lengthAdjust="spacing" textLength="179" x="27" y="92.752">ItemText : string «get» «set»</text><ellipse cx="18" cy="102.8281" fill="none" rx="3" ry="3" style="stroke:#038048;stroke-width:1.0;"/><text fill="#000000" font-family="sans-serif" font-size="14" lengthAdjust="spacing" textLength="150" x="27" y="110.3613">Hint : string «get» «set»</text><ellipse cx="18" cy="120.4375" fill="none" rx="3" ry="3" style="stroke:#038048;stroke-width:1.0;"/><text fill="#000000" font-family="sans-serif" font-size="14" lengthAdjust="spacing" textLength="322" x="27" y="127.9707">DocumentType : swDocumentTypes_e «get» «set»</text><ellipse cx="18" cy="138.0469" fill="none" rx="3" ry="3" style="stroke:#038048;stroke-width:1.0;"/><text fill="#000000" font-family="sans-serif" font-size="14" lengthAdjust="spacing" textLength="78" x="27" y="145.5801">Id : int «get»</text><line style="stroke:#181818;stroke-width:0.5;" x1="8" x2="563" y1="152.6563" y2="152.6563"/><ellipse cx="18" cy="163.6563" fill="#84BE84" rx="3" ry="3" style="stroke:#038048;stroke-width:1.0;"/><text fill="#000000" font-family="sans-serif" font-size="14" lengthAdjust="spacing" textLength="531" x="27" y="171.1895">PopUpMenueItem(itemText:string, hint:string, documentTypes:swDocumentTypes_e)</text><text fill="#000000" font-family="sans-serif" font-size="14" lengthAdjust="spacing" textLength="249" x="27" y="188.7988">«internal» UpdatedCallback(u:int) : void</text><text fill="#000000" font-family="sans-serif" font-size="14" lengthAdjust="spacing" textLength="221" x="27" y="206.4082">«internal» PressedCallback() : void</text></g><!--MD5=[2fd9d4582895db99efafd0b1c51776d4]
@startuml
class PopUpMenueItem {
    + PopUpMenueItem(itemText:string, hint:string, documentTypes:swDocumentTypes_e)
    +  <<event>> Pressed : Action 
    +  <<event>> Updated : Action<int> 
    + ItemText : string <<get>> <<set>>
    + Hint : string <<get>> <<set>>
    + DocumentType : swDocumentTypes_e <<get>> <<set>>
    + Id : int <<get>>
    <<internal>> UpdatedCallback(u:int) : void
    <<internal>> PressedCallback() : void
}
@enduml

PlantUML version 1.2022.5(Sat Apr 30 20:55:52 AEST 2022)
(GPL source distribution)
Java Runtime: OpenJDK Runtime Environment
JVM: OpenJDK 64-Bit Server VM
Default Encoding: Cp1252
Language: en
Country: AU
--></g></svg>