<?xml version="1.0" encoding="UTF-8" standalone="no"?><svg xmlns="http://www.w3.org/2000/svg" xmlns:xlink="http://www.w3.org/1999/xlink" contentStyleType="text/css" height="297px" preserveAspectRatio="none" style="width:549px;height:297px;background:#FFFFFF;" version="1.1" viewBox="0 0 549 297" width="549px" zoomAndPan="magnify"><defs/><g><!--MD5=[095e840c0e8be403ee315226577958de]
class AddinIcons--><g id="elem_AddinIcons"><rect codeLine="1" fill="#F1F1F1" height="276.9219" id="AddinIcons" rx="2.5" ry="2.5" style="stroke:#181818;stroke-width:0.5;" width="528" x="7" y="7"/><ellipse cx="232.25" cy="23" fill="#ADD1B2" rx="11" ry="11" style="stroke:#181818;stroke-width:1.0;"/><path d="M235.0156,18.875 Q235.1719,18.6563 235.3594,18.5469 Q235.5469,18.4375 235.7656,18.4375 Q236.1406,18.4375 236.375,18.7031 Q236.6094,18.9531 236.6094,19.5625 L236.6094,21.0156 Q236.6094,21.625 236.375,21.8906 Q236.1406,22.1563 235.7656,22.1563 Q235.4219,22.1563 235.2188,21.9531 Q235.0156,21.7656 234.9063,21.25 Q234.8594,20.8906 234.6719,20.7031 Q234.3438,20.3281 233.7344,20.1094 Q233.125,19.8906 232.5,19.8906 Q231.7344,19.8906 231.0938,20.2188 Q230.4688,20.5469 229.9688,21.2969 Q229.4844,22.0469 229.4844,23.0781 L229.4844,24.1719 Q229.4844,25.4063 230.375,26.2344 Q231.2656,27.0469 232.8594,27.0469 Q233.7969,27.0469 234.4531,26.7969 Q234.8438,26.6406 235.2656,26.2031 Q235.5313,25.9375 235.6719,25.8594 Q235.8281,25.7813 236.0313,25.7813 Q236.3594,25.7813 236.6094,26.0469 Q236.875,26.2969 236.875,26.6406 Q236.875,26.9844 236.5313,27.3906 Q236.0313,27.9688 235.2344,28.2969 Q234.1563,28.75 232.8594,28.75 Q231.3438,28.75 230.1406,28.125 Q229.1563,27.625 228.4688,26.5625 Q227.7813,25.4844 227.7813,24.2031 L227.7813,23.0469 Q227.7813,21.7188 228.3906,20.5781 Q229.0156,19.4219 230.1094,18.8125 Q231.2031,18.1875 232.4375,18.1875 Q233.1719,18.1875 233.8125,18.3594 Q234.4688,18.5156 235.0156,18.875 Z " fill="#000000"/><text fill="#000000" font-family="sans-serif" font-size="14" lengthAdjust="spacing" textLength="69" x="252.75" y="28.7285">AddinIcons</text><line style="stroke:#181818;stroke-width:0.5;" x1="8" x2="534" y1="39" y2="39"/><text fill="#000000" font-family="sans-serif" font-size="14" lengthAdjust="spacing" text-decoration="underline" textLength="142" x="27" y="57.5332">_instance : AddinIcons</text><text fill="#000000" font-family="sans-serif" font-size="14" lengthAdjust="spacing" text-decoration="underline" textLength="174" x="27" y="75.1426">_iconsDirInfo : DirectoryInfo</text><rect fill="none" height="6" style="stroke:#C82930;stroke-width:1.0;" width="6" x="15" y="82.2188"/><text fill="#000000" font-family="sans-serif" font-size="14" lengthAdjust="spacing" textLength="163" x="27" y="92.752">_iconFullFileName : string</text><text fill="#000000" font-family="sans-serif" font-size="14" lengthAdjust="spacing" text-decoration="underline" textLength="158" x="27" y="110.3613">«readonly» _lock : object</text><text fill="#000000" font-family="sans-serif" font-size="14" lengthAdjust="spacing" textLength="250" x="27" y="127.9707">«internal» IconsDir : DirectoryInfo «get»</text><line style="stroke:#181818;stroke-width:0.5;" x1="8" x2="534" y1="135.0469" y2="135.0469"/><text fill="#000000" font-family="sans-serif" font-size="14" lengthAdjust="spacing" textLength="79" x="13" y="153.5801">AddinIcons()</text><text fill="#000000" font-family="sans-serif" font-size="14" lengthAdjust="spacing" text-decoration="underline" textLength="211" x="13" y="171.1895">«internal» Instance() : AddinIcons</text><text fill="#000000" font-family="sans-serif" font-size="14" lengthAdjust="spacing" textLength="398" x="13" y="188.7988">CreateIconsDirInLocalAppFolder(dirName:string) : DirectoryInfo</text><text fill="#000000" font-family="sans-serif" font-size="14" lengthAdjust="spacing" textLength="516" x="13" y="206.4082">GetAssemblyEmbeddedResourceNames(assy:Assembly, resx:string) : List&lt;string&gt;</text><text fill="#000000" font-family="sans-serif" font-size="14" lengthAdjust="spacing" textLength="432" x="13" y="224.0176">GetResxBitmap(t:Type, imageName:string, resxName:string) : Bitmap</text><text fill="#000000" font-family="sans-serif" font-size="14" lengthAdjust="spacing" textLength="396" x="13" y="241.627">GetEmbeddedBitmap(type:Type, resouceName:string) : Bitmap</text><text fill="#000000" font-family="sans-serif" font-size="14" lengthAdjust="spacing" textLength="213" x="13" y="259.2363">GetAddinIcon(type:Type) : Bitmap</text><text fill="#000000" font-family="sans-serif" font-size="14" lengthAdjust="spacing" textLength="427" x="13" y="276.8457">«internal» SaveAddinIcon(type:Type, iconFullFileName:string) : void</text></g><!--MD5=[53cdcdefb587cf4d939eacd670fdf7b3]
@startuml
class AddinIcons {
    {static} _instance : AddinIcons
    {static} _iconsDirInfo : DirectoryInfo
    - _iconFullFileName : string
    AddinIcons()
    {static} <<readonly>> _lock : object
    <<internal>> {static} Instance() : AddinIcons
    CreateIconsDirInLocalAppFolder(dirName:string) : DirectoryInfo
    GetAssemblyEmbeddedResourceNames(assy:Assembly, resx:string) : List<string>
    GetResxBitmap(t:Type, imageName:string, resxName:string) : Bitmap
    GetEmbeddedBitmap(type:Type, resouceName:string) : Bitmap
    GetAddinIcon(type:Type) : Bitmap
    <<internal>> IconsDir : DirectoryInfo <<get>>
    <<internal>> SaveAddinIcon(type:Type, iconFullFileName:string) : void
}
@enduml

PlantUML version 1.2022.5(Sat Apr 30 20:55:52 AEST 2022)
(GPL source distribution)
Java Runtime: OpenJDK Runtime Environment
JVM: OpenJDK 64-Bit Server VM
Default Encoding: Cp1252
Language: en
Country: AU
--></g></svg>