<?xml version="1.0" encoding="UTF-8" standalone="no"?><svg xmlns="http://www.w3.org/2000/svg" xmlns:xlink="http://www.w3.org/1999/xlink" contentStyleType="text/css" height="114px" preserveAspectRatio="none" style="width:426px;height:114px;background:#FFFFFF;" version="1.1" viewBox="0 0 426 114" width="426px" zoomAndPan="magnify"><defs/><g><!--MD5=[205d1c3add41148ef18e38bbd2fa7e79]
class TypeExtensions--><g id="elem_TypeExtensions"><rect codeLine="1" fill="#F1F1F1" height="93.9219" id="TypeExtensions" rx="2.5" ry="2.5" style="stroke:#181818;stroke-width:0.5;" width="405" x="7" y="7"/><ellipse cx="155.25" cy="28.3516" fill="#ADD1B2" rx="11" ry="11" style="stroke:#181818;stroke-width:1.0;"/><path d="M158.0156,24.2266 Q158.1719,24.0078 158.3594,23.8984 Q158.5469,23.7891 158.7656,23.7891 Q159.1406,23.7891 159.375,24.0547 Q159.6094,24.3047 159.6094,24.9141 L159.6094,26.3672 Q159.6094,26.9766 159.375,27.2422 Q159.1406,27.5078 158.7656,27.5078 Q158.4219,27.5078 158.2188,27.3047 Q158.0156,27.1172 157.9063,26.6016 Q157.8594,26.2422 157.6719,26.0547 Q157.3438,25.6797 156.7344,25.4609 Q156.125,25.2422 155.5,25.2422 Q154.7344,25.2422 154.0938,25.5703 Q153.4688,25.8984 152.9688,26.6484 Q152.4844,27.3984 152.4844,28.4297 L152.4844,29.5234 Q152.4844,30.7578 153.375,31.5859 Q154.2656,32.3984 155.8594,32.3984 Q156.7969,32.3984 157.4531,32.1484 Q157.8438,31.9922 158.2656,31.5547 Q158.5313,31.2891 158.6719,31.2109 Q158.8281,31.1328 159.0313,31.1328 Q159.3594,31.1328 159.6094,31.3984 Q159.875,31.6484 159.875,31.9922 Q159.875,32.3359 159.5313,32.7422 Q159.0313,33.3203 158.2344,33.6484 Q157.1563,34.1016 155.8594,34.1016 Q154.3438,34.1016 153.1406,33.4766 Q152.1563,32.9766 151.4688,31.9141 Q150.7813,30.8359 150.7813,29.5547 L150.7813,28.3984 Q150.7813,27.0703 151.3906,25.9297 Q152.0156,24.7734 153.1094,24.1641 Q154.2031,23.5391 155.4375,23.5391 Q156.1719,23.5391 156.8125,23.7109 Q157.4688,23.8672 158.0156,24.2266 Z " fill="#000000"/><text fill="#000000" font-family="sans-serif" font-size="12" font-style="italic" lengthAdjust="spacing" textLength="42" x="204.75" y="24.457">«static»</text><text fill="#000000" font-family="sans-serif" font-size="14" lengthAdjust="spacing" textLength="100" x="175.75" y="41.627">TypeExtensions</text><line style="stroke:#181818;stroke-width:0.5;" x1="8" x2="411" y1="49.7031" y2="49.7031"/><line style="stroke:#181818;stroke-width:0.5;" x1="8" x2="411" y1="57.7031" y2="57.7031"/><text fill="#000000" font-family="sans-serif" font-size="14" lengthAdjust="spacing" text-decoration="underline" textLength="393" x="13" y="76.2363">«internal» TryGetAttribute(type:Type, searchChildren:bool) : T</text><text fill="#000000" font-family="sans-serif" font-size="14" lengthAdjust="spacing" text-decoration="underline" textLength="208" x="13" y="93.8457">«internal» CastTo(self:object) : T</text></g><!--MD5=[10fcb0732b422d49619f547f86459d93]
@startuml
class TypeExtensions <<static>> {
    <<internal>> {static} TryGetAttribute(type:Type, searchChildren:bool) : T
    <<internal>> {static} CastTo(self:object) : T
}
@enduml

PlantUML version 1.2022.5(Sat Apr 30 20:55:52 AEST 2022)
(GPL source distribution)
Java Runtime: OpenJDK Runtime Environment
JVM: OpenJDK 64-Bit Server VM
Default Encoding: Cp1252
Language: en
Country: AU
--></g></svg>