<?xml version="1.0" encoding="UTF-8" standalone="no"?><svg xmlns="http://www.w3.org/2000/svg" xmlns:xlink="http://www.w3.org/1999/xlink" contentStyleType="text/css" height="240px" preserveAspectRatio="none" style="width:432px;height:240px;background:#FFFFFF;" version="1.1" viewBox="0 0 432 240" width="432px" zoomAndPan="magnify"><defs/><g><!--MD5=[95a1ab913d1df2c7418eddb1661f327b]
class PmpKeyStrokeEventArgs--><g id="elem_PmpKeyStrokeEventArgs"><rect codeLine="1" fill="#F1F1F1" height="118.4375" id="PmpKeyStrokeEventArgs" rx="2.5" ry="2.5" style="stroke:#181818;stroke-width:0.5;" width="418" x="7" y="115"/><ellipse cx="132.75" cy="131" fill="#ADD1B2" rx="11" ry="11" style="stroke:#181818;stroke-width:1.0;"/><path d="M135.5156,126.875 Q135.6719,126.6563 135.8594,126.5469 Q136.0469,126.4375 136.2656,126.4375 Q136.6406,126.4375 136.875,126.7031 Q137.1094,126.9531 137.1094,127.5625 L137.1094,129.0156 Q137.1094,129.625 136.875,129.8906 Q136.6406,130.1563 136.2656,130.1563 Q135.9219,130.1563 135.7188,129.9531 Q135.5156,129.7656 135.4063,129.25 Q135.3594,128.8906 135.1719,128.7031 Q134.8438,128.3281 134.2344,128.1094 Q133.625,127.8906 133,127.8906 Q132.2344,127.8906 131.5938,128.2188 Q130.9688,128.5469 130.4688,129.2969 Q129.9844,130.0469 129.9844,131.0781 L129.9844,132.1719 Q129.9844,133.4063 130.875,134.2344 Q131.7656,135.0469 133.3594,135.0469 Q134.2969,135.0469 134.9531,134.7969 Q135.3438,134.6406 135.7656,134.2031 Q136.0313,133.9375 136.1719,133.8594 Q136.3281,133.7813 136.5313,133.7813 Q136.8594,133.7813 137.1094,134.0469 Q137.375,134.2969 137.375,134.6406 Q137.375,134.9844 137.0313,135.3906 Q136.5313,135.9688 135.7344,136.2969 Q134.6563,136.75 133.3594,136.75 Q131.8438,136.75 130.6406,136.125 Q129.6563,135.625 128.9688,134.5625 Q128.2813,133.4844 128.2813,132.2031 L128.2813,131.0469 Q128.2813,129.7188 128.8906,128.5781 Q129.5156,127.4219 130.6094,126.8125 Q131.7031,126.1875 132.9375,126.1875 Q133.6719,126.1875 134.3125,126.3594 Q134.9688,126.5156 135.5156,126.875 Z " fill="#000000"/><text fill="#000000" font-family="sans-serif" font-size="14" lengthAdjust="spacing" textLength="158" x="153.25" y="136.7285">PmpKeyStrokeEventArgs</text><line style="stroke:#181818;stroke-width:0.5;" x1="8" x2="424" y1="147" y2="147"/><ellipse cx="18" cy="158" fill="none" rx="3" ry="3" style="stroke:#038048;stroke-width:1.0;"/><text fill="#000000" font-family="sans-serif" font-size="14" lengthAdjust="spacing" textLength="120" x="27" y="165.5332">Wparam : int «get»</text><ellipse cx="18" cy="175.6094" fill="none" rx="3" ry="3" style="stroke:#038048;stroke-width:1.0;"/><text fill="#000000" font-family="sans-serif" font-size="14" lengthAdjust="spacing" textLength="124" x="27" y="183.1426">Message : int «get»</text><ellipse cx="18" cy="193.2188" fill="none" rx="3" ry="3" style="stroke:#038048;stroke-width:1.0;"/><text fill="#000000" font-family="sans-serif" font-size="14" lengthAdjust="spacing" textLength="115" x="27" y="200.752">Lparam : int «get»</text><line style="stroke:#181818;stroke-width:0.5;" x1="8" x2="424" y1="207.8281" y2="207.8281"/><ellipse cx="18" cy="218.8281" fill="#84BE84" rx="3" ry="3" style="stroke:#038048;stroke-width:1.0;"/><text fill="#000000" font-family="sans-serif" font-size="14" lengthAdjust="spacing" textLength="392" x="27" y="226.3613">PmpKeyStrokeEventArgs(wParam:int, message:int, lParam:int)</text></g><!--MD5=[1c14bf0385f8259d3eee07ec9ae2327d]
class EventArgs--><g id="elem_EventArgs"><rect fill="#F1F1F1" height="48" id="EventArgs" rx="2.5" ry="2.5" style="stroke:#181818;stroke-width:0.5;" width="97" x="167.5" y="7"/><ellipse cx="182.5" cy="23" fill="#ADD1B2" rx="11" ry="11" style="stroke:#181818;stroke-width:1.0;"/><path d="M185.2656,18.875 Q185.4219,18.6563 185.6094,18.5469 Q185.7969,18.4375 186.0156,18.4375 Q186.3906,18.4375 186.625,18.7031 Q186.8594,18.9531 186.8594,19.5625 L186.8594,21.0156 Q186.8594,21.625 186.625,21.8906 Q186.3906,22.1563 186.0156,22.1563 Q185.6719,22.1563 185.4688,21.9531 Q185.2656,21.7656 185.1563,21.25 Q185.1094,20.8906 184.9219,20.7031 Q184.5938,20.3281 183.9844,20.1094 Q183.375,19.8906 182.75,19.8906 Q181.9844,19.8906 181.3438,20.2188 Q180.7188,20.5469 180.2188,21.2969 Q179.7344,22.0469 179.7344,23.0781 L179.7344,24.1719 Q179.7344,25.4063 180.625,26.2344 Q181.5156,27.0469 183.1094,27.0469 Q184.0469,27.0469 184.7031,26.7969 Q185.0938,26.6406 185.5156,26.2031 Q185.7813,25.9375 185.9219,25.8594 Q186.0781,25.7813 186.2813,25.7813 Q186.6094,25.7813 186.8594,26.0469 Q187.125,26.2969 187.125,26.6406 Q187.125,26.9844 186.7813,27.3906 Q186.2813,27.9688 185.4844,28.2969 Q184.4063,28.75 183.1094,28.75 Q181.5938,28.75 180.3906,28.125 Q179.4063,27.625 178.7188,26.5625 Q178.0313,25.4844 178.0313,24.2031 L178.0313,23.0469 Q178.0313,21.7188 178.6406,20.5781 Q179.2656,19.4219 180.3594,18.8125 Q181.4531,18.1875 182.6875,18.1875 Q183.4219,18.1875 184.0625,18.3594 Q184.7188,18.5156 185.2656,18.875 Z " fill="#000000"/><text fill="#000000" font-family="sans-serif" font-size="14" lengthAdjust="spacing" textLength="65" x="196.5" y="28.7285">EventArgs</text><line style="stroke:#181818;stroke-width:0.5;" x1="168.5" x2="263.5" y1="39" y2="39"/><line style="stroke:#181818;stroke-width:0.5;" x1="168.5" x2="263.5" y1="47" y2="47"/></g><!--MD5=[378a6138714c4099c86e0d657cbef29d]
reverse link EventArgs to PmpKeyStrokeEventArgs--><g id="link_EventArgs_PmpKeyStrokeEventArgs"><path codeLine="7" d="M216,75.33 C216,87.86 216,101.73 216,114.99 " fill="none" id="EventArgs-backto-PmpKeyStrokeEventArgs" style="stroke:#181818;stroke-width:1.0;"/><polygon fill="none" points="209,75.28,216,55.28,223,75.28,209,75.28" style="stroke:#181818;stroke-width:1.0;"/></g><!--MD5=[df49b222a8687a0685cf501bccdebfb3]
@startuml
class PmpKeyStrokeEventArgs {
    + PmpKeyStrokeEventArgs(wParam:int, message:int, lParam:int)
    + Wparam : int <<get>>
    + Message : int <<get>>
    + Lparam : int <<get>>
}
EventArgs <|- - PmpKeyStrokeEventArgs
@enduml

PlantUML version 1.2022.5(Sat Apr 30 20:55:52 AEST 2022)
(GPL source distribution)
Java Runtime: OpenJDK Runtime Environment
JVM: OpenJDK 64-Bit Server VM
Default Encoding: Cp1252
Language: en
Country: AU
--></g></svg>