<?xml version="1.0" encoding="UTF-8" standalone="no"?><svg xmlns="http://www.w3.org/2000/svg" xmlns:xlink="http://www.w3.org/1999/xlink" contentStyleType="text/css" height="315px" preserveAspectRatio="none" style="width:1112px;height:315px;background:#FFFFFF;" version="1.1" viewBox="0 0 1112 315" width="1112px" zoomAndPan="magnify"><defs/><g><!--MD5=[c527186311bc0b6d93dd9213ea8fa0c8]
class AddinCommand--><g id="elem_AddinCommand"><rect codeLine="1" fill="#F1F1F1" height="294.5313" id="AddinCommand" rx="2.5" ry="2.5" style="stroke:#181818;stroke-width:0.5;" width="1091" x="7" y="7"/><ellipse cx="498.25" cy="23" fill="#ADD1B2" rx="11" ry="11" style="stroke:#181818;stroke-width:1.0;"/><path d="M501.0156,18.875 Q501.1719,18.6563 501.3594,18.5469 Q501.5469,18.4375 501.7656,18.4375 Q502.1406,18.4375 502.375,18.7031 Q502.6094,18.9531 502.6094,19.5625 L502.6094,21.0156 Q502.6094,21.625 502.375,21.8906 Q502.1406,22.1563 501.7656,22.1563 Q501.4219,22.1563 501.2188,21.9531 Q501.0156,21.7656 500.9063,21.25 Q500.8594,20.8906 500.6719,20.7031 Q500.3438,20.3281 499.7344,20.1094 Q499.125,19.8906 498.5,19.8906 Q497.7344,19.8906 497.0938,20.2188 Q496.4688,20.5469 495.9688,21.2969 Q495.4844,22.0469 495.4844,23.0781 L495.4844,24.1719 Q495.4844,25.4063 496.375,26.2344 Q497.2656,27.0469 498.8594,27.0469 Q499.7969,27.0469 500.4531,26.7969 Q500.8438,26.6406 501.2656,26.2031 Q501.5313,25.9375 501.6719,25.8594 Q501.8281,25.7813 502.0313,25.7813 Q502.3594,25.7813 502.6094,26.0469 Q502.875,26.2969 502.875,26.6406 Q502.875,26.9844 502.5313,27.3906 Q502.0313,27.9688 501.2344,28.2969 Q500.1563,28.75 498.8594,28.75 Q497.3438,28.75 496.1406,28.125 Q495.1563,27.625 494.4688,26.5625 Q493.7813,25.4844 493.7813,24.2031 L493.7813,23.0469 Q493.7813,21.7188 494.3906,20.5781 Q495.0156,19.4219 496.1094,18.8125 Q497.2031,18.1875 498.4375,18.1875 Q499.1719,18.1875 499.8125,18.3594 Q500.4688,18.5156 501.0156,18.875 Z " fill="#000000"/><text fill="#000000" font-family="sans-serif" font-size="14" lengthAdjust="spacing" textLength="100" x="518.75" y="28.7285">AddinCommand</text><line style="stroke:#181818;stroke-width:0.5;" x1="8" x2="1097" y1="39" y2="39"/><ellipse cx="18" cy="50" fill="none" rx="3" ry="3" style="stroke:#038048;stroke-width:1.0;"/><text fill="#000000" font-family="sans-serif" font-size="14" lengthAdjust="spacing" textLength="164" x="27" y="57.5332">BoxId : int «get» «set» = 0</text><ellipse cx="18" cy="67.6094" fill="none" rx="3" ry="3" style="stroke:#038048;stroke-width:1.0;"/><text fill="#000000" font-family="sans-serif" font-size="14" lengthAdjust="spacing" textLength="139" x="27" y="75.1426">Index : int «get» «set»</text><ellipse cx="18" cy="85.2188" fill="none" rx="3" ry="3" style="stroke:#038048;stroke-width:1.0;"/><text fill="#000000" font-family="sans-serif" font-size="14" lengthAdjust="spacing" textLength="162" x="27" y="92.752">Name : string «get» «set»</text><ellipse cx="18" cy="102.8281" fill="none" rx="3" ry="3" style="stroke:#038048;stroke-width:1.0;"/><text fill="#000000" font-family="sans-serif" font-size="14" lengthAdjust="spacing" textLength="187" x="27" y="110.3613">HintString : string «get» «set»</text><ellipse cx="18" cy="120.4375" fill="none" rx="3" ry="3" style="stroke:#038048;stroke-width:1.0;"/><text fill="#000000" font-family="sans-serif" font-size="14" lengthAdjust="spacing" textLength="174" x="27" y="127.9707">ToolTip : string «get» «set»</text><ellipse cx="18" cy="138.0469" fill="none" rx="3" ry="3" style="stroke:#038048;stroke-width:1.0;"/><text fill="#000000" font-family="sans-serif" font-size="14" lengthAdjust="spacing" textLength="203" x="27" y="145.5801">IconBitmap : Bitmap «get» «set»</text><ellipse cx="18" cy="155.6563" fill="none" rx="3" ry="3" style="stroke:#038048;stroke-width:1.0;"/><text fill="#000000" font-family="sans-serif" font-size="14" lengthAdjust="spacing" textLength="236" x="27" y="163.1895">CallBackFunction : string «get» «set»</text><ellipse cx="18" cy="173.2656" fill="none" rx="3" ry="3" style="stroke:#038048;stroke-width:1.0;"/><text fill="#000000" font-family="sans-serif" font-size="14" lengthAdjust="spacing" textLength="251" x="27" y="180.7988">EnableMethode : string «get» «set» = ""</text><ellipse cx="18" cy="190.875" fill="none" rx="3" ry="3" style="stroke:#038048;stroke-width:1.0;"/><text fill="#000000" font-family="sans-serif" font-size="14" lengthAdjust="spacing" textLength="170" x="27" y="198.4082">UserId : int «get» «set» = 0</text><ellipse cx="18" cy="208.4844" fill="none" rx="3" ry="3" style="stroke:#038048;stroke-width:1.0;"/><text fill="#000000" font-family="sans-serif" font-size="14" lengthAdjust="spacing" textLength="184" x="27" y="216.0176">SolidworksId : int «get» «set»</text><ellipse cx="18" cy="226.0938" fill="none" rx="3" ry="3" style="stroke:#038048;stroke-width:1.0;"/><text fill="#000000" font-family="sans-serif" font-size="14" lengthAdjust="spacing" textLength="222" x="27" y="233.627">MenueOptions : int «get» «set» = 3</text><ellipse cx="18" cy="243.7031" fill="none" rx="3" ry="3" style="stroke:#038048;stroke-width:1.0;"/><text fill="#000000" font-family="sans-serif" font-size="14" lengthAdjust="spacing" textLength="278" x="27" y="251.2363">CommandTabTextType : int «get» «set» = 2</text><line style="stroke:#181818;stroke-width:0.5;" x1="8" x2="1097" y1="258.3125" y2="258.3125"/><ellipse cx="18" cy="269.3125" fill="#84BE84" rx="3" ry="3" style="stroke:#038048;stroke-width:1.0;"/><text fill="#000000" font-family="sans-serif" font-size="14" lengthAdjust="spacing" textLength="110" x="27" y="276.8457">AddinCommand()</text><ellipse cx="18" cy="286.9219" fill="#84BE84" rx="3" ry="3" style="stroke:#038048;stroke-width:1.0;"/><text fill="#000000" font-family="sans-serif" font-size="14" lengthAdjust="spacing" textLength="1065" x="27" y="294.4551">AddinCommand(name:string, hint:string, tooltipTitle:string, icon:Bitmap, nameofCallBackFunc:string, userId:short, menuOption:int, tabTextStyle:int, enableMethode:string)</text></g><!--MD5=[84a5a85614dd729e08f05c95f319e1f8]
@startuml
class AddinCommand {
    + AddinCommand()
    + AddinCommand(name:string, hint:string, tooltipTitle:string, icon:Bitmap, nameofCallBackFunc:string, userId:short, menuOption:int, tabTextStyle:int, enableMethode:string)
    + BoxId : int <<get>> <<set>> = 0
    + Index : int <<get>> <<set>>
    + Name : string <<get>> <<set>>
    + HintString : string <<get>> <<set>>
    + ToolTip : string <<get>> <<set>>
    + IconBitmap : Bitmap <<get>> <<set>>
    + CallBackFunction : string <<get>> <<set>>
    + EnableMethode : string <<get>> <<set>> = ""
    + UserId : int <<get>> <<set>> = 0
    + SolidworksId : int <<get>> <<set>>
    + MenueOptions : int <<get>> <<set>> = 3
    + CommandTabTextType : int <<get>> <<set>> = 2
}
@enduml

PlantUML version 1.2022.5(Sat Apr 30 20:55:52 AEST 2022)
(GPL source distribution)
Java Runtime: OpenJDK Runtime Environment
JVM: OpenJDK 64-Bit Server VM
Default Encoding: Cp1252
Language: en
Country: AU
--></g></svg>