<?xml version="1.0" encoding="UTF-8" standalone="no"?><svg xmlns="http://www.w3.org/2000/svg" xmlns:xlink="http://www.w3.org/1999/xlink" contentStyleType="text/css" height="768px" preserveAspectRatio="none" style="width:1074px;height:768px;background:#FFFFFF;" version="1.1" viewBox="0 0 1074 768" width="1074px" zoomAndPan="magnify"><defs/><g><!--MD5=[74e99b6adb965406d7cf89953aaa021a]
class PmpSelectionBox--><g id="elem_PmpSelectionBox"><rect codeLine="1" fill="#F1F1F1" height="646.7188" id="PmpSelectionBox" rx="2.5" ry="2.5" style="stroke:#181818;stroke-width:0.5;" width="1060" x="7" y="115"/><ellipse cx="478.25" cy="131" fill="#ADD1B2" rx="11" ry="11" style="stroke:#181818;stroke-width:1.0;"/><path d="M481.0156,126.875 Q481.1719,126.6563 481.3594,126.5469 Q481.5469,126.4375 481.7656,126.4375 Q482.1406,126.4375 482.375,126.7031 Q482.6094,126.9531 482.6094,127.5625 L482.6094,129.0156 Q482.6094,129.625 482.375,129.8906 Q482.1406,130.1563 481.7656,130.1563 Q481.4219,130.1563 481.2188,129.9531 Q481.0156,129.7656 480.9063,129.25 Q480.8594,128.8906 480.6719,128.7031 Q480.3438,128.3281 479.7344,128.1094 Q479.125,127.8906 478.5,127.8906 Q477.7344,127.8906 477.0938,128.2188 Q476.4688,128.5469 475.9688,129.2969 Q475.4844,130.0469 475.4844,131.0781 L475.4844,132.1719 Q475.4844,133.4063 476.375,134.2344 Q477.2656,135.0469 478.8594,135.0469 Q479.7969,135.0469 480.4531,134.7969 Q480.8438,134.6406 481.2656,134.2031 Q481.5313,133.9375 481.6719,133.8594 Q481.8281,133.7813 482.0313,133.7813 Q482.3594,133.7813 482.6094,134.0469 Q482.875,134.2969 482.875,134.6406 Q482.875,134.9844 482.5313,135.3906 Q482.0313,135.9688 481.2344,136.2969 Q480.1563,136.75 478.8594,136.75 Q477.3438,136.75 476.1406,136.125 Q475.1563,135.625 474.4688,134.5625 Q473.7813,133.4844 473.7813,132.2031 L473.7813,131.0469 Q473.7813,129.7188 474.3906,128.5781 Q475.0156,127.4219 476.1094,126.8125 Q477.2031,126.1875 478.4375,126.1875 Q479.1719,126.1875 479.8125,126.3594 Q480.4688,126.5156 481.0156,126.875 Z " fill="#000000"/><text fill="#000000" font-family="sans-serif" font-size="14" lengthAdjust="spacing" textLength="109" x="498.75" y="136.7285">PmpSelectionBox</text><line style="stroke:#181818;stroke-width:0.5;" x1="8" x2="1066" y1="147" y2="147"/><rect fill="none" height="6" style="stroke:#C82930;stroke-width:1.0;" width="6" x="15" y="155"/><text fill="#000000" font-family="sans-serif" font-size="14" lengthAdjust="spacing" textLength="143" x="27" y="165.5332">_callout : CalloutModel</text><rect fill="none" height="6" style="stroke:#C82930;stroke-width:1.0;" width="6" x="15" y="172.6094"/><text fill="#000000" font-family="sans-serif" font-size="14" lengthAdjust="spacing" textLength="131" x="27" y="183.1426">_calloutLabel : string</text><rect fill="none" height="6" style="stroke:#C82930;stroke-width:1.0;" width="6" x="15" y="190.2188"/><text fill="#000000" font-family="sans-serif" font-size="14" lengthAdjust="spacing" textLength="91" x="27" y="200.752">_height : short</text><rect fill="none" height="6" style="stroke:#C82930;stroke-width:1.0;" width="6" x="15" y="207.8281"/><text fill="#000000" font-family="sans-serif" font-size="14" lengthAdjust="spacing" textLength="252" x="27" y="218.3613">_filters : IEnumerable&lt;swSelectType_e&gt;</text><rect fill="none" height="6" style="stroke:#C82930;stroke-width:1.0;" width="6" x="15" y="225.4375"/><text fill="#000000" font-family="sans-serif" font-size="14" lengthAdjust="spacing" textLength="64" x="27" y="235.9707">_style : int</text><rect fill="none" height="6" style="stroke:#C82930;stroke-width:1.0;" width="6" x="15" y="243.0469"/><text fill="#000000" font-family="sans-serif" font-size="14" lengthAdjust="spacing" textLength="251" x="27" y="253.5801">_allowMultipleSelectOfSameEntity : bool</text><rect fill="none" height="6" style="stroke:#C82930;stroke-width:1.0;" width="6" x="15" y="260.6563"/><text fill="#000000" font-family="sans-serif" font-size="14" lengthAdjust="spacing" textLength="139" x="27" y="271.1895">_singleItemOnly : bool</text><ellipse cx="18" cy="281.2656" fill="none" rx="3" ry="3" style="stroke:#038048;stroke-width:1.0;"/><text fill="#000000" font-family="sans-serif" font-size="14" lengthAdjust="spacing" textLength="358" x="27" y="288.7988">PopUpMenueItems : List&lt;PopUpMenueItem&gt; «get» «set»</text><ellipse cx="18" cy="298.875" fill="none" rx="3" ry="3" style="stroke:#038048;stroke-width:1.0;"/><text fill="#000000" font-family="sans-serif" font-size="14" lengthAdjust="spacing" textLength="274" x="27" y="306.4082">CursorStyle : PmpCursorStyles «get» «set»</text><ellipse cx="18" cy="316.4844" fill="none" rx="3" ry="3" style="stroke:#038048;stroke-width:1.0;"/><text fill="#000000" font-family="sans-serif" font-size="14" lengthAdjust="spacing" textLength="286" x="27" y="324.0176">AllowSelectInMultipleBoxes : bool «get» «set»</text><ellipse cx="18" cy="334.0938" fill="none" rx="3" ry="3" style="stroke:#038048;stroke-width:1.0;"/><text fill="#000000" font-family="sans-serif" font-size="14" lengthAdjust="spacing" textLength="217" x="27" y="341.627">Callout : CalloutModel «get» «set»</text><ellipse cx="18" cy="351.7031" fill="none" rx="3" ry="3" style="stroke:#038048;stroke-width:1.0;"/><text fill="#000000" font-family="sans-serif" font-size="14" lengthAdjust="spacing" textLength="205" x="27" y="359.2363">CalloutLabel : string «get» «set»</text><ellipse cx="18" cy="369.3125" fill="none" rx="3" ry="3" style="stroke:#038048;stroke-width:1.0;"/><text fill="#000000" font-family="sans-serif" font-size="14" lengthAdjust="spacing" textLength="212" x="27" y="376.8457">CurrentSelection : int «get» «set»</text><ellipse cx="18" cy="386.9219" fill="none" rx="3" ry="3" style="stroke:#038048;stroke-width:1.0;"/><text fill="#000000" font-family="sans-serif" font-size="14" lengthAdjust="spacing" textLength="144" x="27" y="394.4551">IsFocused : bool «get»</text><ellipse cx="18" cy="404.5313" fill="none" rx="3" ry="3" style="stroke:#038048;stroke-width:1.0;"/><text fill="#000000" font-family="sans-serif" font-size="14" lengthAdjust="spacing" textLength="131" x="27" y="412.0645">ItemCount : int «get»</text><rect fill="none" height="6" style="stroke:#C82930;stroke-width:1.0;" width="6" x="15" y="419.1406"/><text fill="#000000" font-family="sans-serif" font-size="14" lengthAdjust="spacing" textLength="137" x="27" y="429.6738">Mark : int «get» «set»</text><ellipse cx="18" cy="439.75" fill="none" rx="3" ry="3" style="stroke:#038048;stroke-width:1.0;"/><text fill="#000000" font-family="sans-serif" font-size="14" lengthAdjust="spacing" textLength="358" x="27" y="447.2832">«event» FocusChanged : PmpSelectionBoxEventHandler</text><ellipse cx="18" cy="457.3594" fill="none" rx="3" ry="3" style="stroke:#038048;stroke-width:1.0;"/><text fill="#000000" font-family="sans-serif" font-size="14" lengthAdjust="spacing" textLength="359" x="27" y="464.8926">«event» CallOutCreated : PmpSelectionBoxEventHandler</text><ellipse cx="18" cy="474.9688" fill="none" rx="3" ry="3" style="stroke:#038048;stroke-width:1.0;"/><text fill="#000000" font-family="sans-serif" font-size="14" lengthAdjust="spacing" textLength="373" x="27" y="482.502">«event» CallOutDestroyed : PmpSelectionBoxEventHandler</text><ellipse cx="18" cy="492.5781" fill="none" rx="3" ry="3" style="stroke:#038048;stroke-width:1.0;"/><text fill="#000000" font-family="sans-serif" font-size="14" lengthAdjust="spacing" textLength="611" x="27" y="500.1113">«event» ListChanged : PmpSelectionBoxEventHandler&lt;PmpSelectionBoxListChangedEventArgs&gt;</text><ellipse cx="18" cy="510.1875" fill="none" rx="3" ry="3" style="stroke:#038048;stroke-width:1.0;"/><text fill="#000000" font-family="sans-serif" font-size="14" lengthAdjust="spacing" textLength="503" x="27" y="517.7207">«event» SelectionSubmitted : PmpSelectionBoxSelectionSubmittedEventHandler</text><ellipse cx="18" cy="527.7969" fill="none" rx="3" ry="3" style="stroke:#038048;stroke-width:1.0;"/><text fill="#000000" font-family="sans-serif" font-size="14" lengthAdjust="spacing" textLength="630" x="27" y="535.3301">«new»  «event» Displaying : PmpSelectionBoxEventHandler&lt;PmpSelectionBoxDisplayingEventArgs&gt;</text><line style="stroke:#181818;stroke-width:0.5;" x1="8" x2="1066" y1="542.4063" y2="542.4063"/><ellipse cx="18" cy="553.4063" fill="#84BE84" rx="3" ry="3" style="stroke:#038048;stroke-width:1.0;"/><text fill="#000000" font-family="sans-serif" font-size="14" lengthAdjust="spacing" textLength="1034" x="27" y="560.9395">PmpSelectionBox(filters:IEnumerable&lt;swSelectType_e&gt;, style:SelectionBoxStyles, allowMultipleSelectOfSameEntity:bool, singleItemOnly:bool, height:short, tip:string)</text><rect fill="#F24D5C" height="6" style="stroke:#C82930;stroke-width:1.0;" width="6" x="15" y="568.0156"/><text fill="#000000" font-family="sans-serif" font-size="14" lengthAdjust="spacing" textLength="702" x="27" y="578.5488">PmpSelectionBox_OnDisplay(sender:PmpSelectionBox, eventArgs:PmpSelectionBoxDisplayingEventArgs) : void</text><rect fill="#F24D5C" height="6" style="stroke:#C82930;stroke-width:1.0;" width="6" x="15" y="585.625"/><text fill="#000000" font-family="sans-serif" font-size="14" lengthAdjust="spacing" textLength="237" x="27" y="596.1582">PmpSelectionBox_OnRegister() : void</text><text fill="#000000" font-family="sans-serif" font-size="14" lengthAdjust="spacing" textLength="266" x="27" y="613.7676">«internal» FocusChangedCallback() : void</text><text fill="#000000" font-family="sans-serif" font-size="14" lengthAdjust="spacing" textLength="267" x="27" y="631.377">«internal» CallOutCreatedCallback() : void</text><text fill="#000000" font-family="sans-serif" font-size="14" lengthAdjust="spacing" textLength="281" x="27" y="648.9863">«internal» CallOutDestroyedCallback() : void</text><text fill="#000000" font-family="sans-serif" font-size="14" lengthAdjust="spacing" textLength="303" x="27" y="666.5957">«internal» ListChangedCallback(count:int) : void</text><text fill="#000000" font-family="sans-serif" font-size="14" lengthAdjust="spacing" textLength="532" x="27" y="684.2051">«internal» SubmitSelectionCallback(selection:object, selectType:int, tag:string) : bool</text><text fill="#000000" font-family="sans-serif" font-size="14" lengthAdjust="spacing" textLength="306" x="27" y="701.8145">«internal» «override» DisplayingCallback() : void</text><ellipse cx="18" cy="711.8906" fill="#84BE84" rx="3" ry="3" style="stroke:#038048;stroke-width:1.0;"/><text fill="#000000" font-family="sans-serif" font-size="14" lengthAdjust="spacing" textLength="180" x="27" y="719.4238">Append(items:object[]) : void</text><ellipse cx="18" cy="729.5" fill="#84BE84" rx="3" ry="3" style="stroke:#038048;stroke-width:1.0;"/><text fill="#000000" font-family="sans-serif" font-size="14" lengthAdjust="spacing" textLength="423" x="27" y="737.0332">GetItems() : IEnumerable&lt;KeyValuePair&lt;object, swSelectType_e&gt;&gt;</text><ellipse cx="18" cy="747.1094" fill="#84BE84" rx="3" ry="3" style="stroke:#038048;stroke-width:1.0;"/><text fill="#000000" font-family="sans-serif" font-size="14" lengthAdjust="spacing" textLength="381" x="27" y="754.6426">GetItem(index:uint) : KeyValuePair&lt;object, swSelectType_e&gt;</text></g><!--MD5=[22a3ac4e8783a88ac869ee0e2318b515]
class PmpControl`1--><g id="elem_PmpControl`1"><rect fill="#F1F1F1" height="48" id="PmpControl`1" rx="2.5" ry="2.5" style="stroke:#181818;stroke-width:0.5;" width="119" x="477.5" y="7"/><ellipse cx="492.5" cy="23" fill="#ADD1B2" rx="11" ry="11" style="stroke:#181818;stroke-width:1.0;"/><path d="M495.2656,18.875 Q495.4219,18.6563 495.6094,18.5469 Q495.7969,18.4375 496.0156,18.4375 Q496.3906,18.4375 496.625,18.7031 Q496.8594,18.9531 496.8594,19.5625 L496.8594,21.0156 Q496.8594,21.625 496.625,21.8906 Q496.3906,22.1563 496.0156,22.1563 Q495.6719,22.1563 495.4688,21.9531 Q495.2656,21.7656 495.1563,21.25 Q495.1094,20.8906 494.9219,20.7031 Q494.5938,20.3281 493.9844,20.1094 Q493.375,19.8906 492.75,19.8906 Q491.9844,19.8906 491.3438,20.2188 Q490.7188,20.5469 490.2188,21.2969 Q489.7344,22.0469 489.7344,23.0781 L489.7344,24.1719 Q489.7344,25.4063 490.625,26.2344 Q491.5156,27.0469 493.1094,27.0469 Q494.0469,27.0469 494.7031,26.7969 Q495.0938,26.6406 495.5156,26.2031 Q495.7813,25.9375 495.9219,25.8594 Q496.0781,25.7813 496.2813,25.7813 Q496.6094,25.7813 496.8594,26.0469 Q497.125,26.2969 497.125,26.6406 Q497.125,26.9844 496.7813,27.3906 Q496.2813,27.9688 495.4844,28.2969 Q494.4063,28.75 493.1094,28.75 Q491.5938,28.75 490.3906,28.125 Q489.4063,27.625 488.7188,26.5625 Q488.0313,25.4844 488.0313,24.2031 L488.0313,23.0469 Q488.0313,21.7188 488.6406,20.5781 Q489.2656,19.4219 490.3594,18.8125 Q491.4531,18.1875 492.6875,18.1875 Q493.4219,18.1875 494.0625,18.3594 Q494.7188,18.5156 495.2656,18.875 Z " fill="#000000"/><text fill="#000000" font-family="sans-serif" font-size="14" lengthAdjust="spacing" textLength="87" x="506.5" y="28.7285">PmpControl`1</text><line style="stroke:#181818;stroke-width:0.5;" x1="478.5" x2="595.5" y1="39" y2="39"/><line style="stroke:#181818;stroke-width:0.5;" x1="478.5" x2="595.5" y1="47" y2="47"/></g><!--MD5=[13a5bf12fdaaf3842687ff0eba0bd667]
reverse link PmpControl`1 to PmpSelectionBox--><g id="link_PmpControl`1_PmpSelectionBox"><path codeLine="37" d="M537,75.49 C537,86.96 537,100.28 537,114.88 " fill="none" id="PmpControl`1-backto-PmpSelectionBox" style="stroke:#181818;stroke-width:1.0;"/><polygon fill="none" points="530,75.26,537,55.26,544,75.26,530,75.26" style="stroke:#181818;stroke-width:1.0;"/><text fill="#000000" font-family="sans-serif" font-size="13" lengthAdjust="spacing" textLength="223" x="286.8219" y="76.6613">&lt;IPropertyManagerPageSelectionbox&gt;</text></g><!--MD5=[f603cc89b19651792de1221bbd8b154f]
@startuml
class PmpSelectionBox {
    - _callout : CalloutModel
    - _calloutLabel : string
    - _height : short
    - _filters : IEnumerable<swSelectType_e>
    - _style : int
    - _allowMultipleSelectOfSameEntity : bool
    - _singleItemOnly : bool
    + PmpSelectionBox(filters:IEnumerable<swSelectType_e>, style:SelectionBoxStyles, allowMultipleSelectOfSameEntity:bool, singleItemOnly:bool, height:short, tip:string)
    - PmpSelectionBox_OnDisplay(sender:PmpSelectionBox, eventArgs:PmpSelectionBoxDisplayingEventArgs) : void
    - PmpSelectionBox_OnRegister() : void
    <<internal>> FocusChangedCallback() : void
    <<internal>> CallOutCreatedCallback() : void
    <<internal>> CallOutDestroyedCallback() : void
    <<internal>> ListChangedCallback(count:int) : void
    <<internal>> SubmitSelectionCallback(selection:object, selectType:int, tag:string) : bool
    <<internal>> <<override>> DisplayingCallback() : void
    + PopUpMenueItems : List<PopUpMenueItem> <<get>> <<set>>
    + CursorStyle : PmpCursorStyles <<get>> <<set>>
    + AllowSelectInMultipleBoxes : bool <<get>> <<set>>
    + Callout : CalloutModel <<get>> <<set>>
    + CalloutLabel : string <<get>> <<set>>
    + CurrentSelection : int <<get>> <<set>>
    + IsFocused : bool <<get>>
    + ItemCount : int <<get>>
    - Mark : int <<get>> <<set>>
    + Append(items:object[]) : void
    + GetItems() : IEnumerable<KeyValuePair<object, swSelectType_e>>
    + GetItem(index:uint) : KeyValuePair<object, swSelectType_e>
    +  <<event>> FocusChanged : PmpSelectionBoxEventHandler 
    +  <<event>> CallOutCreated : PmpSelectionBoxEventHandler 
    +  <<event>> CallOutDestroyed : PmpSelectionBoxEventHandler 
    +  <<event>> ListChanged : PmpSelectionBoxEventHandler<PmpSelectionBoxListChangedEventArgs> 
    +  <<event>> SelectionSubmitted : PmpSelectionBoxSelectionSubmittedEventHandler 
    + <<new>>  <<event>> Displaying : PmpSelectionBoxEventHandler<PmpSelectionBoxDisplayingEventArgs> 
}
"PmpControl`1" "<IPropertyManagerPageSelectionbox>" <|- - PmpSelectionBox
@enduml

PlantUML version 1.2022.5(Sat Apr 30 20:55:52 AEST 2022)
(GPL source distribution)
Java Runtime: OpenJDK Runtime Environment
JVM: OpenJDK 64-Bit Server VM
Default Encoding: Cp1252
Language: en
Country: AU
--></g></svg>