<?xml version="1.0" encoding="UTF-8" standalone="no"?><svg xmlns="http://www.w3.org/2000/svg" xmlns:xlink="http://www.w3.org/1999/xlink" contentStyleType="text/css" height="592px" preserveAspectRatio="none" style="width:567px;height:592px;background:#FFFFFF;" version="1.1" viewBox="0 0 567 592" width="567px" zoomAndPan="magnify"><defs/><g><!--MD5=[1eab5db66f36077dd00e46d2c26d316b]
class PmpGroup--><g id="elem_PmpGroup"><rect codeLine="1" fill="#F1F1F1" height="470.625" id="PmpGroup" rx="2.5" ry="2.5" style="stroke:#181818;stroke-width:0.5;" width="551" x="9" y="115"/><ellipse cx="246.25" cy="131" fill="#ADD1B2" rx="11" ry="11" style="stroke:#181818;stroke-width:1.0;"/><path d="M249.0156,126.875 Q249.1719,126.6563 249.3594,126.5469 Q249.5469,126.4375 249.7656,126.4375 Q250.1406,126.4375 250.375,126.7031 Q250.6094,126.9531 250.6094,127.5625 L250.6094,129.0156 Q250.6094,129.625 250.375,129.8906 Q250.1406,130.1563 249.7656,130.1563 Q249.4219,130.1563 249.2188,129.9531 Q249.0156,129.7656 248.9063,129.25 Q248.8594,128.8906 248.6719,128.7031 Q248.3438,128.3281 247.7344,128.1094 Q247.125,127.8906 246.5,127.8906 Q245.7344,127.8906 245.0938,128.2188 Q244.4688,128.5469 243.9688,129.2969 Q243.4844,130.0469 243.4844,131.0781 L243.4844,132.1719 Q243.4844,133.4063 244.375,134.2344 Q245.2656,135.0469 246.8594,135.0469 Q247.7969,135.0469 248.4531,134.7969 Q248.8438,134.6406 249.2656,134.2031 Q249.5313,133.9375 249.6719,133.8594 Q249.8281,133.7813 250.0313,133.7813 Q250.3594,133.7813 250.6094,134.0469 Q250.875,134.2969 250.875,134.6406 Q250.875,134.9844 250.5313,135.3906 Q250.0313,135.9688 249.2344,136.2969 Q248.1563,136.75 246.8594,136.75 Q245.3438,136.75 244.1406,136.125 Q243.1563,135.625 242.4688,134.5625 Q241.7813,133.4844 241.7813,132.2031 L241.7813,131.0469 Q241.7813,129.7188 242.3906,128.5781 Q243.0156,127.4219 244.1094,126.8125 Q245.2031,126.1875 246.4375,126.1875 Q247.1719,126.1875 247.8125,126.3594 Q248.4688,126.5156 249.0156,126.875 Z " fill="#000000"/><text fill="#000000" font-family="sans-serif" font-size="14" lengthAdjust="spacing" textLength="68" x="266.75" y="136.7285">PmpGroup</text><line style="stroke:#181818;stroke-width:0.5;" x1="10" x2="559" y1="147" y2="147"/><rect fill="none" height="6" style="stroke:#C82930;stroke-width:1.0;" width="6" x="17" y="155"/><text fill="#000000" font-family="sans-serif" font-size="14" lengthAdjust="spacing" textLength="186" x="29" y="165.5332">_backgroundColor : SysColor</text><rect fill="none" height="6" style="stroke:#C82930;stroke-width:1.0;" width="6" x="17" y="172.6094"/><text fill="#000000" font-family="sans-serif" font-size="14" lengthAdjust="spacing" textLength="86" x="29" y="183.1426">_visible : bool</text><rect fill="none" height="6" style="stroke:#C82930;stroke-width:1.0;" width="6" x="17" y="190.2188"/><text fill="#000000" font-family="sans-serif" font-size="14" lengthAdjust="spacing" textLength="101" x="29" y="200.752">_caption : string</text><polygon fill="none" points="20,205.8281,24,209.8281,20,213.8281,16,209.8281" style="stroke:#B38D22;stroke-width:1.0;"/><text fill="#000000" font-family="sans-serif" font-size="14" lengthAdjust="spacing" textLength="235" x="29" y="218.3613">_options : swAddGroupBoxOptions_e</text><rect fill="none" height="6" style="stroke:#C82930;stroke-width:1.0;" width="6" x="17" y="225.4375"/><text fill="#000000" font-family="sans-serif" font-size="14" lengthAdjust="spacing" textLength="120" x="29" y="235.9707">_isExpanded : bool</text><ellipse cx="20" cy="246.0469" fill="none" rx="3" ry="3" style="stroke:#038048;stroke-width:1.0;"/><text fill="#000000" font-family="sans-serif" font-size="14" lengthAdjust="spacing" textLength="168" x="29" y="253.5801">Id : int «get» «internal set»</text><ellipse cx="20" cy="263.6563" fill="none" rx="3" ry="3" style="stroke:#038048;stroke-width:1.0;"/><text fill="#000000" font-family="sans-serif" font-size="14" lengthAdjust="spacing" textLength="159" x="29" y="271.1895">Visible : bool «get» «set»</text><ellipse cx="20" cy="281.2656" fill="none" rx="3" ry="3" style="stroke:#038048;stroke-width:1.0;"/><text fill="#000000" font-family="sans-serif" font-size="14" lengthAdjust="spacing" textLength="175" x="29" y="288.7988">Caption : string «get» «set»</text><ellipse cx="20" cy="298.875" fill="none" rx="3" ry="3" style="stroke:#038048;stroke-width:1.0;"/><text fill="#000000" font-family="sans-serif" font-size="14" lengthAdjust="spacing" textLength="191" x="29" y="306.4082">IsExpanded : bool «get» «set»</text><ellipse cx="20" cy="316.4844" fill="none" rx="3" ry="3" style="stroke:#038048;stroke-width:1.0;"/><text fill="#000000" font-family="sans-serif" font-size="14" lengthAdjust="spacing" textLength="310" x="29" y="324.0176">Controls : List&lt;IPmpControl&gt; «get» «internal set»</text><ellipse cx="20" cy="334.0938" fill="none" rx="3" ry="3" style="stroke:#038048;stroke-width:1.0;"/><text fill="#000000" font-family="sans-serif" font-size="14" lengthAdjust="spacing" textLength="346" x="29" y="341.627">SolidworksObject : IPropertyManagerPageGroup «get»</text><ellipse cx="20" cy="351.7031" fill="none" rx="3" ry="3" style="stroke:#038048;stroke-width:1.0;"/><text fill="#000000" font-family="sans-serif" font-size="14" lengthAdjust="spacing" textLength="258" x="29" y="359.2363">BackgroundColor : SysColor «get» «set»</text><ellipse cx="20" cy="369.3125" fill="none" rx="3" ry="3" style="stroke:#038048;stroke-width:1.0;"/><text fill="#000000" font-family="sans-serif" font-size="14" lengthAdjust="spacing" textLength="202" x="29" y="376.8457">OnRegister : Action «get» «set»</text><ellipse cx="20" cy="386.9219" fill="none" rx="3" ry="3" style="stroke:#038048;stroke-width:1.0;"/><text fill="#000000" font-family="sans-serif" font-size="14" lengthAdjust="spacing" textLength="217" x="29" y="394.4551">«event» Displaying : EventHandler</text><ellipse cx="20" cy="404.5313" fill="none" rx="3" ry="3" style="stroke:#038048;stroke-width:1.0;"/><text fill="#000000" font-family="sans-serif" font-size="14" lengthAdjust="spacing" textLength="258" x="29" y="412.0645">«event» Expanded : EventHandler&lt;bool&gt;</text><line style="stroke:#181818;stroke-width:0.5;" x1="10" x2="559" y1="419.1406" y2="419.1406"/><ellipse cx="20" cy="430.1406" fill="#84BE84" rx="3" ry="3" style="stroke:#038048;stroke-width:1.0;"/><text fill="#000000" font-family="sans-serif" font-size="14" lengthAdjust="spacing" textLength="342" x="29" y="437.6738">PmpGroup(caption:string, expanded:bool, visible:bool)</text><ellipse cx="20" cy="447.75" fill="#84BE84" rx="3" ry="3" style="stroke:#038048;stroke-width:1.0;"/><text fill="#000000" font-family="sans-serif" font-size="14" lengthAdjust="spacing" textLength="525" x="29" y="455.2832">PmpGroup(Caption:string, Controls:List&lt;IPmpControl&gt;, expanded:bool, visible:bool)</text><ellipse cx="20" cy="465.3594" fill="#84BE84" rx="3" ry="3" style="stroke:#038048;stroke-width:1.0;"/><text fill="#000000" font-family="sans-serif" font-size="14" lengthAdjust="spacing" textLength="243" x="29" y="472.8926">AddControl(control:IPmpControl) : void</text><ellipse cx="20" cy="482.9688" fill="#84BE84" rx="3" ry="3" style="stroke:#038048;stroke-width:1.0;"/><text fill="#000000" font-family="sans-serif" font-size="14" lengthAdjust="spacing" textLength="352" x="29" y="490.502">AddControls(controls:IEnumerable&lt;IPmpControl&gt;) : void</text><rect fill="#F24D5C" height="6" style="stroke:#C82930;stroke-width:1.0;" width="6" x="17" y="497.5781"/><text fill="#000000" font-family="sans-serif" font-size="14" lengthAdjust="spacing" textLength="154" x="29" y="508.1113">RegisterControls() : void</text><text fill="#000000" font-family="sans-serif" font-size="14" lengthAdjust="spacing" textLength="468" x="29" y="525.7207">«internal» Register(propertyManagerPage:IPropertyManagerPage2) : void</text><text fill="#000000" font-family="sans-serif" font-size="14" lengthAdjust="spacing" textLength="510" x="29" y="543.3301">«internal» Register(propertyManagerPageTab:IPropertyManagerPageTab) : void</text><text fill="#000000" font-family="sans-serif" font-size="14" lengthAdjust="spacing" textLength="241" x="29" y="560.9395">«internal» GroupExpand(e:bool) : void</text><text fill="#000000" font-family="sans-serif" font-size="14" lengthAdjust="spacing" textLength="161" x="29" y="578.5488">«internal» Display() : void</text></g><!--MD5=[ab8e484bdef87b57c10aff892c535b8f]
class IWrapSolidworksObject`1--><g id="elem_IWrapSolidworksObject`1"><rect fill="#F1F1F1" height="48" id="IWrapSolidworksObject`1" rx="2.5" ry="2.5" style="stroke:#181818;stroke-width:0.5;" width="190" x="189.5" y="7"/><ellipse cx="204.5" cy="23" fill="#ADD1B2" rx="11" ry="11" style="stroke:#181818;stroke-width:1.0;"/><path d="M207.2656,18.875 Q207.4219,18.6563 207.6094,18.5469 Q207.7969,18.4375 208.0156,18.4375 Q208.3906,18.4375 208.625,18.7031 Q208.8594,18.9531 208.8594,19.5625 L208.8594,21.0156 Q208.8594,21.625 208.625,21.8906 Q208.3906,22.1563 208.0156,22.1563 Q207.6719,22.1563 207.4688,21.9531 Q207.2656,21.7656 207.1563,21.25 Q207.1094,20.8906 206.9219,20.7031 Q206.5938,20.3281 205.9844,20.1094 Q205.375,19.8906 204.75,19.8906 Q203.9844,19.8906 203.3438,20.2188 Q202.7188,20.5469 202.2188,21.2969 Q201.7344,22.0469 201.7344,23.0781 L201.7344,24.1719 Q201.7344,25.4063 202.625,26.2344 Q203.5156,27.0469 205.1094,27.0469 Q206.0469,27.0469 206.7031,26.7969 Q207.0938,26.6406 207.5156,26.2031 Q207.7813,25.9375 207.9219,25.8594 Q208.0781,25.7813 208.2813,25.7813 Q208.6094,25.7813 208.8594,26.0469 Q209.125,26.2969 209.125,26.6406 Q209.125,26.9844 208.7813,27.3906 Q208.2813,27.9688 207.4844,28.2969 Q206.4063,28.75 205.1094,28.75 Q203.5938,28.75 202.3906,28.125 Q201.4063,27.625 200.7188,26.5625 Q200.0313,25.4844 200.0313,24.2031 L200.0313,23.0469 Q200.0313,21.7188 200.6406,20.5781 Q201.2656,19.4219 202.3594,18.8125 Q203.4531,18.1875 204.6875,18.1875 Q205.4219,18.1875 206.0625,18.3594 Q206.7188,18.5156 207.2656,18.875 Z " fill="#000000"/><text fill="#000000" font-family="sans-serif" font-size="14" lengthAdjust="spacing" textLength="158" x="218.5" y="28.7285">IWrapSolidworksObject`1</text><line style="stroke:#181818;stroke-width:0.5;" x1="190.5" x2="378.5" y1="39" y2="39"/><line style="stroke:#181818;stroke-width:0.5;" x1="190.5" x2="378.5" y1="47" y2="47"/></g><!--MD5=[bfc852fe71f05e05678ba3a7f20b8ade]
reverse link IWrapSolidworksObject`1 to PmpGroup--><g id="link_IWrapSolidworksObject`1_PmpGroup"><path codeLine="27" d="M284.5,75.1 C284.5,86.77 284.5,100.26 284.5,114.87 " fill="none" id="IWrapSolidworksObject`1-backto-PmpGroup" style="stroke:#181818;stroke-width:1.0;"/><polygon fill="none" points="277.5,75.09,284.5,55.09,291.5,75.09,277.5,75.09" style="stroke:#181818;stroke-width:1.0;"/><text fill="#000000" font-family="sans-serif" font-size="13" lengthAdjust="spacing" textLength="183" x="79.1969" y="76.4499">&lt;IPropertyManagerPageGroup&gt;</text></g><!--MD5=[ba1c3716c389b68320c252cfbf285b7c]
@startuml
class PmpGroup {
    - _backgroundColor : SysColor
    - _visible : bool
    - _caption : string
    # _options : swAddGroupBoxOptions_e
    - _isExpanded : bool
    + PmpGroup(caption:string, expanded:bool, visible:bool)
    + PmpGroup(Caption:string, Controls:List<IPmpControl>, expanded:bool, visible:bool)
    + Id : int <<get>> <<internal set>>
    + Visible : bool <<get>> <<set>>
    + Caption : string <<get>> <<set>>
    + IsExpanded : bool <<get>> <<set>>
    + Controls : List<IPmpControl> <<get>> <<internal set>>
    + SolidworksObject : IPropertyManagerPageGroup <<get>>
    + AddControl(control:IPmpControl) : void
    + AddControls(controls:IEnumerable<IPmpControl>) : void
    + BackgroundColor : SysColor <<get>> <<set>>
    - RegisterControls() : void
    <<internal>> Register(propertyManagerPage:IPropertyManagerPage2) : void
    <<internal>> Register(propertyManagerPageTab:IPropertyManagerPageTab) : void
    + OnRegister : Action <<get>> <<set>>
    +  <<event>> Displaying : EventHandler 
    +  <<event>> Expanded : EventHandler<bool> 
    <<internal>> GroupExpand(e:bool) : void
    <<internal>> Display() : void
}
"IWrapSolidworksObject`1" "<IPropertyManagerPageGroup>" <|- - PmpGroup
@enduml

PlantUML version 1.2022.5(Sat Apr 30 20:55:52 AEST 2022)
(GPL source distribution)
Java Runtime: OpenJDK Runtime Environment
JVM: OpenJDK 64-Bit Server VM
Default Encoding: Cp1252
Language: en
Country: AU
--></g></svg>