<?xml version="1.0" encoding="UTF-8" standalone="no"?><svg xmlns="http://www.w3.org/2000/svg" xmlns:xlink="http://www.w3.org/1999/xlink" contentStyleType="text/css" height="205px" preserveAspectRatio="none" style="width:347px;height:205px;background:#FFFFFF;" version="1.1" viewBox="0 0 347 205" width="347px" zoomAndPan="magnify"><defs/><g><!--MD5=[a1fac902420df120ac26d241e67b82b7]
class PmpButton--><g id="elem_PmpButton"><rect codeLine="1" fill="#F1F1F1" height="83.2188" id="PmpButton" rx="2.5" ry="2.5" style="stroke:#181818;stroke-width:0.5;" width="252" x="88.6688" y="115"/><ellipse cx="175.9188" cy="131" fill="#ADD1B2" rx="11" ry="11" style="stroke:#181818;stroke-width:1.0;"/><path d="M178.6844,126.875 Q178.8406,126.6563 179.0281,126.5469 Q179.2156,126.4375 179.4344,126.4375 Q179.8094,126.4375 180.0438,126.7031 Q180.2781,126.9531 180.2781,127.5625 L180.2781,129.0156 Q180.2781,129.625 180.0438,129.8906 Q179.8094,130.1563 179.4344,130.1563 Q179.0906,130.1563 178.8875,129.9531 Q178.6844,129.7656 178.575,129.25 Q178.5281,128.8906 178.3406,128.7031 Q178.0125,128.3281 177.4031,128.1094 Q176.7938,127.8906 176.1688,127.8906 Q175.4031,127.8906 174.7625,128.2188 Q174.1375,128.5469 173.6375,129.2969 Q173.1531,130.0469 173.1531,131.0781 L173.1531,132.1719 Q173.1531,133.4063 174.0438,134.2344 Q174.9344,135.0469 176.5281,135.0469 Q177.4656,135.0469 178.1219,134.7969 Q178.5125,134.6406 178.9344,134.2031 Q179.2,133.9375 179.3406,133.8594 Q179.4969,133.7813 179.7,133.7813 Q180.0281,133.7813 180.2781,134.0469 Q180.5438,134.2969 180.5438,134.6406 Q180.5438,134.9844 180.2,135.3906 Q179.7,135.9688 178.9031,136.2969 Q177.825,136.75 176.5281,136.75 Q175.0125,136.75 173.8094,136.125 Q172.825,135.625 172.1375,134.5625 Q171.45,133.4844 171.45,132.2031 L171.45,131.0469 Q171.45,129.7188 172.0594,128.5781 Q172.6844,127.4219 173.7781,126.8125 Q174.8719,126.1875 176.1063,126.1875 Q176.8406,126.1875 177.4813,126.3594 Q178.1375,126.5156 178.6844,126.875 Z " fill="#000000"/><text fill="#000000" font-family="sans-serif" font-size="14" lengthAdjust="spacing" textLength="69" x="196.4188" y="136.7285">PmpButton</text><line style="stroke:#181818;stroke-width:0.5;" x1="89.6688" x2="339.6688" y1="147" y2="147"/><line style="stroke:#181818;stroke-width:0.5;" x1="89.6688" x2="339.6688" y1="155" y2="155"/><ellipse cx="99.6688" cy="166" fill="#84BE84" rx="3" ry="3" style="stroke:#038048;stroke-width:1.0;"/><text fill="#000000" font-family="sans-serif" font-size="14" lengthAdjust="spacing" textLength="226" x="108.6688" y="173.5332">PmpButton(caption:string, tip:string)</text><rect fill="#F24D5C" height="6" style="stroke:#C82930;stroke-width:1.0;" width="6" x="96.6688" y="180.6094"/><text fill="#000000" font-family="sans-serif" font-size="14" lengthAdjust="spacing" textLength="197" x="108.6688" y="191.1426">PmpButton_OnRegister() : void</text></g><!--MD5=[a536e09294ad4478e1b04fd841d50eb7]
class PmpButtonBase`1--><g id="elem_PmpButtonBase`1"><rect fill="#F1F1F1" height="48" id="PmpButtonBase`1" rx="2.5" ry="2.5" style="stroke:#181818;stroke-width:0.5;" width="146" x="141.6688" y="7"/><ellipse cx="156.6688" cy="23" fill="#ADD1B2" rx="11" ry="11" style="stroke:#181818;stroke-width:1.0;"/><path d="M159.4344,18.875 Q159.5906,18.6563 159.7781,18.5469 Q159.9656,18.4375 160.1844,18.4375 Q160.5594,18.4375 160.7938,18.7031 Q161.0281,18.9531 161.0281,19.5625 L161.0281,21.0156 Q161.0281,21.625 160.7938,21.8906 Q160.5594,22.1563 160.1844,22.1563 Q159.8406,22.1563 159.6375,21.9531 Q159.4344,21.7656 159.325,21.25 Q159.2781,20.8906 159.0906,20.7031 Q158.7625,20.3281 158.1531,20.1094 Q157.5438,19.8906 156.9188,19.8906 Q156.1531,19.8906 155.5125,20.2188 Q154.8875,20.5469 154.3875,21.2969 Q153.9031,22.0469 153.9031,23.0781 L153.9031,24.1719 Q153.9031,25.4063 154.7938,26.2344 Q155.6844,27.0469 157.2781,27.0469 Q158.2156,27.0469 158.8719,26.7969 Q159.2625,26.6406 159.6844,26.2031 Q159.95,25.9375 160.0906,25.8594 Q160.2469,25.7813 160.45,25.7813 Q160.7781,25.7813 161.0281,26.0469 Q161.2938,26.2969 161.2938,26.6406 Q161.2938,26.9844 160.95,27.3906 Q160.45,27.9688 159.6531,28.2969 Q158.575,28.75 157.2781,28.75 Q155.7625,28.75 154.5594,28.125 Q153.575,27.625 152.8875,26.5625 Q152.2,25.4844 152.2,24.2031 L152.2,23.0469 Q152.2,21.7188 152.8094,20.5781 Q153.4344,19.4219 154.5281,18.8125 Q155.6219,18.1875 156.8563,18.1875 Q157.5906,18.1875 158.2313,18.3594 Q158.8875,18.5156 159.4344,18.875 Z " fill="#000000"/><text fill="#000000" font-family="sans-serif" font-size="14" lengthAdjust="spacing" textLength="114" x="170.6688" y="28.7285">PmpButtonBase`1</text><line style="stroke:#181818;stroke-width:0.5;" x1="142.6688" x2="286.6688" y1="39" y2="39"/><line style="stroke:#181818;stroke-width:0.5;" x1="142.6688" x2="286.6688" y1="47" y2="47"/></g><!--MD5=[bc6bc46574b86ec1bbe747d9c71c1e21]
reverse link PmpButtonBase`1 to PmpButton--><g id="link_PmpButtonBase`1_PmpButton"><path codeLine="5" d="M214.6688,75.31 C214.6688,88.16 214.6688,102.19 214.6688,114.87 " fill="none" id="PmpButtonBase`1-backto-PmpButton" style="stroke:#181818;stroke-width:1.0;"/><polygon fill="none" points="207.6688,75.23,214.6688,55.23,221.6688,75.23,207.6688,75.23" style="stroke:#181818;stroke-width:1.0;"/><text fill="#000000" font-family="sans-serif" font-size="13" lengthAdjust="spacing" textLength="186" x="6" y="76.624">&lt;IPropertyManagerPageButton&gt;</text></g><!--MD5=[db10b72a201932a8087ad43cf6ad2029]
@startuml
class PmpButton {
    + PmpButton(caption:string, tip:string)
    - PmpButton_OnRegister() : void
}
"PmpButtonBase`1" "<IPropertyManagerPageButton>" <|- - PmpButton
@enduml

PlantUML version 1.2022.5(Sat Apr 30 20:55:52 AEST 2022)
(GPL source distribution)
Java Runtime: OpenJDK Runtime Environment
JVM: OpenJDK 64-Bit Server VM
Default Encoding: Cp1252
Language: en
Country: AU
--></g></svg>