<?xml version="1.0" encoding="UTF-8" standalone="no"?><svg xmlns="http://www.w3.org/2000/svg" xmlns:xlink="http://www.w3.org/1999/xlink" contentStyleType="text/css" height="205px" preserveAspectRatio="none" style="width:281px;height:205px;background:#FFFFFF;" version="1.1" viewBox="0 0 281 205" width="281px" zoomAndPan="magnify"><defs/><g><!--MD5=[6030466b6c7bbf3cfe86f9b9fdd226ad]
class PmpFactoryX64--><g id="elem_PmpFactoryX64"><rect codeLine="1" fill="#F1F1F1" height="83.2188" id="PmpFactoryX64" rx="2.5" ry="2.5" style="stroke:#181818;stroke-width:0.5;" width="267" x="7" y="115"/><ellipse cx="86.25" cy="131" fill="#ADD1B2" rx="11" ry="11" style="stroke:#181818;stroke-width:1.0;"/><path d="M89.0156,126.875 Q89.1719,126.6563 89.3594,126.5469 Q89.5469,126.4375 89.7656,126.4375 Q90.1406,126.4375 90.375,126.7031 Q90.6094,126.9531 90.6094,127.5625 L90.6094,129.0156 Q90.6094,129.625 90.375,129.8906 Q90.1406,130.1563 89.7656,130.1563 Q89.4219,130.1563 89.2188,129.9531 Q89.0156,129.7656 88.9063,129.25 Q88.8594,128.8906 88.6719,128.7031 Q88.3438,128.3281 87.7344,128.1094 Q87.125,127.8906 86.5,127.8906 Q85.7344,127.8906 85.0938,128.2188 Q84.4688,128.5469 83.9688,129.2969 Q83.4844,130.0469 83.4844,131.0781 L83.4844,132.1719 Q83.4844,133.4063 84.375,134.2344 Q85.2656,135.0469 86.8594,135.0469 Q87.7969,135.0469 88.4531,134.7969 Q88.8438,134.6406 89.2656,134.2031 Q89.5313,133.9375 89.6719,133.8594 Q89.8281,133.7813 90.0313,133.7813 Q90.3594,133.7813 90.6094,134.0469 Q90.875,134.2969 90.875,134.6406 Q90.875,134.9844 90.5313,135.3906 Q90.0313,135.9688 89.2344,136.2969 Q88.1563,136.75 86.8594,136.75 Q85.3438,136.75 84.1406,136.125 Q83.1563,135.625 82.4688,134.5625 Q81.7813,133.4844 81.7813,132.2031 L81.7813,131.0469 Q81.7813,129.7188 82.3906,128.5781 Q83.0156,127.4219 84.1094,126.8125 Q85.2031,126.1875 86.4375,126.1875 Q87.1719,126.1875 87.8125,126.3594 Q88.4688,126.5156 89.0156,126.875 Z " fill="#000000"/><text fill="#000000" font-family="sans-serif" font-size="14" lengthAdjust="spacing" textLength="100" x="106.75" y="136.7285">PmpFactoryX64</text><line style="stroke:#181818;stroke-width:0.5;" x1="8" x2="273" y1="147" y2="147"/><line style="stroke:#181818;stroke-width:0.5;" x1="8" x2="273" y1="155" y2="155"/><ellipse cx="18" cy="166" fill="#84BE84" rx="3" ry="3" style="stroke:#038048;stroke-width:1.0;"/><text fill="#000000" font-family="sans-serif" font-size="14" lengthAdjust="spacing" textLength="241" x="27" y="173.5332">PmpFactoryX64(uiModel:PmpUiModel)</text><ellipse cx="18" cy="183.6094" fill="#84BE84" rx="3" ry="3" style="stroke:#038048;stroke-width:1.0;"/><text fill="#000000" font-family="sans-serif" font-size="14" lengthAdjust="spacing" textLength="154" x="27" y="191.1426">«override» Show() : void</text></g><!--MD5=[c22462429a9f9830b2ee4c37bf3c72c3]
class PmpFactoryBase--><g id="elem_PmpFactoryBase"><rect fill="#F1F1F1" height="48" id="PmpFactoryBase" rx="2.5" ry="2.5" style="stroke:#181818;stroke-width:0.5;" width="140" x="70.5" y="7"/><ellipse cx="85.5" cy="23" fill="#ADD1B2" rx="11" ry="11" style="stroke:#181818;stroke-width:1.0;"/><path d="M88.2656,18.875 Q88.4219,18.6563 88.6094,18.5469 Q88.7969,18.4375 89.0156,18.4375 Q89.3906,18.4375 89.625,18.7031 Q89.8594,18.9531 89.8594,19.5625 L89.8594,21.0156 Q89.8594,21.625 89.625,21.8906 Q89.3906,22.1563 89.0156,22.1563 Q88.6719,22.1563 88.4688,21.9531 Q88.2656,21.7656 88.1563,21.25 Q88.1094,20.8906 87.9219,20.7031 Q87.5938,20.3281 86.9844,20.1094 Q86.375,19.8906 85.75,19.8906 Q84.9844,19.8906 84.3438,20.2188 Q83.7188,20.5469 83.2188,21.2969 Q82.7344,22.0469 82.7344,23.0781 L82.7344,24.1719 Q82.7344,25.4063 83.625,26.2344 Q84.5156,27.0469 86.1094,27.0469 Q87.0469,27.0469 87.7031,26.7969 Q88.0938,26.6406 88.5156,26.2031 Q88.7813,25.9375 88.9219,25.8594 Q89.0781,25.7813 89.2813,25.7813 Q89.6094,25.7813 89.8594,26.0469 Q90.125,26.2969 90.125,26.6406 Q90.125,26.9844 89.7813,27.3906 Q89.2813,27.9688 88.4844,28.2969 Q87.4063,28.75 86.1094,28.75 Q84.5938,28.75 83.3906,28.125 Q82.4063,27.625 81.7188,26.5625 Q81.0313,25.4844 81.0313,24.2031 L81.0313,23.0469 Q81.0313,21.7188 81.6406,20.5781 Q82.2656,19.4219 83.3594,18.8125 Q84.4531,18.1875 85.6875,18.1875 Q86.4219,18.1875 87.0625,18.3594 Q87.7188,18.5156 88.2656,18.875 Z " fill="#000000"/><text fill="#000000" font-family="sans-serif" font-size="14" lengthAdjust="spacing" textLength="108" x="99.5" y="28.7285">PmpFactoryBase</text><line style="stroke:#181818;stroke-width:0.5;" x1="71.5" x2="209.5" y1="39" y2="39"/><line style="stroke:#181818;stroke-width:0.5;" x1="71.5" x2="209.5" y1="47" y2="47"/></g><!--MD5=[da2c5bcd7bfffd11672b269c128f23ab]
reverse link PmpFactoryBase to PmpFactoryX64--><g id="link_PmpFactoryBase_PmpFactoryX64"><path codeLine="5" d="M140.5,75.31 C140.5,88.16 140.5,102.19 140.5,114.87 " fill="none" id="PmpFactoryBase-backto-PmpFactoryX64" style="stroke:#181818;stroke-width:1.0;"/><polygon fill="none" points="133.5,75.23,140.5,55.23,147.5,75.23,133.5,75.23" style="stroke:#181818;stroke-width:1.0;"/></g><!--MD5=[fb1f389a9e41c365b378719ffc7d143a]
@startuml
class PmpFactoryX64 {
    + PmpFactoryX64(uiModel:PmpUiModel)
    + <<override>> Show() : void
}
PmpFactoryBase <|- - PmpFactoryX64
@enduml

PlantUML version 1.2022.5(Sat Apr 30 20:55:52 AEST 2022)
(GPL source distribution)
Java Runtime: OpenJDK Runtime Environment
JVM: OpenJDK 64-Bit Server VM
Default Encoding: Cp1252
Language: en
Country: AU
--></g></svg>