<?xml version="1.0" encoding="UTF-8" standalone="no"?><svg xmlns="http://www.w3.org/2000/svg" xmlns:xlink="http://www.w3.org/1999/xlink" contentStyleType="text/css" height="209px" preserveAspectRatio="none" style="width:166px;height:209px;background:#FFFFFF;" version="1.1" viewBox="0 0 166 209" width="166px" zoomAndPan="magnify"><defs/><g><!--MD5=[371a553b34dfc18809fd54108501cf94]
class PmpCloseReason--><g id="elem_PmpCloseReason"><rect codeLine="1" fill="#F1F1F1" height="188.875" id="PmpCloseReason" rx="2.5" ry="2.5" style="stroke:#181818;stroke-width:0.5;" width="145" x="7" y="7"/><ellipse cx="22" cy="23" fill="#EB937F" rx="11" ry="11" style="stroke:#181818;stroke-width:1.0;"/><path d="M20.8594,23.7969 L20.8594,26.2969 L25.1875,26.2969 L25.1875,25.375 Q25.1875,24.7656 25.4219,24.5 Q25.6719,24.2344 26.0469,24.2344 Q26.4219,24.2344 26.6563,24.5 Q26.8906,24.7656 26.8906,25.375 L26.8906,28 L18.8906,28 Q18.2656,28 18,27.7656 Q17.75,27.5313 17.75,27.1406 Q17.75,26.7656 18.0156,26.5313 Q18.2813,26.2969 18.8906,26.2969 L19.1563,26.2969 L19.1563,19.6406 L18.8906,19.6406 Q18.2656,19.6406 18,19.4063 Q17.75,19.1719 17.75,18.7813 Q17.75,18.4063 18,18.1719 Q18.2656,17.9375 18.8906,17.9375 L26.5156,17.9375 L26.5156,20.5313 Q26.5156,21.1406 26.2813,21.4063 Q26.0625,21.6563 25.6719,21.6563 Q25.2969,21.6563 25.0625,21.4063 Q24.8281,21.1406 24.8281,20.5313 L24.8281,19.6406 L20.8594,19.6406 L20.8594,22.0938 L22.3438,22.0938 Q22.3438,21.4375 22.4688,21.25 Q22.7344,20.8438 23.2031,20.8438 Q23.5781,20.8438 23.8125,21.1094 Q24.0469,21.3594 24.0469,21.9688 L24.0469,23.9375 Q24.0469,24.4844 23.9219,24.6719 Q23.6563,25.0625 23.2031,25.0625 Q22.7344,25.0625 22.4688,24.6563 Q22.3438,24.4688 22.3438,23.7969 L20.8594,23.7969 Z " fill="#000000"/><text fill="#000000" font-family="sans-serif" font-size="14" lengthAdjust="spacing" textLength="113" x="36" y="28.7285">PmpCloseReason</text><line style="stroke:#181818;stroke-width:0.5;" x1="8" x2="151" y1="39" y2="39"/><text fill="#000000" font-family="sans-serif" font-size="14" lengthAdjust="spacing" textLength="130" x="13" y="57.5332">UnknownReason= 0,</text><text fill="#000000" font-family="sans-serif" font-size="14" lengthAdjust="spacing" textLength="57" x="13" y="75.1426">Okay= 1,</text><text fill="#000000" font-family="sans-serif" font-size="14" lengthAdjust="spacing" textLength="68" x="13" y="92.752">Cancel= 2,</text><text fill="#000000" font-family="sans-serif" font-size="14" lengthAdjust="spacing" textLength="110" x="13" y="110.3613">ParentClosed= 3,</text><text fill="#000000" font-family="sans-serif" font-size="14" lengthAdjust="spacing" textLength="68" x="13" y="127.9707">Closed= 4,</text><text fill="#000000" font-family="sans-serif" font-size="14" lengthAdjust="spacing" textLength="100" x="13" y="145.5801">UserEscape= 5,</text><text fill="#000000" font-family="sans-serif" font-size="14" lengthAdjust="spacing" textLength="59" x="13" y="163.1895">Apply= 6,</text><text fill="#000000" font-family="sans-serif" font-size="14" lengthAdjust="spacing" textLength="73" x="13" y="180.7988">Preview= 7,</text><line style="stroke:#181818;stroke-width:0.5;" x1="8" x2="151" y1="187.875" y2="187.875"/></g><!--MD5=[68253ce40dda2d7b0535b465f4c55f06]
@startuml
enum PmpCloseReason {
    UnknownReason= 0,
    Okay= 1,
    Cancel= 2,
    ParentClosed= 3,
    Closed= 4,
    UserEscape= 5,
    Apply= 6,
    Preview= 7,
}
@enduml

PlantUML version 1.2022.5(Sat Apr 30 20:55:52 AEST 2022)
(GPL source distribution)
Java Runtime: OpenJDK Runtime Environment
JVM: OpenJDK 64-Bit Server VM
Default Encoding: Cp1252
Language: en
Country: AU
--></g></svg>