<?xml version="1.0" encoding="UTF-8" standalone="no"?><svg xmlns="http://www.w3.org/2000/svg" xmlns:xlink="http://www.w3.org/1999/xlink" contentStyleType="text/css" height="262px" preserveAspectRatio="none" style="width:151px;height:262px;background:#FFFFFF;" version="1.1" viewBox="0 0 151 262" width="151px" zoomAndPan="magnify"><defs/><g><!--MD5=[785d8093b0327505ac561baec375a0a3]
class NumberBoxUnit--><g id="elem_NumberBoxUnit"><rect codeLine="1" fill="#F1F1F1" height="241.7031" id="NumberBoxUnit" rx="2.5" ry="2.5" style="stroke:#181818;stroke-width:0.5;" width="130" x="7" y="7"/><ellipse cx="22.9" cy="23" fill="#EB937F" rx="11" ry="11" style="stroke:#181818;stroke-width:1.0;"/><path d="M21.7594,23.7969 L21.7594,26.2969 L26.0875,26.2969 L26.0875,25.375 Q26.0875,24.7656 26.3219,24.5 Q26.5719,24.2344 26.9469,24.2344 Q27.3219,24.2344 27.5563,24.5 Q27.7906,24.7656 27.7906,25.375 L27.7906,28 L19.7906,28 Q19.1656,28 18.9,27.7656 Q18.65,27.5313 18.65,27.1406 Q18.65,26.7656 18.9156,26.5313 Q19.1813,26.2969 19.7906,26.2969 L20.0563,26.2969 L20.0563,19.6406 L19.7906,19.6406 Q19.1656,19.6406 18.9,19.4063 Q18.65,19.1719 18.65,18.7813 Q18.65,18.4063 18.9,18.1719 Q19.1656,17.9375 19.7906,17.9375 L27.4156,17.9375 L27.4156,20.5313 Q27.4156,21.1406 27.1813,21.4063 Q26.9625,21.6563 26.5719,21.6563 Q26.1969,21.6563 25.9625,21.4063 Q25.7281,21.1406 25.7281,20.5313 L25.7281,19.6406 L21.7594,19.6406 L21.7594,22.0938 L23.2438,22.0938 Q23.2438,21.4375 23.3688,21.25 Q23.6344,20.8438 24.1031,20.8438 Q24.4781,20.8438 24.7125,21.1094 Q24.9469,21.3594 24.9469,21.9688 L24.9469,23.9375 Q24.9469,24.4844 24.8219,24.6719 Q24.5563,25.0625 24.1031,25.0625 Q23.6344,25.0625 23.3688,24.6563 Q23.2438,24.4688 23.2438,23.7969 L21.7594,23.7969 Z " fill="#000000"/><text fill="#000000" font-family="sans-serif" font-size="14" lengthAdjust="spacing" textLength="96" x="37.1" y="28.7285">NumberBoxUnit</text><line style="stroke:#181818;stroke-width:0.5;" x1="8" x2="136" y1="39" y2="39"/><text fill="#000000" font-family="sans-serif" font-size="14" lengthAdjust="spacing" textLength="60" x="13" y="57.5332">Angle= 4,</text><text fill="#000000" font-family="sans-serif" font-size="14" lengthAdjust="spacing" textLength="71" x="13" y="75.1426">Density= 5,</text><text fill="#000000" font-family="sans-serif" font-size="14" lengthAdjust="spacing" textLength="61" x="13" y="92.752">Force= 7,</text><text fill="#000000" font-family="sans-serif" font-size="14" lengthAdjust="spacing" textLength="100" x="13" y="110.3613">Frequency= 10,</text><text fill="#000000" font-family="sans-serif" font-size="14" lengthAdjust="spacing" textLength="69" x="13" y="127.9707">Gravity= 8,</text><text fill="#000000" font-family="sans-serif" font-size="14" lengthAdjust="spacing" textLength="68" x="13" y="145.5801">Length= 3,</text><text fill="#000000" font-family="sans-serif" font-size="14" lengthAdjust="spacing" textLength="81" x="13" y="163.1895">Percent= 11,</text><text fill="#000000" font-family="sans-serif" font-size="14" lengthAdjust="spacing" textLength="64" x="13" y="180.7988">Stress= 6,</text><text fill="#000000" font-family="sans-serif" font-size="14" lengthAdjust="spacing" textLength="55" x="13" y="198.4082">Time= 9,</text><text fill="#000000" font-family="sans-serif" font-size="14" lengthAdjust="spacing" textLength="118" x="13" y="216.0176">UnitlessDouble= 2,</text><text fill="#000000" font-family="sans-serif" font-size="14" lengthAdjust="spacing" textLength="117" x="13" y="233.627">UnitlessInteger= 1,</text><line style="stroke:#181818;stroke-width:0.5;" x1="8" x2="136" y1="240.7031" y2="240.7031"/></g><!--MD5=[94d6a81e438d65245a053517127ef65e]
@startuml
enum NumberBoxUnit {
    Angle= 4,
    Density= 5,
    Force= 7,
    Frequency= 10,
    Gravity= 8,
    Length= 3,
    Percent= 11,
    Stress= 6,
    Time= 9,
    UnitlessDouble= 2,
    UnitlessInteger= 1,
}
@enduml

PlantUML version 1.2022.5(Sat Apr 30 20:55:52 AEST 2022)
(GPL source distribution)
Java Runtime: OpenJDK Runtime Environment
JVM: OpenJDK 64-Bit Server VM
Default Encoding: Cp1252
Language: en
Country: AU
--></g></svg>