<?xml version="1.0" encoding="UTF-8" standalone="no"?><svg xmlns="http://www.w3.org/2000/svg" xmlns:xlink="http://www.w3.org/1999/xlink" contentStyleType="text/css" height="174px" preserveAspectRatio="none" style="width:203px;height:174px;background:#FFFFFF;" version="1.1" viewBox="0 0 203 174" width="203px" zoomAndPan="magnify"><defs/><g><!--MD5=[d2943714908c551966b5e7b9cb94fbe8]
class BtnSize--><g id="elem_BtnSize"><rect codeLine="1" fill="#F1F1F1" height="153.6563" id="BtnSize" rx="2.5" ry="2.5" style="stroke:#181818;stroke-width:0.5;" width="182" x="7" y="7"/><ellipse cx="70.25" cy="23" fill="#EB937F" rx="11" ry="11" style="stroke:#181818;stroke-width:1.0;"/><path d="M69.1094,23.7969 L69.1094,26.2969 L73.4375,26.2969 L73.4375,25.375 Q73.4375,24.7656 73.6719,24.5 Q73.9219,24.2344 74.2969,24.2344 Q74.6719,24.2344 74.9063,24.5 Q75.1406,24.7656 75.1406,25.375 L75.1406,28 L67.1406,28 Q66.5156,28 66.25,27.7656 Q66,27.5313 66,27.1406 Q66,26.7656 66.2656,26.5313 Q66.5313,26.2969 67.1406,26.2969 L67.4063,26.2969 L67.4063,19.6406 L67.1406,19.6406 Q66.5156,19.6406 66.25,19.4063 Q66,19.1719 66,18.7813 Q66,18.4063 66.25,18.1719 Q66.5156,17.9375 67.1406,17.9375 L74.7656,17.9375 L74.7656,20.5313 Q74.7656,21.1406 74.5313,21.4063 Q74.3125,21.6563 73.9219,21.6563 Q73.5469,21.6563 73.3125,21.4063 Q73.0781,21.1406 73.0781,20.5313 L73.0781,19.6406 L69.1094,19.6406 L69.1094,22.0938 L70.5938,22.0938 Q70.5938,21.4375 70.7188,21.25 Q70.9844,20.8438 71.4531,20.8438 Q71.8281,20.8438 72.0625,21.1094 Q72.2969,21.3594 72.2969,21.9688 L72.2969,23.9375 Q72.2969,24.4844 72.1719,24.6719 Q71.9063,25.0625 71.4531,25.0625 Q70.9844,25.0625 70.7188,24.6563 Q70.5938,24.4688 70.5938,23.7969 L69.1094,23.7969 Z " fill="#000000"/><text fill="#000000" font-family="sans-serif" font-size="14" lengthAdjust="spacing" textLength="47" x="90.75" y="28.7285">BtnSize</text><line style="stroke:#181818;stroke-width:0.5;" x1="8" x2="188" y1="39" y2="39"/><text fill="#000000" font-family="sans-serif" font-size="14" lengthAdjust="spacing" textLength="76" x="13" y="57.5332">sixteen= 16,</text><text fill="#000000" font-family="sans-serif" font-size="14" lengthAdjust="spacing" textLength="89" x="13" y="75.1426">thirtyTwo= 32,</text><text fill="#000000" font-family="sans-serif" font-size="14" lengthAdjust="spacing" textLength="60" x="13" y="92.752">forty= 40,</text><text fill="#000000" font-family="sans-serif" font-size="14" lengthAdjust="spacing" textLength="89" x="13" y="110.3613">sixtyFour= 64,</text><text fill="#000000" font-family="sans-serif" font-size="14" lengthAdjust="spacing" textLength="80" x="13" y="127.9707">nintySix= 96,</text><text fill="#000000" font-family="sans-serif" font-size="14" lengthAdjust="spacing" textLength="170" x="13" y="145.5801">hundredTwentyEight= 128,</text><line style="stroke:#181818;stroke-width:0.5;" x1="8" x2="188" y1="152.6563" y2="152.6563"/></g><!--MD5=[c605acaad2310368969d4abba80f6372]
@startuml
enum BtnSize {
    sixteen= 16,
    thirtyTwo= 32,
    forty= 40,
    sixtyFour= 64,
    nintySix= 96,
    hundredTwentyEight= 128,
}
@enduml

PlantUML version 1.2022.5(Sat Apr 30 20:55:52 AEST 2022)
(GPL source distribution)
Java Runtime: OpenJDK Runtime Environment
JVM: OpenJDK 64-Bit Server VM
Default Encoding: Cp1252
Language: en
Country: AU
--></g></svg>