<?xml version="1.0" encoding="UTF-8" standalone="no"?><svg xmlns="http://www.w3.org/2000/svg" xmlns:xlink="http://www.w3.org/1999/xlink" contentStyleType="text/css" height="667px" preserveAspectRatio="none" style="width:647px;height:667px;background:#FFFFFF;" version="1.1" viewBox="0 0 647 667" width="647px" zoomAndPan="magnify"><defs/><g><!--MD5=[c256836980e1db33bdfd847be98ba57c]
class IPmpControl--><g id="elem_IPmpControl"><rect codeLine="1" fill="#F1F1F1" height="646.7188" id="IPmpControl" rx="2.5" ry="2.5" style="stroke:#181818;stroke-width:0.5;" width="626" x="7" y="7"/><ellipse cx="276.75" cy="23" fill="#A9DCDF" rx="11" ry="11" style="stroke:#181818;stroke-width:1.0;"/><path d="M278.9375,24.7656 L274.7969,24.7656 L274.375,25.7969 L274.7969,25.7969 Q275.4063,25.7969 275.6719,26.0313 Q275.9375,26.2656 275.9375,26.6563 Q275.9375,27.0313 275.6719,27.2656 Q275.4063,27.5 274.7969,27.5 L272.5,27.5 Q271.8906,27.5 271.6406,27.2656 Q271.375,27.0313 271.375,26.6406 Q271.375,26.2656 271.6563,26.0313 Q271.9219,25.7813 272.5469,25.7969 L275.2188,19.1406 L274.1094,19.1406 Q273.5,19.1406 273.2344,18.9063 Q272.9688,18.6719 272.9688,18.2813 Q272.9688,17.9063 273.2344,17.6719 Q273.5,17.4375 274.1094,17.4375 L277.7813,17.4375 L281.1719,25.7969 Q281.7656,25.7969 281.9531,25.9375 Q282.3438,26.2031 282.3438,26.6563 Q282.3438,27.0313 282.0781,27.2656 Q281.8281,27.5 281.2188,27.5 L278.9219,27.5 Q278.3125,27.5 278.0469,27.2656 Q277.7813,27.0313 277.7813,26.6406 Q277.7813,26.2656 278.0469,26.0313 Q278.3125,25.7969 278.9219,25.7969 L279.3438,25.7969 L278.9375,24.7656 Z M278.2188,23.0625 L276.8594,19.6875 L275.4844,23.0625 L278.2188,23.0625 Z " fill="#000000"/><text fill="#000000" font-family="sans-serif" font-size="14" font-style="italic" lengthAdjust="spacing" textLength="78" x="297.25" y="28.7285">IPmpControl</text><line style="stroke:#181818;stroke-width:0.5;" x1="8" x2="632" y1="39" y2="39"/><rect fill="none" height="6" style="stroke:#C82930;stroke-width:1.0;" width="6" x="15" y="47"/><text fill="#000000" font-family="sans-serif" font-size="14" lengthAdjust="spacing" textLength="72" x="27" y="57.5332">_top : short</text><rect fill="none" height="6" style="stroke:#C82930;stroke-width:1.0;" width="6" x="15" y="64.6094"/><text fill="#000000" font-family="sans-serif" font-size="14" lengthAdjust="spacing" textLength="139" x="27" y="75.1426">_enabled : bool = true</text><rect fill="none" height="6" style="stroke:#C82930;stroke-width:1.0;" width="6" x="15" y="82.2188"/><text fill="#000000" font-family="sans-serif" font-size="14" lengthAdjust="spacing" textLength="127" x="27" y="92.752">_visible : bool = true</text><rect fill="none" height="6" style="stroke:#C82930;stroke-width:1.0;" width="6" x="15" y="99.8281"/><text fill="#000000" font-family="sans-serif" font-size="14" lengthAdjust="spacing" textLength="84" x="27" y="110.3613">_width : short</text><rect fill="none" height="6" style="stroke:#C82930;stroke-width:1.0;" width="6" x="15" y="117.4375"/><text fill="#000000" font-family="sans-serif" font-size="14" lengthAdjust="spacing" textLength="71" x="27" y="127.9707">_left : short</text><rect fill="none" height="6" style="stroke:#C82930;stroke-width:1.0;" width="6" x="15" y="135.0469"/><text fill="#000000" font-family="sans-serif" font-size="14" lengthAdjust="spacing" textLength="249" x="27" y="145.5801">_optionForResize : ControlResizeStyles</text><ellipse cx="18" cy="155.6563" fill="none" rx="3" ry="3" style="stroke:#038048;stroke-width:1.0;"/><text fill="#000000" font-family="sans-serif" font-size="14" lengthAdjust="spacing" textLength="136" x="27" y="163.1895">Caption : string «get»</text><ellipse cx="18" cy="173.2656" fill="none" rx="3" ry="3" style="stroke:#038048;stroke-width:1.0;"/><text fill="#000000" font-family="sans-serif" font-size="14" lengthAdjust="spacing" textLength="268" x="27" y="180.7988">SharedIconsDir : DirectoryInfo «get» «set»</text><ellipse cx="18" cy="190.875" fill="none" rx="3" ry="3" style="stroke:#038048;stroke-width:1.0;"/><text fill="#000000" font-family="sans-serif" font-size="14" lengthAdjust="spacing" textLength="146" x="27" y="198.4082">Tip : string «get» «set»</text><polygon fill="none" points="18,203.4844,22,207.4844,18,211.4844,14,207.4844" style="stroke:#B38D22;stroke-width:1.0;"/><text fill="#000000" font-family="sans-serif" font-size="14" lengthAdjust="spacing" textLength="326" x="27" y="216.0176">Control : PropertyManagerPageControl «get» «set»</text><ellipse cx="18" cy="226.0938" fill="none" rx="3" ry="3" style="stroke:#038048;stroke-width:1.0;"/><text fill="#000000" font-family="sans-serif" font-size="14" lengthAdjust="spacing" textLength="427" x="27" y="233.627">Type : swPropertyManagerPageControlType_e «get» «internal set»</text><ellipse cx="18" cy="243.7031" fill="none" rx="3" ry="3" style="stroke:#038048;stroke-width:1.0;"/><text fill="#000000" font-family="sans-serif" font-size="14" lengthAdjust="spacing" textLength="95" x="27" y="251.2363">Id : short «get»</text><rect fill="none" height="6" style="stroke:#C82930;stroke-width:1.0;" width="6" x="15" y="258.3125"/><text fill="#000000" font-family="sans-serif" font-size="14" lengthAdjust="spacing" textLength="209" x="27" y="268.8457">LeftAlignment : short «get» «set»</text><rect fill="none" height="6" style="stroke:#C82930;stroke-width:1.0;" width="6" x="15" y="275.9219"/><text fill="#000000" font-family="sans-serif" font-size="14" lengthAdjust="spacing" textLength="292" x="27" y="286.4551">Options : swAddControlOptions_e «get» «set»</text><ellipse cx="18" cy="296.5313" fill="none" rx="3" ry="3" style="stroke:#038048;stroke-width:1.0;"/><text fill="#000000" font-family="sans-serif" font-size="14" lengthAdjust="spacing" textLength="276" x="27" y="304.0645">ActiveDoc : ModelDoc2 «get» «internal set»</text><ellipse cx="18" cy="314.1406" fill="none" rx="3" ry="3" style="stroke:#038048;stroke-width:1.0;"/><text fill="#000000" font-family="sans-serif" font-size="14" lengthAdjust="spacing" textLength="148" x="27" y="321.6738">Top : short «get» «set»</text><ellipse cx="18" cy="331.75" fill="none" rx="3" ry="3" style="stroke:#038048;stroke-width:1.0;"/><text fill="#000000" font-family="sans-serif" font-size="14" lengthAdjust="spacing" textLength="228" x="27" y="339.2832">«virtual» Enabled : bool «get» «set»</text><ellipse cx="18" cy="349.3594" fill="none" rx="3" ry="3" style="stroke:#038048;stroke-width:1.0;"/><text fill="#000000" font-family="sans-serif" font-size="14" lengthAdjust="spacing" textLength="159" x="27" y="356.8926">Visible : bool «get» «set»</text><ellipse cx="18" cy="366.9688" fill="none" rx="3" ry="3" style="stroke:#038048;stroke-width:1.0;"/><text fill="#000000" font-family="sans-serif" font-size="14" lengthAdjust="spacing" textLength="297" x="27" y="374.502">ResizeStyles : ControlResizeStyles «get» «set»</text><ellipse cx="18" cy="384.5781" fill="none" rx="3" ry="3" style="stroke:#038048;stroke-width:1.0;"/><text fill="#000000" font-family="sans-serif" font-size="14" lengthAdjust="spacing" textLength="147" x="27" y="392.1113">Left : short «get» «set»</text><ellipse cx="18" cy="402.1875" fill="none" rx="3" ry="3" style="stroke:#038048;stroke-width:1.0;"/><text fill="#000000" font-family="sans-serif" font-size="14" lengthAdjust="spacing" textLength="159" x="27" y="409.7207">Width : short «get» «set»</text><text fill="#000000" font-family="sans-serif" font-size="14" lengthAdjust="spacing" textLength="249" x="27" y="427.3301">«internal»  «event» Registering : Action</text><ellipse cx="18" cy="437.4063" fill="none" rx="3" ry="3" style="stroke:#038048;stroke-width:1.0;"/><text fill="#000000" font-family="sans-serif" font-size="14" lengthAdjust="spacing" textLength="356" x="27" y="444.9395">«event» Displaying : PmpControlDisplayingEventHandler</text><ellipse cx="18" cy="455.0156" fill="none" rx="3" ry="3" style="stroke:#038048;stroke-width:1.0;"/><text fill="#000000" font-family="sans-serif" font-size="14" lengthAdjust="spacing" textLength="237" x="27" y="462.5488">«event» GainedFocus : EventHandler</text><ellipse cx="18" cy="472.625" fill="none" rx="3" ry="3" style="stroke:#038048;stroke-width:1.0;"/><text fill="#000000" font-family="sans-serif" font-size="14" lengthAdjust="spacing" textLength="218" x="27" y="480.1582">«event» LostFocus : EventHandler</text><line style="stroke:#181818;stroke-width:0.5;" x1="8" x2="632" y1="487.2344" y2="487.2344"/><text fill="#000000" font-family="sans-serif" font-size="14" lengthAdjust="spacing" textLength="593" x="27" y="505.7676">«internal» IPmpControl(type:swPropertyManagerPageControlType_e, caption:string, tip:string)</text><text fill="#000000" font-family="sans-serif" font-size="14" lengthAdjust="spacing" textLength="395" x="27" y="523.377">«internal» Register(group:IPropertyManagerPageGroup) : void</text><ellipse cx="18" cy="533.4531" fill="#84BE84" rx="3" ry="3" style="stroke:#038048;stroke-width:1.0;"/><text fill="#000000" font-family="sans-serif" font-size="14" lengthAdjust="spacing" textLength="338" x="27" y="540.9863">SetPictureLabel(bitmap:Bitmap, fileName:string) : void</text><rect fill="#F24D5C" height="6" style="stroke:#C82930;stroke-width:1.0;" width="6" x="15" y="548.0625"/><text fill="#000000" font-family="sans-serif" font-size="14" lengthAdjust="spacing" textLength="406" x="27" y="558.5957">SetPictureLabelForControl(bitmap:Bitmap, fileName:string) : void</text><ellipse cx="18" cy="568.6719" fill="#84BE84" rx="3" ry="3" style="stroke:#038048;stroke-width:1.0;"/><text fill="#000000" font-family="sans-serif" font-size="14" lengthAdjust="spacing" textLength="524" x="27" y="576.2051">ShowBubleTooltip(title:string, message:string, bitmap:Bitmap, fileName:string) : void</text><rect fill="#F24D5C" height="6" style="stroke:#C82930;stroke-width:1.0;" width="6" x="15" y="583.2813"/><text fill="#000000" font-family="sans-serif" font-size="14" lengthAdjust="spacing" textLength="600" x="27" y="593.8145">ShowBubbleTooltipForControl(title:string, message:string, bitmap:Bitmap, fileName:string) : void</text><text fill="#000000" font-family="sans-serif" font-size="14" lengthAdjust="spacing" textLength="292" x="27" y="611.4238">«internal» «virtual» DisplayingCallback() : void</text><text fill="#000000" font-family="sans-serif" font-size="14" lengthAdjust="spacing" textLength="312" x="27" y="629.0332">«internal» «virtual» GainedFocusCallback() : void</text><text fill="#000000" font-family="sans-serif" font-size="14" lengthAdjust="spacing" textLength="293" x="27" y="646.6426">«internal» «virtual» LostFocusCallback() : void</text></g><!--MD5=[bcbc5130e7614d94fbe9a7f1f7208797]
@startuml
abstract class IPmpControl {
    - _top : short
    - _enabled : bool = true
    - _visible : bool = true
    - _width : short
    - _left : short
    - _optionForResize : ControlResizeStyles
    <<internal>> IPmpControl(type:swPropertyManagerPageControlType_e, caption:string, tip:string)
    + Caption : string <<get>>
    + SharedIconsDir : DirectoryInfo <<get>> <<set>>
    + Tip : string <<get>> <<set>>
    # Control : PropertyManagerPageControl <<get>> <<set>>
    + Type : swPropertyManagerPageControlType_e <<get>> <<internal set>>
    + Id : short <<get>>
    - LeftAlignment : short <<get>> <<set>>
    - Options : swAddControlOptions_e <<get>> <<set>>
    + ActiveDoc : ModelDoc2 <<get>> <<internal set>>
    + Top : short <<get>> <<set>>
    + <<virtual>> Enabled : bool <<get>> <<set>>
    + Visible : bool <<get>> <<set>>
    + ResizeStyles : ControlResizeStyles <<get>> <<set>>
    + Left : short <<get>> <<set>>
    + Width : short <<get>> <<set>>
    <<internal>> Register(group:IPropertyManagerPageGroup) : void
    + SetPictureLabel(bitmap:Bitmap, fileName:string) : void
    - SetPictureLabelForControl(bitmap:Bitmap, fileName:string) : void
    + ShowBubleTooltip(title:string, message:string, bitmap:Bitmap, fileName:string) : void
    - ShowBubbleTooltipForControl(title:string, message:string, bitmap:Bitmap, fileName:string) : void
    <<internal>> <<virtual>> DisplayingCallback() : void
    <<internal>> <<virtual>> GainedFocusCallback() : void
    <<internal>> <<virtual>> LostFocusCallback() : void
    <<internal>>  <<event>> Registering : Action 
    +  <<event>> Displaying : PmpControlDisplayingEventHandler 
    +  <<event>> GainedFocus : EventHandler 
    +  <<event>> LostFocus : EventHandler 
}
@enduml

PlantUML version 1.2022.5(Sat Apr 30 20:55:52 AEST 2022)
(GPL source distribution)
Java Runtime: OpenJDK Runtime Environment
JVM: OpenJDK 64-Bit Server VM
Default Encoding: Cp1252
Language: en
Country: AU
--></g></svg>