<?xml version="1.0" encoding="UTF-8" standalone="no"?><svg xmlns="http://www.w3.org/2000/svg" xmlns:xlink="http://www.w3.org/1999/xlink" contentStyleType="text/css" height="293px" preserveAspectRatio="none" style="width:429px;height:293px;background:#FFFFFF;" version="1.1" viewBox="0 0 429 293" width="429px" zoomAndPan="magnify"><defs/><g><!--MD5=[b3c1ae51d1414ffed7388f45ae841654]
class PmpCheckBox--><g id="elem_PmpCheckBox"><rect codeLine="1" fill="#F1F1F1" height="171.2656" id="PmpCheckBox" rx="2.5" ry="2.5" style="stroke:#181818;stroke-width:0.5;" width="381" x="41.9719" y="115"/><ellipse cx="182.7219" cy="131" fill="#ADD1B2" rx="11" ry="11" style="stroke:#181818;stroke-width:1.0;"/><path d="M185.4875,126.875 Q185.6438,126.6563 185.8313,126.5469 Q186.0188,126.4375 186.2375,126.4375 Q186.6125,126.4375 186.8469,126.7031 Q187.0813,126.9531 187.0813,127.5625 L187.0813,129.0156 Q187.0813,129.625 186.8469,129.8906 Q186.6125,130.1563 186.2375,130.1563 Q185.8938,130.1563 185.6906,129.9531 Q185.4875,129.7656 185.3781,129.25 Q185.3313,128.8906 185.1438,128.7031 Q184.8156,128.3281 184.2063,128.1094 Q183.5969,127.8906 182.9719,127.8906 Q182.2063,127.8906 181.5656,128.2188 Q180.9406,128.5469 180.4406,129.2969 Q179.9563,130.0469 179.9563,131.0781 L179.9563,132.1719 Q179.9563,133.4063 180.8469,134.2344 Q181.7375,135.0469 183.3313,135.0469 Q184.2688,135.0469 184.925,134.7969 Q185.3156,134.6406 185.7375,134.2031 Q186.0031,133.9375 186.1438,133.8594 Q186.3,133.7813 186.5031,133.7813 Q186.8313,133.7813 187.0813,134.0469 Q187.3469,134.2969 187.3469,134.6406 Q187.3469,134.9844 187.0031,135.3906 Q186.5031,135.9688 185.7063,136.2969 Q184.6281,136.75 183.3313,136.75 Q181.8156,136.75 180.6125,136.125 Q179.6281,135.625 178.9406,134.5625 Q178.2531,133.4844 178.2531,132.2031 L178.2531,131.0469 Q178.2531,129.7188 178.8625,128.5781 Q179.4875,127.4219 180.5813,126.8125 Q181.675,126.1875 182.9094,126.1875 Q183.6438,126.1875 184.2844,126.3594 Q184.9406,126.5156 185.4875,126.875 Z " fill="#000000"/><text fill="#000000" font-family="sans-serif" font-size="14" lengthAdjust="spacing" textLength="91" x="203.2219" y="136.7285">PmpCheckBox</text><line style="stroke:#181818;stroke-width:0.5;" x1="42.9719" x2="421.9719" y1="147" y2="147"/><rect fill="none" height="6" style="stroke:#C82930;stroke-width:1.0;" width="6" x="49.9719" y="155"/><text fill="#000000" font-family="sans-serif" font-size="14" lengthAdjust="spacing" textLength="113" x="61.9719" y="165.5332">_isChecked : bool</text><rect fill="none" height="6" style="stroke:#C82930;stroke-width:1.0;" width="6" x="49.9719" y="172.6094"/><text fill="#000000" font-family="sans-serif" font-size="14" lengthAdjust="spacing" textLength="100" x="61.9719" y="183.1426">_maintain : bool</text><ellipse cx="52.9719" cy="193.2188" fill="none" rx="3" ry="3" style="stroke:#038048;stroke-width:1.0;"/><text fill="#000000" font-family="sans-serif" font-size="14" lengthAdjust="spacing" textLength="184" x="61.9719" y="200.752">IsChecked : bool «get» «set»</text><ellipse cx="52.9719" cy="210.8281" fill="none" rx="3" ry="3" style="stroke:#038048;stroke-width:1.0;"/><text fill="#000000" font-family="sans-serif" font-size="14" lengthAdjust="spacing" textLength="204" x="61.9719" y="218.3613">MaintainState : bool «get» «set»</text><ellipse cx="52.9719" cy="228.4375" fill="none" rx="3" ry="3" style="stroke:#038048;stroke-width:1.0;"/><text fill="#000000" font-family="sans-serif" font-size="14" lengthAdjust="spacing" textLength="355" x="61.9719" y="235.9707">«event» Checked : PmpCheckBoxCheckedEventHandler</text><line style="stroke:#181818;stroke-width:0.5;" x1="42.9719" x2="421.9719" y1="243.0469" y2="243.0469"/><ellipse cx="52.9719" cy="254.0469" fill="#84BE84" rx="3" ry="3" style="stroke:#038048;stroke-width:1.0;"/><text fill="#000000" font-family="sans-serif" font-size="14" lengthAdjust="spacing" textLength="353" x="61.9719" y="261.5801">PmpCheckBox(caption:string, isChecked:bool, tip:string)</text><text fill="#000000" font-family="sans-serif" font-size="14" lengthAdjust="spacing" textLength="294" x="61.9719" y="279.1895">«internal» CheckedCallback(status:bool) : void</text></g><!--MD5=[22a3ac4e8783a88ac869ee0e2318b515]
class PmpControl`1--><g id="elem_PmpControl`1"><rect fill="#F1F1F1" height="48" id="PmpControl`1" rx="2.5" ry="2.5" style="stroke:#181818;stroke-width:0.5;" width="119" x="172.9719" y="7"/><ellipse cx="187.9719" cy="23" fill="#ADD1B2" rx="11" ry="11" style="stroke:#181818;stroke-width:1.0;"/><path d="M190.7375,18.875 Q190.8938,18.6563 191.0813,18.5469 Q191.2688,18.4375 191.4875,18.4375 Q191.8625,18.4375 192.0969,18.7031 Q192.3313,18.9531 192.3313,19.5625 L192.3313,21.0156 Q192.3313,21.625 192.0969,21.8906 Q191.8625,22.1563 191.4875,22.1563 Q191.1438,22.1563 190.9406,21.9531 Q190.7375,21.7656 190.6281,21.25 Q190.5813,20.8906 190.3938,20.7031 Q190.0656,20.3281 189.4563,20.1094 Q188.8469,19.8906 188.2219,19.8906 Q187.4563,19.8906 186.8156,20.2188 Q186.1906,20.5469 185.6906,21.2969 Q185.2063,22.0469 185.2063,23.0781 L185.2063,24.1719 Q185.2063,25.4063 186.0969,26.2344 Q186.9875,27.0469 188.5813,27.0469 Q189.5188,27.0469 190.175,26.7969 Q190.5656,26.6406 190.9875,26.2031 Q191.2531,25.9375 191.3938,25.8594 Q191.55,25.7813 191.7531,25.7813 Q192.0813,25.7813 192.3313,26.0469 Q192.5969,26.2969 192.5969,26.6406 Q192.5969,26.9844 192.2531,27.3906 Q191.7531,27.9688 190.9563,28.2969 Q189.8781,28.75 188.5813,28.75 Q187.0656,28.75 185.8625,28.125 Q184.8781,27.625 184.1906,26.5625 Q183.5031,25.4844 183.5031,24.2031 L183.5031,23.0469 Q183.5031,21.7188 184.1125,20.5781 Q184.7375,19.4219 185.8313,18.8125 Q186.925,18.1875 188.1594,18.1875 Q188.8938,18.1875 189.5344,18.3594 Q190.1906,18.5156 190.7375,18.875 Z " fill="#000000"/><text fill="#000000" font-family="sans-serif" font-size="14" lengthAdjust="spacing" textLength="87" x="201.9719" y="28.7285">PmpControl`1</text><line style="stroke:#181818;stroke-width:0.5;" x1="173.9719" x2="290.9719" y1="39" y2="39"/><line style="stroke:#181818;stroke-width:0.5;" x1="173.9719" x2="290.9719" y1="47" y2="47"/></g><!--MD5=[3974de8c684422cb8fe21c12c74723c8]
reverse link PmpControl`1 to PmpCheckBox--><g id="link_PmpControl`1_PmpCheckBox"><path codeLine="10" d="M232.4719,75.7 C232.4719,87.74 232.4719,101.24 232.4719,114.76 " fill="none" id="PmpControl`1-backto-PmpCheckBox" style="stroke:#181818;stroke-width:1.0;"/><polygon fill="none" points="225.4719,75.29,232.4719,55.29,239.4719,75.29,225.4719,75.29" style="stroke:#181818;stroke-width:1.0;"/><text fill="#000000" font-family="sans-serif" font-size="13" lengthAdjust="spacing" textLength="203" x="6" y="76.2928">&lt;PropertyManagerPageCheckbox&gt;</text></g><!--MD5=[c0a648d3b5a3a6d859f5ceb54a884ec2]
@startuml
class PmpCheckBox {
    - _isChecked : bool
    - _maintain : bool
    + PmpCheckBox(caption:string, isChecked:bool, tip:string)
    <<internal>> CheckedCallback(status:bool) : void
    + IsChecked : bool <<get>> <<set>>
    + MaintainState : bool <<get>> <<set>>
    +  <<event>> Checked : PmpCheckBoxCheckedEventHandler 
}
"PmpControl`1" "<PropertyManagerPageCheckbox>" <|- - PmpCheckBox
@enduml

PlantUML version 1.2022.5(Sat Apr 30 20:55:52 AEST 2022)
(GPL source distribution)
Java Runtime: OpenJDK Runtime Environment
JVM: OpenJDK 64-Bit Server VM
Default Encoding: Cp1252
Language: en
Country: AU
--></g></svg>