<?xml version="1.0" encoding="UTF-8" standalone="no"?><svg xmlns="http://www.w3.org/2000/svg" xmlns:xlink="http://www.w3.org/1999/xlink" contentStyleType="text/css" height="227px" preserveAspectRatio="none" style="width:600px;height:227px;background:#FFFFFF;" version="1.1" viewBox="0 0 600 227" width="600px" zoomAndPan="magnify"><defs/><g><!--MD5=[c22462429a9f9830b2ee4c37bf3c72c3]
class PmpFactoryBase--><g id="elem_PmpFactoryBase"><rect codeLine="1" fill="#F1F1F1" height="206.4844" id="PmpFactoryBase" rx="2.5" ry="2.5" style="stroke:#181818;stroke-width:0.5;" width="579" x="7" y="7"/><ellipse cx="238.25" cy="23" fill="#A9DCDF" rx="11" ry="11" style="stroke:#181818;stroke-width:1.0;"/><path d="M240.4375,24.7656 L236.2969,24.7656 L235.875,25.7969 L236.2969,25.7969 Q236.9063,25.7969 237.1719,26.0313 Q237.4375,26.2656 237.4375,26.6563 Q237.4375,27.0313 237.1719,27.2656 Q236.9063,27.5 236.2969,27.5 L234,27.5 Q233.3906,27.5 233.1406,27.2656 Q232.875,27.0313 232.875,26.6406 Q232.875,26.2656 233.1563,26.0313 Q233.4219,25.7813 234.0469,25.7969 L236.7188,19.1406 L235.6094,19.1406 Q235,19.1406 234.7344,18.9063 Q234.4688,18.6719 234.4688,18.2813 Q234.4688,17.9063 234.7344,17.6719 Q235,17.4375 235.6094,17.4375 L239.2813,17.4375 L242.6719,25.7969 Q243.2656,25.7969 243.4531,25.9375 Q243.8438,26.2031 243.8438,26.6563 Q243.8438,27.0313 243.5781,27.2656 Q243.3281,27.5 242.7188,27.5 L240.4219,27.5 Q239.8125,27.5 239.5469,27.2656 Q239.2813,27.0313 239.2813,26.6406 Q239.2813,26.2656 239.5469,26.0313 Q239.8125,25.7969 240.4219,25.7969 L240.8438,25.7969 L240.4375,24.7656 Z M239.7188,23.0625 L238.3594,19.6875 L236.9844,23.0625 L239.7188,23.0625 Z " fill="#000000"/><text fill="#000000" font-family="sans-serif" font-size="14" font-style="italic" lengthAdjust="spacing" textLength="108" x="258.75" y="28.7285">PmpFactoryBase</text><line style="stroke:#181818;stroke-width:0.5;" x1="8" x2="585" y1="39" y2="39"/><polygon fill="none" points="18,45,22,49,18,53,14,49" style="stroke:#B38D22;stroke-width:1.0;"/><text fill="#000000" font-family="sans-serif" font-size="14" lengthAdjust="spacing" textLength="214" x="27" y="57.5332">«readonly» uiModel : PmpUiModel</text><polygon fill="none" points="18,62.6094,22,66.6094,18,70.6094,14,66.6094" style="stroke:#B38D22;stroke-width:1.0;"/><text fill="#000000" font-family="sans-serif" font-size="14" lengthAdjust="spacing" textLength="379" x="27" y="75.1426">«readonly» eventHandler : PropertyManagerPage2Handler9</text><polygon fill="none" points="18,80.2188,22,84.2188,18,88.2188,14,84.2188" style="stroke:#B38D22;stroke-width:1.0;"/><text fill="#000000" font-family="sans-serif" font-size="14" lengthAdjust="spacing" textLength="217" x="27" y="92.752">«readonly» Solidworks : ISldWorks</text><polygon fill="none" points="18,97.8281,22,101.8281,18,105.8281,14,101.8281" style="stroke:#B38D22;stroke-width:1.0;"/><text fill="#000000" font-family="sans-serif" font-size="14" lengthAdjust="spacing" textLength="297" x="27" y="110.3613">winFormHandlers : IEnumerable&lt;PmpWpfHost&gt;</text><polygon fill="none" points="18,115.4375,22,119.4375,18,123.4375,14,119.4375" style="stroke:#B38D22;stroke-width:1.0;"/><text fill="#000000" font-family="sans-serif" font-size="14" lengthAdjust="spacing" textLength="308" x="27" y="127.9707">propertyManagerPage : IPropertyManagerPage2</text><line style="stroke:#181818;stroke-width:0.5;" x1="8" x2="585" y1="135.0469" y2="135.0469"/><polygon fill="#FFFF44" points="18,141.0469,22,145.0469,18,149.0469,14,145.0469" style="stroke:#B38D22;stroke-width:1.0;"/><text fill="#000000" font-family="sans-serif" font-size="14" lengthAdjust="spacing" textLength="553" x="27" y="153.5801">PmpFactoryBase(eventHandler:PropertyManagerPage2Handler9, uiModel:PmpUiModel)</text><polygon fill="#FFFF44" points="18,158.6563,22,162.6563,18,166.6563,14,162.6563" style="stroke:#B38D22;stroke-width:1.0;"/><text fill="#000000" font-family="sans-serif" font-size="14" lengthAdjust="spacing" textLength="234" x="27" y="171.1895">CreatePropertyManagerPage() : void</text><ellipse cx="18" cy="181.2656" fill="#84BE84" rx="3" ry="3" style="stroke:#038048;stroke-width:1.0;"/><text fill="#000000" font-family="sans-serif" font-size="14" font-style="italic" lengthAdjust="spacing" textLength="81" x="27" y="188.7988">Show() : void</text><ellipse cx="18" cy="198.875" fill="#84BE84" rx="3" ry="3" style="stroke:#038048;stroke-width:1.0;"/><text fill="#000000" font-family="sans-serif" font-size="14" lengthAdjust="spacing" textLength="148" x="27" y="206.4082">Close(Okay:bool) : void</text></g><!--MD5=[a6c7f6c13fcb4f69c0e57c85721f9d14]
@startuml
abstract class PmpFactoryBase {
    # <<readonly>> uiModel : PmpUiModel
    # <<readonly>> eventHandler : PropertyManagerPage2Handler9
    # <<readonly>> Solidworks : ISldWorks
    # winFormHandlers : IEnumerable<PmpWpfHost>
    # propertyManagerPage : IPropertyManagerPage2
    # PmpFactoryBase(eventHandler:PropertyManagerPage2Handler9, uiModel:PmpUiModel)
    # CreatePropertyManagerPage() : void
    + {abstract} Show() : void
    + Close(Okay:bool) : void
}
@enduml

PlantUML version 1.2022.5(Sat Apr 30 20:55:52 AEST 2022)
(GPL source distribution)
Java Runtime: OpenJDK Runtime Environment
JVM: OpenJDK 64-Bit Server VM
Default Encoding: Cp1252
Language: en
Country: AU
--></g></svg>