<?xml version="1.0" encoding="UTF-8" standalone="no"?><svg xmlns="http://www.w3.org/2000/svg" xmlns:xlink="http://www.w3.org/1999/xlink" contentStyleType="text/css" height="328px" preserveAspectRatio="none" style="width:379px;height:328px;background:#FFFFFF;" version="1.1" viewBox="0 0 379 328" width="379px" zoomAndPan="magnify"><defs/><g><!--MD5=[6ba8441b926128f2940449370c724f4d]
class PmpTextBox--><g id="elem_PmpTextBox"><rect codeLine="1" fill="#F1F1F1" height="206.4844" id="PmpTextBox" rx="2.5" ry="2.5" style="stroke:#181818;stroke-width:0.5;" width="305" x="67.7781" y="115"/><ellipse cx="177.0281" cy="131" fill="#ADD1B2" rx="11" ry="11" style="stroke:#181818;stroke-width:1.0;"/><path d="M179.7938,126.875 Q179.95,126.6563 180.1375,126.5469 Q180.325,126.4375 180.5438,126.4375 Q180.9188,126.4375 181.1531,126.7031 Q181.3875,126.9531 181.3875,127.5625 L181.3875,129.0156 Q181.3875,129.625 181.1531,129.8906 Q180.9188,130.1563 180.5438,130.1563 Q180.2,130.1563 179.9969,129.9531 Q179.7938,129.7656 179.6844,129.25 Q179.6375,128.8906 179.45,128.7031 Q179.1219,128.3281 178.5125,128.1094 Q177.9031,127.8906 177.2781,127.8906 Q176.5125,127.8906 175.8719,128.2188 Q175.2469,128.5469 174.7469,129.2969 Q174.2625,130.0469 174.2625,131.0781 L174.2625,132.1719 Q174.2625,133.4063 175.1531,134.2344 Q176.0438,135.0469 177.6375,135.0469 Q178.575,135.0469 179.2313,134.7969 Q179.6219,134.6406 180.0438,134.2031 Q180.3094,133.9375 180.45,133.8594 Q180.6063,133.7813 180.8094,133.7813 Q181.1375,133.7813 181.3875,134.0469 Q181.6531,134.2969 181.6531,134.6406 Q181.6531,134.9844 181.3094,135.3906 Q180.8094,135.9688 180.0125,136.2969 Q178.9344,136.75 177.6375,136.75 Q176.1219,136.75 174.9188,136.125 Q173.9344,135.625 173.2469,134.5625 Q172.5594,133.4844 172.5594,132.2031 L172.5594,131.0469 Q172.5594,129.7188 173.1688,128.5781 Q173.7938,127.4219 174.8875,126.8125 Q175.9813,126.1875 177.2156,126.1875 Q177.95,126.1875 178.5906,126.3594 Q179.2469,126.5156 179.7938,126.875 Z " fill="#000000"/><text fill="#000000" font-family="sans-serif" font-size="14" lengthAdjust="spacing" textLength="78" x="197.5281" y="136.7285">PmpTextBox</text><line style="stroke:#181818;stroke-width:0.5;" x1="68.7781" x2="371.7781" y1="147" y2="147"/><rect fill="none" height="6" style="stroke:#C82930;stroke-width:1.0;" width="6" x="75.7781" y="155"/><text fill="#000000" font-family="sans-serif" font-size="14" lengthAdjust="spacing" textLength="142" x="87.7781" y="165.5332">_style : TexTBoxStyles</text><rect fill="none" height="6" style="stroke:#C82930;stroke-width:1.0;" width="6" x="75.7781" y="172.6094"/><text fill="#000000" font-family="sans-serif" font-size="14" lengthAdjust="spacing" textLength="77" x="87.7781" y="183.1426">_text : string</text><rect fill="none" height="6" style="stroke:#C82930;stroke-width:1.0;" width="6" x="75.7781" y="190.2188"/><text fill="#000000" font-family="sans-serif" font-size="14" lengthAdjust="spacing" textLength="91" x="87.7781" y="200.752">_height : short</text><ellipse cx="78.7781" cy="210.8281" fill="none" rx="3" ry="3" style="stroke:#038048;stroke-width:1.0;"/><text fill="#000000" font-family="sans-serif" font-size="14" lengthAdjust="spacing" textLength="162" x="87.7781" y="218.3613">Value : string «get» «set»</text><ellipse cx="78.7781" cy="228.4375" fill="none" rx="3" ry="3" style="stroke:#038048;stroke-width:1.0;"/><text fill="#000000" font-family="sans-serif" font-size="14" lengthAdjust="spacing" textLength="215" x="87.7781" y="235.9707">Style : TexTBoxStyles «get» «set»</text><ellipse cx="78.7781" cy="246.0469" fill="none" rx="3" ry="3" style="stroke:#038048;stroke-width:1.0;"/><text fill="#000000" font-family="sans-serif" font-size="14" lengthAdjust="spacing" textLength="163" x="87.7781" y="253.5801">Height : short «get» «set»</text><ellipse cx="78.7781" cy="263.6563" fill="none" rx="3" ry="3" style="stroke:#038048;stroke-width:1.0;"/><text fill="#000000" font-family="sans-serif" font-size="14" lengthAdjust="spacing" textLength="266" x="87.7781" y="271.1895">«event» TypedInto : EventHandler&lt;string&gt;</text><line style="stroke:#181818;stroke-width:0.5;" x1="68.7781" x2="371.7781" y1="278.2656" y2="278.2656"/><ellipse cx="78.7781" cy="289.2656" fill="#84BE84" rx="3" ry="3" style="stroke:#038048;stroke-width:1.0;"/><text fill="#000000" font-family="sans-serif" font-size="14" lengthAdjust="spacing" textLength="257" x="87.7781" y="296.7988">PmpTextBox(initialValue:string, tip:string)</text><text fill="#000000" font-family="sans-serif" font-size="14" lengthAdjust="spacing" textLength="279" x="87.7781" y="314.4082">«internal» TypedIntoCallback(e:string) : void</text></g><!--MD5=[0e4f282a4d71a359fc4b0132b5573ff6]
class PmpTextBase`1--><g id="elem_PmpTextBase`1"><rect fill="#F1F1F1" height="48" id="PmpTextBase`1" rx="2.5" ry="2.5" style="stroke:#181818;stroke-width:0.5;" width="132" x="154.2781" y="7"/><ellipse cx="169.2781" cy="23" fill="#ADD1B2" rx="11" ry="11" style="stroke:#181818;stroke-width:1.0;"/><path d="M172.0438,18.875 Q172.2,18.6563 172.3875,18.5469 Q172.575,18.4375 172.7938,18.4375 Q173.1688,18.4375 173.4031,18.7031 Q173.6375,18.9531 173.6375,19.5625 L173.6375,21.0156 Q173.6375,21.625 173.4031,21.8906 Q173.1688,22.1563 172.7938,22.1563 Q172.45,22.1563 172.2469,21.9531 Q172.0438,21.7656 171.9344,21.25 Q171.8875,20.8906 171.7,20.7031 Q171.3719,20.3281 170.7625,20.1094 Q170.1531,19.8906 169.5281,19.8906 Q168.7625,19.8906 168.1219,20.2188 Q167.4969,20.5469 166.9969,21.2969 Q166.5125,22.0469 166.5125,23.0781 L166.5125,24.1719 Q166.5125,25.4063 167.4031,26.2344 Q168.2938,27.0469 169.8875,27.0469 Q170.825,27.0469 171.4813,26.7969 Q171.8719,26.6406 172.2938,26.2031 Q172.5594,25.9375 172.7,25.8594 Q172.8563,25.7813 173.0594,25.7813 Q173.3875,25.7813 173.6375,26.0469 Q173.9031,26.2969 173.9031,26.6406 Q173.9031,26.9844 173.5594,27.3906 Q173.0594,27.9688 172.2625,28.2969 Q171.1844,28.75 169.8875,28.75 Q168.3719,28.75 167.1688,28.125 Q166.1844,27.625 165.4969,26.5625 Q164.8094,25.4844 164.8094,24.2031 L164.8094,23.0469 Q164.8094,21.7188 165.4188,20.5781 Q166.0438,19.4219 167.1375,18.8125 Q168.2313,18.1875 169.4656,18.1875 Q170.2,18.1875 170.8406,18.3594 Q171.4969,18.5156 172.0438,18.875 Z " fill="#000000"/><text fill="#000000" font-family="sans-serif" font-size="14" lengthAdjust="spacing" textLength="100" x="183.2781" y="28.7285">PmpTextBase`1</text><line style="stroke:#181818;stroke-width:0.5;" x1="155.2781" x2="285.2781" y1="39" y2="39"/><line style="stroke:#181818;stroke-width:0.5;" x1="155.2781" x2="285.2781" y1="47" y2="47"/></g><!--MD5=[548e5de0a7bc05332f3a7ed2795a48d9]
reverse link PmpTextBase`1 to PmpTextBox--><g id="link_PmpTextBase`1_PmpTextBox"><path codeLine="12" d="M220.2781,75.25 C220.2781,87.23 220.2781,100.76 220.2781,114.59 " fill="none" id="PmpTextBase`1-backto-PmpTextBox" style="stroke:#181818;stroke-width:1.0;"/><polygon fill="none" points="213.2781,75.06,220.2781,55.06,227.2781,75.06,213.2781,75.06" style="stroke:#181818;stroke-width:1.0;"/><text fill="#000000" font-family="sans-serif" font-size="13" lengthAdjust="spacing" textLength="191" x="6" y="76.4126">&lt;PropertyManagerPageTextbox&gt;</text></g><!--MD5=[4e7df1d3dc21024ea4cbf5388e30fdb4]
@startuml
class PmpTextBox {
    - _style : TexTBoxStyles
    - _text : string
    - _height : short
    + PmpTextBox(initialValue:string, tip:string)
    + Value : string <<get>> <<set>>
    + Style : TexTBoxStyles <<get>> <<set>>
    + Height : short <<get>> <<set>>
    <<internal>> TypedIntoCallback(e:string) : void
    +  <<event>> TypedInto : EventHandler<string> 
}
"PmpTextBase`1" "<PropertyManagerPageTextbox>" <|- - PmpTextBox
@enduml

PlantUML version 1.2022.5(Sat Apr 30 20:55:52 AEST 2022)
(GPL source distribution)
Java Runtime: OpenJDK Runtime Environment
JVM: OpenJDK 64-Bit Server VM
Default Encoding: Cp1252
Language: en
Country: AU
--></g></svg>