<?xml version="1.0" encoding="UTF-8" standalone="no"?><svg xmlns="http://www.w3.org/2000/svg" xmlns:xlink="http://www.w3.org/1999/xlink" contentStyleType="text/css" height="275px" preserveAspectRatio="none" style="width:1073px;height:275px;background:#FFFFFF;" version="1.1" viewBox="0 0 1073 275" width="1073px" zoomAndPan="magnify"><defs/><g><!--MD5=[3a605e0451e050278537ae19640e926e]
class AddinCommandGroup--><g id="elem_AddinCommandGroup"><rect codeLine="1" fill="#F1F1F1" height="153.6563" id="AddinCommandGroup" rx="2.5" ry="2.5" style="stroke:#181818;stroke-width:0.5;" width="1059" x="7" y="115"/><ellipse cx="462.25" cy="131" fill="#ADD1B2" rx="11" ry="11" style="stroke:#181818;stroke-width:1.0;"/><path d="M465.0156,126.875 Q465.1719,126.6563 465.3594,126.5469 Q465.5469,126.4375 465.7656,126.4375 Q466.1406,126.4375 466.375,126.7031 Q466.6094,126.9531 466.6094,127.5625 L466.6094,129.0156 Q466.6094,129.625 466.375,129.8906 Q466.1406,130.1563 465.7656,130.1563 Q465.4219,130.1563 465.2188,129.9531 Q465.0156,129.7656 464.9063,129.25 Q464.8594,128.8906 464.6719,128.7031 Q464.3438,128.3281 463.7344,128.1094 Q463.125,127.8906 462.5,127.8906 Q461.7344,127.8906 461.0938,128.2188 Q460.4688,128.5469 459.9688,129.2969 Q459.4844,130.0469 459.4844,131.0781 L459.4844,132.1719 Q459.4844,133.4063 460.375,134.2344 Q461.2656,135.0469 462.8594,135.0469 Q463.7969,135.0469 464.4531,134.7969 Q464.8438,134.6406 465.2656,134.2031 Q465.5313,133.9375 465.6719,133.8594 Q465.8281,133.7813 466.0313,133.7813 Q466.3594,133.7813 466.6094,134.0469 Q466.875,134.2969 466.875,134.6406 Q466.875,134.9844 466.5313,135.3906 Q466.0313,135.9688 465.2344,136.2969 Q464.1563,136.75 462.8594,136.75 Q461.3438,136.75 460.1406,136.125 Q459.1563,135.625 458.4688,134.5625 Q457.7813,133.4844 457.7813,132.2031 L457.7813,131.0469 Q457.7813,129.7188 458.3906,128.5781 Q459.0156,127.4219 460.1094,126.8125 Q461.2031,126.1875 462.4375,126.1875 Q463.1719,126.1875 463.8125,126.3594 Q464.4688,126.5156 465.0156,126.875 Z " fill="#000000"/><text fill="#000000" font-family="sans-serif" font-size="14" lengthAdjust="spacing" textLength="140" x="482.75" y="136.7285">AddinCommandGroup</text><line style="stroke:#181818;stroke-width:0.5;" x1="8" x2="1065" y1="147" y2="147"/><line style="stroke:#181818;stroke-width:0.5;" x1="8" x2="1065" y1="155" y2="155"/><ellipse cx="18" cy="166" fill="#84BE84" rx="3" ry="3" style="stroke:#038048;stroke-width:1.0;"/><text fill="#000000" font-family="sans-serif" font-size="14" lengthAdjust="spacing" textLength="150" x="27" y="173.5332">AddinCommandGroup()</text><ellipse cx="18" cy="183.6094" fill="#84BE84" rx="3" ry="3" style="stroke:#038048;stroke-width:1.0;"/><text fill="#000000" font-family="sans-serif" font-size="14" lengthAdjust="spacing" textLength="1033" x="27" y="191.1426">AddinCommandGroup(userId:int, commands:AddinCommand[], title:string, description:string, tooltip:string, hint:string, icon:Bitmap, hasToolbar:bool, hasMenue:bool)</text><rect fill="#F24D5C" height="6" style="stroke:#C82930;stroke-width:1.0;" width="6" x="15" y="198.2188"/><text fill="#000000" font-family="sans-serif" font-size="14" lengthAdjust="spacing" textLength="301" x="27" y="208.752">RegisterIcons(swGroup:ICommandGroup) : void</text><ellipse cx="18" cy="218.8281" fill="#84BE84" rx="3" ry="3" style="stroke:#038048;stroke-width:1.0;"/><text fill="#000000" font-family="sans-serif" font-size="14" lengthAdjust="spacing" textLength="417" x="27" y="226.3613">«override» Register(commandManager:ICommandManager) : void</text><rect fill="#F24D5C" height="6" style="stroke:#C82930;stroke-width:1.0;" width="6" x="15" y="233.4375"/><text fill="#000000" font-family="sans-serif" font-size="14" lengthAdjust="spacing" textLength="473" x="27" y="243.9707">CheckRegistryForThisGroup(commandManager:ICommandManager) : void</text><rect fill="#F24D5C" height="6" style="stroke:#C82930;stroke-width:1.0;" width="6" x="15" y="251.0469"/><text fill="#000000" font-family="sans-serif" font-size="14" lengthAdjust="spacing" textLength="302" x="27" y="261.5801">IdsAreEqual(storedIDs:int[], addinIDs:int[]) : bool</text></g><!--MD5=[bcc9b4dd651af55da1f19aee2478b71d]
class AddinCommandGroupBase--><g id="elem_AddinCommandGroupBase"><rect fill="#F1F1F1" height="48" id="AddinCommandGroupBase" rx="2.5" ry="2.5" style="stroke:#181818;stroke-width:0.5;" width="204" x="434.5" y="7"/><ellipse cx="449.5" cy="23" fill="#ADD1B2" rx="11" ry="11" style="stroke:#181818;stroke-width:1.0;"/><path d="M452.2656,18.875 Q452.4219,18.6563 452.6094,18.5469 Q452.7969,18.4375 453.0156,18.4375 Q453.3906,18.4375 453.625,18.7031 Q453.8594,18.9531 453.8594,19.5625 L453.8594,21.0156 Q453.8594,21.625 453.625,21.8906 Q453.3906,22.1563 453.0156,22.1563 Q452.6719,22.1563 452.4688,21.9531 Q452.2656,21.7656 452.1563,21.25 Q452.1094,20.8906 451.9219,20.7031 Q451.5938,20.3281 450.9844,20.1094 Q450.375,19.8906 449.75,19.8906 Q448.9844,19.8906 448.3438,20.2188 Q447.7188,20.5469 447.2188,21.2969 Q446.7344,22.0469 446.7344,23.0781 L446.7344,24.1719 Q446.7344,25.4063 447.625,26.2344 Q448.5156,27.0469 450.1094,27.0469 Q451.0469,27.0469 451.7031,26.7969 Q452.0938,26.6406 452.5156,26.2031 Q452.7813,25.9375 452.9219,25.8594 Q453.0781,25.7813 453.2813,25.7813 Q453.6094,25.7813 453.8594,26.0469 Q454.125,26.2969 454.125,26.6406 Q454.125,26.9844 453.7813,27.3906 Q453.2813,27.9688 452.4844,28.2969 Q451.4063,28.75 450.1094,28.75 Q448.5938,28.75 447.3906,28.125 Q446.4063,27.625 445.7188,26.5625 Q445.0313,25.4844 445.0313,24.2031 L445.0313,23.0469 Q445.0313,21.7188 445.6406,20.5781 Q446.2656,19.4219 447.3594,18.8125 Q448.4531,18.1875 449.6875,18.1875 Q450.4219,18.1875 451.0625,18.3594 Q451.7188,18.5156 452.2656,18.875 Z " fill="#000000"/><text fill="#000000" font-family="sans-serif" font-size="14" lengthAdjust="spacing" textLength="172" x="463.5" y="28.7285">AddinCommandGroupBase</text><line style="stroke:#181818;stroke-width:0.5;" x1="435.5" x2="637.5" y1="39" y2="39"/><line style="stroke:#181818;stroke-width:0.5;" x1="435.5" x2="637.5" y1="47" y2="47"/></g><!--MD5=[dcb3eb751f58b2f00a9539dba4318c09]
reverse link AddinCommandGroupBase to AddinCommandGroup--><g id="link_AddinCommandGroupBase_AddinCommandGroup"><path codeLine="9" d="M536.5,75.21 C536.5,87.43 536.5,101.11 536.5,114.67 " fill="none" id="AddinCommandGroupBase-backto-AddinCommandGroup" style="stroke:#181818;stroke-width:1.0;"/><polygon fill="none" points="529.5,75.12,536.5,55.12,543.5,75.12,529.5,75.12" style="stroke:#181818;stroke-width:1.0;"/></g><!--MD5=[7208b7ce5bde6cbbad01af2e458f25cc]
@startuml
class AddinCommandGroup {
    + AddinCommandGroup()
    + AddinCommandGroup(userId:int, commands:AddinCommand[], title:string, description:string, tooltip:string, hint:string, icon:Bitmap, hasToolbar:bool, hasMenue:bool)
    - RegisterIcons(swGroup:ICommandGroup) : void
    + <<override>> Register(commandManager:ICommandManager) : void
    - CheckRegistryForThisGroup(commandManager:ICommandManager) : void
    - IdsAreEqual(storedIDs:int[], addinIDs:int[]) : bool
}
AddinCommandGroupBase <|- - AddinCommandGroup
@enduml

PlantUML version 1.2022.5(Sat Apr 30 20:55:52 AEST 2022)
(GPL source distribution)
Java Runtime: OpenJDK Runtime Environment
JVM: OpenJDK 64-Bit Server VM
Default Encoding: Cp1252
Language: en
Country: AU
--></g></svg>