<?xml version="1.0" encoding="UTF-8" standalone="no"?><svg xmlns="http://www.w3.org/2000/svg" xmlns:xlink="http://www.w3.org/1999/xlink" contentStyleType="text/css" height="293px" preserveAspectRatio="none" style="width:731px;height:293px;background:#FFFFFF;" version="1.1" viewBox="0 0 731 293" width="731px" zoomAndPan="magnify"><defs/><g><!--MD5=[4c267ef2efc1c6ae44d5d125239bbee8]
class PmpGroupCheckable--><g id="elem_PmpGroupCheckable"><rect codeLine="1" fill="#F1F1F1" height="171.2656" id="PmpGroupCheckable" rx="2.5" ry="2.5" style="stroke:#181818;stroke-width:0.5;" width="717" x="7" y="115"/><ellipse cx="293.75" cy="131" fill="#ADD1B2" rx="11" ry="11" style="stroke:#181818;stroke-width:1.0;"/><path d="M296.5156,126.875 Q296.6719,126.6563 296.8594,126.5469 Q297.0469,126.4375 297.2656,126.4375 Q297.6406,126.4375 297.875,126.7031 Q298.1094,126.9531 298.1094,127.5625 L298.1094,129.0156 Q298.1094,129.625 297.875,129.8906 Q297.6406,130.1563 297.2656,130.1563 Q296.9219,130.1563 296.7188,129.9531 Q296.5156,129.7656 296.4063,129.25 Q296.3594,128.8906 296.1719,128.7031 Q295.8438,128.3281 295.2344,128.1094 Q294.625,127.8906 294,127.8906 Q293.2344,127.8906 292.5938,128.2188 Q291.9688,128.5469 291.4688,129.2969 Q290.9844,130.0469 290.9844,131.0781 L290.9844,132.1719 Q290.9844,133.4063 291.875,134.2344 Q292.7656,135.0469 294.3594,135.0469 Q295.2969,135.0469 295.9531,134.7969 Q296.3438,134.6406 296.7656,134.2031 Q297.0313,133.9375 297.1719,133.8594 Q297.3281,133.7813 297.5313,133.7813 Q297.8594,133.7813 298.1094,134.0469 Q298.375,134.2969 298.375,134.6406 Q298.375,134.9844 298.0313,135.3906 Q297.5313,135.9688 296.7344,136.2969 Q295.6563,136.75 294.3594,136.75 Q292.8438,136.75 291.6406,136.125 Q290.6563,135.625 289.9688,134.5625 Q289.2813,133.4844 289.2813,132.2031 L289.2813,131.0469 Q289.2813,129.7188 289.8906,128.5781 Q290.5156,127.4219 291.6094,126.8125 Q292.7031,126.1875 293.9375,126.1875 Q294.6719,126.1875 295.3125,126.3594 Q295.9688,126.5156 296.5156,126.875 Z " fill="#000000"/><text fill="#000000" font-family="sans-serif" font-size="14" lengthAdjust="spacing" textLength="135" x="314.25" y="136.7285">PmpGroupCheckable</text><line style="stroke:#181818;stroke-width:0.5;" x1="8" x2="723" y1="147" y2="147"/><rect fill="none" height="6" style="stroke:#C82930;stroke-width:1.0;" width="6" x="15" y="155"/><text fill="#000000" font-family="sans-serif" font-size="14" lengthAdjust="spacing" textLength="113" x="27" y="165.5332">_isChecked : bool</text><ellipse cx="18" cy="175.6094" fill="none" rx="3" ry="3" style="stroke:#038048;stroke-width:1.0;"/><text fill="#000000" font-family="sans-serif" font-size="14" lengthAdjust="spacing" textLength="184" x="27" y="183.1426">IsChecked : bool «get» «set»</text><ellipse cx="18" cy="193.2188" fill="none" rx="3" ry="3" style="stroke:#038048;stroke-width:1.0;"/><text fill="#000000" font-family="sans-serif" font-size="14" lengthAdjust="spacing" textLength="251" x="27" y="200.752">«event» Checked : EventHandler&lt;bool&gt;</text><line style="stroke:#181818;stroke-width:0.5;" x1="8" x2="723" y1="207.8281" y2="207.8281"/><ellipse cx="18" cy="218.8281" fill="#84BE84" rx="3" ry="3" style="stroke:#038048;stroke-width:1.0;"/><text fill="#000000" font-family="sans-serif" font-size="14" lengthAdjust="spacing" textLength="514" x="27" y="226.3613">PmpGroupCheckable(caption:string, visible:bool, isChecked:bool, expanded:bool)</text><rect fill="#F24D5C" height="6" style="stroke:#C82930;stroke-width:1.0;" width="6" x="15" y="233.4375"/><text fill="#000000" font-family="sans-serif" font-size="14" lengthAdjust="spacing" textLength="427" x="27" y="243.9707">PmpGroupCheckable_OnDisplay(sender:object, e:EventArgs) : void</text><ellipse cx="18" cy="254.0469" fill="#84BE84" rx="3" ry="3" style="stroke:#038048;stroke-width:1.0;"/><text fill="#000000" font-family="sans-serif" font-size="14" lengthAdjust="spacing" textLength="691" x="27" y="261.5801">PmpGroupCheckable(caption:string, controls:List&lt;IPmpControl&gt;, visible:bool, isChecked:bool, expanded:bool)</text><text fill="#000000" font-family="sans-serif" font-size="14" lengthAdjust="spacing" textLength="334" x="27" y="279.1895">«internal» GroupCheckedCallback(status:bool) : void</text></g><!--MD5=[1eab5db66f36077dd00e46d2c26d316b]
class PmpGroup--><g id="elem_PmpGroup"><rect fill="#F1F1F1" height="48" id="PmpGroup" rx="2.5" ry="2.5" style="stroke:#181818;stroke-width:0.5;" width="100" x="315.5" y="7"/><ellipse cx="330.5" cy="23" fill="#ADD1B2" rx="11" ry="11" style="stroke:#181818;stroke-width:1.0;"/><path d="M333.2656,18.875 Q333.4219,18.6563 333.6094,18.5469 Q333.7969,18.4375 334.0156,18.4375 Q334.3906,18.4375 334.625,18.7031 Q334.8594,18.9531 334.8594,19.5625 L334.8594,21.0156 Q334.8594,21.625 334.625,21.8906 Q334.3906,22.1563 334.0156,22.1563 Q333.6719,22.1563 333.4688,21.9531 Q333.2656,21.7656 333.1563,21.25 Q333.1094,20.8906 332.9219,20.7031 Q332.5938,20.3281 331.9844,20.1094 Q331.375,19.8906 330.75,19.8906 Q329.9844,19.8906 329.3438,20.2188 Q328.7188,20.5469 328.2188,21.2969 Q327.7344,22.0469 327.7344,23.0781 L327.7344,24.1719 Q327.7344,25.4063 328.625,26.2344 Q329.5156,27.0469 331.1094,27.0469 Q332.0469,27.0469 332.7031,26.7969 Q333.0938,26.6406 333.5156,26.2031 Q333.7813,25.9375 333.9219,25.8594 Q334.0781,25.7813 334.2813,25.7813 Q334.6094,25.7813 334.8594,26.0469 Q335.125,26.2969 335.125,26.6406 Q335.125,26.9844 334.7813,27.3906 Q334.2813,27.9688 333.4844,28.2969 Q332.4063,28.75 331.1094,28.75 Q329.5938,28.75 328.3906,28.125 Q327.4063,27.625 326.7188,26.5625 Q326.0313,25.4844 326.0313,24.2031 L326.0313,23.0469 Q326.0313,21.7188 326.6406,20.5781 Q327.2656,19.4219 328.3594,18.8125 Q329.4531,18.1875 330.6875,18.1875 Q331.4219,18.1875 332.0625,18.3594 Q332.7188,18.5156 333.2656,18.875 Z " fill="#000000"/><text fill="#000000" font-family="sans-serif" font-size="14" lengthAdjust="spacing" textLength="68" x="344.5" y="28.7285">PmpGroup</text><line style="stroke:#181818;stroke-width:0.5;" x1="316.5" x2="414.5" y1="39" y2="39"/><line style="stroke:#181818;stroke-width:0.5;" x1="316.5" x2="414.5" y1="47" y2="47"/></g><!--MD5=[c167afc578c5e8fc59b0abfac35e0ebd]
reverse link PmpGroup to PmpGroupCheckable--><g id="link_PmpGroup_PmpGroupCheckable"><path codeLine="10" d="M365.5,75.7 C365.5,87.74 365.5,101.24 365.5,114.76 " fill="none" id="PmpGroup-backto-PmpGroupCheckable" style="stroke:#181818;stroke-width:1.0;"/><polygon fill="none" points="358.5,75.29,365.5,55.29,372.5,75.29,358.5,75.29" style="stroke:#181818;stroke-width:1.0;"/></g><!--MD5=[ee12a238c14ccea9a04660712775e572]
@startuml
class PmpGroupCheckable {
    - _isChecked : bool
    + PmpGroupCheckable(caption:string, visible:bool, isChecked:bool, expanded:bool)
    - PmpGroupCheckable_OnDisplay(sender:object, e:EventArgs) : void
    + PmpGroupCheckable(caption:string, controls:List<IPmpControl>, visible:bool, isChecked:bool, expanded:bool)
    + IsChecked : bool <<get>> <<set>>
    <<internal>> GroupCheckedCallback(status:bool) : void
    +  <<event>> Checked : EventHandler<bool> 
}
PmpGroup <|- - PmpGroupCheckable
@enduml

PlantUML version 1.2022.5(Sat Apr 30 20:55:52 AEST 2022)
(GPL source distribution)
Java Runtime: OpenJDK Runtime Environment
JVM: OpenJDK 64-Bit Server VM
Default Encoding: Cp1252
Language: en
Country: AU
--></g></svg>