<?xml version="1.0" encoding="UTF-8" standalone="no"?><svg xmlns="http://www.w3.org/2000/svg" xmlns:xlink="http://www.w3.org/1999/xlink" contentStyleType="text/css" height="240px" preserveAspectRatio="none" style="width:606px;height:240px;background:#FFFFFF;" version="1.1" viewBox="0 0 606 240" width="606px" zoomAndPan="magnify"><defs/><g><!--MD5=[a4dacab61d0feeb1115718693f2217dd]
class PmpSelectionBoxSelectionSubmittedEventArgs--><g id="elem_PmpSelectionBoxSelectionSubmittedEventArgs"><rect codeLine="1" fill="#F1F1F1" height="118.4375" id="PmpSelectionBoxSelectionSubmittedEventArgs" rx="2.5" ry="2.5" style="stroke:#181818;stroke-width:0.5;" width="592" x="7" y="115"/><ellipse cx="151.25" cy="131" fill="#ADD1B2" rx="11" ry="11" style="stroke:#181818;stroke-width:1.0;"/><path d="M154.0156,126.875 Q154.1719,126.6563 154.3594,126.5469 Q154.5469,126.4375 154.7656,126.4375 Q155.1406,126.4375 155.375,126.7031 Q155.6094,126.9531 155.6094,127.5625 L155.6094,129.0156 Q155.6094,129.625 155.375,129.8906 Q155.1406,130.1563 154.7656,130.1563 Q154.4219,130.1563 154.2188,129.9531 Q154.0156,129.7656 153.9063,129.25 Q153.8594,128.8906 153.6719,128.7031 Q153.3438,128.3281 152.7344,128.1094 Q152.125,127.8906 151.5,127.8906 Q150.7344,127.8906 150.0938,128.2188 Q149.4688,128.5469 148.9688,129.2969 Q148.4844,130.0469 148.4844,131.0781 L148.4844,132.1719 Q148.4844,133.4063 149.375,134.2344 Q150.2656,135.0469 151.8594,135.0469 Q152.7969,135.0469 153.4531,134.7969 Q153.8438,134.6406 154.2656,134.2031 Q154.5313,133.9375 154.6719,133.8594 Q154.8281,133.7813 155.0313,133.7813 Q155.3594,133.7813 155.6094,134.0469 Q155.875,134.2969 155.875,134.6406 Q155.875,134.9844 155.5313,135.3906 Q155.0313,135.9688 154.2344,136.2969 Q153.1563,136.75 151.8594,136.75 Q150.3438,136.75 149.1406,136.125 Q148.1563,135.625 147.4688,134.5625 Q146.7813,133.4844 146.7813,132.2031 L146.7813,131.0469 Q146.7813,129.7188 147.3906,128.5781 Q148.0156,127.4219 149.1094,126.8125 Q150.2031,126.1875 151.4375,126.1875 Q152.1719,126.1875 152.8125,126.3594 Q153.4688,126.5156 154.0156,126.875 Z " fill="#000000"/><text fill="#000000" font-family="sans-serif" font-size="14" lengthAdjust="spacing" textLength="295" x="171.75" y="136.7285">PmpSelectionBoxSelectionSubmittedEventArgs</text><line style="stroke:#181818;stroke-width:0.5;" x1="8" x2="598" y1="147" y2="147"/><ellipse cx="18" cy="158" fill="none" rx="3" ry="3" style="stroke:#038048;stroke-width:1.0;"/><text fill="#000000" font-family="sans-serif" font-size="14" lengthAdjust="spacing" textLength="148" x="27" y="165.5332">Selection : object «get»</text><ellipse cx="18" cy="175.6094" fill="none" rx="3" ry="3" style="stroke:#038048;stroke-width:1.0;"/><text fill="#000000" font-family="sans-serif" font-size="14" lengthAdjust="spacing" textLength="138" x="27" y="183.1426">SelectType : int «get»</text><ellipse cx="18" cy="193.2188" fill="none" rx="3" ry="3" style="stroke:#038048;stroke-width:1.0;"/><text fill="#000000" font-family="sans-serif" font-size="14" lengthAdjust="spacing" textLength="112" x="27" y="200.752">Tag : string «get»</text><line style="stroke:#181818;stroke-width:0.5;" x1="8" x2="598" y1="207.8281" y2="207.8281"/><ellipse cx="18" cy="218.8281" fill="#84BE84" rx="3" ry="3" style="stroke:#038048;stroke-width:1.0;"/><text fill="#000000" font-family="sans-serif" font-size="14" lengthAdjust="spacing" textLength="566" x="27" y="226.3613">PmpSelectionBoxSelectionSubmittedEventArgs(selection:object, selectType:int, tag:string)</text></g><!--MD5=[1c14bf0385f8259d3eee07ec9ae2327d]
class EventArgs--><g id="elem_EventArgs"><rect fill="#F1F1F1" height="48" id="EventArgs" rx="2.5" ry="2.5" style="stroke:#181818;stroke-width:0.5;" width="97" x="254.5" y="7"/><ellipse cx="269.5" cy="23" fill="#ADD1B2" rx="11" ry="11" style="stroke:#181818;stroke-width:1.0;"/><path d="M272.2656,18.875 Q272.4219,18.6563 272.6094,18.5469 Q272.7969,18.4375 273.0156,18.4375 Q273.3906,18.4375 273.625,18.7031 Q273.8594,18.9531 273.8594,19.5625 L273.8594,21.0156 Q273.8594,21.625 273.625,21.8906 Q273.3906,22.1563 273.0156,22.1563 Q272.6719,22.1563 272.4688,21.9531 Q272.2656,21.7656 272.1563,21.25 Q272.1094,20.8906 271.9219,20.7031 Q271.5938,20.3281 270.9844,20.1094 Q270.375,19.8906 269.75,19.8906 Q268.9844,19.8906 268.3438,20.2188 Q267.7188,20.5469 267.2188,21.2969 Q266.7344,22.0469 266.7344,23.0781 L266.7344,24.1719 Q266.7344,25.4063 267.625,26.2344 Q268.5156,27.0469 270.1094,27.0469 Q271.0469,27.0469 271.7031,26.7969 Q272.0938,26.6406 272.5156,26.2031 Q272.7813,25.9375 272.9219,25.8594 Q273.0781,25.7813 273.2813,25.7813 Q273.6094,25.7813 273.8594,26.0469 Q274.125,26.2969 274.125,26.6406 Q274.125,26.9844 273.7813,27.3906 Q273.2813,27.9688 272.4844,28.2969 Q271.4063,28.75 270.1094,28.75 Q268.5938,28.75 267.3906,28.125 Q266.4063,27.625 265.7188,26.5625 Q265.0313,25.4844 265.0313,24.2031 L265.0313,23.0469 Q265.0313,21.7188 265.6406,20.5781 Q266.2656,19.4219 267.3594,18.8125 Q268.4531,18.1875 269.6875,18.1875 Q270.4219,18.1875 271.0625,18.3594 Q271.7188,18.5156 272.2656,18.875 Z " fill="#000000"/><text fill="#000000" font-family="sans-serif" font-size="14" lengthAdjust="spacing" textLength="65" x="283.5" y="28.7285">EventArgs</text><line style="stroke:#181818;stroke-width:0.5;" x1="255.5" x2="350.5" y1="39" y2="39"/><line style="stroke:#181818;stroke-width:0.5;" x1="255.5" x2="350.5" y1="47" y2="47"/></g><!--MD5=[cdd423e96662acdfa0012c1b354b7e5c]
reverse link EventArgs to PmpSelectionBoxSelectionSubmittedEventArgs--><g id="link_EventArgs_PmpSelectionBoxSelectionSubmittedEventArgs"><path codeLine="7" d="M303,75.33 C303,87.86 303,101.73 303,114.99 " fill="none" id="EventArgs-backto-PmpSelectionBoxSelectionSubmittedEventArgs" style="stroke:#181818;stroke-width:1.0;"/><polygon fill="none" points="296,75.28,303,55.28,310,75.28,296,75.28" style="stroke:#181818;stroke-width:1.0;"/></g><!--MD5=[436ea374d7bb3c38486600b714917531]
@startuml
class PmpSelectionBoxSelectionSubmittedEventArgs {
    + PmpSelectionBoxSelectionSubmittedEventArgs(selection:object, selectType:int, tag:string)
    + Selection : object <<get>>
    + SelectType : int <<get>>
    + Tag : string <<get>>
}
EventArgs <|- - PmpSelectionBoxSelectionSubmittedEventArgs
@enduml

PlantUML version 1.2022.5(Sat Apr 30 20:55:52 AEST 2022)
(GPL source distribution)
Java Runtime: OpenJDK Runtime Environment
JVM: OpenJDK 64-Bit Server VM
Default Encoding: Cp1252
Language: en
Country: AU
--></g></svg>