<?xml version="1.0" encoding="UTF-8" standalone="no"?><svg xmlns="http://www.w3.org/2000/svg" xmlns:xlink="http://www.w3.org/1999/xlink" contentStyleType="text/css" height="121px" preserveAspectRatio="none" style="width:170px;height:121px;background:#FFFFFF;" version="1.1" viewBox="0 0 170 121" width="170px" zoomAndPan="magnify"><defs/><g><!--MD5=[53ef0c80faade517a22cbfc35fd96eba]
class ListboxStyles--><g id="elem_ListboxStyles"><rect codeLine="1" fill="#F1F1F1" height="100.8281" id="ListboxStyles" rx="2.5" ry="2.5" style="stroke:#181818;stroke-width:0.5;" width="149" x="7" y="7"/><ellipse cx="37.75" cy="23" fill="#EB937F" rx="11" ry="11" style="stroke:#181818;stroke-width:1.0;"/><path d="M36.6094,23.7969 L36.6094,26.2969 L40.9375,26.2969 L40.9375,25.375 Q40.9375,24.7656 41.1719,24.5 Q41.4219,24.2344 41.7969,24.2344 Q42.1719,24.2344 42.4063,24.5 Q42.6406,24.7656 42.6406,25.375 L42.6406,28 L34.6406,28 Q34.0156,28 33.75,27.7656 Q33.5,27.5313 33.5,27.1406 Q33.5,26.7656 33.7656,26.5313 Q34.0313,26.2969 34.6406,26.2969 L34.9063,26.2969 L34.9063,19.6406 L34.6406,19.6406 Q34.0156,19.6406 33.75,19.4063 Q33.5,19.1719 33.5,18.7813 Q33.5,18.4063 33.75,18.1719 Q34.0156,17.9375 34.6406,17.9375 L42.2656,17.9375 L42.2656,20.5313 Q42.2656,21.1406 42.0313,21.4063 Q41.8125,21.6563 41.4219,21.6563 Q41.0469,21.6563 40.8125,21.4063 Q40.5781,21.1406 40.5781,20.5313 L40.5781,19.6406 L36.6094,19.6406 L36.6094,22.0938 L38.0938,22.0938 Q38.0938,21.4375 38.2188,21.25 Q38.4844,20.8438 38.9531,20.8438 Q39.3281,20.8438 39.5625,21.1094 Q39.7969,21.3594 39.7969,21.9688 L39.7969,23.9375 Q39.7969,24.4844 39.6719,24.6719 Q39.4063,25.0625 38.9531,25.0625 Q38.4844,25.0625 38.2188,24.6563 Q38.0938,24.4688 38.0938,23.7969 L36.6094,23.7969 Z " fill="#000000"/><text fill="#000000" font-family="sans-serif" font-size="14" lengthAdjust="spacing" textLength="82" x="55.25" y="28.7285">ListboxStyles</text><line style="stroke:#181818;stroke-width:0.5;" x1="8" x2="155" y1="39" y2="39"/><text fill="#000000" font-family="sans-serif" font-size="14" lengthAdjust="spacing" textLength="124" x="13" y="57.5332">AllowMultiSelect= 4,</text><text fill="#000000" font-family="sans-serif" font-size="14" lengthAdjust="spacing" textLength="128" x="13" y="75.1426">NoIntegralHeight= 2,</text><text fill="#000000" font-family="sans-serif" font-size="14" lengthAdjust="spacing" textLength="137" x="13" y="92.752">SortAlphabetically= 1,</text><line style="stroke:#181818;stroke-width:0.5;" x1="8" x2="155" y1="99.8281" y2="99.8281"/></g><!--MD5=[08e12a5367bb695a93f7883cf7612173]
@startuml
enum ListboxStyles {
    AllowMultiSelect= 4,
    NoIntegralHeight= 2,
    SortAlphabetically= 1,
}
@enduml

PlantUML version 1.2022.5(Sat Apr 30 20:55:52 AEST 2022)
(GPL source distribution)
Java Runtime: OpenJDK Runtime Environment
JVM: OpenJDK 64-Bit Server VM
Default Encoding: Cp1252
Language: en
Country: AU
--></g></svg>