<?xml version="1.0" encoding="UTF-8" standalone="no"?><svg xmlns="http://www.w3.org/2000/svg" xmlns:xlink="http://www.w3.org/1999/xlink" contentStyleType="text/css" height="222px" preserveAspectRatio="none" style="width:504px;height:222px;background:#FFFFFF;" version="1.1" viewBox="0 0 504 222" width="504px" zoomAndPan="magnify"><defs/><g><!--MD5=[fd68f5a82e1170e06f5e76435252f6ed]
class SolidworksCalloutHandler--><g id="elem_SolidworksCalloutHandler"><rect codeLine="1" fill="#F1F1F1" height="100.8281" id="SolidworksCalloutHandler" rx="2.5" ry="2.5" style="stroke:#181818;stroke-width:0.5;" width="490" x="7" y="115"/><ellipse cx="167.75" cy="131" fill="#ADD1B2" rx="11" ry="11" style="stroke:#181818;stroke-width:1.0;"/><path d="M170.5156,126.875 Q170.6719,126.6563 170.8594,126.5469 Q171.0469,126.4375 171.2656,126.4375 Q171.6406,126.4375 171.875,126.7031 Q172.1094,126.9531 172.1094,127.5625 L172.1094,129.0156 Q172.1094,129.625 171.875,129.8906 Q171.6406,130.1563 171.2656,130.1563 Q170.9219,130.1563 170.7188,129.9531 Q170.5156,129.7656 170.4063,129.25 Q170.3594,128.8906 170.1719,128.7031 Q169.8438,128.3281 169.2344,128.1094 Q168.625,127.8906 168,127.8906 Q167.2344,127.8906 166.5938,128.2188 Q165.9688,128.5469 165.4688,129.2969 Q164.9844,130.0469 164.9844,131.0781 L164.9844,132.1719 Q164.9844,133.4063 165.875,134.2344 Q166.7656,135.0469 168.3594,135.0469 Q169.2969,135.0469 169.9531,134.7969 Q170.3438,134.6406 170.7656,134.2031 Q171.0313,133.9375 171.1719,133.8594 Q171.3281,133.7813 171.5313,133.7813 Q171.8594,133.7813 172.1094,134.0469 Q172.375,134.2969 172.375,134.6406 Q172.375,134.9844 172.0313,135.3906 Q171.5313,135.9688 170.7344,136.2969 Q169.6563,136.75 168.3594,136.75 Q166.8438,136.75 165.6406,136.125 Q164.6563,135.625 163.9688,134.5625 Q163.2813,133.4844 163.2813,132.2031 L163.2813,131.0469 Q163.2813,129.7188 163.8906,128.5781 Q164.5156,127.4219 165.6094,126.8125 Q166.7031,126.1875 167.9375,126.1875 Q168.6719,126.1875 169.3125,126.3594 Q169.9688,126.5156 170.5156,126.875 Z " fill="#000000"/><text fill="#000000" font-family="sans-serif" font-size="14" lengthAdjust="spacing" textLength="160" x="188.25" y="136.7285">SolidworksCalloutHandler</text><line style="stroke:#181818;stroke-width:0.5;" x1="8" x2="496" y1="147" y2="147"/><rect fill="none" height="6" style="stroke:#C82930;stroke-width:1.0;" width="6" x="15" y="155"/><text fill="#000000" font-family="sans-serif" font-size="14" lengthAdjust="spacing" textLength="143" x="27" y="165.5332">_callout : CalloutModel</text><line style="stroke:#181818;stroke-width:0.5;" x1="8" x2="496" y1="172.6094" y2="172.6094"/><ellipse cx="18" cy="183.6094" fill="#84BE84" rx="3" ry="3" style="stroke:#038048;stroke-width:1.0;"/><text fill="#000000" font-family="sans-serif" font-size="14" lengthAdjust="spacing" textLength="297" x="27" y="191.1426">SolidworksCalloutHandler(callout:CalloutModel)</text><text fill="#000000" font-family="sans-serif" font-size="14" lengthAdjust="spacing" textLength="464" x="27" y="208.752">OnStringValueChanged(pManipulator:object, RowID:int, Text:string) : bool</text></g><!--MD5=[89be9749c26b1a0fe077ac669e49bcee]
class SwCalloutHandler--><g id="elem_SwCalloutHandler"><rect fill="#F1F1F1" height="48" id="SwCalloutHandler" rx="2.5" ry="2.5" style="stroke:#181818;stroke-width:0.5;" width="143" x="180.5" y="7"/><ellipse cx="195.5" cy="23" fill="#ADD1B2" rx="11" ry="11" style="stroke:#181818;stroke-width:1.0;"/><path d="M198.2656,18.875 Q198.4219,18.6563 198.6094,18.5469 Q198.7969,18.4375 199.0156,18.4375 Q199.3906,18.4375 199.625,18.7031 Q199.8594,18.9531 199.8594,19.5625 L199.8594,21.0156 Q199.8594,21.625 199.625,21.8906 Q199.3906,22.1563 199.0156,22.1563 Q198.6719,22.1563 198.4688,21.9531 Q198.2656,21.7656 198.1563,21.25 Q198.1094,20.8906 197.9219,20.7031 Q197.5938,20.3281 196.9844,20.1094 Q196.375,19.8906 195.75,19.8906 Q194.9844,19.8906 194.3438,20.2188 Q193.7188,20.5469 193.2188,21.2969 Q192.7344,22.0469 192.7344,23.0781 L192.7344,24.1719 Q192.7344,25.4063 193.625,26.2344 Q194.5156,27.0469 196.1094,27.0469 Q197.0469,27.0469 197.7031,26.7969 Q198.0938,26.6406 198.5156,26.2031 Q198.7813,25.9375 198.9219,25.8594 Q199.0781,25.7813 199.2813,25.7813 Q199.6094,25.7813 199.8594,26.0469 Q200.125,26.2969 200.125,26.6406 Q200.125,26.9844 199.7813,27.3906 Q199.2813,27.9688 198.4844,28.2969 Q197.4063,28.75 196.1094,28.75 Q194.5938,28.75 193.3906,28.125 Q192.4063,27.625 191.7188,26.5625 Q191.0313,25.4844 191.0313,24.2031 L191.0313,23.0469 Q191.0313,21.7188 191.6406,20.5781 Q192.2656,19.4219 193.3594,18.8125 Q194.4531,18.1875 195.6875,18.1875 Q196.4219,18.1875 197.0625,18.3594 Q197.7188,18.5156 198.2656,18.875 Z " fill="#000000"/><text fill="#000000" font-family="sans-serif" font-size="14" lengthAdjust="spacing" textLength="111" x="209.5" y="28.7285">SwCalloutHandler</text><line style="stroke:#181818;stroke-width:0.5;" x1="181.5" x2="322.5" y1="39" y2="39"/><line style="stroke:#181818;stroke-width:0.5;" x1="181.5" x2="322.5" y1="47" y2="47"/></g><!--MD5=[09550918d7dbc2e6f0fee462b7d28bcc]
reverse link SwCalloutHandler to SolidworksCalloutHandler--><g id="link_SwCalloutHandler_SolidworksCalloutHandler"><path codeLine="6" d="M252,75.34 C252,87.95 252,101.82 252,114.8 " fill="none" id="SwCalloutHandler-backto-SolidworksCalloutHandler" style="stroke:#181818;stroke-width:1.0;"/><polygon fill="none" points="245,75.08,252,55.08,259,75.08,245,75.08" style="stroke:#181818;stroke-width:1.0;"/></g><!--MD5=[a3bc4f189cf4e245d83f8fb0a244b6a6]
@startuml
class SolidworksCalloutHandler {
    + SolidworksCalloutHandler(callout:CalloutModel)
    - _callout : CalloutModel
    OnStringValueChanged(pManipulator:object, RowID:int, Text:string) : bool
}
SwCalloutHandler <|- - SolidworksCalloutHandler
@enduml

PlantUML version 1.2022.5(Sat Apr 30 20:55:52 AEST 2022)
(GPL source distribution)
Java Runtime: OpenJDK Runtime Environment
JVM: OpenJDK 64-Bit Server VM
Default Encoding: Cp1252
Language: en
Country: AU
--></g></svg>