<?xml version="1.0" encoding="UTF-8" standalone="no"?><svg xmlns="http://www.w3.org/2000/svg" xmlns:xlink="http://www.w3.org/1999/xlink" contentStyleType="text/css" height="575px" preserveAspectRatio="none" style="width:564px;height:575px;background:#FFFFFF;" version="1.1" viewBox="0 0 564 575" width="564px" zoomAndPan="magnify"><defs/><g><!--MD5=[16d1c8e9bc98ffbc88c261eac3d1db1f]
class PmpListBox--><g id="elem_PmpListBox"><rect codeLine="1" fill="#F1F1F1" height="453.0156" id="PmpListBox" rx="2.5" ry="2.5" style="stroke:#181818;stroke-width:0.5;" width="550" x="7" y="115"/><ellipse cx="241.25" cy="131" fill="#ADD1B2" rx="11" ry="11" style="stroke:#181818;stroke-width:1.0;"/><path d="M244.0156,126.875 Q244.1719,126.6563 244.3594,126.5469 Q244.5469,126.4375 244.7656,126.4375 Q245.1406,126.4375 245.375,126.7031 Q245.6094,126.9531 245.6094,127.5625 L245.6094,129.0156 Q245.6094,129.625 245.375,129.8906 Q245.1406,130.1563 244.7656,130.1563 Q244.4219,130.1563 244.2188,129.9531 Q244.0156,129.7656 243.9063,129.25 Q243.8594,128.8906 243.6719,128.7031 Q243.3438,128.3281 242.7344,128.1094 Q242.125,127.8906 241.5,127.8906 Q240.7344,127.8906 240.0938,128.2188 Q239.4688,128.5469 238.9688,129.2969 Q238.4844,130.0469 238.4844,131.0781 L238.4844,132.1719 Q238.4844,133.4063 239.375,134.2344 Q240.2656,135.0469 241.8594,135.0469 Q242.7969,135.0469 243.4531,134.7969 Q243.8438,134.6406 244.2656,134.2031 Q244.5313,133.9375 244.6719,133.8594 Q244.8281,133.7813 245.0313,133.7813 Q245.3594,133.7813 245.6094,134.0469 Q245.875,134.2969 245.875,134.6406 Q245.875,134.9844 245.5313,135.3906 Q245.0313,135.9688 244.2344,136.2969 Q243.1563,136.75 241.8594,136.75 Q240.3438,136.75 239.1406,136.125 Q238.1563,135.625 237.4688,134.5625 Q236.7813,133.4844 236.7813,132.2031 L236.7813,131.0469 Q236.7813,129.7188 237.3906,128.5781 Q238.0156,127.4219 239.1094,126.8125 Q240.2031,126.1875 241.4375,126.1875 Q242.1719,126.1875 242.8125,126.3594 Q243.4688,126.5156 244.0156,126.875 Z " fill="#000000"/><text fill="#000000" font-family="sans-serif" font-size="14" lengthAdjust="spacing" textLength="73" x="261.75" y="136.7285">PmpListBox</text><line style="stroke:#181818;stroke-width:0.5;" x1="8" x2="556" y1="147" y2="147"/><rect fill="none" height="6" style="stroke:#C82930;stroke-width:1.0;" width="6" x="15" y="155"/><text fill="#000000" font-family="sans-serif" font-size="14" lengthAdjust="spacing" textLength="171" x="27" y="165.5332">«readonly» _items : string[]</text><rect fill="none" height="6" style="stroke:#C82930;stroke-width:1.0;" width="6" x="15" y="172.6094"/><text fill="#000000" font-family="sans-serif" font-size="14" lengthAdjust="spacing" textLength="91" x="27" y="183.1426">_height : short</text><rect fill="none" height="6" style="stroke:#C82930;stroke-width:1.0;" width="6" x="15" y="190.2188"/><text fill="#000000" font-family="sans-serif" font-size="14" lengthAdjust="spacing" textLength="64" x="27" y="200.752">_style : int</text><ellipse cx="18" cy="210.8281" fill="none" rx="3" ry="3" style="stroke:#038048;stroke-width:1.0;"/><text fill="#000000" font-family="sans-serif" font-size="14" lengthAdjust="spacing" textLength="237" x="27" y="218.3613">CurrentSelection : short? «get» «set»</text><ellipse cx="18" cy="228.4375" fill="none" rx="3" ry="3" style="stroke:#038048;stroke-width:1.0;"/><text fill="#000000" font-family="sans-serif" font-size="14" lengthAdjust="spacing" textLength="137" x="27" y="235.9707">Style : int «get» «set»</text><ellipse cx="18" cy="246.0469" fill="none" rx="3" ry="3" style="stroke:#038048;stroke-width:1.0;"/><text fill="#000000" font-family="sans-serif" font-size="14" lengthAdjust="spacing" textLength="139" x="27" y="253.5801">ItemCount : int? «get»</text><ellipse cx="18" cy="263.6563" fill="none" rx="3" ry="3" style="stroke:#038048;stroke-width:1.0;"/><text fill="#000000" font-family="sans-serif" font-size="14" lengthAdjust="spacing" textLength="382" x="27" y="271.1895">«event» RightClicked : PmpListboxRightClickedEventHandler</text><ellipse cx="18" cy="281.2656" fill="none" rx="3" ry="3" style="stroke:#038048;stroke-width:1.0;"/><text fill="#000000" font-family="sans-serif" font-size="14" lengthAdjust="spacing" textLength="456" x="27" y="288.7988">«event» SelectionChanged : PmpListboxSelectionChangedEventHandler</text><ellipse cx="18" cy="298.875" fill="none" rx="3" ry="3" style="stroke:#038048;stroke-width:1.0;"/><text fill="#000000" font-family="sans-serif" font-size="14" lengthAdjust="spacing" textLength="403" x="27" y="306.4082">«new»  «event» Displaying : PmpListboxDisplayingEventHandler</text><line style="stroke:#181818;stroke-width:0.5;" x1="8" x2="556" y1="313.4844" y2="313.4844"/><ellipse cx="18" cy="324.4844" fill="#84BE84" rx="3" ry="3" style="stroke:#038048;stroke-width:1.0;"/><text fill="#000000" font-family="sans-serif" font-size="14" lengthAdjust="spacing" textLength="524" x="27" y="332.0176">PmpListBox(items:string[], caption:string, tip:string, height:short, style:ListboxStyles)</text><rect fill="#F24D5C" height="6" style="stroke:#C82930;stroke-width:1.0;" width="6" x="15" y="339.0938"/><text fill="#000000" font-family="sans-serif" font-size="14" lengthAdjust="spacing" textLength="504" x="27" y="349.627">PmpListBox_OnDisplay(sender:object, e:PmpControlDisplayingEventArgs) : void</text><rect fill="#F24D5C" height="6" style="stroke:#C82930;stroke-width:1.0;" width="6" x="15" y="356.7031"/><text fill="#000000" font-family="sans-serif" font-size="14" lengthAdjust="spacing" textLength="201" x="27" y="367.2363">PmpListBox_OnRegister() : void</text><text fill="#000000" font-family="sans-serif" font-size="14" lengthAdjust="spacing" textLength="480" x="27" y="384.8457">«internal» RightClickedCallback(point:Tuple&lt;double, double, double&gt;) : void</text><text fill="#000000" font-family="sans-serif" font-size="14" lengthAdjust="spacing" textLength="331" x="27" y="402.4551">«internal» SelectionChangeCallback(count:int) : void</text><text fill="#000000" font-family="sans-serif" font-size="14" lengthAdjust="spacing" textLength="306" x="27" y="420.0645">«internal» «override» DisplayingCallback() : void</text><ellipse cx="18" cy="430.1406" fill="#84BE84" rx="3" ry="3" style="stroke:#038048;stroke-width:1.0;"/><text fill="#000000" font-family="sans-serif" font-size="14" lengthAdjust="spacing" textLength="186" x="27" y="437.6738">AddItems(items:string[]) : void</text><ellipse cx="18" cy="447.75" fill="#84BE84" rx="3" ry="3" style="stroke:#038048;stroke-width:1.0;"/><text fill="#000000" font-family="sans-serif" font-size="14" lengthAdjust="spacing" textLength="82" x="27" y="455.2832">Clear() : void</text><ellipse cx="18" cy="465.3594" fill="#84BE84" rx="3" ry="3" style="stroke:#038048;stroke-width:1.0;"/><text fill="#000000" font-family="sans-serif" font-size="14" lengthAdjust="spacing" textLength="172" x="27" y="472.8926">ItemText(Item:short) : string</text><ellipse cx="18" cy="482.9688" fill="#84BE84" rx="3" ry="3" style="stroke:#038048;stroke-width:1.0;"/><text fill="#000000" font-family="sans-serif" font-size="14" lengthAdjust="spacing" textLength="259" x="27" y="490.502">InsertItem(Item:short, Text:string) : short?</text><ellipse cx="18" cy="500.5781" fill="#84BE84" rx="3" ry="3" style="stroke:#038048;stroke-width:1.0;"/><text fill="#000000" font-family="sans-serif" font-size="14" lengthAdjust="spacing" textLength="191" x="27" y="508.1113">DeleteItem(item:short) : short?</text><ellipse cx="18" cy="518.1875" fill="#84BE84" rx="3" ry="3" style="stroke:#038048;stroke-width:1.0;"/><text fill="#000000" font-family="sans-serif" font-size="14" lengthAdjust="spacing" textLength="194" x="27" y="525.7207">GetSelectedItemsCount() : int?</text><ellipse cx="18" cy="535.7969" fill="#84BE84" rx="3" ry="3" style="stroke:#038048;stroke-width:1.0;"/><text fill="#000000" font-family="sans-serif" font-size="14" lengthAdjust="spacing" textLength="171" x="27" y="543.3301">GetSelectedItems() : object</text><ellipse cx="18" cy="553.4063" fill="#84BE84" rx="3" ry="3" style="stroke:#038048;stroke-width:1.0;"/><text fill="#000000" font-family="sans-serif" font-size="14" lengthAdjust="spacing" textLength="315" x="27" y="560.9395">SetSelectedItem(Item:short, Selected:bool) : bool?</text></g><!--MD5=[0e4f282a4d71a359fc4b0132b5573ff6]
class PmpTextBase`1--><g id="elem_PmpTextBase`1"><rect fill="#F1F1F1" height="48" id="PmpTextBase`1" rx="2.5" ry="2.5" style="stroke:#181818;stroke-width:0.5;" width="132" x="216" y="7"/><ellipse cx="231" cy="23" fill="#ADD1B2" rx="11" ry="11" style="stroke:#181818;stroke-width:1.0;"/><path d="M233.7656,18.875 Q233.9219,18.6563 234.1094,18.5469 Q234.2969,18.4375 234.5156,18.4375 Q234.8906,18.4375 235.125,18.7031 Q235.3594,18.9531 235.3594,19.5625 L235.3594,21.0156 Q235.3594,21.625 235.125,21.8906 Q234.8906,22.1563 234.5156,22.1563 Q234.1719,22.1563 233.9688,21.9531 Q233.7656,21.7656 233.6563,21.25 Q233.6094,20.8906 233.4219,20.7031 Q233.0938,20.3281 232.4844,20.1094 Q231.875,19.8906 231.25,19.8906 Q230.4844,19.8906 229.8438,20.2188 Q229.2188,20.5469 228.7188,21.2969 Q228.2344,22.0469 228.2344,23.0781 L228.2344,24.1719 Q228.2344,25.4063 229.125,26.2344 Q230.0156,27.0469 231.6094,27.0469 Q232.5469,27.0469 233.2031,26.7969 Q233.5938,26.6406 234.0156,26.2031 Q234.2813,25.9375 234.4219,25.8594 Q234.5781,25.7813 234.7813,25.7813 Q235.1094,25.7813 235.3594,26.0469 Q235.625,26.2969 235.625,26.6406 Q235.625,26.9844 235.2813,27.3906 Q234.7813,27.9688 233.9844,28.2969 Q232.9063,28.75 231.6094,28.75 Q230.0938,28.75 228.8906,28.125 Q227.9063,27.625 227.2188,26.5625 Q226.5313,25.4844 226.5313,24.2031 L226.5313,23.0469 Q226.5313,21.7188 227.1406,20.5781 Q227.7656,19.4219 228.8594,18.8125 Q229.9531,18.1875 231.1875,18.1875 Q231.9219,18.1875 232.5625,18.3594 Q233.2188,18.5156 233.7656,18.875 Z " fill="#000000"/><text fill="#000000" font-family="sans-serif" font-size="14" lengthAdjust="spacing" textLength="100" x="245" y="28.7285">PmpTextBase`1</text><line style="stroke:#181818;stroke-width:0.5;" x1="217" x2="347" y1="39" y2="39"/><line style="stroke:#181818;stroke-width:0.5;" x1="217" x2="347" y1="47" y2="47"/></g><!--MD5=[7d0fda55510fd6392acee155a499be73]
reverse link PmpTextBase`1 to PmpListBox--><g id="link_PmpTextBase`1_PmpListBox"><path codeLine="26" d="M282,75.19 C282,86.84 282,100.29 282,114.83 " fill="none" id="PmpTextBase`1-backto-PmpListBox" style="stroke:#181818;stroke-width:1.0;"/><polygon fill="none" points="275,75.19,282,55.19,289,75.19,275,75.19" style="stroke:#181818;stroke-width:1.0;"/><text fill="#000000" font-family="sans-serif" font-size="13" lengthAdjust="spacing" textLength="187" x="72.2094" y="76.5743">&lt;PropertyManagerPageListbox&gt;</text></g><!--MD5=[28030f80b6b1d9ceb32342301f37a6f8]
@startuml
class PmpListBox {
    - <<readonly>> _items : string[]
    - _height : short
    - _style : int
    + PmpListBox(items:string[], caption:string, tip:string, height:short, style:ListboxStyles)
    - PmpListBox_OnDisplay(sender:object, e:PmpControlDisplayingEventArgs) : void
    - PmpListBox_OnRegister() : void
    <<internal>> RightClickedCallback(point:Tuple<double, double, double>) : void
    <<internal>> SelectionChangeCallback(count:int) : void
    <<internal>> <<override>> DisplayingCallback() : void
    + AddItems(items:string[]) : void
    + Clear() : void
    + ItemText(Item:short) : string
    + InsertItem(Item:short, Text:string) : short?
    + DeleteItem(item:short) : short?
    + GetSelectedItemsCount() : int?
    + GetSelectedItems() : object
    + SetSelectedItem(Item:short, Selected:bool) : bool?
    + CurrentSelection : short? <<get>> <<set>>
    + Style : int <<get>> <<set>>
    + ItemCount : int? <<get>>
    +  <<event>> RightClicked : PmpListboxRightClickedEventHandler 
    +  <<event>> SelectionChanged : PmpListboxSelectionChangedEventHandler 
    + <<new>>  <<event>> Displaying : PmpListboxDisplayingEventHandler 
}
"PmpTextBase`1" "<PropertyManagerPageListbox>" <|- - PmpListBox
@enduml

PlantUML version 1.2022.5(Sat Apr 30 20:55:52 AEST 2022)
(GPL source distribution)
Java Runtime: OpenJDK Runtime Environment
JVM: OpenJDK 64-Bit Server VM
Default Encoding: Cp1252
Language: en
Country: AU
--></g></svg>