<?xml version="1.0" encoding="UTF-8" standalone="no"?><svg xmlns="http://www.w3.org/2000/svg" xmlns:xlink="http://www.w3.org/1999/xlink" contentStyleType="text/css" height="121px" preserveAspectRatio="none" style="width:166px;height:121px;background:#FFFFFF;" version="1.1" viewBox="0 0 166 121" width="166px" zoomAndPan="magnify"><defs/><g><!--MD5=[18fc578683c2e81f7137a4021a3e3afa]
class UnderLineStyles--><g id="elem_UnderLineStyles"><rect codeLine="1" fill="#F1F1F1" height="100.8281" id="UnderLineStyles" rx="2.5" ry="2.5" style="stroke:#181818;stroke-width:0.5;" width="145" x="7" y="7"/><ellipse cx="26.5" cy="23" fill="#EB937F" rx="11" ry="11" style="stroke:#181818;stroke-width:1.0;"/><path d="M25.3594,23.7969 L25.3594,26.2969 L29.6875,26.2969 L29.6875,25.375 Q29.6875,24.7656 29.9219,24.5 Q30.1719,24.2344 30.5469,24.2344 Q30.9219,24.2344 31.1563,24.5 Q31.3906,24.7656 31.3906,25.375 L31.3906,28 L23.3906,28 Q22.7656,28 22.5,27.7656 Q22.25,27.5313 22.25,27.1406 Q22.25,26.7656 22.5156,26.5313 Q22.7813,26.2969 23.3906,26.2969 L23.6563,26.2969 L23.6563,19.6406 L23.3906,19.6406 Q22.7656,19.6406 22.5,19.4063 Q22.25,19.1719 22.25,18.7813 Q22.25,18.4063 22.5,18.1719 Q22.7656,17.9375 23.3906,17.9375 L31.0156,17.9375 L31.0156,20.5313 Q31.0156,21.1406 30.7813,21.4063 Q30.5625,21.6563 30.1719,21.6563 Q29.7969,21.6563 29.5625,21.4063 Q29.3281,21.1406 29.3281,20.5313 L29.3281,19.6406 L25.3594,19.6406 L25.3594,22.0938 L26.8438,22.0938 Q26.8438,21.4375 26.9688,21.25 Q27.2344,20.8438 27.7031,20.8438 Q28.0781,20.8438 28.3125,21.1094 Q28.5469,21.3594 28.5469,21.9688 L28.5469,23.9375 Q28.5469,24.4844 28.4219,24.6719 Q28.1563,25.0625 27.7031,25.0625 Q27.2344,25.0625 26.9688,24.6563 Q26.8438,24.4688 26.8438,23.7969 L25.3594,23.7969 Z " fill="#000000"/><text fill="#000000" font-family="sans-serif" font-size="14" lengthAdjust="spacing" textLength="103" x="41.5" y="28.7285">UnderLineStyles</text><line style="stroke:#181818;stroke-width:0.5;" x1="8" x2="151" y1="39" y2="39"/><text fill="#000000" font-family="sans-serif" font-size="14" lengthAdjust="spacing" textLength="133" x="13" y="57.5332">DashedUnderline= 2,</text><text fill="#000000" font-family="sans-serif" font-size="14" lengthAdjust="spacing" textLength="101" x="13" y="75.1426">NoUnderline= 0,</text><text fill="#000000" font-family="sans-serif" font-size="14" lengthAdjust="spacing" textLength="115" x="13" y="92.752">SolidUnderline= 1,</text><line style="stroke:#181818;stroke-width:0.5;" x1="8" x2="151" y1="99.8281" y2="99.8281"/></g><!--MD5=[15249a6328b2f6e69faf0b60c2fc6f7a]
@startuml
enum UnderLineStyles {
    DashedUnderline= 2,
    NoUnderline= 0,
    SolidUnderline= 1,
}
@enduml

PlantUML version 1.2022.5(Sat Apr 30 20:55:52 AEST 2022)
(GPL source distribution)
Java Runtime: OpenJDK Runtime Environment
JVM: OpenJDK 64-Bit Server VM
Default Encoding: Cp1252
Language: en
Country: AU
--></g></svg>