<?xml version="1.0" encoding="UTF-8" standalone="no"?><svg xmlns="http://www.w3.org/2000/svg" xmlns:xlink="http://www.w3.org/1999/xlink" contentStyleType="text/css" height="310px" preserveAspectRatio="none" style="width:493px;height:310px;background:#FFFFFF;" version="1.1" viewBox="0 0 493 310" width="493px" zoomAndPan="magnify"><defs/><g><!--MD5=[2909e8b870a001559f7945f50a44b388]
class PmpControlDisplayingEventArgs--><g id="elem_PmpControlDisplayingEventArgs"><rect codeLine="1" fill="#F1F1F1" height="188.875" id="PmpControlDisplayingEventArgs" rx="2.5" ry="2.5" style="stroke:#181818;stroke-width:0.5;" width="479" x="7" y="115"/><ellipse cx="140.25" cy="131" fill="#ADD1B2" rx="11" ry="11" style="stroke:#181818;stroke-width:1.0;"/><path d="M143.0156,126.875 Q143.1719,126.6563 143.3594,126.5469 Q143.5469,126.4375 143.7656,126.4375 Q144.1406,126.4375 144.375,126.7031 Q144.6094,126.9531 144.6094,127.5625 L144.6094,129.0156 Q144.6094,129.625 144.375,129.8906 Q144.1406,130.1563 143.7656,130.1563 Q143.4219,130.1563 143.2188,129.9531 Q143.0156,129.7656 142.9063,129.25 Q142.8594,128.8906 142.6719,128.7031 Q142.3438,128.3281 141.7344,128.1094 Q141.125,127.8906 140.5,127.8906 Q139.7344,127.8906 139.0938,128.2188 Q138.4688,128.5469 137.9688,129.2969 Q137.4844,130.0469 137.4844,131.0781 L137.4844,132.1719 Q137.4844,133.4063 138.375,134.2344 Q139.2656,135.0469 140.8594,135.0469 Q141.7969,135.0469 142.4531,134.7969 Q142.8438,134.6406 143.2656,134.2031 Q143.5313,133.9375 143.6719,133.8594 Q143.8281,133.7813 144.0313,133.7813 Q144.3594,133.7813 144.6094,134.0469 Q144.875,134.2969 144.875,134.6406 Q144.875,134.9844 144.5313,135.3906 Q144.0313,135.9688 143.2344,136.2969 Q142.1563,136.75 140.8594,136.75 Q139.3438,136.75 138.1406,136.125 Q137.1563,135.625 136.4688,134.5625 Q135.7813,133.4844 135.7813,132.2031 L135.7813,131.0469 Q135.7813,129.7188 136.3906,128.5781 Q137.0156,127.4219 138.1094,126.8125 Q139.2031,126.1875 140.4375,126.1875 Q141.1719,126.1875 141.8125,126.3594 Q142.4688,126.5156 143.0156,126.875 Z " fill="#000000"/><text fill="#000000" font-family="sans-serif" font-size="14" lengthAdjust="spacing" textLength="204" x="160.75" y="136.7285">PmpControlDisplayingEventArgs</text><line style="stroke:#181818;stroke-width:0.5;" x1="8" x2="485" y1="147" y2="147"/><rect fill="none" height="6" style="stroke:#C82930;stroke-width:1.0;" width="6" x="15" y="155"/><text fill="#000000" font-family="sans-serif" font-size="14" lengthAdjust="spacing" textLength="84" x="27" y="165.5332">_width : short</text><rect fill="none" height="6" style="stroke:#C82930;stroke-width:1.0;" width="6" x="15" y="172.6094"/><text fill="#000000" font-family="sans-serif" font-size="14" lengthAdjust="spacing" textLength="71" x="27" y="183.1426">_left : short</text><rect fill="none" height="6" style="stroke:#C82930;stroke-width:1.0;" width="6" x="15" y="190.2188"/><text fill="#000000" font-family="sans-serif" font-size="14" lengthAdjust="spacing" textLength="255" x="27" y="200.752">_control : IPropertyManagerPageControl</text><rect fill="none" height="6" style="stroke:#C82930;stroke-width:1.0;" width="6" x="15" y="207.8281"/><text fill="#000000" font-family="sans-serif" font-size="14" lengthAdjust="spacing" textLength="138" x="27" y="218.3613">_optionForResize : int</text><ellipse cx="18" cy="228.4375" fill="none" rx="3" ry="3" style="stroke:#038048;stroke-width:1.0;"/><text fill="#000000" font-family="sans-serif" font-size="14" lengthAdjust="spacing" textLength="219" x="27" y="235.9707">OptionsForResize : int «get» «set»</text><ellipse cx="18" cy="246.0469" fill="none" rx="3" ry="3" style="stroke:#038048;stroke-width:1.0;"/><text fill="#000000" font-family="sans-serif" font-size="14" lengthAdjust="spacing" textLength="147" x="27" y="253.5801">Left : short «get» «set»</text><ellipse cx="18" cy="263.6563" fill="none" rx="3" ry="3" style="stroke:#038048;stroke-width:1.0;"/><text fill="#000000" font-family="sans-serif" font-size="14" lengthAdjust="spacing" textLength="159" x="27" y="271.1895">Width : short «get» «set»</text><line style="stroke:#181818;stroke-width:0.5;" x1="8" x2="485" y1="278.2656" y2="278.2656"/><ellipse cx="18" cy="289.2656" fill="#84BE84" rx="3" ry="3" style="stroke:#038048;stroke-width:1.0;"/><text fill="#000000" font-family="sans-serif" font-size="14" lengthAdjust="spacing" textLength="453" x="27" y="296.7988">PmpControlDisplayingEventArgs(control:IPropertyManagerPageControl)</text></g><!--MD5=[1c14bf0385f8259d3eee07ec9ae2327d]
class EventArgs--><g id="elem_EventArgs"><rect fill="#F1F1F1" height="48" id="EventArgs" rx="2.5" ry="2.5" style="stroke:#181818;stroke-width:0.5;" width="97" x="198" y="7"/><ellipse cx="213" cy="23" fill="#ADD1B2" rx="11" ry="11" style="stroke:#181818;stroke-width:1.0;"/><path d="M215.7656,18.875 Q215.9219,18.6563 216.1094,18.5469 Q216.2969,18.4375 216.5156,18.4375 Q216.8906,18.4375 217.125,18.7031 Q217.3594,18.9531 217.3594,19.5625 L217.3594,21.0156 Q217.3594,21.625 217.125,21.8906 Q216.8906,22.1563 216.5156,22.1563 Q216.1719,22.1563 215.9688,21.9531 Q215.7656,21.7656 215.6563,21.25 Q215.6094,20.8906 215.4219,20.7031 Q215.0938,20.3281 214.4844,20.1094 Q213.875,19.8906 213.25,19.8906 Q212.4844,19.8906 211.8438,20.2188 Q211.2188,20.5469 210.7188,21.2969 Q210.2344,22.0469 210.2344,23.0781 L210.2344,24.1719 Q210.2344,25.4063 211.125,26.2344 Q212.0156,27.0469 213.6094,27.0469 Q214.5469,27.0469 215.2031,26.7969 Q215.5938,26.6406 216.0156,26.2031 Q216.2813,25.9375 216.4219,25.8594 Q216.5781,25.7813 216.7813,25.7813 Q217.1094,25.7813 217.3594,26.0469 Q217.625,26.2969 217.625,26.6406 Q217.625,26.9844 217.2813,27.3906 Q216.7813,27.9688 215.9844,28.2969 Q214.9063,28.75 213.6094,28.75 Q212.0938,28.75 210.8906,28.125 Q209.9063,27.625 209.2188,26.5625 Q208.5313,25.4844 208.5313,24.2031 L208.5313,23.0469 Q208.5313,21.7188 209.1406,20.5781 Q209.7656,19.4219 210.8594,18.8125 Q211.9531,18.1875 213.1875,18.1875 Q213.9219,18.1875 214.5625,18.3594 Q215.2188,18.5156 215.7656,18.875 Z " fill="#000000"/><text fill="#000000" font-family="sans-serif" font-size="14" lengthAdjust="spacing" textLength="65" x="227" y="28.7285">EventArgs</text><line style="stroke:#181818;stroke-width:0.5;" x1="199" x2="294" y1="39" y2="39"/><line style="stroke:#181818;stroke-width:0.5;" x1="199" x2="294" y1="47" y2="47"/></g><!--MD5=[ecc79beee55f8c6fb8be4f87999bc390]
reverse link EventArgs to PmpControlDisplayingEventArgs--><g id="link_EventArgs_PmpControlDisplayingEventArgs"><path codeLine="11" d="M246.5,75.38 C246.5,87.4 246.5,100.93 246.5,114.65 " fill="none" id="EventArgs-backto-PmpControlDisplayingEventArgs" style="stroke:#181818;stroke-width:1.0;"/><polygon fill="none" points="239.5,75.07,246.5,55.07,253.5,75.07,239.5,75.07" style="stroke:#181818;stroke-width:1.0;"/></g><!--MD5=[e0b037046065224c3e736d330eee9461]
@startuml
class PmpControlDisplayingEventArgs {
    - _width : short
    - _left : short
    - _control : IPropertyManagerPageControl
    - _optionForResize : int
    + PmpControlDisplayingEventArgs(control:IPropertyManagerPageControl)
    + OptionsForResize : int <<get>> <<set>>
    + Left : short <<get>> <<set>>
    + Width : short <<get>> <<set>>
}
EventArgs <|- - PmpControlDisplayingEventArgs
@enduml

PlantUML version 1.2022.5(Sat Apr 30 20:55:52 AEST 2022)
(GPL source distribution)
Java Runtime: OpenJDK Runtime Environment
JVM: OpenJDK 64-Bit Server VM
Default Encoding: Cp1252
Language: en
Country: AU
--></g></svg>