<?xml version="1.0" encoding="UTF-8" standalone="no"?><svg xmlns="http://www.w3.org/2000/svg" xmlns:xlink="http://www.w3.org/1999/xlink" contentStyleType="text/css" height="205px" preserveAspectRatio="none" style="width:567px;height:205px;background:#FFFFFF;" version="1.1" viewBox="0 0 567 205" width="567px" zoomAndPan="magnify"><defs/><g><!--MD5=[22a3ac4e8783a88ac869ee0e2318b515]
class PmpControl`1--><g id="elem_PmpControl`1"><rect codeLine="1" fill="#F1F1F1" height="83.2188" id="PmpControl`1" rx="2.5" ry="2.5" style="stroke:#181818;stroke-width:0.5;" width="549" x="7" y="115"/><ellipse cx="228.25" cy="131" fill="#ADD1B2" rx="11" ry="11" style="stroke:#181818;stroke-width:1.0;"/><path d="M231.0156,126.875 Q231.1719,126.6563 231.3594,126.5469 Q231.5469,126.4375 231.7656,126.4375 Q232.1406,126.4375 232.375,126.7031 Q232.6094,126.9531 232.6094,127.5625 L232.6094,129.0156 Q232.6094,129.625 232.375,129.8906 Q232.1406,130.1563 231.7656,130.1563 Q231.4219,130.1563 231.2188,129.9531 Q231.0156,129.7656 230.9063,129.25 Q230.8594,128.8906 230.6719,128.7031 Q230.3438,128.3281 229.7344,128.1094 Q229.125,127.8906 228.5,127.8906 Q227.7344,127.8906 227.0938,128.2188 Q226.4688,128.5469 225.9688,129.2969 Q225.4844,130.0469 225.4844,131.0781 L225.4844,132.1719 Q225.4844,133.4063 226.375,134.2344 Q227.2656,135.0469 228.8594,135.0469 Q229.7969,135.0469 230.4531,134.7969 Q230.8438,134.6406 231.2656,134.2031 Q231.5313,133.9375 231.6719,133.8594 Q231.8281,133.7813 232.0313,133.7813 Q232.3594,133.7813 232.6094,134.0469 Q232.875,134.2969 232.875,134.6406 Q232.875,134.9844 232.5313,135.3906 Q232.0313,135.9688 231.2344,136.2969 Q230.1563,136.75 228.8594,136.75 Q227.3438,136.75 226.1406,136.125 Q225.1563,135.625 224.4688,134.5625 Q223.7813,133.4844 223.7813,132.2031 L223.7813,131.0469 Q223.7813,129.7188 224.3906,128.5781 Q225.0156,127.4219 226.1094,126.8125 Q227.2031,126.1875 228.4375,126.1875 Q229.1719,126.1875 229.8125,126.3594 Q230.4688,126.5156 231.0156,126.875 Z " fill="#000000"/><text fill="#000000" font-family="sans-serif" font-size="14" lengthAdjust="spacing" textLength="87" x="248.75" y="136.7285">PmpControl`1</text><rect fill="#FFFFFF" height="17.0938" style="stroke:#000000;stroke-width:1.0;stroke-dasharray:2.0,2.0;" width="9" x="550" y="112"/><text fill="#000000" font-family="sans-serif" font-size="12" font-style="italic" lengthAdjust="spacing" textLength="7" x="551" y="125.457">T</text><line style="stroke:#181818;stroke-width:0.5;" x1="8" x2="555" y1="147" y2="147"/><ellipse cx="18" cy="158" fill="none" rx="3" ry="3" style="stroke:#038048;stroke-width:1.0;"/><text fill="#000000" font-family="sans-serif" font-size="14" lengthAdjust="spacing" textLength="259" x="27" y="165.5332">SolidworksObject : T «get» «internal set»</text><line style="stroke:#181818;stroke-width:0.5;" x1="8" x2="555" y1="172.6094" y2="172.6094"/><ellipse cx="18" cy="183.6094" fill="#84BE84" rx="3" ry="3" style="stroke:#038048;stroke-width:1.0;"/><text fill="#000000" font-family="sans-serif" font-size="14" lengthAdjust="spacing" textLength="523" x="27" y="191.1426">PmpControl(type:swPropertyManagerPageControlType_e, caption:string, tip:string)</text></g><!--MD5=[c256836980e1db33bdfd847be98ba57c]
class IPmpControl--><g id="elem_IPmpControl"><rect fill="#F1F1F1" height="48" id="IPmpControl" rx="2.5" ry="2.5" style="stroke:#181818;stroke-width:0.5;" width="109" x="135" y="7"/><ellipse cx="150" cy="23" fill="#ADD1B2" rx="11" ry="11" style="stroke:#181818;stroke-width:1.0;"/><path d="M152.7656,18.875 Q152.9219,18.6563 153.1094,18.5469 Q153.2969,18.4375 153.5156,18.4375 Q153.8906,18.4375 154.125,18.7031 Q154.3594,18.9531 154.3594,19.5625 L154.3594,21.0156 Q154.3594,21.625 154.125,21.8906 Q153.8906,22.1563 153.5156,22.1563 Q153.1719,22.1563 152.9688,21.9531 Q152.7656,21.7656 152.6563,21.25 Q152.6094,20.8906 152.4219,20.7031 Q152.0938,20.3281 151.4844,20.1094 Q150.875,19.8906 150.25,19.8906 Q149.4844,19.8906 148.8438,20.2188 Q148.2188,20.5469 147.7188,21.2969 Q147.2344,22.0469 147.2344,23.0781 L147.2344,24.1719 Q147.2344,25.4063 148.125,26.2344 Q149.0156,27.0469 150.6094,27.0469 Q151.5469,27.0469 152.2031,26.7969 Q152.5938,26.6406 153.0156,26.2031 Q153.2813,25.9375 153.4219,25.8594 Q153.5781,25.7813 153.7813,25.7813 Q154.1094,25.7813 154.3594,26.0469 Q154.625,26.2969 154.625,26.6406 Q154.625,26.9844 154.2813,27.3906 Q153.7813,27.9688 152.9844,28.2969 Q151.9063,28.75 150.6094,28.75 Q149.0938,28.75 147.8906,28.125 Q146.9063,27.625 146.2188,26.5625 Q145.5313,25.4844 145.5313,24.2031 L145.5313,23.0469 Q145.5313,21.7188 146.1406,20.5781 Q146.7656,19.4219 147.8594,18.8125 Q148.9531,18.1875 150.1875,18.1875 Q150.9219,18.1875 151.5625,18.3594 Q152.2188,18.5156 152.7656,18.875 Z " fill="#000000"/><text fill="#000000" font-family="sans-serif" font-size="14" lengthAdjust="spacing" textLength="77" x="164" y="28.7285">IPmpControl</text><line style="stroke:#181818;stroke-width:0.5;" x1="136" x2="243" y1="39" y2="39"/><line style="stroke:#181818;stroke-width:0.5;" x1="136" x2="243" y1="47" y2="47"/></g><!--MD5=[ab8e484bdef87b57c10aff892c535b8f]
class IWrapSolidworksObject`1--><g id="elem_IWrapSolidworksObject`1"><rect fill="#F1F1F1" height="48" id="IWrapSolidworksObject`1" rx="2.5" ry="2.5" style="stroke:#181818;stroke-width:0.5;" width="190" x="279.5" y="7"/><ellipse cx="294.5" cy="23" fill="#ADD1B2" rx="11" ry="11" style="stroke:#181818;stroke-width:1.0;"/><path d="M297.2656,18.875 Q297.4219,18.6563 297.6094,18.5469 Q297.7969,18.4375 298.0156,18.4375 Q298.3906,18.4375 298.625,18.7031 Q298.8594,18.9531 298.8594,19.5625 L298.8594,21.0156 Q298.8594,21.625 298.625,21.8906 Q298.3906,22.1563 298.0156,22.1563 Q297.6719,22.1563 297.4688,21.9531 Q297.2656,21.7656 297.1563,21.25 Q297.1094,20.8906 296.9219,20.7031 Q296.5938,20.3281 295.9844,20.1094 Q295.375,19.8906 294.75,19.8906 Q293.9844,19.8906 293.3438,20.2188 Q292.7188,20.5469 292.2188,21.2969 Q291.7344,22.0469 291.7344,23.0781 L291.7344,24.1719 Q291.7344,25.4063 292.625,26.2344 Q293.5156,27.0469 295.1094,27.0469 Q296.0469,27.0469 296.7031,26.7969 Q297.0938,26.6406 297.5156,26.2031 Q297.7813,25.9375 297.9219,25.8594 Q298.0781,25.7813 298.2813,25.7813 Q298.6094,25.7813 298.8594,26.0469 Q299.125,26.2969 299.125,26.6406 Q299.125,26.9844 298.7813,27.3906 Q298.2813,27.9688 297.4844,28.2969 Q296.4063,28.75 295.1094,28.75 Q293.5938,28.75 292.3906,28.125 Q291.4063,27.625 290.7188,26.5625 Q290.0313,25.4844 290.0313,24.2031 L290.0313,23.0469 Q290.0313,21.7188 290.6406,20.5781 Q291.2656,19.4219 292.3594,18.8125 Q293.4531,18.1875 294.6875,18.1875 Q295.4219,18.1875 296.0625,18.3594 Q296.7188,18.5156 297.2656,18.875 Z " fill="#000000"/><text fill="#000000" font-family="sans-serif" font-size="14" lengthAdjust="spacing" textLength="158" x="308.5" y="28.7285">IWrapSolidworksObject`1</text><line style="stroke:#181818;stroke-width:0.5;" x1="280.5" x2="468.5" y1="39" y2="39"/><line style="stroke:#181818;stroke-width:0.5;" x1="280.5" x2="468.5" y1="47" y2="47"/></g><!--MD5=[21258bc8ead3da949e6d30449883a65b]
reverse link IPmpControl to PmpControl`1--><g id="link_IPmpControl_PmpControl`1"><path codeLine="5" d="M218.99,71.58 C229.29,85.41 240.87,100.95 251.23,114.87 " fill="none" id="IPmpControl-backto-PmpControl`1" style="stroke:#181818;stroke-width:1.0;"/><polygon fill="none" points="213.14,75.45,206.8,55.23,224.37,67.09,213.14,75.45" style="stroke:#181818;stroke-width:1.0;"/></g><!--MD5=[5609b0fb9fc9052c686ef8a1bc3866b4]
reverse link IWrapSolidworksObject`1 to PmpControl`1--><g id="link_IWrapSolidworksObject`1_PmpControl`1"><path codeLine="6" d="M344.69,71.58 C334.28,85.41 322.57,100.95 312.1,114.87 " fill="none" id="IWrapSolidworksObject`1-backto-PmpControl`1" style="stroke:#181818;stroke-width:1.0;"/><polygon fill="none" points="339.38,67,357.01,55.23,350.57,75.42,339.38,67" style="stroke:#181818;stroke-width:1.0;"/><text fill="#000000" font-family="sans-serif" font-size="13" lengthAdjust="spacing" textLength="23" x="326.9437" y="76.624">&lt;T&gt;</text></g><!--MD5=[c91a9c9e324973a42804de8663d53cae]
@startuml
class "PmpControl`1"<T> {
    + PmpControl(type:swPropertyManagerPageControlType_e, caption:string, tip:string)
    + SolidworksObject : T <<get>> <<internal set>>
}
IPmpControl <|- - "PmpControl`1"
"IWrapSolidworksObject`1" "<T>" <|- - "PmpControl`1"
@enduml

PlantUML version 1.2022.5(Sat Apr 30 20:55:52 AEST 2022)
(GPL source distribution)
Java Runtime: OpenJDK Runtime Environment
JVM: OpenJDK 64-Bit Server VM
Default Encoding: Cp1252
Language: en
Country: AU
--></g></svg>