<?xml version="1.0" encoding="UTF-8" standalone="no"?><svg xmlns="http://www.w3.org/2000/svg" xmlns:xlink="http://www.w3.org/1999/xlink" contentStyleType="text/css" height="385px" preserveAspectRatio="none" style="width:315px;height:385px;background:#FFFFFF;" version="1.1" viewBox="0 0 315 385" width="315px" zoomAndPan="magnify"><defs/><g><!--MD5=[4053d98a2105ff32b971146d898202ad]
class PmpOptions--><g id="elem_PmpOptions"><rect codeLine="1" fill="#F1F1F1" height="364.9688" id="PmpOptions" rx="2.5" ry="2.5" style="stroke:#181818;stroke-width:0.5;" width="294" x="7" y="7"/><ellipse cx="111.25" cy="23" fill="#EB937F" rx="11" ry="11" style="stroke:#181818;stroke-width:1.0;"/><path d="M110.1094,23.7969 L110.1094,26.2969 L114.4375,26.2969 L114.4375,25.375 Q114.4375,24.7656 114.6719,24.5 Q114.9219,24.2344 115.2969,24.2344 Q115.6719,24.2344 115.9063,24.5 Q116.1406,24.7656 116.1406,25.375 L116.1406,28 L108.1406,28 Q107.5156,28 107.25,27.7656 Q107,27.5313 107,27.1406 Q107,26.7656 107.2656,26.5313 Q107.5313,26.2969 108.1406,26.2969 L108.4063,26.2969 L108.4063,19.6406 L108.1406,19.6406 Q107.5156,19.6406 107.25,19.4063 Q107,19.1719 107,18.7813 Q107,18.4063 107.25,18.1719 Q107.5156,17.9375 108.1406,17.9375 L115.7656,17.9375 L115.7656,20.5313 Q115.7656,21.1406 115.5313,21.4063 Q115.3125,21.6563 114.9219,21.6563 Q114.5469,21.6563 114.3125,21.4063 Q114.0781,21.1406 114.0781,20.5313 L114.0781,19.6406 L110.1094,19.6406 L110.1094,22.0938 L111.5938,22.0938 Q111.5938,21.4375 111.7188,21.25 Q111.9844,20.8438 112.4531,20.8438 Q112.8281,20.8438 113.0625,21.1094 Q113.2969,21.3594 113.2969,21.9688 L113.2969,23.9375 Q113.2969,24.4844 113.1719,24.6719 Q112.9063,25.0625 112.4531,25.0625 Q111.9844,25.0625 111.7188,24.6563 Q111.5938,24.4688 111.5938,23.7969 L110.1094,23.7969 Z " fill="#000000"/><text fill="#000000" font-family="sans-serif" font-size="14" lengthAdjust="spacing" textLength="77" x="131.75" y="28.7285">PmpOptions</text><line style="stroke:#181818;stroke-width:0.5;" x1="8" x2="300" y1="39" y2="39"/><text fill="#000000" font-family="sans-serif" font-size="14" lengthAdjust="spacing" textLength="153" x="13" y="57.5332">AbortCommands= 1024,</text><text fill="#000000" font-family="sans-serif" font-size="14" lengthAdjust="spacing" textLength="109" x="13" y="75.1426">CancelButton= 2,</text><text fill="#000000" font-family="sans-serif" font-size="14" lengthAdjust="spacing" textLength="165" x="13" y="92.752">CanEscapeCancel= 4096,</text><text fill="#000000" font-family="sans-serif" font-size="14" lengthAdjust="spacing" textLength="141" x="13" y="110.3613">CloseDialogButton= 8,</text><text fill="#000000" font-family="sans-serif" font-size="14" lengthAdjust="spacing" textLength="265" x="13" y="127.9707">DisablePageBuildDuringHandlers= 32768,</text><text fill="#000000" font-family="sans-serif" font-size="14" lengthAdjust="spacing" textLength="145" x="13" y="145.5801">DisableSelection= 256,</text><text fill="#000000" font-family="sans-serif" font-size="14" lengthAdjust="spacing" textLength="282" x="13" y="163.1895">GrayOutDisabledSelectionListboxes= 65536,</text><text fill="#000000" font-family="sans-serif" font-size="14" lengthAdjust="spacing" textLength="162" x="13" y="180.7988">HandleKeystrokes= 8192,</text><text fill="#000000" font-family="sans-serif" font-size="14" lengthAdjust="spacing" textLength="103" x="13" y="198.4082">LockedPage= 4,</text><text fill="#000000" font-family="sans-serif" font-size="14" lengthAdjust="spacing" textLength="120" x="13" y="216.0176">MultiplePages= 16,</text><text fill="#000000" font-family="sans-serif" font-size="14" lengthAdjust="spacing" textLength="98" x="13" y="233.627">OkayButton= 1,</text><text fill="#000000" font-family="sans-serif" font-size="14" lengthAdjust="spacing" textLength="130" x="13" y="251.2363">PreviewButton= 128,</text><text fill="#000000" font-family="sans-serif" font-size="14" lengthAdjust="spacing" textLength="124" x="13" y="268.8457">PushpinButton= 32,</text><text fill="#000000" font-family="sans-serif" font-size="14" lengthAdjust="spacing" textLength="131" x="13" y="286.4551">RedoButton= 16384,</text><text fill="#000000" font-family="sans-serif" font-size="14" lengthAdjust="spacing" textLength="216" x="13" y="304.0645">SupportsChainSelection= 131072,</text><text fill="#000000" font-family="sans-serif" font-size="14" lengthAdjust="spacing" textLength="162" x="13" y="321.6738">SupportsIsolate= 262144,</text><text fill="#000000" font-family="sans-serif" font-size="14" lengthAdjust="spacing" textLength="122" x="13" y="339.2832">UndoButton= 2048,</text><text fill="#000000" font-family="sans-serif" font-size="14" lengthAdjust="spacing" textLength="106" x="13" y="356.8926">WhatsNew= 512,</text><line style="stroke:#181818;stroke-width:0.5;" x1="8" x2="300" y1="363.9688" y2="363.9688"/></g><!--MD5=[6bd853a4aaedcbd7b7afbd5b6b3ea13e]
@startuml
enum PmpOptions {
    AbortCommands= 1024,
    CancelButton= 2,
    CanEscapeCancel= 4096,
    CloseDialogButton= 8,
    DisablePageBuildDuringHandlers= 32768,
    DisableSelection= 256,
    GrayOutDisabledSelectionListboxes= 65536,
    HandleKeystrokes= 8192,
    LockedPage= 4,
    MultiplePages= 16,
    OkayButton= 1,
    PreviewButton= 128,
    PushpinButton= 32,
    RedoButton= 16384,
    SupportsChainSelection= 131072,
    SupportsIsolate= 262144,
    UndoButton= 2048,
    WhatsNew= 512,
}
@enduml

PlantUML version 1.2022.5(Sat Apr 30 20:55:52 AEST 2022)
(GPL source distribution)
Java Runtime: OpenJDK Runtime Environment
JVM: OpenJDK 64-Bit Server VM
Default Encoding: Cp1252
Language: en
Country: AU
--></g></svg>