<?xml version="1.0" encoding="UTF-8" standalone="no"?><svg xmlns="http://www.w3.org/2000/svg" xmlns:xlink="http://www.w3.org/1999/xlink" contentStyleType="text/css" height="205px" preserveAspectRatio="none" style="width:261px;height:205px;background:#FFFFFF;" version="1.1" viewBox="0 0 261 205" width="261px" zoomAndPan="magnify"><defs/><g><!--MD5=[345f535df4f9aa5871fa41a06c4faa13]
class OnConnectToSwEventArgs--><g id="elem_OnConnectToSwEventArgs"><rect codeLine="1" fill="#F1F1F1" height="83.2188" id="OnConnectToSwEventArgs" rx="2.5" ry="2.5" style="stroke:#181818;stroke-width:0.5;" width="247" x="7" y="115"/><ellipse cx="41.35" cy="131" fill="#ADD1B2" rx="11" ry="11" style="stroke:#181818;stroke-width:1.0;"/><path d="M44.1156,126.875 Q44.2719,126.6563 44.4594,126.5469 Q44.6469,126.4375 44.8656,126.4375 Q45.2406,126.4375 45.475,126.7031 Q45.7094,126.9531 45.7094,127.5625 L45.7094,129.0156 Q45.7094,129.625 45.475,129.8906 Q45.2406,130.1563 44.8656,130.1563 Q44.5219,130.1563 44.3188,129.9531 Q44.1156,129.7656 44.0063,129.25 Q43.9594,128.8906 43.7719,128.7031 Q43.4438,128.3281 42.8344,128.1094 Q42.225,127.8906 41.6,127.8906 Q40.8344,127.8906 40.1938,128.2188 Q39.5688,128.5469 39.0688,129.2969 Q38.5844,130.0469 38.5844,131.0781 L38.5844,132.1719 Q38.5844,133.4063 39.475,134.2344 Q40.3656,135.0469 41.9594,135.0469 Q42.8969,135.0469 43.5531,134.7969 Q43.9438,134.6406 44.3656,134.2031 Q44.6313,133.9375 44.7719,133.8594 Q44.9281,133.7813 45.1313,133.7813 Q45.4594,133.7813 45.7094,134.0469 Q45.975,134.2969 45.975,134.6406 Q45.975,134.9844 45.6313,135.3906 Q45.1313,135.9688 44.3344,136.2969 Q43.2563,136.75 41.9594,136.75 Q40.4438,136.75 39.2406,136.125 Q38.2563,135.625 37.5688,134.5625 Q36.8813,133.4844 36.8813,132.2031 L36.8813,131.0469 Q36.8813,129.7188 37.4906,128.5781 Q38.1156,127.4219 39.2094,126.8125 Q40.3031,126.1875 41.5375,126.1875 Q42.2719,126.1875 42.9125,126.3594 Q43.5688,126.5156 44.1156,126.875 Z " fill="#000000"/><text fill="#000000" font-family="sans-serif" font-size="14" lengthAdjust="spacing" textLength="172" x="59.65" y="136.7285">OnConnectToSwEventArgs</text><line style="stroke:#181818;stroke-width:0.5;" x1="8" x2="253" y1="147" y2="147"/><ellipse cx="18" cy="158" fill="none" rx="3" ry="3" style="stroke:#038048;stroke-width:1.0;"/><text fill="#000000" font-family="sans-serif" font-size="14" lengthAdjust="spacing" textLength="221" x="27" y="165.5332">Solidworks : ISldWorks «get» «set»</text><ellipse cx="18" cy="175.6094" fill="none" rx="3" ry="3" style="stroke:#038048;stroke-width:1.0;"/><text fill="#000000" font-family="sans-serif" font-size="14" lengthAdjust="spacing" textLength="150" x="27" y="183.1426">Cookie : int «get» «set»</text><line style="stroke:#181818;stroke-width:0.5;" x1="8" x2="253" y1="190.2188" y2="190.2188"/></g><!--MD5=[1c14bf0385f8259d3eee07ec9ae2327d]
class EventArgs--><g id="elem_EventArgs"><rect fill="#F1F1F1" height="48" id="EventArgs" rx="2.5" ry="2.5" style="stroke:#181818;stroke-width:0.5;" width="97" x="82" y="7"/><ellipse cx="97" cy="23" fill="#ADD1B2" rx="11" ry="11" style="stroke:#181818;stroke-width:1.0;"/><path d="M99.7656,18.875 Q99.9219,18.6563 100.1094,18.5469 Q100.2969,18.4375 100.5156,18.4375 Q100.8906,18.4375 101.125,18.7031 Q101.3594,18.9531 101.3594,19.5625 L101.3594,21.0156 Q101.3594,21.625 101.125,21.8906 Q100.8906,22.1563 100.5156,22.1563 Q100.1719,22.1563 99.9688,21.9531 Q99.7656,21.7656 99.6563,21.25 Q99.6094,20.8906 99.4219,20.7031 Q99.0938,20.3281 98.4844,20.1094 Q97.875,19.8906 97.25,19.8906 Q96.4844,19.8906 95.8438,20.2188 Q95.2188,20.5469 94.7188,21.2969 Q94.2344,22.0469 94.2344,23.0781 L94.2344,24.1719 Q94.2344,25.4063 95.125,26.2344 Q96.0156,27.0469 97.6094,27.0469 Q98.5469,27.0469 99.2031,26.7969 Q99.5938,26.6406 100.0156,26.2031 Q100.2813,25.9375 100.4219,25.8594 Q100.5781,25.7813 100.7813,25.7813 Q101.1094,25.7813 101.3594,26.0469 Q101.625,26.2969 101.625,26.6406 Q101.625,26.9844 101.2813,27.3906 Q100.7813,27.9688 99.9844,28.2969 Q98.9063,28.75 97.6094,28.75 Q96.0938,28.75 94.8906,28.125 Q93.9063,27.625 93.2188,26.5625 Q92.5313,25.4844 92.5313,24.2031 L92.5313,23.0469 Q92.5313,21.7188 93.1406,20.5781 Q93.7656,19.4219 94.8594,18.8125 Q95.9531,18.1875 97.1875,18.1875 Q97.9219,18.1875 98.5625,18.3594 Q99.2188,18.5156 99.7656,18.875 Z " fill="#000000"/><text fill="#000000" font-family="sans-serif" font-size="14" lengthAdjust="spacing" textLength="65" x="111" y="28.7285">EventArgs</text><line style="stroke:#181818;stroke-width:0.5;" x1="83" x2="178" y1="39" y2="39"/><line style="stroke:#181818;stroke-width:0.5;" x1="83" x2="178" y1="47" y2="47"/></g><!--MD5=[e4809dcb56d67b64eb10777aeb5331e6]
reverse link EventArgs to OnConnectToSwEventArgs--><g id="link_EventArgs_OnConnectToSwEventArgs"><path codeLine="5" d="M130.5,75.31 C130.5,88.16 130.5,102.19 130.5,114.87 " fill="none" id="EventArgs-backto-OnConnectToSwEventArgs" style="stroke:#181818;stroke-width:1.0;"/><polygon fill="none" points="123.5,75.23,130.5,55.23,137.5,75.23,123.5,75.23" style="stroke:#181818;stroke-width:1.0;"/></g><!--MD5=[24680e0c7f6f1bd6f2cb6814f671ed01]
@startuml
class OnConnectToSwEventArgs {
    + Solidworks : ISldWorks <<get>> <<set>>
    + Cookie : int <<get>> <<set>>
}
EventArgs <|- - OnConnectToSwEventArgs
@enduml

PlantUML version 1.2022.5(Sat Apr 30 20:55:52 AEST 2022)
(GPL source distribution)
Java Runtime: OpenJDK Runtime Environment
JVM: OpenJDK 64-Bit Server VM
Default Encoding: Cp1252
Language: en
Country: AU
--></g></svg>