<?xml version="1.0" encoding="UTF-8" standalone="no"?><svg xmlns="http://www.w3.org/2000/svg" xmlns:xlink="http://www.w3.org/1999/xlink" contentStyleType="text/css" height="220px" preserveAspectRatio="none" style="width:301px;height:220px;background:#FFFFFF;" version="1.1" viewBox="0 0 301 220" width="301px" zoomAndPan="magnify"><defs/><g><!--MD5=[7903ffe38836cb4cd0d8847be75c158f]
class Counter--><g id="elem_Counter"><rect codeLine="1" fill="#F1F1F1" height="199.5781" id="Counter" rx="2.5" ry="2.5" style="stroke:#181818;stroke-width:0.5;" width="280" x="7" y="7"/><ellipse cx="117.25" cy="28.3516" fill="#ADD1B2" rx="11" ry="11" style="stroke:#181818;stroke-width:1.0;"/><path d="M120.0156,24.2266 Q120.1719,24.0078 120.3594,23.8984 Q120.5469,23.7891 120.7656,23.7891 Q121.1406,23.7891 121.375,24.0547 Q121.6094,24.3047 121.6094,24.9141 L121.6094,26.3672 Q121.6094,26.9766 121.375,27.2422 Q121.1406,27.5078 120.7656,27.5078 Q120.4219,27.5078 120.2188,27.3047 Q120.0156,27.1172 119.9063,26.6016 Q119.8594,26.2422 119.6719,26.0547 Q119.3438,25.6797 118.7344,25.4609 Q118.125,25.2422 117.5,25.2422 Q116.7344,25.2422 116.0938,25.5703 Q115.4688,25.8984 114.9688,26.6484 Q114.4844,27.3984 114.4844,28.4297 L114.4844,29.5234 Q114.4844,30.7578 115.375,31.5859 Q116.2656,32.3984 117.8594,32.3984 Q118.7969,32.3984 119.4531,32.1484 Q119.8438,31.9922 120.2656,31.5547 Q120.5313,31.2891 120.6719,31.2109 Q120.8281,31.1328 121.0313,31.1328 Q121.3594,31.1328 121.6094,31.3984 Q121.875,31.6484 121.875,31.9922 Q121.875,32.3359 121.5313,32.7422 Q121.0313,33.3203 120.2344,33.6484 Q119.1563,34.1016 117.8594,34.1016 Q116.3438,34.1016 115.1406,33.4766 Q114.1563,32.9766 113.4688,31.9141 Q112.7813,30.8359 112.7813,29.5547 L112.7813,28.3984 Q112.7813,27.0703 113.3906,25.9297 Q114.0156,24.7734 115.1094,24.1641 Q116.2031,23.5391 117.4375,23.5391 Q118.1719,23.5391 118.8125,23.7109 Q119.4688,23.8672 120.0156,24.2266 Z " fill="#000000"/><text fill="#000000" font-family="sans-serif" font-size="12" font-style="italic" lengthAdjust="spacing" textLength="42" x="142.25" y="24.457">«static»</text><text fill="#000000" font-family="sans-serif" font-size="14" lengthAdjust="spacing" textLength="51" x="137.75" y="41.627">Counter</text><line style="stroke:#181818;stroke-width:0.5;" x1="8" x2="286" y1="49.7031" y2="49.7031"/><rect fill="none" height="6" style="stroke:#C82930;stroke-width:1.0;" width="6" x="15" y="57.7031"/><text fill="#000000" font-family="sans-serif" font-size="14" lengthAdjust="spacing" text-decoration="underline" textLength="54" x="27" y="68.2363">i : int = 0</text><rect fill="none" height="6" style="stroke:#C82930;stroke-width:1.0;" width="6" x="15" y="75.3125"/><text fill="#000000" font-family="sans-serif" font-size="14" lengthAdjust="spacing" text-decoration="underline" textLength="59" x="27" y="85.8457">p : int = 0</text><rect fill="none" height="6" style="stroke:#C82930;stroke-width:1.0;" width="6" x="15" y="92.9219"/><text fill="#000000" font-family="sans-serif" font-size="14" lengthAdjust="spacing" text-decoration="underline" textLength="38" x="27" y="103.4551">m : int</text><rect fill="none" height="6" style="stroke:#C82930;stroke-width:1.0;" width="6" x="15" y="110.5313"/><text fill="#000000" font-family="sans-serif" font-size="14" lengthAdjust="spacing" text-decoration="underline" textLength="60" x="27" y="121.0645">rowId : int</text><line style="stroke:#181818;stroke-width:0.5;" x1="8" x2="286" y1="128.1406" y2="128.1406"/><text fill="#000000" font-family="sans-serif" font-size="14" lengthAdjust="spacing" text-decoration="underline" textLength="193" x="13" y="146.6738">«internal» GetNextPmpId() : int</text><text fill="#000000" font-family="sans-serif" font-size="14" lengthAdjust="spacing" text-decoration="underline" textLength="228" x="13" y="164.2832">«internal» GetNextSelBoxMark() : int</text><text fill="#000000" font-family="sans-serif" font-size="14" lengthAdjust="spacing" text-decoration="underline" textLength="236" x="13" y="181.8926">«internal» GetNextCalloutRowId() : int</text><text fill="#000000" font-family="sans-serif" font-size="14" lengthAdjust="spacing" text-decoration="underline" textLength="268" x="13" y="199.502">«internal» GetNextPopUpMenuItemId() : int</text></g><!--MD5=[bea2db5e7c88a154cae8839d246c1c55]
@startuml
class Counter <<static>> {
    - {static} i : int = 0
    - {static} p : int = 0
    - {static} m : int
    - {static} rowId : int
    <<internal>> {static} GetNextPmpId() : int
    <<internal>> {static} GetNextSelBoxMark() : int
    <<internal>> {static} GetNextCalloutRowId() : int
    <<internal>> {static} GetNextPopUpMenuItemId() : int
}
@enduml

PlantUML version 1.2022.5(Sat Apr 30 20:55:52 AEST 2022)
(GPL source distribution)
Java Runtime: OpenJDK Runtime Environment
JVM: OpenJDK 64-Bit Server VM
Default Encoding: Cp1252
Language: en
Country: AU
--></g></svg>