<?xml version="1.0" encoding="UTF-8" standalone="no"?><svg xmlns="http://www.w3.org/2000/svg" xmlns:xlink="http://www.w3.org/1999/xlink" contentStyleType="text/css" height="363px" preserveAspectRatio="none" style="width:769px;height:363px;background:#FFFFFF;" version="1.1" viewBox="0 0 769 363" width="769px" zoomAndPan="magnify"><defs/><g><!--MD5=[3bc597191e4bbae5c9f4ca690428e24e]
class PmpWpfHost--><g id="elem_PmpWpfHost"><rect codeLine="1" fill="#F1F1F1" height="241.7031" id="PmpWpfHost" rx="2.5" ry="2.5" style="stroke:#181818;stroke-width:0.5;" width="665" x="97.6998" y="115"/><ellipse cx="385.4498" cy="131" fill="#ADD1B2" rx="11" ry="11" style="stroke:#181818;stroke-width:1.0;"/><path d="M388.2154,126.875 Q388.3716,126.6563 388.5591,126.5469 Q388.7466,126.4375 388.9654,126.4375 Q389.3404,126.4375 389.5748,126.7031 Q389.8091,126.9531 389.8091,127.5625 L389.8091,129.0156 Q389.8091,129.625 389.5748,129.8906 Q389.3404,130.1563 388.9654,130.1563 Q388.6216,130.1563 388.4185,129.9531 Q388.2154,129.7656 388.106,129.25 Q388.0591,128.8906 387.8716,128.7031 Q387.5435,128.3281 386.9341,128.1094 Q386.3248,127.8906 385.6998,127.8906 Q384.9341,127.8906 384.2935,128.2188 Q383.6685,128.5469 383.1685,129.2969 Q382.6841,130.0469 382.6841,131.0781 L382.6841,132.1719 Q382.6841,133.4063 383.5748,134.2344 Q384.4654,135.0469 386.0591,135.0469 Q386.9966,135.0469 387.6529,134.7969 Q388.0435,134.6406 388.4654,134.2031 Q388.731,133.9375 388.8716,133.8594 Q389.0279,133.7813 389.231,133.7813 Q389.5591,133.7813 389.8091,134.0469 Q390.0748,134.2969 390.0748,134.6406 Q390.0748,134.9844 389.731,135.3906 Q389.231,135.9688 388.4341,136.2969 Q387.356,136.75 386.0591,136.75 Q384.5435,136.75 383.3404,136.125 Q382.356,135.625 381.6685,134.5625 Q380.981,133.4844 380.981,132.2031 L380.981,131.0469 Q380.981,129.7188 381.5904,128.5781 Q382.2154,127.4219 383.3091,126.8125 Q384.4029,126.1875 385.6373,126.1875 Q386.3716,126.1875 387.0123,126.3594 Q387.6685,126.5156 388.2154,126.875 Z " fill="#000000"/><text fill="#000000" font-family="sans-serif" font-size="14" lengthAdjust="spacing" textLength="81" x="405.9498" y="136.7285">PmpWpfHost</text><line style="stroke:#181818;stroke-width:0.5;" x1="98.6998" x2="761.6998" y1="147" y2="147"/><ellipse cx="108.6998" cy="158" fill="none" rx="3" ry="3" style="stroke:#038048;stroke-width:1.0;"/><text fill="#000000" font-family="sans-serif" font-size="14" lengthAdjust="spacing" textLength="210" x="117.6998" y="165.5332">ElementHost : ElementHost «get»</text><ellipse cx="108.6998" cy="175.6094" fill="none" rx="3" ry="3" style="stroke:#038048;stroke-width:1.0;"/><text fill="#000000" font-family="sans-serif" font-size="14" lengthAdjust="spacing" textLength="396" x="117.6998" y="183.1426">WindowsControl : System.Windows.Controls.UserControl «get»</text><rect fill="none" height="6" style="stroke:#C82930;stroke-width:1.0;" width="6" x="105.6998" y="190.2188"/><text fill="#000000" font-family="sans-serif" font-size="14" lengthAdjust="spacing" textLength="357" x="117.6998" y="200.752">_keystrokePropagator : WpfControlKeystrokePropagator</text><ellipse cx="108.6998" cy="210.8281" fill="none" rx="3" ry="3" style="stroke:#038048;stroke-width:1.0;"/><text fill="#000000" font-family="sans-serif" font-size="14" lengthAdjust="spacing" textLength="242" x="117.6998" y="218.3613">«override» Enabled : bool «get» «set»</text><line style="stroke:#181818;stroke-width:0.5;" x1="98.6998" x2="761.6998" y1="225.4375" y2="225.4375"/><ellipse cx="108.6998" cy="236.4375" fill="#84BE84" rx="3" ry="3" style="stroke:#038048;stroke-width:1.0;"/><text fill="#000000" font-family="sans-serif" font-size="14" lengthAdjust="spacing" textLength="639" x="117.6998" y="243.9707">PmpWpfHost(elementHost:ElementHost, wpfControl:System.Windows.Controls.UserControl, height:int)</text><ellipse cx="108.6998" cy="254.0469" fill="#84BE84" rx="3" ry="3" style="stroke:#038048;stroke-width:1.0;"/><text fill="#000000" font-family="sans-serif" font-size="14" lengthAdjust="spacing" textLength="543" x="117.6998" y="261.5801">PmpWpfHost(winFormOrWpfControl:System.Windows.Controls.UserControl, height:int)</text><rect fill="#F24D5C" height="6" style="stroke:#C82930;stroke-width:1.0;" width="6" x="105.6998" y="268.6563"/><text fill="#000000" font-family="sans-serif" font-size="14" lengthAdjust="spacing" textLength="512" x="117.6998" y="279.1895">PmpWpfHost_OnDisplay(sender:object, e:PmpControlDisplayingEventArgs) : void</text><ellipse cx="108.6998" cy="289.2656" fill="#84BE84" rx="3" ry="3" style="stroke:#038048;stroke-width:1.0;"/><text fill="#000000" font-family="sans-serif" font-size="14" lengthAdjust="spacing" textLength="210" x="117.6998" y="296.7988">Equals(other:PmpWpfHost) : bool</text><ellipse cx="108.6998" cy="306.875" fill="#84BE84" rx="3" ry="3" style="stroke:#038048;stroke-width:1.0;"/><text fill="#000000" font-family="sans-serif" font-size="14" lengthAdjust="spacing" textLength="225" x="117.6998" y="314.4082">«override» Equals(obj:object) : bool</text><ellipse cx="108.6998" cy="324.4844" fill="#84BE84" rx="3" ry="3" style="stroke:#038048;stroke-width:1.0;"/><text fill="#000000" font-family="sans-serif" font-size="14" lengthAdjust="spacing" textLength="198" x="117.6998" y="332.0176">«override» GetHashCode() : int</text><ellipse cx="108.6998" cy="342.0938" fill="#84BE84" rx="3" ry="3" style="stroke:#038048;stroke-width:1.0;"/><text fill="#000000" font-family="sans-serif" font-size="14" lengthAdjust="spacing" textLength="99" x="117.6998" y="349.627">Dispose() : void</text></g><!--MD5=[22a3ac4e8783a88ac869ee0e2318b515]
class PmpControl`1--><g id="elem_PmpControl`1"><rect fill="#F1F1F1" height="48" id="PmpControl`1" rx="2.5" ry="2.5" style="stroke:#181818;stroke-width:0.5;" width="119" x="219.6998" y="7"/><ellipse cx="234.6998" cy="23" fill="#ADD1B2" rx="11" ry="11" style="stroke:#181818;stroke-width:1.0;"/><path d="M237.4654,18.875 Q237.6216,18.6563 237.8091,18.5469 Q237.9966,18.4375 238.2154,18.4375 Q238.5904,18.4375 238.8248,18.7031 Q239.0591,18.9531 239.0591,19.5625 L239.0591,21.0156 Q239.0591,21.625 238.8248,21.8906 Q238.5904,22.1563 238.2154,22.1563 Q237.8716,22.1563 237.6685,21.9531 Q237.4654,21.7656 237.356,21.25 Q237.3091,20.8906 237.1216,20.7031 Q236.7935,20.3281 236.1841,20.1094 Q235.5748,19.8906 234.9498,19.8906 Q234.1841,19.8906 233.5435,20.2188 Q232.9185,20.5469 232.4185,21.2969 Q231.9341,22.0469 231.9341,23.0781 L231.9341,24.1719 Q231.9341,25.4063 232.8248,26.2344 Q233.7154,27.0469 235.3091,27.0469 Q236.2466,27.0469 236.9029,26.7969 Q237.2935,26.6406 237.7154,26.2031 Q237.981,25.9375 238.1216,25.8594 Q238.2779,25.7813 238.481,25.7813 Q238.8091,25.7813 239.0591,26.0469 Q239.3248,26.2969 239.3248,26.6406 Q239.3248,26.9844 238.981,27.3906 Q238.481,27.9688 237.6841,28.2969 Q236.606,28.75 235.3091,28.75 Q233.7935,28.75 232.5904,28.125 Q231.606,27.625 230.9185,26.5625 Q230.231,25.4844 230.231,24.2031 L230.231,23.0469 Q230.231,21.7188 230.8404,20.5781 Q231.4654,19.4219 232.5591,18.8125 Q233.6529,18.1875 234.8873,18.1875 Q235.6216,18.1875 236.2623,18.3594 Q236.9185,18.5156 237.4654,18.875 Z " fill="#000000"/><text fill="#000000" font-family="sans-serif" font-size="14" lengthAdjust="spacing" textLength="87" x="248.6998" y="28.7285">PmpControl`1</text><line style="stroke:#181818;stroke-width:0.5;" x1="220.6998" x2="337.6998" y1="39" y2="39"/><line style="stroke:#181818;stroke-width:0.5;" x1="220.6998" x2="337.6998" y1="47" y2="47"/></g><!--MD5=[360575ecdc123693e9e157d6e9effc89]
class IEquatable`1--><g id="elem_IEquatable`1"><rect fill="#F1F1F1" height="48" id="IEquatable`1" rx="2.5" ry="2.5" style="stroke:#181818;stroke-width:0.5;" width="112" x="374.1998" y="7"/><ellipse cx="389.1998" cy="23" fill="#ADD1B2" rx="11" ry="11" style="stroke:#181818;stroke-width:1.0;"/><path d="M391.9654,18.875 Q392.1216,18.6563 392.3091,18.5469 Q392.4966,18.4375 392.7154,18.4375 Q393.0904,18.4375 393.3248,18.7031 Q393.5591,18.9531 393.5591,19.5625 L393.5591,21.0156 Q393.5591,21.625 393.3248,21.8906 Q393.0904,22.1563 392.7154,22.1563 Q392.3716,22.1563 392.1685,21.9531 Q391.9654,21.7656 391.856,21.25 Q391.8091,20.8906 391.6216,20.7031 Q391.2935,20.3281 390.6841,20.1094 Q390.0748,19.8906 389.4498,19.8906 Q388.6841,19.8906 388.0435,20.2188 Q387.4185,20.5469 386.9185,21.2969 Q386.4341,22.0469 386.4341,23.0781 L386.4341,24.1719 Q386.4341,25.4063 387.3248,26.2344 Q388.2154,27.0469 389.8091,27.0469 Q390.7466,27.0469 391.4029,26.7969 Q391.7935,26.6406 392.2154,26.2031 Q392.481,25.9375 392.6216,25.8594 Q392.7779,25.7813 392.981,25.7813 Q393.3091,25.7813 393.5591,26.0469 Q393.8248,26.2969 393.8248,26.6406 Q393.8248,26.9844 393.481,27.3906 Q392.981,27.9688 392.1841,28.2969 Q391.106,28.75 389.8091,28.75 Q388.2935,28.75 387.0904,28.125 Q386.106,27.625 385.4185,26.5625 Q384.731,25.4844 384.731,24.2031 L384.731,23.0469 Q384.731,21.7188 385.3404,20.5781 Q385.9654,19.4219 387.0591,18.8125 Q388.1529,18.1875 389.3873,18.1875 Q390.1216,18.1875 390.7623,18.3594 Q391.4185,18.5156 391.9654,18.875 Z " fill="#000000"/><text fill="#000000" font-family="sans-serif" font-size="14" lengthAdjust="spacing" textLength="80" x="403.1998" y="28.7285">IEquatable`1</text><line style="stroke:#181818;stroke-width:0.5;" x1="375.1998" x2="485.1998" y1="39" y2="39"/><line style="stroke:#181818;stroke-width:0.5;" x1="375.1998" x2="485.1998" y1="47" y2="47"/></g><!--MD5=[fe50a4f6767356ff4dcdadb85ef8cbdd]
class IDisposable--><g id="elem_IDisposable"><rect fill="#F1F1F1" height="48" id="IDisposable" rx="2.5" ry="2.5" style="stroke:#181818;stroke-width:0.5;" width="105" x="521.6998" y="7"/><ellipse cx="536.6998" cy="23" fill="#ADD1B2" rx="11" ry="11" style="stroke:#181818;stroke-width:1.0;"/><path d="M539.4654,18.875 Q539.6216,18.6563 539.8091,18.5469 Q539.9966,18.4375 540.2154,18.4375 Q540.5904,18.4375 540.8248,18.7031 Q541.0591,18.9531 541.0591,19.5625 L541.0591,21.0156 Q541.0591,21.625 540.8248,21.8906 Q540.5904,22.1563 540.2154,22.1563 Q539.8716,22.1563 539.6685,21.9531 Q539.4654,21.7656 539.356,21.25 Q539.3091,20.8906 539.1216,20.7031 Q538.7935,20.3281 538.1841,20.1094 Q537.5748,19.8906 536.9498,19.8906 Q536.1841,19.8906 535.5435,20.2188 Q534.9185,20.5469 534.4185,21.2969 Q533.9341,22.0469 533.9341,23.0781 L533.9341,24.1719 Q533.9341,25.4063 534.8248,26.2344 Q535.7154,27.0469 537.3091,27.0469 Q538.2466,27.0469 538.9029,26.7969 Q539.2935,26.6406 539.7154,26.2031 Q539.981,25.9375 540.1216,25.8594 Q540.2779,25.7813 540.481,25.7813 Q540.8091,25.7813 541.0591,26.0469 Q541.3248,26.2969 541.3248,26.6406 Q541.3248,26.9844 540.981,27.3906 Q540.481,27.9688 539.6841,28.2969 Q538.606,28.75 537.3091,28.75 Q535.7935,28.75 534.5904,28.125 Q533.606,27.625 532.9185,26.5625 Q532.231,25.4844 532.231,24.2031 L532.231,23.0469 Q532.231,21.7188 532.8404,20.5781 Q533.4654,19.4219 534.5591,18.8125 Q535.6529,18.1875 536.8873,18.1875 Q537.6216,18.1875 538.2623,18.3594 Q538.9185,18.5156 539.4654,18.875 Z " fill="#000000"/><text fill="#000000" font-family="sans-serif" font-size="14" lengthAdjust="spacing" textLength="73" x="550.6998" y="28.7285">IDisposable</text><line style="stroke:#181818;stroke-width:0.5;" x1="522.6998" x2="625.6998" y1="39" y2="39"/><line style="stroke:#181818;stroke-width:0.5;" x1="522.6998" x2="625.6998" y1="47" y2="47"/></g><!--MD5=[0d220e18cdc22a596d1248af7d0888c8]
reverse link PmpControl`1 to PmpWpfHost--><g id="link_PmpControl`1_PmpWpfHost"><path codeLine="14" d="M308.7297,71.7 C318.1697,84.4 329.1697,99.18 340.6097,114.56 " fill="none" id="PmpControl`1-backto-PmpWpfHost" style="stroke:#181818;stroke-width:1.0;"/><polygon fill="none" points="302.8398,75.51,296.5198,55.29,314.0698,67.16,302.8398,75.51" style="stroke:#181818;stroke-width:1.0;"/><text fill="#000000" font-family="sans-serif" font-size="13" lengthAdjust="spacing" textLength="264" x="6" y="76.2928">&lt;IPropertyManagerPageWindowFromHandle&gt;</text></g><!--MD5=[3db30246052d8070edf8d3ac0feea2cc]
reverse link IEquatable`1 to PmpWpfHost--><g id="link_IEquatable`1_PmpWpfHost"><path codeLine="15" d="M430.1998,75.7 C430.1998,87.46 430.1998,100.77 430.1998,114.56 " fill="none" id="IEquatable`1-backto-PmpWpfHost" style="stroke:#181818;stroke-width:1.0;"/><polygon fill="none" points="423.1998,75.29,430.1998,55.29,437.1998,75.29,423.1998,75.29" style="stroke:#181818;stroke-width:1.0;"/><text fill="#000000" font-family="sans-serif" font-size="13" lengthAdjust="spacing" textLength="93" x="341.8794" y="76.5428">&lt;PmpWpfHost&gt;</text></g><!--MD5=[9e4641ea3684414b9f783eccaaf59338]
reverse link IDisposable to PmpWpfHost--><g id="link_IDisposable_PmpWpfHost"><path codeLine="16" d="M546.0398,71.7 C537.0298,84.4 526.5398,99.18 515.6298,114.56 " fill="none" id="IDisposable-backto-PmpWpfHost" style="stroke:#181818;stroke-width:1.0;"/><polygon fill="none" points="540.3998,67.55,557.6798,55.29,551.8198,75.65,540.3998,67.55" style="stroke:#181818;stroke-width:1.0;"/></g><!--MD5=[e4397c481bbc24922e8f17f5ae666f2f]
@startuml
class PmpWpfHost {
    + PmpWpfHost(elementHost:ElementHost, wpfControl:System.Windows.Controls.UserControl, height:int)
    + PmpWpfHost(winFormOrWpfControl:System.Windows.Controls.UserControl, height:int)
    - PmpWpfHost_OnDisplay(sender:object, e:PmpControlDisplayingEventArgs) : void
    + ElementHost : ElementHost <<get>>
    + WindowsControl : System.Windows.Controls.UserControl <<get>>
    - _keystrokePropagator : WpfControlKeystrokePropagator
    + Equals(other:PmpWpfHost) : bool
    + <<override>> Equals(obj:object) : bool
    + <<override>> GetHashCode() : int
    + Dispose() : void
    + <<override>> Enabled : bool <<get>> <<set>>
}
"PmpControl`1" "<IPropertyManagerPageWindowFromHandle>" <|- - PmpWpfHost
"IEquatable`1" "<PmpWpfHost>" <|- - PmpWpfHost
IDisposable <|- - PmpWpfHost
@enduml

PlantUML version 1.2022.5(Sat Apr 30 20:55:52 AEST 2022)
(GPL source distribution)
Java Runtime: OpenJDK Runtime Environment
JVM: OpenJDK 64-Bit Server VM
Default Encoding: Cp1252
Language: en
Country: AU
--></g></svg>