<?xml version="1.0" encoding="UTF-8" standalone="no"?><svg xmlns="http://www.w3.org/2000/svg" xmlns:xlink="http://www.w3.org/1999/xlink" contentStyleType="text/css" height="522px" preserveAspectRatio="none" style="width:704px;height:522px;background:#FFFFFF;" version="1.1" viewBox="0 0 704 522" width="704px" zoomAndPan="magnify"><defs/><g><!--MD5=[a1ae25526f9916dc8523834ed257d1a4]
class CalloutModel--><g id="elem_CalloutModel"><rect codeLine="1" fill="#F1F1F1" height="400.1875" id="CalloutModel" rx="2.5" ry="2.5" style="stroke:#181818;stroke-width:0.5;" width="690" x="7" y="115"/><ellipse cx="306.75" cy="131" fill="#ADD1B2" rx="11" ry="11" style="stroke:#181818;stroke-width:1.0;"/><path d="M309.5156,126.875 Q309.6719,126.6563 309.8594,126.5469 Q310.0469,126.4375 310.2656,126.4375 Q310.6406,126.4375 310.875,126.7031 Q311.1094,126.9531 311.1094,127.5625 L311.1094,129.0156 Q311.1094,129.625 310.875,129.8906 Q310.6406,130.1563 310.2656,130.1563 Q309.9219,130.1563 309.7188,129.9531 Q309.5156,129.7656 309.4063,129.25 Q309.3594,128.8906 309.1719,128.7031 Q308.8438,128.3281 308.2344,128.1094 Q307.625,127.8906 307,127.8906 Q306.2344,127.8906 305.5938,128.2188 Q304.9688,128.5469 304.4688,129.2969 Q303.9844,130.0469 303.9844,131.0781 L303.9844,132.1719 Q303.9844,133.4063 304.875,134.2344 Q305.7656,135.0469 307.3594,135.0469 Q308.2969,135.0469 308.9531,134.7969 Q309.3438,134.6406 309.7656,134.2031 Q310.0313,133.9375 310.1719,133.8594 Q310.3281,133.7813 310.5313,133.7813 Q310.8594,133.7813 311.1094,134.0469 Q311.375,134.2969 311.375,134.6406 Q311.375,134.9844 311.0313,135.3906 Q310.5313,135.9688 309.7344,136.2969 Q308.6563,136.75 307.3594,136.75 Q305.8438,136.75 304.6406,136.125 Q303.6563,135.625 302.9688,134.5625 Q302.2813,133.4844 302.2813,132.2031 L302.2813,131.0469 Q302.2813,129.7188 302.8906,128.5781 Q303.5156,127.4219 304.6094,126.8125 Q305.7031,126.1875 306.9375,126.1875 Q307.6719,126.1875 308.3125,126.3594 Q308.9688,126.5156 309.5156,126.875 Z " fill="#000000"/><text fill="#000000" font-family="sans-serif" font-size="14" lengthAdjust="spacing" textLength="82" x="327.25" y="136.7285">CalloutModel</text><line style="stroke:#181818;stroke-width:0.5;" x1="8" x2="696" y1="147" y2="147"/><rect fill="none" height="6" style="stroke:#C82930;stroke-width:1.0;" width="6" x="15" y="155"/><text fill="#000000" font-family="sans-serif" font-size="14" lengthAdjust="spacing" textLength="158" x="27" y="165.5332">_rows : List&lt;CalloutRow&gt;</text><rect fill="none" height="6" style="stroke:#C82930;stroke-width:1.0;" width="6" x="15" y="172.6094"/><text fill="#000000" font-family="sans-serif" font-size="14" lengthAdjust="spacing" textLength="68" x="27" y="183.1426">_rowId : int</text><ellipse cx="18" cy="193.2188" fill="none" rx="3" ry="3" style="stroke:#038048;stroke-width:1.0;"/><text fill="#000000" font-family="sans-serif" font-size="14" lengthAdjust="spacing" textLength="294" x="27" y="200.752">SolidworksObject : Callout «get» «internal set»</text><ellipse cx="18" cy="210.8281" fill="none" rx="3" ry="3" style="stroke:#038048;stroke-width:1.0;"/><text fill="#000000" font-family="sans-serif" font-size="14" lengthAdjust="spacing" textLength="261" x="27" y="218.3613">Handler : SolidworksCalloutHandler «get»</text><ellipse cx="18" cy="228.4375" fill="none" rx="3" ry="3" style="stroke:#038048;stroke-width:1.0;"/><text fill="#000000" font-family="sans-serif" font-size="14" lengthAdjust="spacing" textLength="179" x="27" y="235.9707">Solidworks : SldWorks «get»</text><ellipse cx="18" cy="246.0469" fill="none" rx="3" ry="3" style="stroke:#038048;stroke-width:1.0;"/><text fill="#000000" font-family="sans-serif" font-size="14" lengthAdjust="spacing" textLength="161" x="27" y="253.5801">FontSize : int «get» «set»</text><ellipse cx="18" cy="263.6563" fill="none" rx="3" ry="3" style="stroke:#038048;stroke-width:1.0;"/><text fill="#000000" font-family="sans-serif" font-size="14" lengthAdjust="spacing" textLength="235" x="27" y="271.1895">TextFormat : TextFormat «get» «set»</text><ellipse cx="18" cy="281.2656" fill="none" rx="3" ry="3" style="stroke:#038048;stroke-width:1.0;"/><text fill="#000000" font-family="sans-serif" font-size="14" lengthAdjust="spacing" textLength="192" x="27" y="288.7988">HasTextBox : bool «get» «set»</text><ellipse cx="18" cy="298.875" fill="none" rx="3" ry="3" style="stroke:#038048;stroke-width:1.0;"/><text fill="#000000" font-family="sans-serif" font-size="14" lengthAdjust="spacing" textLength="313" x="27" y="306.4082">TargetStyle : swCalloutTargetStyle_e «get» «set»</text><ellipse cx="18" cy="316.4844" fill="none" rx="3" ry="3" style="stroke:#038048;stroke-width:1.0;"/><text fill="#000000" font-family="sans-serif" font-size="14" lengthAdjust="spacing" textLength="182" x="27" y="324.0176">SkipColon : bool «get» «set»</text><ellipse cx="18" cy="334.0938" fill="none" rx="3" ry="3" style="stroke:#038048;stroke-width:1.0;"/><text fill="#000000" font-family="sans-serif" font-size="14" lengthAdjust="spacing" textLength="338" x="27" y="341.627">Position : Tuple&lt;double, double, double&gt; «get» «set»</text><ellipse cx="18" cy="351.7031" fill="none" rx="3" ry="3" style="stroke:#038048;stroke-width:1.0;"/><text fill="#000000" font-family="sans-serif" font-size="14" lengthAdjust="spacing" textLength="233" x="27" y="359.2363">OpaqueColor : SysColor «get» «set»</text><ellipse cx="18" cy="369.3125" fill="none" rx="3" ry="3" style="stroke:#038048;stroke-width:1.0;"/><text fill="#000000" font-family="sans-serif" font-size="14" lengthAdjust="spacing" textLength="218" x="27" y="376.8457">MultipleLeaders : bool «get» «set»</text><line style="stroke:#181818;stroke-width:0.5;" x1="8" x2="696" y1="383.9219" y2="383.9219"/><rect fill="#F24D5C" height="6" style="stroke:#C82930;stroke-width:1.0;" width="6" x="15" y="391.9219"/><text fill="#000000" font-family="sans-serif" font-size="14" lengthAdjust="spacing" textLength="374" x="27" y="402.4551">CalloutModel(rows:List&lt;CalloutRow&gt;, solidworks:ISldWorks)</text><ellipse cx="18" cy="412.5313" fill="#84BE84" rx="3" ry="3" style="stroke:#038048;stroke-width:1.0;"/><text fill="#000000" font-family="sans-serif" font-size="14" lengthAdjust="spacing" textLength="664" x="27" y="420.0645">CalloutModel(rows:List&lt;CalloutRow&gt;, solidworks:ISldWorks, model:ModelDoc2, updateWithSelection:bool)</text><ellipse cx="18" cy="430.1406" fill="#84BE84" rx="3" ry="3" style="stroke:#038048;stroke-width:1.0;"/><text fill="#000000" font-family="sans-serif" font-size="14" lengthAdjust="spacing" textLength="520" x="27" y="437.6738">CalloutModel(rows:List&lt;CalloutRow&gt;, solidworks:ISldWorks, modelView:ModelView)</text><ellipse cx="18" cy="447.75" fill="#84BE84" rx="3" ry="3" style="stroke:#038048;stroke-width:1.0;"/><text fill="#000000" font-family="sans-serif" font-size="14" lengthAdjust="spacing" textLength="216" x="27" y="455.2832">GetRowIds(value:string) : List&lt;int&gt;</text><ellipse cx="18" cy="465.3594" fill="#84BE84" rx="3" ry="3" style="stroke:#038048;stroke-width:1.0;"/><text fill="#000000" font-family="sans-serif" font-size="14" lengthAdjust="spacing" textLength="188" x="27" y="472.8926">GetRows() : List&lt;CalloutRow&gt;</text><ellipse cx="18" cy="482.9688" fill="#84BE84" rx="3" ry="3" style="stroke:#038048;stroke-width:1.0;"/><text fill="#000000" font-family="sans-serif" font-size="14" lengthAdjust="spacing" textLength="197" x="27" y="490.502">AddRow(row:CalloutRow) : void</text><ellipse cx="18" cy="500.5781" fill="#84BE84" rx="3" ry="3" style="stroke:#038048;stroke-width:1.0;"/><text fill="#000000" font-family="sans-serif" font-size="14" lengthAdjust="spacing" textLength="291" x="27" y="508.1113">LeaderStatus(visible:bool, multiple:bool) : bool</text></g><!--MD5=[ab8e484bdef87b57c10aff892c535b8f]
class IWrapSolidworksObject`1--><g id="elem_IWrapSolidworksObject`1"><rect fill="#F1F1F1" height="48" id="IWrapSolidworksObject`1" rx="2.5" ry="2.5" style="stroke:#181818;stroke-width:0.5;" width="190" x="257" y="7"/><ellipse cx="272" cy="23" fill="#ADD1B2" rx="11" ry="11" style="stroke:#181818;stroke-width:1.0;"/><path d="M274.7656,18.875 Q274.9219,18.6563 275.1094,18.5469 Q275.2969,18.4375 275.5156,18.4375 Q275.8906,18.4375 276.125,18.7031 Q276.3594,18.9531 276.3594,19.5625 L276.3594,21.0156 Q276.3594,21.625 276.125,21.8906 Q275.8906,22.1563 275.5156,22.1563 Q275.1719,22.1563 274.9688,21.9531 Q274.7656,21.7656 274.6563,21.25 Q274.6094,20.8906 274.4219,20.7031 Q274.0938,20.3281 273.4844,20.1094 Q272.875,19.8906 272.25,19.8906 Q271.4844,19.8906 270.8438,20.2188 Q270.2188,20.5469 269.7188,21.2969 Q269.2344,22.0469 269.2344,23.0781 L269.2344,24.1719 Q269.2344,25.4063 270.125,26.2344 Q271.0156,27.0469 272.6094,27.0469 Q273.5469,27.0469 274.2031,26.7969 Q274.5938,26.6406 275.0156,26.2031 Q275.2813,25.9375 275.4219,25.8594 Q275.5781,25.7813 275.7813,25.7813 Q276.1094,25.7813 276.3594,26.0469 Q276.625,26.2969 276.625,26.6406 Q276.625,26.9844 276.2813,27.3906 Q275.7813,27.9688 274.9844,28.2969 Q273.9063,28.75 272.6094,28.75 Q271.0938,28.75 269.8906,28.125 Q268.9063,27.625 268.2188,26.5625 Q267.5313,25.4844 267.5313,24.2031 L267.5313,23.0469 Q267.5313,21.7188 268.1406,20.5781 Q268.7656,19.4219 269.8594,18.8125 Q270.9531,18.1875 272.1875,18.1875 Q272.9219,18.1875 273.5625,18.3594 Q274.2188,18.5156 274.7656,18.875 Z " fill="#000000"/><text fill="#000000" font-family="sans-serif" font-size="14" lengthAdjust="spacing" textLength="158" x="286" y="28.7285">IWrapSolidworksObject`1</text><line style="stroke:#181818;stroke-width:0.5;" x1="258" x2="446" y1="39" y2="39"/><line style="stroke:#181818;stroke-width:0.5;" x1="258" x2="446" y1="47" y2="47"/></g><!--MD5=[8d3e75adeacb165945a5fee3a4faa0bf]
reverse link IWrapSolidworksObject`1 to CalloutModel--><g id="link_IWrapSolidworksObject`1_CalloutModel"><path codeLine="23" d="M352,75.16 C352,86.85 352,100.3 352,114.74 " fill="none" id="IWrapSolidworksObject`1-backto-CalloutModel" style="stroke:#181818;stroke-width:1.0;"/><polygon fill="none" points="345,75.08,352,55.08,359,75.08,345,75.08" style="stroke:#181818;stroke-width:1.0;"/><text fill="#000000" font-family="sans-serif" font-size="13" lengthAdjust="spacing" textLength="56" x="289.175" y="76.4375">&lt;Callout&gt;</text></g><!--MD5=[e99ddee2ba387157ca97226de261d682]
@startuml
class CalloutModel {
    - _rows : List<CalloutRow>
    - _rowId : int
    - CalloutModel(rows:List<CalloutRow>, solidworks:ISldWorks)
    + CalloutModel(rows:List<CalloutRow>, solidworks:ISldWorks, model:ModelDoc2, updateWithSelection:bool)
    + CalloutModel(rows:List<CalloutRow>, solidworks:ISldWorks, modelView:ModelView)
    + GetRowIds(value:string) : List<int>
    + GetRows() : List<CalloutRow>
    + AddRow(row:CalloutRow) : void
    + SolidworksObject : Callout <<get>> <<internal set>>
    + Handler : SolidworksCalloutHandler <<get>>
    + Solidworks : SldWorks <<get>>
    + FontSize : int <<get>> <<set>>
    + TextFormat : TextFormat <<get>> <<set>>
    + HasTextBox : bool <<get>> <<set>>
    + TargetStyle : swCalloutTargetStyle_e <<get>> <<set>>
    + SkipColon : bool <<get>> <<set>>
    + Position : Tuple<double, double, double> <<get>> <<set>>
    + OpaqueColor : SysColor <<get>> <<set>>
    + MultipleLeaders : bool <<get>> <<set>>
    + LeaderStatus(visible:bool, multiple:bool) : bool
}
"IWrapSolidworksObject`1" "<Callout>" <|- - CalloutModel
@enduml

PlantUML version 1.2022.5(Sat Apr 30 20:55:52 AEST 2022)
(GPL source distribution)
Java Runtime: OpenJDK Runtime Environment
JVM: OpenJDK 64-Bit Server VM
Default Encoding: Cp1252
Language: en
Country: AU
--></g></svg>