<?xml version="1.0" encoding="UTF-8" standalone="no"?><svg xmlns="http://www.w3.org/2000/svg" xmlns:xlink="http://www.w3.org/1999/xlink" contentStyleType="text/css" height="310px" preserveAspectRatio="none" style="width:1028px;height:310px;background:#FFFFFF;" version="1.1" viewBox="0 0 1028 310" width="1028px" zoomAndPan="magnify"><defs/><g><!--MD5=[d0a1bdf006e9456561bf6ea61dc7bc39]
class PmpNumberBoxDisplayingEventArgs--><g id="elem_PmpNumberBoxDisplayingEventArgs"><rect codeLine="1" fill="#F1F1F1" height="188.875" id="PmpNumberBoxDisplayingEventArgs" rx="2.5" ry="2.5" style="stroke:#181818;stroke-width:0.5;" width="1014" x="7" y="115"/><ellipse cx="394.75" cy="131" fill="#ADD1B2" rx="11" ry="11" style="stroke:#181818;stroke-width:1.0;"/><path d="M397.5156,126.875 Q397.6719,126.6563 397.8594,126.5469 Q398.0469,126.4375 398.2656,126.4375 Q398.6406,126.4375 398.875,126.7031 Q399.1094,126.9531 399.1094,127.5625 L399.1094,129.0156 Q399.1094,129.625 398.875,129.8906 Q398.6406,130.1563 398.2656,130.1563 Q397.9219,130.1563 397.7188,129.9531 Q397.5156,129.7656 397.4063,129.25 Q397.3594,128.8906 397.1719,128.7031 Q396.8438,128.3281 396.2344,128.1094 Q395.625,127.8906 395,127.8906 Q394.2344,127.8906 393.5938,128.2188 Q392.9688,128.5469 392.4688,129.2969 Q391.9844,130.0469 391.9844,131.0781 L391.9844,132.1719 Q391.9844,133.4063 392.875,134.2344 Q393.7656,135.0469 395.3594,135.0469 Q396.2969,135.0469 396.9531,134.7969 Q397.3438,134.6406 397.7656,134.2031 Q398.0313,133.9375 398.1719,133.8594 Q398.3281,133.7813 398.5313,133.7813 Q398.8594,133.7813 399.1094,134.0469 Q399.375,134.2969 399.375,134.6406 Q399.375,134.9844 399.0313,135.3906 Q398.5313,135.9688 397.7344,136.2969 Q396.6563,136.75 395.3594,136.75 Q393.8438,136.75 392.6406,136.125 Q391.6563,135.625 390.9688,134.5625 Q390.2813,133.4844 390.2813,132.2031 L390.2813,131.0469 Q390.2813,129.7188 390.8906,128.5781 Q391.5156,127.4219 392.6094,126.8125 Q393.7031,126.1875 394.9375,126.1875 Q395.6719,126.1875 396.3125,126.3594 Q396.9688,126.5156 397.5156,126.875 Z " fill="#000000"/><text fill="#000000" font-family="sans-serif" font-size="14" lengthAdjust="spacing" textLength="230" x="415.25" y="136.7285">PmpNumberBoxDisplayingEventArgs</text><line style="stroke:#181818;stroke-width:0.5;" x1="8" x2="1020" y1="147" y2="147"/><rect fill="none" height="6" style="stroke:#C82930;stroke-width:1.0;" width="6" x="15" y="155"/><text fill="#000000" font-family="sans-serif" font-size="14" lengthAdjust="spacing" textLength="337" x="27" y="165.5332">SolidworksObject : IPropertyManagerPageNumberbox</text><ellipse cx="18" cy="175.6094" fill="none" rx="3" ry="3" style="stroke:#038048;stroke-width:1.0;"/><text fill="#000000" font-family="sans-serif" font-size="14" lengthAdjust="spacing" textLength="114" x="27" y="183.1426">Text : string «get»</text><ellipse cx="18" cy="193.2188" fill="none" rx="3" ry="3" style="stroke:#038048;stroke-width:1.0;"/><text fill="#000000" font-family="sans-serif" font-size="14" lengthAdjust="spacing" textLength="229" x="27" y="200.752">CurrentSelection : short «get» «set»</text><line style="stroke:#181818;stroke-width:0.5;" x1="8" x2="1020" y1="207.8281" y2="207.8281"/><ellipse cx="18" cy="218.8281" fill="#84BE84" rx="3" ry="3" style="stroke:#038048;stroke-width:1.0;"/><text fill="#000000" font-family="sans-serif" font-size="14" lengthAdjust="spacing" textLength="443" x="27" y="226.3613">PmpNumberBoxDisplayingEventArgs(pmpNumberBox:PmpNumberBox)</text><ellipse cx="18" cy="236.4375" fill="#84BE84" rx="3" ry="3" style="stroke:#038048;stroke-width:1.0;"/><text fill="#000000" font-family="sans-serif" font-size="14" lengthAdjust="spacing" textLength="988" x="27" y="243.9707">ChangeRange(Units:NumberBoxUnit, Minimum:double, Maximum:double, Inclusive:bool, Increment:double, fastIncrement:double, slowIncrement:double) : void</text><ellipse cx="18" cy="254.0469" fill="#84BE84" rx="3" ry="3" style="stroke:#038048;stroke-width:1.0;"/><text fill="#000000" font-family="sans-serif" font-size="14" lengthAdjust="spacing" textLength="82" x="27" y="261.5801">Clear() : void</text><ellipse cx="18" cy="271.6563" fill="#84BE84" rx="3" ry="3" style="stroke:#038048;stroke-width:1.0;"/><text fill="#000000" font-family="sans-serif" font-size="14" lengthAdjust="spacing" textLength="172" x="27" y="279.1895">ItemText(item:short) : string</text><ellipse cx="18" cy="289.2656" fill="#84BE84" rx="3" ry="3" style="stroke:#038048;stroke-width:1.0;"/><text fill="#000000" font-family="sans-serif" font-size="14" lengthAdjust="spacing" textLength="183" x="27" y="296.7988">DeleteItem(item:short) : short</text></g><!--MD5=[2909e8b870a001559f7945f50a44b388]
class PmpControlDisplayingEventArgs--><g id="elem_PmpControlDisplayingEventArgs"><rect fill="#F1F1F1" height="48" id="PmpControlDisplayingEventArgs" rx="2.5" ry="2.5" style="stroke:#181818;stroke-width:0.5;" width="236" x="396" y="7"/><ellipse cx="411" cy="23" fill="#ADD1B2" rx="11" ry="11" style="stroke:#181818;stroke-width:1.0;"/><path d="M413.7656,18.875 Q413.9219,18.6563 414.1094,18.5469 Q414.2969,18.4375 414.5156,18.4375 Q414.8906,18.4375 415.125,18.7031 Q415.3594,18.9531 415.3594,19.5625 L415.3594,21.0156 Q415.3594,21.625 415.125,21.8906 Q414.8906,22.1563 414.5156,22.1563 Q414.1719,22.1563 413.9688,21.9531 Q413.7656,21.7656 413.6563,21.25 Q413.6094,20.8906 413.4219,20.7031 Q413.0938,20.3281 412.4844,20.1094 Q411.875,19.8906 411.25,19.8906 Q410.4844,19.8906 409.8438,20.2188 Q409.2188,20.5469 408.7188,21.2969 Q408.2344,22.0469 408.2344,23.0781 L408.2344,24.1719 Q408.2344,25.4063 409.125,26.2344 Q410.0156,27.0469 411.6094,27.0469 Q412.5469,27.0469 413.2031,26.7969 Q413.5938,26.6406 414.0156,26.2031 Q414.2813,25.9375 414.4219,25.8594 Q414.5781,25.7813 414.7813,25.7813 Q415.1094,25.7813 415.3594,26.0469 Q415.625,26.2969 415.625,26.6406 Q415.625,26.9844 415.2813,27.3906 Q414.7813,27.9688 413.9844,28.2969 Q412.9063,28.75 411.6094,28.75 Q410.0938,28.75 408.8906,28.125 Q407.9063,27.625 407.2188,26.5625 Q406.5313,25.4844 406.5313,24.2031 L406.5313,23.0469 Q406.5313,21.7188 407.1406,20.5781 Q407.7656,19.4219 408.8594,18.8125 Q409.9531,18.1875 411.1875,18.1875 Q411.9219,18.1875 412.5625,18.3594 Q413.2188,18.5156 413.7656,18.875 Z " fill="#000000"/><text fill="#000000" font-family="sans-serif" font-size="14" lengthAdjust="spacing" textLength="204" x="425" y="28.7285">PmpControlDisplayingEventArgs</text><line style="stroke:#181818;stroke-width:0.5;" x1="397" x2="631" y1="39" y2="39"/><line style="stroke:#181818;stroke-width:0.5;" x1="397" x2="631" y1="47" y2="47"/></g><!--MD5=[e81ecb1258ebd4d18094116bbc19532d]
reverse link PmpControlDisplayingEventArgs to PmpNumberBoxDisplayingEventArgs--><g id="link_PmpControlDisplayingEventArgs_PmpNumberBoxDisplayingEventArgs"><path codeLine="11" d="M514,75.38 C514,87.4 514,100.93 514,114.65 " fill="none" id="PmpControlDisplayingEventArgs-backto-PmpNumberBoxDisplayingEventArgs" style="stroke:#181818;stroke-width:1.0;"/><polygon fill="none" points="507,75.07,514,55.07,521,75.07,507,75.07" style="stroke:#181818;stroke-width:1.0;"/></g><!--MD5=[53458f9bb19ad871f108b4343a545f62]
@startuml
class PmpNumberBoxDisplayingEventArgs {
    - SolidworksObject : IPropertyManagerPageNumberbox
    + PmpNumberBoxDisplayingEventArgs(pmpNumberBox:PmpNumberBox)
    + ChangeRange(Units:NumberBoxUnit, Minimum:double, Maximum:double, Inclusive:bool, Increment:double, fastIncrement:double, slowIncrement:double) : void
    + Clear() : void
    + ItemText(item:short) : string
    + DeleteItem(item:short) : short
    + Text : string <<get>>
    + CurrentSelection : short <<get>> <<set>>
}
PmpControlDisplayingEventArgs <|- - PmpNumberBoxDisplayingEventArgs
@enduml

PlantUML version 1.2022.5(Sat Apr 30 20:55:52 AEST 2022)
(GPL source distribution)
Java Runtime: OpenJDK Runtime Environment
JVM: OpenJDK 64-Bit Server VM
Default Encoding: Cp1252
Language: en
Country: AU
--></g></svg>