<?xml version="1.0" encoding="UTF-8" standalone="no"?><svg xmlns="http://www.w3.org/2000/svg" xmlns:xlink="http://www.w3.org/1999/xlink" contentStyleType="text/css" height="222px" preserveAspectRatio="none" style="width:421px;height:222px;background:#FFFFFF;" version="1.1" viewBox="0 0 421 222" width="421px" zoomAndPan="magnify"><defs/><g><!--MD5=[cba6e9af059ad46bde5ed9b67b897eb1]
class OnRowValueChangedEventArgs--><g id="elem_OnRowValueChangedEventArgs"><rect codeLine="1" fill="#F1F1F1" height="100.8281" id="OnRowValueChangedEventArgs" rx="2.5" ry="2.5" style="stroke:#181818;stroke-width:0.5;" width="407" x="7" y="115"/><ellipse cx="103.75" cy="131" fill="#ADD1B2" rx="11" ry="11" style="stroke:#181818;stroke-width:1.0;"/><path d="M106.5156,126.875 Q106.6719,126.6563 106.8594,126.5469 Q107.0469,126.4375 107.2656,126.4375 Q107.6406,126.4375 107.875,126.7031 Q108.1094,126.9531 108.1094,127.5625 L108.1094,129.0156 Q108.1094,129.625 107.875,129.8906 Q107.6406,130.1563 107.2656,130.1563 Q106.9219,130.1563 106.7188,129.9531 Q106.5156,129.7656 106.4063,129.25 Q106.3594,128.8906 106.1719,128.7031 Q105.8438,128.3281 105.2344,128.1094 Q104.625,127.8906 104,127.8906 Q103.2344,127.8906 102.5938,128.2188 Q101.9688,128.5469 101.4688,129.2969 Q100.9844,130.0469 100.9844,131.0781 L100.9844,132.1719 Q100.9844,133.4063 101.875,134.2344 Q102.7656,135.0469 104.3594,135.0469 Q105.2969,135.0469 105.9531,134.7969 Q106.3438,134.6406 106.7656,134.2031 Q107.0313,133.9375 107.1719,133.8594 Q107.3281,133.7813 107.5313,133.7813 Q107.8594,133.7813 108.1094,134.0469 Q108.375,134.2969 108.375,134.6406 Q108.375,134.9844 108.0313,135.3906 Q107.5313,135.9688 106.7344,136.2969 Q105.6563,136.75 104.3594,136.75 Q102.8438,136.75 101.6406,136.125 Q100.6563,135.625 99.9688,134.5625 Q99.2813,133.4844 99.2813,132.2031 L99.2813,131.0469 Q99.2813,129.7188 99.8906,128.5781 Q100.5156,127.4219 101.6094,126.8125 Q102.7031,126.1875 103.9375,126.1875 Q104.6719,126.1875 105.3125,126.3594 Q105.9688,126.5156 106.5156,126.875 Z " fill="#000000"/><text fill="#000000" font-family="sans-serif" font-size="14" lengthAdjust="spacing" textLength="205" x="124.25" y="136.7285">OnRowValueChangedEventArgs</text><line style="stroke:#181818;stroke-width:0.5;" x1="8" x2="413" y1="147" y2="147"/><ellipse cx="18" cy="158" fill="none" rx="3" ry="3" style="stroke:#038048;stroke-width:1.0;"/><text fill="#000000" font-family="sans-serif" font-size="14" lengthAdjust="spacing" textLength="189" x="27" y="165.5332">Row : CalloutRow «get» «set»</text><ellipse cx="18" cy="175.6094" fill="none" rx="3" ry="3" style="stroke:#038048;stroke-width:1.0;"/><text fill="#000000" font-family="sans-serif" font-size="14" lengthAdjust="spacing" textLength="162" x="27" y="183.1426">Value : string «get» «set»</text><line style="stroke:#181818;stroke-width:0.5;" x1="8" x2="413" y1="190.2188" y2="190.2188"/><ellipse cx="18" cy="201.2188" fill="#84BE84" rx="3" ry="3" style="stroke:#038048;stroke-width:1.0;"/><text fill="#000000" font-family="sans-serif" font-size="14" lengthAdjust="spacing" textLength="381" x="27" y="208.752">OnRowValueChangedEventArgs(row:CalloutRow, text:string)</text></g><!--MD5=[1c14bf0385f8259d3eee07ec9ae2327d]
class EventArgs--><g id="elem_EventArgs"><rect fill="#F1F1F1" height="48" id="EventArgs" rx="2.5" ry="2.5" style="stroke:#181818;stroke-width:0.5;" width="97" x="162" y="7"/><ellipse cx="177" cy="23" fill="#ADD1B2" rx="11" ry="11" style="stroke:#181818;stroke-width:1.0;"/><path d="M179.7656,18.875 Q179.9219,18.6563 180.1094,18.5469 Q180.2969,18.4375 180.5156,18.4375 Q180.8906,18.4375 181.125,18.7031 Q181.3594,18.9531 181.3594,19.5625 L181.3594,21.0156 Q181.3594,21.625 181.125,21.8906 Q180.8906,22.1563 180.5156,22.1563 Q180.1719,22.1563 179.9688,21.9531 Q179.7656,21.7656 179.6563,21.25 Q179.6094,20.8906 179.4219,20.7031 Q179.0938,20.3281 178.4844,20.1094 Q177.875,19.8906 177.25,19.8906 Q176.4844,19.8906 175.8438,20.2188 Q175.2188,20.5469 174.7188,21.2969 Q174.2344,22.0469 174.2344,23.0781 L174.2344,24.1719 Q174.2344,25.4063 175.125,26.2344 Q176.0156,27.0469 177.6094,27.0469 Q178.5469,27.0469 179.2031,26.7969 Q179.5938,26.6406 180.0156,26.2031 Q180.2813,25.9375 180.4219,25.8594 Q180.5781,25.7813 180.7813,25.7813 Q181.1094,25.7813 181.3594,26.0469 Q181.625,26.2969 181.625,26.6406 Q181.625,26.9844 181.2813,27.3906 Q180.7813,27.9688 179.9844,28.2969 Q178.9063,28.75 177.6094,28.75 Q176.0938,28.75 174.8906,28.125 Q173.9063,27.625 173.2188,26.5625 Q172.5313,25.4844 172.5313,24.2031 L172.5313,23.0469 Q172.5313,21.7188 173.1406,20.5781 Q173.7656,19.4219 174.8594,18.8125 Q175.9531,18.1875 177.1875,18.1875 Q177.9219,18.1875 178.5625,18.3594 Q179.2188,18.5156 179.7656,18.875 Z " fill="#000000"/><text fill="#000000" font-family="sans-serif" font-size="14" lengthAdjust="spacing" textLength="65" x="191" y="28.7285">EventArgs</text><line style="stroke:#181818;stroke-width:0.5;" x1="163" x2="258" y1="39" y2="39"/><line style="stroke:#181818;stroke-width:0.5;" x1="163" x2="258" y1="47" y2="47"/></g><!--MD5=[48fb33a2ffded4ca3a902dd4c337e11b]
reverse link EventArgs to OnRowValueChangedEventArgs--><g id="link_EventArgs_OnRowValueChangedEventArgs"><path codeLine="6" d="M210.5,75.34 C210.5,87.95 210.5,101.82 210.5,114.8 " fill="none" id="EventArgs-backto-OnRowValueChangedEventArgs" style="stroke:#181818;stroke-width:1.0;"/><polygon fill="none" points="203.5,75.08,210.5,55.08,217.5,75.08,203.5,75.08" style="stroke:#181818;stroke-width:1.0;"/></g><!--MD5=[a2cc9fefb85e41b1932df091e4a47fb6]
@startuml
class OnRowValueChangedEventArgs {
    + OnRowValueChangedEventArgs(row:CalloutRow, text:string)
    + Row : CalloutRow <<get>> <<set>>
    + Value : string <<get>> <<set>>
}
EventArgs <|- - OnRowValueChangedEventArgs
@enduml

PlantUML version 1.2022.5(Sat Apr 30 20:55:52 AEST 2022)
(GPL source distribution)
Java Runtime: OpenJDK Runtime Environment
JVM: OpenJDK 64-Bit Server VM
Default Encoding: Cp1252
Language: en
Country: AU
--></g></svg>