<?xml version="1.0" encoding="UTF-8" standalone="no"?><svg xmlns="http://www.w3.org/2000/svg" xmlns:xlink="http://www.w3.org/1999/xlink" contentStyleType="text/css" height="315px" preserveAspectRatio="none" style="width:390px;height:315px;background:#FFFFFF;" version="1.1" viewBox="0 0 390 315" width="390px" zoomAndPan="magnify"><defs/><g><!--MD5=[88dd33d306b4dac6d19c9842b21272d3]
class IAddinCommandGroup--><g id="elem_IAddinCommandGroup"><rect codeLine="1" fill="#F1F1F1" height="294.5313" id="IAddinCommandGroup" rx="2.5" ry="2.5" style="stroke:#181818;stroke-width:0.5;" width="369" x="7" y="7"/><ellipse cx="115.25" cy="23" fill="#B4A7E5" rx="11" ry="11" style="stroke:#181818;stroke-width:1.0;"/><path d="M116.2031,19.6406 L116.2031,26.2969 L117.9219,26.2969 Q118.5313,26.2969 118.7969,26.5313 Q119.0625,26.7656 119.0625,27.1563 Q119.0625,27.5313 118.7969,27.7656 Q118.5313,28 117.9219,28 L112.7813,28 Q112.1719,28 111.9063,27.7656 Q111.6406,27.5313 111.6406,27.1406 Q111.6406,26.7656 111.9063,26.5313 Q112.1719,26.2969 112.7813,26.2969 L114.5,26.2969 L114.5,19.6406 L112.7813,19.6406 Q112.1719,19.6406 111.9063,19.4063 Q111.6406,19.1719 111.6406,18.7813 Q111.6406,18.4063 111.9063,18.1719 Q112.1719,17.9375 112.7813,17.9375 L117.9219,17.9375 Q118.5313,17.9375 118.7969,18.1719 Q119.0625,18.4063 119.0625,18.7813 Q119.0625,19.1719 118.7969,19.4063 Q118.5313,19.6406 117.9219,19.6406 L116.2031,19.6406 Z " fill="#000000"/><text fill="#000000" font-family="sans-serif" font-size="14" font-style="italic" lengthAdjust="spacing" textLength="144" x="135.75" y="28.7285">IAddinCommandGroup</text><line style="stroke:#181818;stroke-width:0.5;" x1="8" x2="375" y1="39" y2="39"/><text fill="#000000" font-family="sans-serif" font-size="14" lengthAdjust="spacing" textLength="357" x="13" y="57.5332">Commands : IEnumerable&lt;AddinCommand&gt; «get» «set»</text><text fill="#000000" font-family="sans-serif" font-size="14" lengthAdjust="spacing" textLength="213" x="13" y="75.1426">IgnorePrevious : bool «get» «set»</text><text fill="#000000" font-family="sans-serif" font-size="14" lengthAdjust="spacing" textLength="158" x="13" y="92.752">IsRegistered : bool «get»</text><text fill="#000000" font-family="sans-serif" font-size="14" lengthAdjust="spacing" textLength="146" x="13" y="110.3613">UserId : int «get» «set»</text><text fill="#000000" font-family="sans-serif" font-size="14" lengthAdjust="spacing" textLength="153" x="13" y="127.9707">Title : string «get» «set»</text><text fill="#000000" font-family="sans-serif" font-size="14" lengthAdjust="spacing" textLength="197" x="13" y="145.5801">Description : string «get» «set»</text><text fill="#000000" font-family="sans-serif" font-size="14" lengthAdjust="spacing" textLength="174" x="13" y="163.1895">ToolTip : string «get» «set»</text><text fill="#000000" font-family="sans-serif" font-size="14" lengthAdjust="spacing" textLength="150" x="13" y="180.7988">Hint : string «get» «set»</text><text fill="#000000" font-family="sans-serif" font-size="14" lengthAdjust="spacing" textLength="156" x="13" y="198.4082">Position : int «get» «set»</text><text fill="#000000" font-family="sans-serif" font-size="14" lengthAdjust="spacing" textLength="191" x="13" y="216.0176">HasToolbar : bool «get» «set»</text><text fill="#000000" font-family="sans-serif" font-size="14" lengthAdjust="spacing" textLength="185" x="13" y="233.627">HasMenue : bool «get» «set»</text><text fill="#000000" font-family="sans-serif" font-size="14" lengthAdjust="spacing" textLength="233" x="13" y="251.2363">MainIconBitmap : Bitmap «get» «set»</text><text fill="#000000" font-family="sans-serif" font-size="14" lengthAdjust="spacing" textLength="231" x="13" y="268.8457">CommandIcons : string[] «get» «set»</text><text fill="#000000" font-family="sans-serif" font-size="14" lengthAdjust="spacing" textLength="200" x="13" y="286.4551">GroupIcon : string[] «get» «set»</text><line style="stroke:#181818;stroke-width:0.5;" x1="8" x2="375" y1="293.5313" y2="293.5313"/></g><!--MD5=[a50dd211be7ca73351845e5a71acd9af]
@startuml
interface IAddinCommandGroup {
    Commands : IEnumerable<AddinCommand> <<get>> <<set>>
    IgnorePrevious : bool <<get>> <<set>>
    IsRegistered : bool <<get>>
    UserId : int <<get>> <<set>>
    Title : string <<get>> <<set>>
    Description : string <<get>> <<set>>
    ToolTip : string <<get>> <<set>>
    Hint : string <<get>> <<set>>
    Position : int <<get>> <<set>>
    HasToolbar : bool <<get>> <<set>>
    HasMenue : bool <<get>> <<set>>
    MainIconBitmap : Bitmap <<get>> <<set>>
    CommandIcons : string[] <<get>> <<set>>
    GroupIcon : string[] <<get>> <<set>>
}
@enduml

PlantUML version 1.2022.5(Sat Apr 30 20:55:52 AEST 2022)
(GPL source distribution)
Java Runtime: OpenJDK Runtime Environment
JVM: OpenJDK 64-Bit Server VM
Default Encoding: Cp1252
Language: en
Country: AU
--></g></svg>