<?xml version="1.0" encoding="UTF-8" standalone="no"?><svg xmlns="http://www.w3.org/2000/svg" xmlns:xlink="http://www.w3.org/1999/xlink" contentStyleType="text/css" height="240px" preserveAspectRatio="none" style="width:452px;height:240px;background:#FFFFFF;" version="1.1" viewBox="0 0 452 240" width="452px" zoomAndPan="magnify"><defs/><g><!--MD5=[e4555f6b4f4b0e17a074a5c41ad051bb]
class PmpListboxDisplayingEventArgs--><g id="elem_PmpListboxDisplayingEventArgs"><rect codeLine="1" fill="#F1F1F1" height="118.4375" id="PmpListboxDisplayingEventArgs" rx="2.5" ry="2.5" style="stroke:#181818;stroke-width:0.5;" width="438" x="7" y="115"/><ellipse cx="120.75" cy="131" fill="#ADD1B2" rx="11" ry="11" style="stroke:#181818;stroke-width:1.0;"/><path d="M123.5156,126.875 Q123.6719,126.6563 123.8594,126.5469 Q124.0469,126.4375 124.2656,126.4375 Q124.6406,126.4375 124.875,126.7031 Q125.1094,126.9531 125.1094,127.5625 L125.1094,129.0156 Q125.1094,129.625 124.875,129.8906 Q124.6406,130.1563 124.2656,130.1563 Q123.9219,130.1563 123.7188,129.9531 Q123.5156,129.7656 123.4063,129.25 Q123.3594,128.8906 123.1719,128.7031 Q122.8438,128.3281 122.2344,128.1094 Q121.625,127.8906 121,127.8906 Q120.2344,127.8906 119.5938,128.2188 Q118.9688,128.5469 118.4688,129.2969 Q117.9844,130.0469 117.9844,131.0781 L117.9844,132.1719 Q117.9844,133.4063 118.875,134.2344 Q119.7656,135.0469 121.3594,135.0469 Q122.2969,135.0469 122.9531,134.7969 Q123.3438,134.6406 123.7656,134.2031 Q124.0313,133.9375 124.1719,133.8594 Q124.3281,133.7813 124.5313,133.7813 Q124.8594,133.7813 125.1094,134.0469 Q125.375,134.2969 125.375,134.6406 Q125.375,134.9844 125.0313,135.3906 Q124.5313,135.9688 123.7344,136.2969 Q122.6563,136.75 121.3594,136.75 Q119.8438,136.75 118.6406,136.125 Q117.6563,135.625 116.9688,134.5625 Q116.2813,133.4844 116.2813,132.2031 L116.2813,131.0469 Q116.2813,129.7188 116.8906,128.5781 Q117.5156,127.4219 118.6094,126.8125 Q119.7031,126.1875 120.9375,126.1875 Q121.6719,126.1875 122.3125,126.3594 Q122.9688,126.5156 123.5156,126.875 Z " fill="#000000"/><text fill="#000000" font-family="sans-serif" font-size="14" lengthAdjust="spacing" textLength="202" x="141.25" y="136.7285">PmpListboxDisplayingEventArgs</text><line style="stroke:#181818;stroke-width:0.5;" x1="8" x2="444" y1="147" y2="147"/><rect fill="none" height="6" style="stroke:#C82930;stroke-width:1.0;" width="6" x="15" y="155"/><text fill="#000000" font-family="sans-serif" font-size="14" lengthAdjust="spacing" textLength="91" x="27" y="165.5332">_height : short</text><ellipse cx="18" cy="175.6094" fill="none" rx="3" ry="3" style="stroke:#038048;stroke-width:1.0;"/><text fill="#000000" font-family="sans-serif" font-size="14" lengthAdjust="spacing" textLength="163" x="27" y="183.1426">Height : short «get» «set»</text><rect fill="none" height="6" style="stroke:#C82930;stroke-width:1.0;" width="6" x="15" y="190.2188"/><text fill="#000000" font-family="sans-serif" font-size="14" lengthAdjust="spacing" textLength="347" x="27" y="200.752">SolidworksObject : PropertyManagerPageListbox «get»</text><line style="stroke:#181818;stroke-width:0.5;" x1="8" x2="444" y1="207.8281" y2="207.8281"/><ellipse cx="18" cy="218.8281" fill="#84BE84" rx="3" ry="3" style="stroke:#038048;stroke-width:1.0;"/><text fill="#000000" font-family="sans-serif" font-size="14" lengthAdjust="spacing" textLength="412" x="27" y="226.3613">PmpListboxDisplayingEventArgs(listBox:PmpListBox, height:short)</text></g><!--MD5=[2909e8b870a001559f7945f50a44b388]
class PmpControlDisplayingEventArgs--><g id="elem_PmpControlDisplayingEventArgs"><rect fill="#F1F1F1" height="48" id="PmpControlDisplayingEventArgs" rx="2.5" ry="2.5" style="stroke:#181818;stroke-width:0.5;" width="236" x="108" y="7"/><ellipse cx="123" cy="23" fill="#ADD1B2" rx="11" ry="11" style="stroke:#181818;stroke-width:1.0;"/><path d="M125.7656,18.875 Q125.9219,18.6563 126.1094,18.5469 Q126.2969,18.4375 126.5156,18.4375 Q126.8906,18.4375 127.125,18.7031 Q127.3594,18.9531 127.3594,19.5625 L127.3594,21.0156 Q127.3594,21.625 127.125,21.8906 Q126.8906,22.1563 126.5156,22.1563 Q126.1719,22.1563 125.9688,21.9531 Q125.7656,21.7656 125.6563,21.25 Q125.6094,20.8906 125.4219,20.7031 Q125.0938,20.3281 124.4844,20.1094 Q123.875,19.8906 123.25,19.8906 Q122.4844,19.8906 121.8438,20.2188 Q121.2188,20.5469 120.7188,21.2969 Q120.2344,22.0469 120.2344,23.0781 L120.2344,24.1719 Q120.2344,25.4063 121.125,26.2344 Q122.0156,27.0469 123.6094,27.0469 Q124.5469,27.0469 125.2031,26.7969 Q125.5938,26.6406 126.0156,26.2031 Q126.2813,25.9375 126.4219,25.8594 Q126.5781,25.7813 126.7813,25.7813 Q127.1094,25.7813 127.3594,26.0469 Q127.625,26.2969 127.625,26.6406 Q127.625,26.9844 127.2813,27.3906 Q126.7813,27.9688 125.9844,28.2969 Q124.9063,28.75 123.6094,28.75 Q122.0938,28.75 120.8906,28.125 Q119.9063,27.625 119.2188,26.5625 Q118.5313,25.4844 118.5313,24.2031 L118.5313,23.0469 Q118.5313,21.7188 119.1406,20.5781 Q119.7656,19.4219 120.8594,18.8125 Q121.9531,18.1875 123.1875,18.1875 Q123.9219,18.1875 124.5625,18.3594 Q125.2188,18.5156 125.7656,18.875 Z " fill="#000000"/><text fill="#000000" font-family="sans-serif" font-size="14" lengthAdjust="spacing" textLength="204" x="137" y="28.7285">PmpControlDisplayingEventArgs</text><line style="stroke:#181818;stroke-width:0.5;" x1="109" x2="343" y1="39" y2="39"/><line style="stroke:#181818;stroke-width:0.5;" x1="109" x2="343" y1="47" y2="47"/></g><!--MD5=[99f5a542a8a380f45cf2830ca827531c]
reverse link PmpControlDisplayingEventArgs to PmpListboxDisplayingEventArgs--><g id="link_PmpControlDisplayingEventArgs_PmpListboxDisplayingEventArgs"><path codeLine="7" d="M226,75.33 C226,87.86 226,101.73 226,114.99 " fill="none" id="PmpControlDisplayingEventArgs-backto-PmpListboxDisplayingEventArgs" style="stroke:#181818;stroke-width:1.0;"/><polygon fill="none" points="219,75.28,226,55.28,233,75.28,219,75.28" style="stroke:#181818;stroke-width:1.0;"/></g><!--MD5=[d64228882d15ff371e2a14379684e8eb]
@startuml
class PmpListboxDisplayingEventArgs {
    - _height : short
    + PmpListboxDisplayingEventArgs(listBox:PmpListBox, height:short)
    + Height : short <<get>> <<set>>
    - SolidworksObject : PropertyManagerPageListbox <<get>>
}
PmpControlDisplayingEventArgs <|- - PmpListboxDisplayingEventArgs
@enduml

PlantUML version 1.2022.5(Sat Apr 30 20:55:52 AEST 2022)
(GPL source distribution)
Java Runtime: OpenJDK Runtime Environment
JVM: OpenJDK 64-Bit Server VM
Default Encoding: Cp1252
Language: en
Country: AU
--></g></svg>