<?xml version="1.0" encoding="UTF-8" standalone="no"?><svg xmlns="http://www.w3.org/2000/svg" xmlns:xlink="http://www.w3.org/1999/xlink" contentStyleType="text/css" height="222px" preserveAspectRatio="none" style="width:582px;height:222px;background:#FFFFFF;" version="1.1" viewBox="0 0 582 222" width="582px" zoomAndPan="magnify"><defs/><g><!--MD5=[744cf92cabc729b32708d9ac74533a25]
class PmpBitmapButtonCheckable--><g id="elem_PmpBitmapButtonCheckable"><rect codeLine="1" fill="#F1F1F1" height="100.8281" id="PmpBitmapButtonCheckable" rx="2.5" ry="2.5" style="stroke:#181818;stroke-width:0.5;" width="568" x="7" y="115"/><ellipse cx="197.25" cy="131" fill="#ADD1B2" rx="11" ry="11" style="stroke:#181818;stroke-width:1.0;"/><path d="M200.0156,126.875 Q200.1719,126.6563 200.3594,126.5469 Q200.5469,126.4375 200.7656,126.4375 Q201.1406,126.4375 201.375,126.7031 Q201.6094,126.9531 201.6094,127.5625 L201.6094,129.0156 Q201.6094,129.625 201.375,129.8906 Q201.1406,130.1563 200.7656,130.1563 Q200.4219,130.1563 200.2188,129.9531 Q200.0156,129.7656 199.9063,129.25 Q199.8594,128.8906 199.6719,128.7031 Q199.3438,128.3281 198.7344,128.1094 Q198.125,127.8906 197.5,127.8906 Q196.7344,127.8906 196.0938,128.2188 Q195.4688,128.5469 194.9688,129.2969 Q194.4844,130.0469 194.4844,131.0781 L194.4844,132.1719 Q194.4844,133.4063 195.375,134.2344 Q196.2656,135.0469 197.8594,135.0469 Q198.7969,135.0469 199.4531,134.7969 Q199.8438,134.6406 200.2656,134.2031 Q200.5313,133.9375 200.6719,133.8594 Q200.8281,133.7813 201.0313,133.7813 Q201.3594,133.7813 201.6094,134.0469 Q201.875,134.2969 201.875,134.6406 Q201.875,134.9844 201.5313,135.3906 Q201.0313,135.9688 200.2344,136.2969 Q199.1563,136.75 197.8594,136.75 Q196.3438,136.75 195.1406,136.125 Q194.1563,135.625 193.4688,134.5625 Q192.7813,133.4844 192.7813,132.2031 L192.7813,131.0469 Q192.7813,129.7188 193.3906,128.5781 Q194.0156,127.4219 195.1094,126.8125 Q196.2031,126.1875 197.4375,126.1875 Q198.1719,126.1875 198.8125,126.3594 Q199.4688,126.5156 200.0156,126.875 Z " fill="#000000"/><text fill="#000000" font-family="sans-serif" font-size="14" lengthAdjust="spacing" textLength="179" x="217.75" y="136.7285">PmpBitmapButtonCheckable</text><line style="stroke:#181818;stroke-width:0.5;" x1="8" x2="574" y1="147" y2="147"/><ellipse cx="18" cy="158" fill="none" rx="3" ry="3" style="stroke:#038048;stroke-width:1.0;"/><text fill="#000000" font-family="sans-serif" font-size="14" lengthAdjust="spacing" textLength="174" x="27" y="165.5332">Checked : bool «get» «set»</text><line style="stroke:#181818;stroke-width:0.5;" x1="8" x2="574" y1="172.6094" y2="172.6094"/><ellipse cx="18" cy="183.6094" fill="#84BE84" rx="3" ry="3" style="stroke:#038048;stroke-width:1.0;"/><text fill="#000000" font-family="sans-serif" font-size="14" lengthAdjust="spacing" textLength="445" x="27" y="191.1426">PmpBitmapButtonCheckable(standardBitmap:BitmapButtons, tip:string)</text><ellipse cx="18" cy="201.2188" fill="#84BE84" rx="3" ry="3" style="stroke:#038048;stroke-width:1.0;"/><text fill="#000000" font-family="sans-serif" font-size="14" lengthAdjust="spacing" textLength="542" x="27" y="208.752">PmpBitmapButtonCheckable(bitmap:Bitmap, tip:string, iconSizes:BtnSize, opacity:byte)</text></g><!--MD5=[7c4c3a9d8544615bcad6ff6a630321ce]
class PmpBitmapButton--><g id="elem_PmpBitmapButton"><rect fill="#F1F1F1" height="48" id="PmpBitmapButton" rx="2.5" ry="2.5" style="stroke:#181818;stroke-width:0.5;" width="144" x="219" y="7"/><ellipse cx="234" cy="23" fill="#ADD1B2" rx="11" ry="11" style="stroke:#181818;stroke-width:1.0;"/><path d="M236.7656,18.875 Q236.9219,18.6563 237.1094,18.5469 Q237.2969,18.4375 237.5156,18.4375 Q237.8906,18.4375 238.125,18.7031 Q238.3594,18.9531 238.3594,19.5625 L238.3594,21.0156 Q238.3594,21.625 238.125,21.8906 Q237.8906,22.1563 237.5156,22.1563 Q237.1719,22.1563 236.9688,21.9531 Q236.7656,21.7656 236.6563,21.25 Q236.6094,20.8906 236.4219,20.7031 Q236.0938,20.3281 235.4844,20.1094 Q234.875,19.8906 234.25,19.8906 Q233.4844,19.8906 232.8438,20.2188 Q232.2188,20.5469 231.7188,21.2969 Q231.2344,22.0469 231.2344,23.0781 L231.2344,24.1719 Q231.2344,25.4063 232.125,26.2344 Q233.0156,27.0469 234.6094,27.0469 Q235.5469,27.0469 236.2031,26.7969 Q236.5938,26.6406 237.0156,26.2031 Q237.2813,25.9375 237.4219,25.8594 Q237.5781,25.7813 237.7813,25.7813 Q238.1094,25.7813 238.3594,26.0469 Q238.625,26.2969 238.625,26.6406 Q238.625,26.9844 238.2813,27.3906 Q237.7813,27.9688 236.9844,28.2969 Q235.9063,28.75 234.6094,28.75 Q233.0938,28.75 231.8906,28.125 Q230.9063,27.625 230.2188,26.5625 Q229.5313,25.4844 229.5313,24.2031 L229.5313,23.0469 Q229.5313,21.7188 230.1406,20.5781 Q230.7656,19.4219 231.8594,18.8125 Q232.9531,18.1875 234.1875,18.1875 Q234.9219,18.1875 235.5625,18.3594 Q236.2188,18.5156 236.7656,18.875 Z " fill="#000000"/><text fill="#000000" font-family="sans-serif" font-size="14" lengthAdjust="spacing" textLength="112" x="248" y="28.7285">PmpBitmapButton</text><line style="stroke:#181818;stroke-width:0.5;" x1="220" x2="362" y1="39" y2="39"/><line style="stroke:#181818;stroke-width:0.5;" x1="220" x2="362" y1="47" y2="47"/></g><!--MD5=[a54f243ae4e2045144155d979f758eb8]
reverse link PmpBitmapButton to PmpBitmapButtonCheckable--><g id="link_PmpBitmapButton_PmpBitmapButtonCheckable"><path codeLine="6" d="M291,75.34 C291,87.95 291,101.82 291,114.8 " fill="none" id="PmpBitmapButton-backto-PmpBitmapButtonCheckable" style="stroke:#181818;stroke-width:1.0;"/><polygon fill="none" points="284,75.08,291,55.08,298,75.08,284,75.08" style="stroke:#181818;stroke-width:1.0;"/></g><!--MD5=[a5578d7606cb8c02559d1a4d050250f1]
@startuml
class PmpBitmapButtonCheckable {
    + PmpBitmapButtonCheckable(standardBitmap:BitmapButtons, tip:string)
    + PmpBitmapButtonCheckable(bitmap:Bitmap, tip:string, iconSizes:BtnSize, opacity:byte)
    + Checked : bool <<get>> <<set>>
}
PmpBitmapButton <|- - PmpBitmapButtonCheckable
@enduml

PlantUML version 1.2022.5(Sat Apr 30 20:55:52 AEST 2022)
(GPL source distribution)
Java Runtime: OpenJDK Runtime Environment
JVM: OpenJDK 64-Bit Server VM
Default Encoding: Cp1252
Language: en
Country: AU
--></g></svg>