<?xml version="1.0" encoding="UTF-8" standalone="no"?><svg xmlns="http://www.w3.org/2000/svg" xmlns:xlink="http://www.w3.org/1999/xlink" contentStyleType="text/css" height="104px" preserveAspectRatio="none" style="width:401px;height:104px;background:#FFFFFF;" version="1.1" viewBox="0 0 401 104" width="401px" zoomAndPan="magnify"><defs/><g><!--MD5=[0fc9968f3fc6e6235905e29b5b317033]
class PmpSelectionBoxListChangedEventArgs--><g id="elem_PmpSelectionBoxListChangedEventArgs"><rect codeLine="1" fill="#F1F1F1" height="83.2188" id="PmpSelectionBoxListChangedEventArgs" rx="2.5" ry="2.5" style="stroke:#181818;stroke-width:0.5;" width="380" x="7" y="7"/><ellipse cx="65.75" cy="23" fill="#ADD1B2" rx="11" ry="11" style="stroke:#181818;stroke-width:1.0;"/><path d="M68.5156,18.875 Q68.6719,18.6563 68.8594,18.5469 Q69.0469,18.4375 69.2656,18.4375 Q69.6406,18.4375 69.875,18.7031 Q70.1094,18.9531 70.1094,19.5625 L70.1094,21.0156 Q70.1094,21.625 69.875,21.8906 Q69.6406,22.1563 69.2656,22.1563 Q68.9219,22.1563 68.7188,21.9531 Q68.5156,21.7656 68.4063,21.25 Q68.3594,20.8906 68.1719,20.7031 Q67.8438,20.3281 67.2344,20.1094 Q66.625,19.8906 66,19.8906 Q65.2344,19.8906 64.5938,20.2188 Q63.9688,20.5469 63.4688,21.2969 Q62.9844,22.0469 62.9844,23.0781 L62.9844,24.1719 Q62.9844,25.4063 63.875,26.2344 Q64.7656,27.0469 66.3594,27.0469 Q67.2969,27.0469 67.9531,26.7969 Q68.3438,26.6406 68.7656,26.2031 Q69.0313,25.9375 69.1719,25.8594 Q69.3281,25.7813 69.5313,25.7813 Q69.8594,25.7813 70.1094,26.0469 Q70.375,26.2969 70.375,26.6406 Q70.375,26.9844 70.0313,27.3906 Q69.5313,27.9688 68.7344,28.2969 Q67.6563,28.75 66.3594,28.75 Q64.8438,28.75 63.6406,28.125 Q62.6563,27.625 61.9688,26.5625 Q61.2813,25.4844 61.2813,24.2031 L61.2813,23.0469 Q61.2813,21.7188 61.8906,20.5781 Q62.5156,19.4219 63.6094,18.8125 Q64.7031,18.1875 65.9375,18.1875 Q66.6719,18.1875 67.3125,18.3594 Q67.9688,18.5156 68.5156,18.875 Z " fill="#000000"/><text fill="#000000" font-family="sans-serif" font-size="14" lengthAdjust="spacing" textLength="254" x="86.25" y="28.7285">PmpSelectionBoxListChangedEventArgs</text><line style="stroke:#181818;stroke-width:0.5;" x1="8" x2="386" y1="39" y2="39"/><ellipse cx="18" cy="50" fill="none" rx="3" ry="3" style="stroke:#038048;stroke-width:1.0;"/><text fill="#000000" font-family="sans-serif" font-size="14" lengthAdjust="spacing" textLength="138" x="27" y="57.5332">ItemsCount : int «get»</text><line style="stroke:#181818;stroke-width:0.5;" x1="8" x2="386" y1="64.6094" y2="64.6094"/><ellipse cx="18" cy="75.6094" fill="#84BE84" rx="3" ry="3" style="stroke:#038048;stroke-width:1.0;"/><text fill="#000000" font-family="sans-serif" font-size="14" lengthAdjust="spacing" textLength="354" x="27" y="83.1426">PmpSelectionBoxListChangedEventArgs(itemsCount:int)</text></g><!--MD5=[8b7ae23e754b20d940db4f70f8c453be]
@startuml
class PmpSelectionBoxListChangedEventArgs {
    + PmpSelectionBoxListChangedEventArgs(itemsCount:int)
    + ItemsCount : int <<get>>
}
@enduml

PlantUML version 1.2022.5(Sat Apr 30 20:55:52 AEST 2022)
(GPL source distribution)
Java Runtime: OpenJDK Runtime Environment
JVM: OpenJDK 64-Bit Server VM
Default Encoding: Cp1252
Language: en
Country: AU
--></g></svg>