<?xml version="1.0" encoding="UTF-8" standalone="no"?><svg xmlns="http://www.w3.org/2000/svg" xmlns:xlink="http://www.w3.org/1999/xlink" contentStyleType="text/css" height="434px" preserveAspectRatio="none" style="width:1334px;height:434px;background:#FFFFFF;" version="1.1" viewBox="0 0 1334 434" width="1334px" zoomAndPan="magnify"><defs/><g><!--MD5=[1ceb108252590a7a6fb2000fc32c8acc]
class PmpSelectionBoxDisplayingEventArgs--><g id="elem_PmpSelectionBoxDisplayingEventArgs"><rect codeLine="1" fill="#F1F1F1" height="312.1406" id="PmpSelectionBoxDisplayingEventArgs" rx="2.5" ry="2.5" style="stroke:#181818;stroke-width:0.5;" width="1320" x="7" y="115"/><ellipse cx="543.25" cy="131" fill="#ADD1B2" rx="11" ry="11" style="stroke:#181818;stroke-width:1.0;"/><path d="M546.0156,126.875 Q546.1719,126.6563 546.3594,126.5469 Q546.5469,126.4375 546.7656,126.4375 Q547.1406,126.4375 547.375,126.7031 Q547.6094,126.9531 547.6094,127.5625 L547.6094,129.0156 Q547.6094,129.625 547.375,129.8906 Q547.1406,130.1563 546.7656,130.1563 Q546.4219,130.1563 546.2188,129.9531 Q546.0156,129.7656 545.9063,129.25 Q545.8594,128.8906 545.6719,128.7031 Q545.3438,128.3281 544.7344,128.1094 Q544.125,127.8906 543.5,127.8906 Q542.7344,127.8906 542.0938,128.2188 Q541.4688,128.5469 540.9688,129.2969 Q540.4844,130.0469 540.4844,131.0781 L540.4844,132.1719 Q540.4844,133.4063 541.375,134.2344 Q542.2656,135.0469 543.8594,135.0469 Q544.7969,135.0469 545.4531,134.7969 Q545.8438,134.6406 546.2656,134.2031 Q546.5313,133.9375 546.6719,133.8594 Q546.8281,133.7813 547.0313,133.7813 Q547.3594,133.7813 547.6094,134.0469 Q547.875,134.2969 547.875,134.6406 Q547.875,134.9844 547.5313,135.3906 Q547.0313,135.9688 546.2344,136.2969 Q545.1563,136.75 543.8594,136.75 Q542.3438,136.75 541.1406,136.125 Q540.1563,135.625 539.4688,134.5625 Q538.7813,133.4844 538.7813,132.2031 L538.7813,131.0469 Q538.7813,129.7188 539.3906,128.5781 Q540.0156,127.4219 541.1094,126.8125 Q542.2031,126.1875 543.4375,126.1875 Q544.1719,126.1875 544.8125,126.3594 Q545.4688,126.5156 546.0156,126.875 Z " fill="#000000"/><text fill="#000000" font-family="sans-serif" font-size="14" lengthAdjust="spacing" textLength="239" x="563.75" y="136.7285">PmpSelectionBoxDisplayingEventArgs</text><line style="stroke:#181818;stroke-width:0.5;" x1="8" x2="1326" y1="147" y2="147"/><ellipse cx="18" cy="158" fill="none" rx="3" ry="3" style="stroke:#038048;stroke-width:1.0;"/><text fill="#000000" font-family="sans-serif" font-size="14" lengthAdjust="spacing" textLength="240" x="27" y="165.5332">SelectionColor : SysColor «get» «set»</text><ellipse cx="18" cy="175.6094" fill="none" rx="3" ry="3" style="stroke:#038048;stroke-width:1.0;"/><text fill="#000000" font-family="sans-serif" font-size="14" lengthAdjust="spacing" textLength="328" x="27" y="183.1426">Filters : IEnumerable&lt;swSelectType_e&gt; «get» «set»</text><ellipse cx="18" cy="193.2188" fill="none" rx="3" ry="3" style="stroke:#038048;stroke-width:1.0;"/><text fill="#000000" font-family="sans-serif" font-size="14" lengthAdjust="spacing" textLength="163" x="27" y="200.752">Height : short «get» «set»</text><ellipse cx="18" cy="210.8281" fill="none" rx="3" ry="3" style="stroke:#038048;stroke-width:1.0;"/><text fill="#000000" font-family="sans-serif" font-size="14" lengthAdjust="spacing" textLength="137" x="27" y="218.3613">Style : int «get» «set»</text><ellipse cx="18" cy="228.4375" fill="none" rx="3" ry="3" style="stroke:#038048;stroke-width:1.0;"/><text fill="#000000" font-family="sans-serif" font-size="14" lengthAdjust="spacing" textLength="323" x="27" y="235.9707">AllowMultipleSelectOfSameEntity : bool «get» «set»</text><ellipse cx="18" cy="246.0469" fill="none" rx="3" ry="3" style="stroke:#038048;stroke-width:1.0;"/><text fill="#000000" font-family="sans-serif" font-size="14" lengthAdjust="spacing" textLength="212" x="27" y="253.5801">SingleItemOnly : bool «get» «set»</text><rect fill="none" height="6" style="stroke:#C82930;stroke-width:1.0;" width="6" x="15" y="260.6563"/><text fill="#000000" font-family="sans-serif" font-size="14" lengthAdjust="spacing" textLength="346" x="27" y="271.1895">SolidworksObject : IPropertyManagerPageSelectionbox</text><rect fill="none" height="6" style="stroke:#C82930;stroke-width:1.0;" width="6" x="15" y="278.2656"/><text fill="#000000" font-family="sans-serif" font-size="14" lengthAdjust="spacing" textLength="252" x="27" y="288.7988">_filters : IEnumerable&lt;swSelectType_e&gt;</text><rect fill="none" height="6" style="stroke:#C82930;stroke-width:1.0;" width="6" x="15" y="295.875"/><text fill="#000000" font-family="sans-serif" font-size="14" lengthAdjust="spacing" textLength="64" x="27" y="306.4082">_style : int</text><rect fill="none" height="6" style="stroke:#C82930;stroke-width:1.0;" width="6" x="15" y="313.4844"/><text fill="#000000" font-family="sans-serif" font-size="14" lengthAdjust="spacing" textLength="251" x="27" y="324.0176">_allowMultipleSelectOfSameEntity : bool</text><rect fill="none" height="6" style="stroke:#C82930;stroke-width:1.0;" width="6" x="15" y="331.0938"/><text fill="#000000" font-family="sans-serif" font-size="14" lengthAdjust="spacing" textLength="139" x="27" y="341.627">_singleItemOnly : bool</text><rect fill="none" height="6" style="stroke:#C82930;stroke-width:1.0;" width="6" x="15" y="348.7031"/><text fill="#000000" font-family="sans-serif" font-size="14" lengthAdjust="spacing" textLength="91" x="27" y="359.2363">_height : short</text><rect fill="none" height="6" style="stroke:#C82930;stroke-width:1.0;" width="6" x="15" y="366.3125"/><text fill="#000000" font-family="sans-serif" font-size="14" lengthAdjust="spacing" textLength="167" x="27" y="376.8457">_selectionColor : SysColor</text><line style="stroke:#181818;stroke-width:0.5;" x1="8" x2="1326" y1="383.9219" y2="383.9219"/><text fill="#000000" font-family="sans-serif" font-size="14" lengthAdjust="spacing" textLength="1294" x="27" y="402.4551">«internal» PmpSelectionBoxDisplayingEventArgs(pmpSelectionBox:PmpSelectionBox, filters:IEnumerable&lt;swSelectType_e&gt;, style:int, allowMultipleSelectOfSameEntity:bool, singleItemOnly:bool, height:short)</text><ellipse cx="18" cy="412.5313" fill="#84BE84" rx="3" ry="3" style="stroke:#038048;stroke-width:1.0;"/><text fill="#000000" font-family="sans-serif" font-size="14" lengthAdjust="spacing" textLength="179" x="27" y="420.0645">ItemText(index:short) : string</text></g><!--MD5=[2909e8b870a001559f7945f50a44b388]
class PmpControlDisplayingEventArgs--><g id="elem_PmpControlDisplayingEventArgs"><rect fill="#F1F1F1" height="48" id="PmpControlDisplayingEventArgs" rx="2.5" ry="2.5" style="stroke:#181818;stroke-width:0.5;" width="236" x="549" y="7"/><ellipse cx="564" cy="23" fill="#ADD1B2" rx="11" ry="11" style="stroke:#181818;stroke-width:1.0;"/><path d="M566.7656,18.875 Q566.9219,18.6563 567.1094,18.5469 Q567.2969,18.4375 567.5156,18.4375 Q567.8906,18.4375 568.125,18.7031 Q568.3594,18.9531 568.3594,19.5625 L568.3594,21.0156 Q568.3594,21.625 568.125,21.8906 Q567.8906,22.1563 567.5156,22.1563 Q567.1719,22.1563 566.9688,21.9531 Q566.7656,21.7656 566.6563,21.25 Q566.6094,20.8906 566.4219,20.7031 Q566.0938,20.3281 565.4844,20.1094 Q564.875,19.8906 564.25,19.8906 Q563.4844,19.8906 562.8438,20.2188 Q562.2188,20.5469 561.7188,21.2969 Q561.2344,22.0469 561.2344,23.0781 L561.2344,24.1719 Q561.2344,25.4063 562.125,26.2344 Q563.0156,27.0469 564.6094,27.0469 Q565.5469,27.0469 566.2031,26.7969 Q566.5938,26.6406 567.0156,26.2031 Q567.2813,25.9375 567.4219,25.8594 Q567.5781,25.7813 567.7813,25.7813 Q568.1094,25.7813 568.3594,26.0469 Q568.625,26.2969 568.625,26.6406 Q568.625,26.9844 568.2813,27.3906 Q567.7813,27.9688 566.9844,28.2969 Q565.9063,28.75 564.6094,28.75 Q563.0938,28.75 561.8906,28.125 Q560.9063,27.625 560.2188,26.5625 Q559.5313,25.4844 559.5313,24.2031 L559.5313,23.0469 Q559.5313,21.7188 560.1406,20.5781 Q560.7656,19.4219 561.8594,18.8125 Q562.9531,18.1875 564.1875,18.1875 Q564.9219,18.1875 565.5625,18.3594 Q566.2188,18.5156 566.7656,18.875 Z " fill="#000000"/><text fill="#000000" font-family="sans-serif" font-size="14" lengthAdjust="spacing" textLength="204" x="578" y="28.7285">PmpControlDisplayingEventArgs</text><line style="stroke:#181818;stroke-width:0.5;" x1="550" x2="784" y1="39" y2="39"/><line style="stroke:#181818;stroke-width:0.5;" x1="550" x2="784" y1="47" y2="47"/></g><!--MD5=[2b09d7ae1612f2202ffb58b352c9fdf6]
reverse link PmpControlDisplayingEventArgs to PmpSelectionBoxDisplayingEventArgs--><g id="link_PmpControlDisplayingEventArgs_PmpSelectionBoxDisplayingEventArgs"><path codeLine="18" d="M667,75.54 C667,87.29 667,100.71 667,114.88 " fill="none" id="PmpControlDisplayingEventArgs-backto-PmpSelectionBoxDisplayingEventArgs" style="stroke:#181818;stroke-width:1.0;"/><polygon fill="none" points="660,75.25,667,55.25,674,75.25,660,75.25" style="stroke:#181818;stroke-width:1.0;"/></g><!--MD5=[dccb00282437ef6f21cf20c97738c96b]
@startuml
class PmpSelectionBoxDisplayingEventArgs {
    <<internal>> PmpSelectionBoxDisplayingEventArgs(pmpSelectionBox:PmpSelectionBox, filters:IEnumerable<swSelectType_e>, style:int, allowMultipleSelectOfSameEntity:bool, singleItemOnly:bool, height:short)
    + ItemText(index:short) : string
    + SelectionColor : SysColor <<get>> <<set>>
    + Filters : IEnumerable<swSelectType_e> <<get>> <<set>>
    + Height : short <<get>> <<set>>
    + Style : int <<get>> <<set>>
    + AllowMultipleSelectOfSameEntity : bool <<get>> <<set>>
    + SingleItemOnly : bool <<get>> <<set>>
    - SolidworksObject : IPropertyManagerPageSelectionbox
    - _filters : IEnumerable<swSelectType_e>
    - _style : int
    - _allowMultipleSelectOfSameEntity : bool
    - _singleItemOnly : bool
    - _height : short
    - _selectionColor : SysColor
}
PmpControlDisplayingEventArgs <|- - PmpSelectionBoxDisplayingEventArgs
@enduml

PlantUML version 1.2022.5(Sat Apr 30 20:55:52 AEST 2022)
(GPL source distribution)
Java Runtime: OpenJDK Runtime Environment
JVM: OpenJDK 64-Bit Server VM
Default Encoding: Cp1252
Language: en
Country: AU
--></g></svg>