<?xml version="1.0" encoding="UTF-8" standalone="no"?><svg xmlns="http://www.w3.org/2000/svg" xmlns:xlink="http://www.w3.org/1999/xlink" contentStyleType="text/css" height="416px" preserveAspectRatio="none" style="width:546px;height:416px;background:#FFFFFF;" version="1.1" viewBox="0 0 546 416" width="546px" zoomAndPan="magnify"><defs/><g><!--MD5=[f11bcef89df043b405c975c2e6f76d8e]
class PmpLabel--><g id="elem_PmpLabel"><rect codeLine="1" fill="#F1F1F1" height="294.5313" id="PmpLabel" rx="2.5" ry="2.5" style="stroke:#181818;stroke-width:0.5;" width="532" x="7" y="115"/><ellipse cx="237.25" cy="131" fill="#ADD1B2" rx="11" ry="11" style="stroke:#181818;stroke-width:1.0;"/><path d="M240.0156,126.875 Q240.1719,126.6563 240.3594,126.5469 Q240.5469,126.4375 240.7656,126.4375 Q241.1406,126.4375 241.375,126.7031 Q241.6094,126.9531 241.6094,127.5625 L241.6094,129.0156 Q241.6094,129.625 241.375,129.8906 Q241.1406,130.1563 240.7656,130.1563 Q240.4219,130.1563 240.2188,129.9531 Q240.0156,129.7656 239.9063,129.25 Q239.8594,128.8906 239.6719,128.7031 Q239.3438,128.3281 238.7344,128.1094 Q238.125,127.8906 237.5,127.8906 Q236.7344,127.8906 236.0938,128.2188 Q235.4688,128.5469 234.9688,129.2969 Q234.4844,130.0469 234.4844,131.0781 L234.4844,132.1719 Q234.4844,133.4063 235.375,134.2344 Q236.2656,135.0469 237.8594,135.0469 Q238.7969,135.0469 239.4531,134.7969 Q239.8438,134.6406 240.2656,134.2031 Q240.5313,133.9375 240.6719,133.8594 Q240.8281,133.7813 241.0313,133.7813 Q241.3594,133.7813 241.6094,134.0469 Q241.875,134.2969 241.875,134.6406 Q241.875,134.9844 241.5313,135.3906 Q241.0313,135.9688 240.2344,136.2969 Q239.1563,136.75 237.8594,136.75 Q236.3438,136.75 235.1406,136.125 Q234.1563,135.625 233.4688,134.5625 Q232.7813,133.4844 232.7813,132.2031 L232.7813,131.0469 Q232.7813,129.7188 233.3906,128.5781 Q234.0156,127.4219 235.1094,126.8125 Q236.2031,126.1875 237.4375,126.1875 Q238.1719,126.1875 238.8125,126.3594 Q239.4688,126.5156 240.0156,126.875 Z " fill="#000000"/><text fill="#000000" font-family="sans-serif" font-size="14" lengthAdjust="spacing" textLength="63" x="257.75" y="136.7285">PmpLabel</text><line style="stroke:#181818;stroke-width:0.5;" x1="8" x2="538" y1="147" y2="147"/><rect fill="none" height="6" style="stroke:#C82930;stroke-width:1.0;" width="6" x="15" y="155"/><text fill="#000000" font-family="sans-serif" font-size="14" lengthAdjust="spacing" textLength="122" x="27" y="165.5332">_style : LabelStyles</text><ellipse cx="18" cy="175.6094" fill="none" rx="3" ry="3" style="stroke:#038048;stroke-width:1.0;"/><text fill="#000000" font-family="sans-serif" font-size="14" lengthAdjust="spacing" textLength="195" x="27" y="183.1426">Style : LabelStyles «get» «set»</text><ellipse cx="18" cy="193.2188" fill="none" rx="3" ry="3" style="stroke:#038048;stroke-width:1.0;"/><text fill="#000000" font-family="sans-serif" font-size="14" lengthAdjust="spacing" textLength="394" x="27" y="200.752">«new»  «event» Displaying : PmpLabelDisplayingEventHandler</text><line style="stroke:#181818;stroke-width:0.5;" x1="8" x2="538" y1="207.8281" y2="207.8281"/><ellipse cx="18" cy="218.8281" fill="#84BE84" rx="3" ry="3" style="stroke:#038048;stroke-width:1.0;"/><text fill="#000000" font-family="sans-serif" font-size="14" lengthAdjust="spacing" textLength="248" x="27" y="226.3613">PmpLabel(text:string, style:LabelStyles)</text><ellipse cx="18" cy="236.4375" fill="#84BE84" rx="3" ry="3" style="stroke:#038048;stroke-width:1.0;"/><text fill="#000000" font-family="sans-serif" font-size="14" lengthAdjust="spacing" textLength="371" x="27" y="243.9707">SetItalic(StartChar:short, EndChar:short, status:bool) : void</text><ellipse cx="18" cy="254.0469" fill="#84BE84" rx="3" ry="3" style="stroke:#038048;stroke-width:1.0;"/><text fill="#000000" font-family="sans-serif" font-size="14" lengthAdjust="spacing" textLength="297" x="27" y="261.5801">GetItalic(StartChar:short, EndChar:short) : bool</text><ellipse cx="18" cy="271.6563" fill="#84BE84" rx="3" ry="3" style="stroke:#038048;stroke-width:1.0;"/><text fill="#000000" font-family="sans-serif" font-size="14" lengthAdjust="spacing" textLength="421" x="27" y="279.1895">SetLineOffset(StartChar:short, EndChar:short, offset:double) : void</text><ellipse cx="18" cy="289.2656" fill="#84BE84" rx="3" ry="3" style="stroke:#038048;stroke-width:1.0;"/><text fill="#000000" font-family="sans-serif" font-size="14" lengthAdjust="spacing" textLength="408" x="27" y="296.7988">SetSizeRatio(StartChar:short, EndChar:short, ratio:double) : void</text><ellipse cx="18" cy="306.875" fill="#84BE84" rx="3" ry="3" style="stroke:#038048;stroke-width:1.0;"/><text fill="#000000" font-family="sans-serif" font-size="14" lengthAdjust="spacing" textLength="453" x="27" y="314.4082">SetBackgroundColor(StartChar:short, EndChar:short, color:Color) : void</text><ellipse cx="18" cy="324.4844" fill="#84BE84" rx="3" ry="3" style="stroke:#038048;stroke-width:1.0;"/><text fill="#000000" font-family="sans-serif" font-size="14" lengthAdjust="spacing" textLength="440" x="27" y="332.0176">SetCharacterColor(StartChar:short, EndChar:short, color:Color) : void</text><ellipse cx="18" cy="342.0938" fill="#84BE84" rx="3" ry="3" style="stroke:#038048;stroke-width:1.0;"/><text fill="#000000" font-family="sans-serif" font-size="14" lengthAdjust="spacing" textLength="366" x="27" y="349.627">SetFont(StartChar:short, EndChar:short, font:string) : void</text><ellipse cx="18" cy="359.7031" fill="#84BE84" rx="3" ry="3" style="stroke:#038048;stroke-width:1.0;"/><text fill="#000000" font-family="sans-serif" font-size="14" lengthAdjust="spacing" textLength="506" x="27" y="367.2363">SetUnderLineStyle(StartChar:short, EndChar:short, style:UnderLineStyles) : void</text><ellipse cx="18" cy="377.3125" fill="#84BE84" rx="3" ry="3" style="stroke:#038048;stroke-width:1.0;"/><text fill="#000000" font-family="sans-serif" font-size="14" lengthAdjust="spacing" textLength="306" x="27" y="384.8457">SetBold(start:short, end:short, status:bool) : void</text><text fill="#000000" font-family="sans-serif" font-size="14" lengthAdjust="spacing" textLength="306" x="27" y="402.4551">«internal» «override» DisplayingCallback() : void</text></g><!--MD5=[0e4f282a4d71a359fc4b0132b5573ff6]
class PmpTextBase`1--><g id="elem_PmpTextBase`1"><rect fill="#F1F1F1" height="48" id="PmpTextBase`1" rx="2.5" ry="2.5" style="stroke:#181818;stroke-width:0.5;" width="132" x="207" y="7"/><ellipse cx="222" cy="23" fill="#ADD1B2" rx="11" ry="11" style="stroke:#181818;stroke-width:1.0;"/><path d="M224.7656,18.875 Q224.9219,18.6563 225.1094,18.5469 Q225.2969,18.4375 225.5156,18.4375 Q225.8906,18.4375 226.125,18.7031 Q226.3594,18.9531 226.3594,19.5625 L226.3594,21.0156 Q226.3594,21.625 226.125,21.8906 Q225.8906,22.1563 225.5156,22.1563 Q225.1719,22.1563 224.9688,21.9531 Q224.7656,21.7656 224.6563,21.25 Q224.6094,20.8906 224.4219,20.7031 Q224.0938,20.3281 223.4844,20.1094 Q222.875,19.8906 222.25,19.8906 Q221.4844,19.8906 220.8438,20.2188 Q220.2188,20.5469 219.7188,21.2969 Q219.2344,22.0469 219.2344,23.0781 L219.2344,24.1719 Q219.2344,25.4063 220.125,26.2344 Q221.0156,27.0469 222.6094,27.0469 Q223.5469,27.0469 224.2031,26.7969 Q224.5938,26.6406 225.0156,26.2031 Q225.2813,25.9375 225.4219,25.8594 Q225.5781,25.7813 225.7813,25.7813 Q226.1094,25.7813 226.3594,26.0469 Q226.625,26.2969 226.625,26.6406 Q226.625,26.9844 226.2813,27.3906 Q225.7813,27.9688 224.9844,28.2969 Q223.9063,28.75 222.6094,28.75 Q221.0938,28.75 219.8906,28.125 Q218.9063,27.625 218.2188,26.5625 Q217.5313,25.4844 217.5313,24.2031 L217.5313,23.0469 Q217.5313,21.7188 218.1406,20.5781 Q218.7656,19.4219 219.8594,18.8125 Q220.9531,18.1875 222.1875,18.1875 Q222.9219,18.1875 223.5625,18.3594 Q224.2188,18.5156 224.7656,18.875 Z " fill="#000000"/><text fill="#000000" font-family="sans-serif" font-size="14" lengthAdjust="spacing" textLength="100" x="236" y="28.7285">PmpTextBase`1</text><line style="stroke:#181818;stroke-width:0.5;" x1="208" x2="338" y1="39" y2="39"/><line style="stroke:#181818;stroke-width:0.5;" x1="208" x2="338" y1="47" y2="47"/></g><!--MD5=[8d8ec41529a788f4f0febd770f5babcf]
reverse link PmpTextBase`1 to PmpLabel--><g id="link_PmpTextBase`1_PmpLabel"><path codeLine="17" d="M273,75.63 C273,87.41 273,100.84 273,114.96 " fill="none" id="PmpTextBase`1-backto-PmpLabel" style="stroke:#181818;stroke-width:1.0;"/><polygon fill="none" points="266,75.27,273,55.27,280,75.27,266,75.27" style="stroke:#181818;stroke-width:1.0;"/><text fill="#000000" font-family="sans-serif" font-size="13" lengthAdjust="spacing" textLength="176" x="75.55" y="76.6738">&lt;PropertyManagerPageLabel&gt;</text></g><!--MD5=[e076cdc86d60db577e5b64c416d02d0a]
@startuml
class PmpLabel {
    - _style : LabelStyles
    + PmpLabel(text:string, style:LabelStyles)
    + SetItalic(StartChar:short, EndChar:short, status:bool) : void
    + GetItalic(StartChar:short, EndChar:short) : bool
    + SetLineOffset(StartChar:short, EndChar:short, offset:double) : void
    + SetSizeRatio(StartChar:short, EndChar:short, ratio:double) : void
    + SetBackgroundColor(StartChar:short, EndChar:short, color:Color) : void
    + SetCharacterColor(StartChar:short, EndChar:short, color:Color) : void
    + SetFont(StartChar:short, EndChar:short, font:string) : void
    + SetUnderLineStyle(StartChar:short, EndChar:short, style:UnderLineStyles) : void
    + Style : LabelStyles <<get>> <<set>>
    + SetBold(start:short, end:short, status:bool) : void
    <<internal>> <<override>> DisplayingCallback() : void
    + <<new>>  <<event>> Displaying : PmpLabelDisplayingEventHandler 
}
"PmpTextBase`1" "<PropertyManagerPageLabel>" <|- - PmpLabel
@enduml

PlantUML version 1.2022.5(Sat Apr 30 20:55:52 AEST 2022)
(GPL source distribution)
Java Runtime: OpenJDK Runtime Environment
JVM: OpenJDK 64-Bit Server VM
Default Encoding: Cp1252
Language: en
Country: AU
--></g></svg>