<?xml version="1.0" encoding="UTF-8" standalone="no"?><svg xmlns="http://www.w3.org/2000/svg" xmlns:xlink="http://www.w3.org/1999/xlink" contentStyleType="text/css" height="293px" preserveAspectRatio="none" style="width:386px;height:293px;background:#FFFFFF;" version="1.1" viewBox="0 0 386 293" width="386px" zoomAndPan="magnify"><defs/><g><!--MD5=[aec804f888fac4f1c5ef56480bd06b99]
class PmpRadioButton--><g id="elem_PmpRadioButton"><rect codeLine="1" fill="#F1F1F1" height="171.2656" id="PmpRadioButton" rx="2.5" ry="2.5" style="stroke:#181818;stroke-width:0.5;" width="332" x="47.5063" y="115"/><ellipse cx="156.2563" cy="131" fill="#ADD1B2" rx="11" ry="11" style="stroke:#181818;stroke-width:1.0;"/><path d="M159.0219,126.875 Q159.1781,126.6563 159.3656,126.5469 Q159.5531,126.4375 159.7719,126.4375 Q160.1469,126.4375 160.3813,126.7031 Q160.6156,126.9531 160.6156,127.5625 L160.6156,129.0156 Q160.6156,129.625 160.3813,129.8906 Q160.1469,130.1563 159.7719,130.1563 Q159.4281,130.1563 159.225,129.9531 Q159.0219,129.7656 158.9125,129.25 Q158.8656,128.8906 158.6781,128.7031 Q158.35,128.3281 157.7406,128.1094 Q157.1313,127.8906 156.5063,127.8906 Q155.7406,127.8906 155.1,128.2188 Q154.475,128.5469 153.975,129.2969 Q153.4906,130.0469 153.4906,131.0781 L153.4906,132.1719 Q153.4906,133.4063 154.3813,134.2344 Q155.2719,135.0469 156.8656,135.0469 Q157.8031,135.0469 158.4594,134.7969 Q158.85,134.6406 159.2719,134.2031 Q159.5375,133.9375 159.6781,133.8594 Q159.8344,133.7813 160.0375,133.7813 Q160.3656,133.7813 160.6156,134.0469 Q160.8813,134.2969 160.8813,134.6406 Q160.8813,134.9844 160.5375,135.3906 Q160.0375,135.9688 159.2406,136.2969 Q158.1625,136.75 156.8656,136.75 Q155.35,136.75 154.1469,136.125 Q153.1625,135.625 152.475,134.5625 Q151.7875,133.4844 151.7875,132.2031 L151.7875,131.0469 Q151.7875,129.7188 152.3969,128.5781 Q153.0219,127.4219 154.1156,126.8125 Q155.2094,126.1875 156.4438,126.1875 Q157.1781,126.1875 157.8188,126.3594 Q158.475,126.5156 159.0219,126.875 Z " fill="#000000"/><text fill="#000000" font-family="sans-serif" font-size="14" lengthAdjust="spacing" textLength="106" x="176.7563" y="136.7285">PmpRadioButton</text><line style="stroke:#181818;stroke-width:0.5;" x1="48.5063" x2="378.5063" y1="147" y2="147"/><rect fill="none" height="6" style="stroke:#C82930;stroke-width:1.0;" width="6" x="55.5063" y="155"/><text fill="#000000" font-family="sans-serif" font-size="14" lengthAdjust="spacing" textLength="113" x="67.5063" y="165.5332">_isChecked : bool</text><ellipse cx="58.5063" cy="175.6094" fill="none" rx="3" ry="3" style="stroke:#038048;stroke-width:1.0;"/><text fill="#000000" font-family="sans-serif" font-size="14" lengthAdjust="spacing" textLength="184" x="67.5063" y="183.1426">IsChecked : bool «get» «set»</text><ellipse cx="58.5063" cy="193.2188" fill="none" rx="3" ry="3" style="stroke:#038048;stroke-width:1.0;"/><text fill="#000000" font-family="sans-serif" font-size="14" lengthAdjust="spacing" textLength="204" x="67.5063" y="200.752">MaintainState : bool «get» «set»</text><ellipse cx="58.5063" cy="210.8281" fill="none" rx="3" ry="3" style="stroke:#038048;stroke-width:1.0;"/><text fill="#000000" font-family="sans-serif" font-size="14" lengthAdjust="spacing" textLength="153" x="67.5063" y="218.3613">Checked : EventHandler</text><rect fill="none" height="6" style="stroke:#C82930;stroke-width:1.0;" width="6" x="55.5063" y="225.4375"/><text fill="#000000" font-family="sans-serif" font-size="14" lengthAdjust="spacing" textLength="100" x="67.5063" y="235.9707">_maintain : bool</text><line style="stroke:#181818;stroke-width:0.5;" x1="48.5063" x2="378.5063" y1="243.0469" y2="243.0469"/><ellipse cx="58.5063" cy="254.0469" fill="#84BE84" rx="3" ry="3" style="stroke:#038048;stroke-width:1.0;"/><text fill="#000000" font-family="sans-serif" font-size="14" lengthAdjust="spacing" textLength="306" x="67.5063" y="261.5801">PmpRadioButton(caption:string, isChecked:bool)</text><text fill="#000000" font-family="sans-serif" font-size="14" lengthAdjust="spacing" textLength="225" x="67.5063" y="279.1895">«internal» CheckedCallback() : void</text></g><!--MD5=[22a3ac4e8783a88ac869ee0e2318b515]
class PmpControl`1--><g id="elem_PmpControl`1"><rect fill="#F1F1F1" height="48" id="PmpControl`1" rx="2.5" ry="2.5" style="stroke:#181818;stroke-width:0.5;" width="119" x="154.0063" y="7"/><ellipse cx="169.0063" cy="23" fill="#ADD1B2" rx="11" ry="11" style="stroke:#181818;stroke-width:1.0;"/><path d="M171.7719,18.875 Q171.9281,18.6563 172.1156,18.5469 Q172.3031,18.4375 172.5219,18.4375 Q172.8969,18.4375 173.1313,18.7031 Q173.3656,18.9531 173.3656,19.5625 L173.3656,21.0156 Q173.3656,21.625 173.1313,21.8906 Q172.8969,22.1563 172.5219,22.1563 Q172.1781,22.1563 171.975,21.9531 Q171.7719,21.7656 171.6625,21.25 Q171.6156,20.8906 171.4281,20.7031 Q171.1,20.3281 170.4906,20.1094 Q169.8813,19.8906 169.2563,19.8906 Q168.4906,19.8906 167.85,20.2188 Q167.225,20.5469 166.725,21.2969 Q166.2406,22.0469 166.2406,23.0781 L166.2406,24.1719 Q166.2406,25.4063 167.1313,26.2344 Q168.0219,27.0469 169.6156,27.0469 Q170.5531,27.0469 171.2094,26.7969 Q171.6,26.6406 172.0219,26.2031 Q172.2875,25.9375 172.4281,25.8594 Q172.5844,25.7813 172.7875,25.7813 Q173.1156,25.7813 173.3656,26.0469 Q173.6313,26.2969 173.6313,26.6406 Q173.6313,26.9844 173.2875,27.3906 Q172.7875,27.9688 171.9906,28.2969 Q170.9125,28.75 169.6156,28.75 Q168.1,28.75 166.8969,28.125 Q165.9125,27.625 165.225,26.5625 Q164.5375,25.4844 164.5375,24.2031 L164.5375,23.0469 Q164.5375,21.7188 165.1469,20.5781 Q165.7719,19.4219 166.8656,18.8125 Q167.9594,18.1875 169.1938,18.1875 Q169.9281,18.1875 170.5688,18.3594 Q171.225,18.5156 171.7719,18.875 Z " fill="#000000"/><text fill="#000000" font-family="sans-serif" font-size="14" lengthAdjust="spacing" textLength="87" x="183.0063" y="28.7285">PmpControl`1</text><line style="stroke:#181818;stroke-width:0.5;" x1="155.0063" x2="272.0063" y1="39" y2="39"/><line style="stroke:#181818;stroke-width:0.5;" x1="155.0063" x2="272.0063" y1="47" y2="47"/></g><!--MD5=[ca7f068b29c5c5e9815b0ca2bfb8a06c]
reverse link PmpControl`1 to PmpRadioButton--><g id="link_PmpControl`1_PmpRadioButton"><path codeLine="10" d="M213.5063,75.7 C213.5063,87.74 213.5063,101.24 213.5063,114.76 " fill="none" id="PmpControl`1-backto-PmpRadioButton" style="stroke:#181818;stroke-width:1.0;"/><polygon fill="none" points="206.5063,75.29,213.5063,55.29,220.5063,75.29,206.5063,75.29" style="stroke:#181818;stroke-width:1.0;"/><text fill="#000000" font-family="sans-serif" font-size="13" lengthAdjust="spacing" textLength="186" x="6" y="76.2928">&lt;IPropertyManagerPageOption&gt;</text></g><!--MD5=[571b79a0506edd24125e178637869c42]
@startuml
class PmpRadioButton {
    - _isChecked : bool
    + PmpRadioButton(caption:string, isChecked:bool)
    + IsChecked : bool <<get>> <<set>>
    + MaintainState : bool <<get>> <<set>>
    <<internal>> CheckedCallback() : void
    + Checked : EventHandler
    - _maintain : bool
}
"PmpControl`1" "<IPropertyManagerPageOption>" <|- - PmpRadioButton
@enduml

PlantUML version 1.2022.5(Sat Apr 30 20:55:52 AEST 2022)
(GPL source distribution)
Java Runtime: OpenJDK Runtime Environment
JVM: OpenJDK 64-Bit Server VM
Default Encoding: Cp1252
Language: en
Country: AU
--></g></svg>