<?xml version="1.0" encoding="UTF-8" standalone="no"?><svg xmlns="http://www.w3.org/2000/svg" xmlns:xlink="http://www.w3.org/1999/xlink" contentStyleType="text/css" height="139px" preserveAspectRatio="none" style="width:127px;height:139px;background:#FFFFFF;" version="1.1" viewBox="0 0 127 139" width="127px" zoomAndPan="magnify"><defs/><g><!--MD5=[bdd8e418fc049842310bdde24c684e5e]
class LabelStyles--><g id="elem_LabelStyles"><rect codeLine="1" fill="#F1F1F1" height="118.4375" id="LabelStyles" rx="2.5" ry="2.5" style="stroke:#181818;stroke-width:0.5;" width="106" x="7" y="7"/><ellipse cx="22.45" cy="23" fill="#EB937F" rx="11" ry="11" style="stroke:#181818;stroke-width:1.0;"/><path d="M21.3094,23.7969 L21.3094,26.2969 L25.6375,26.2969 L25.6375,25.375 Q25.6375,24.7656 25.8719,24.5 Q26.1219,24.2344 26.4969,24.2344 Q26.8719,24.2344 27.1063,24.5 Q27.3406,24.7656 27.3406,25.375 L27.3406,28 L19.3406,28 Q18.7156,28 18.45,27.7656 Q18.2,27.5313 18.2,27.1406 Q18.2,26.7656 18.4656,26.5313 Q18.7313,26.2969 19.3406,26.2969 L19.6063,26.2969 L19.6063,19.6406 L19.3406,19.6406 Q18.7156,19.6406 18.45,19.4063 Q18.2,19.1719 18.2,18.7813 Q18.2,18.4063 18.45,18.1719 Q18.7156,17.9375 19.3406,17.9375 L26.9656,17.9375 L26.9656,20.5313 Q26.9656,21.1406 26.7313,21.4063 Q26.5125,21.6563 26.1219,21.6563 Q25.7469,21.6563 25.5125,21.4063 Q25.2781,21.1406 25.2781,20.5313 L25.2781,19.6406 L21.3094,19.6406 L21.3094,22.0938 L22.7938,22.0938 Q22.7938,21.4375 22.9188,21.25 Q23.1844,20.8438 23.6531,20.8438 Q24.0281,20.8438 24.2625,21.1094 Q24.4969,21.3594 24.4969,21.9688 L24.4969,23.9375 Q24.4969,24.4844 24.3719,24.6719 Q24.1063,25.0625 23.6531,25.0625 Q23.1844,25.0625 22.9188,24.6563 Q22.7938,24.4688 22.7938,23.7969 L21.3094,23.7969 Z " fill="#000000"/><text fill="#000000" font-family="sans-serif" font-size="14" lengthAdjust="spacing" textLength="73" x="36.55" y="28.7285">LabelStyles</text><line style="stroke:#181818;stroke-width:0.5;" x1="8" x2="112" y1="39" y2="39"/><text fill="#000000" font-family="sans-serif" font-size="14" lengthAdjust="spacing" textLength="94" x="13" y="57.5332">CenterText= 2,</text><text fill="#000000" font-family="sans-serif" font-size="14" lengthAdjust="spacing" textLength="75" x="13" y="75.1426">LeftText= 1,</text><text fill="#000000" font-family="sans-serif" font-size="14" lengthAdjust="spacing" textLength="84" x="13" y="92.752">RightText= 4,</text><text fill="#000000" font-family="sans-serif" font-size="14" lengthAdjust="spacing" textLength="72" x="13" y="110.3613">Sunken= 8,</text><line style="stroke:#181818;stroke-width:0.5;" x1="8" x2="112" y1="117.4375" y2="117.4375"/></g><!--MD5=[1639669494faec275816a1ab9087484c]
@startuml
enum LabelStyles {
    CenterText= 2,
    LeftText= 1,
    RightText= 4,
    Sunken= 8,
}
@enduml

PlantUML version 1.2022.5(Sat Apr 30 20:55:52 AEST 2022)
(GPL source distribution)
Java Runtime: OpenJDK Runtime Environment
JVM: OpenJDK 64-Bit Server VM
Default Encoding: Cp1252
Language: en
Country: AU
--></g></svg>