<?xml version="1.0" encoding="UTF-8" standalone="no"?><svg xmlns="http://www.w3.org/2000/svg" xmlns:xlink="http://www.w3.org/1999/xlink" contentStyleType="text/css" height="275px" preserveAspectRatio="none" style="width:580px;height:275px;background:#FFFFFF;" version="1.1" viewBox="0 0 580 275" width="580px" zoomAndPan="magnify"><defs/><g><!--MD5=[0e4f282a4d71a359fc4b0132b5573ff6]
class PmpTextBase`1--><g id="elem_PmpTextBase`1"><rect codeLine="1" fill="#F1F1F1" height="153.6563" id="PmpTextBase`1" rx="2.5" ry="2.5" style="stroke:#181818;stroke-width:0.5;" width="562" x="7" y="115"/><ellipse cx="228.25" cy="131" fill="#ADD1B2" rx="11" ry="11" style="stroke:#181818;stroke-width:1.0;"/><path d="M231.0156,126.875 Q231.1719,126.6563 231.3594,126.5469 Q231.5469,126.4375 231.7656,126.4375 Q232.1406,126.4375 232.375,126.7031 Q232.6094,126.9531 232.6094,127.5625 L232.6094,129.0156 Q232.6094,129.625 232.375,129.8906 Q232.1406,130.1563 231.7656,130.1563 Q231.4219,130.1563 231.2188,129.9531 Q231.0156,129.7656 230.9063,129.25 Q230.8594,128.8906 230.6719,128.7031 Q230.3438,128.3281 229.7344,128.1094 Q229.125,127.8906 228.5,127.8906 Q227.7344,127.8906 227.0938,128.2188 Q226.4688,128.5469 225.9688,129.2969 Q225.4844,130.0469 225.4844,131.0781 L225.4844,132.1719 Q225.4844,133.4063 226.375,134.2344 Q227.2656,135.0469 228.8594,135.0469 Q229.7969,135.0469 230.4531,134.7969 Q230.8438,134.6406 231.2656,134.2031 Q231.5313,133.9375 231.6719,133.8594 Q231.8281,133.7813 232.0313,133.7813 Q232.3594,133.7813 232.6094,134.0469 Q232.875,134.2969 232.875,134.6406 Q232.875,134.9844 232.5313,135.3906 Q232.0313,135.9688 231.2344,136.2969 Q230.1563,136.75 228.8594,136.75 Q227.3438,136.75 226.1406,136.125 Q225.1563,135.625 224.4688,134.5625 Q223.7813,133.4844 223.7813,132.2031 L223.7813,131.0469 Q223.7813,129.7188 224.3906,128.5781 Q225.0156,127.4219 226.1094,126.8125 Q227.2031,126.1875 228.4375,126.1875 Q229.1719,126.1875 229.8125,126.3594 Q230.4688,126.5156 231.0156,126.875 Z " fill="#000000"/><text fill="#000000" font-family="sans-serif" font-size="14" lengthAdjust="spacing" textLength="100" x="248.75" y="136.7285">PmpTextBase`1</text><rect fill="#FFFFFF" height="17.0938" style="stroke:#000000;stroke-width:1.0;stroke-dasharray:2.0,2.0;" width="9" x="563" y="112"/><text fill="#000000" font-family="sans-serif" font-size="12" font-style="italic" lengthAdjust="spacing" textLength="7" x="564" y="125.457">T</text><line style="stroke:#181818;stroke-width:0.5;" x1="8" x2="568" y1="147" y2="147"/><rect fill="none" height="6" style="stroke:#C82930;stroke-width:1.0;" width="6" x="15" y="155"/><text fill="#000000" font-family="sans-serif" font-size="14" lengthAdjust="spacing" textLength="96" x="27" y="165.5332">bgColor : Color</text><rect fill="none" height="6" style="stroke:#C82930;stroke-width:1.0;" width="6" x="15" y="172.6094"/><text fill="#000000" font-family="sans-serif" font-size="14" lengthAdjust="spacing" textLength="94" x="27" y="183.1426">txtColor : Color</text><rect fill="none" height="6" style="stroke:#C82930;stroke-width:1.0;" width="6" x="15" y="190.2188"/><text fill="#000000" font-family="sans-serif" font-size="14" lengthAdjust="spacing" textLength="247" x="27" y="200.752">control : IPropertyManagerPageControl</text><ellipse cx="18" cy="210.8281" fill="none" rx="3" ry="3" style="stroke:#038048;stroke-width:1.0;"/><text fill="#000000" font-family="sans-serif" font-size="14" lengthAdjust="spacing" textLength="238" x="27" y="218.3613">BackGroundColor : Color «get» «set»</text><ellipse cx="18" cy="228.4375" fill="none" rx="3" ry="3" style="stroke:#038048;stroke-width:1.0;"/><text fill="#000000" font-family="sans-serif" font-size="14" lengthAdjust="spacing" textLength="186" x="27" y="235.9707">TextColor : Color «get» «set»</text><line style="stroke:#181818;stroke-width:0.5;" x1="8" x2="568" y1="243.0469" y2="243.0469"/><ellipse cx="18" cy="254.0469" fill="#84BE84" rx="3" ry="3" style="stroke:#038048;stroke-width:1.0;"/><text fill="#000000" font-family="sans-serif" font-size="14" lengthAdjust="spacing" textLength="536" x="27" y="261.5801">PmpTextBase(type:swPropertyManagerPageControlType_e, caption:string, tip:string)</text></g><!--MD5=[22a3ac4e8783a88ac869ee0e2318b515]
class PmpControl`1--><g id="elem_PmpControl`1"><rect fill="#F1F1F1" height="48" id="PmpControl`1" rx="2.5" ry="2.5" style="stroke:#181818;stroke-width:0.5;" width="119" x="228.5" y="7"/><ellipse cx="243.5" cy="23" fill="#ADD1B2" rx="11" ry="11" style="stroke:#181818;stroke-width:1.0;"/><path d="M246.2656,18.875 Q246.4219,18.6563 246.6094,18.5469 Q246.7969,18.4375 247.0156,18.4375 Q247.3906,18.4375 247.625,18.7031 Q247.8594,18.9531 247.8594,19.5625 L247.8594,21.0156 Q247.8594,21.625 247.625,21.8906 Q247.3906,22.1563 247.0156,22.1563 Q246.6719,22.1563 246.4688,21.9531 Q246.2656,21.7656 246.1563,21.25 Q246.1094,20.8906 245.9219,20.7031 Q245.5938,20.3281 244.9844,20.1094 Q244.375,19.8906 243.75,19.8906 Q242.9844,19.8906 242.3438,20.2188 Q241.7188,20.5469 241.2188,21.2969 Q240.7344,22.0469 240.7344,23.0781 L240.7344,24.1719 Q240.7344,25.4063 241.625,26.2344 Q242.5156,27.0469 244.1094,27.0469 Q245.0469,27.0469 245.7031,26.7969 Q246.0938,26.6406 246.5156,26.2031 Q246.7813,25.9375 246.9219,25.8594 Q247.0781,25.7813 247.2813,25.7813 Q247.6094,25.7813 247.8594,26.0469 Q248.125,26.2969 248.125,26.6406 Q248.125,26.9844 247.7813,27.3906 Q247.2813,27.9688 246.4844,28.2969 Q245.4063,28.75 244.1094,28.75 Q242.5938,28.75 241.3906,28.125 Q240.4063,27.625 239.7188,26.5625 Q239.0313,25.4844 239.0313,24.2031 L239.0313,23.0469 Q239.0313,21.7188 239.6406,20.5781 Q240.2656,19.4219 241.3594,18.8125 Q242.4531,18.1875 243.6875,18.1875 Q244.4219,18.1875 245.0625,18.3594 Q245.7188,18.5156 246.2656,18.875 Z " fill="#000000"/><text fill="#000000" font-family="sans-serif" font-size="14" lengthAdjust="spacing" textLength="87" x="257.5" y="28.7285">PmpControl`1</text><line style="stroke:#181818;stroke-width:0.5;" x1="229.5" x2="346.5" y1="39" y2="39"/><line style="stroke:#181818;stroke-width:0.5;" x1="229.5" x2="346.5" y1="47" y2="47"/></g><!--MD5=[af9fbc656262015ad0f07296ce44c2ac]
reverse link PmpControl`1 to PmpTextBase`1--><g id="link_PmpControl`1_PmpTextBase`1"><path codeLine="9" d="M288,75.21 C288,87.43 288,101.11 288,114.67 " fill="none" id="PmpControl`1-backto-PmpTextBase`1" style="stroke:#181818;stroke-width:1.0;"/><polygon fill="none" points="281,75.12,288,55.12,295,75.12,281,75.12" style="stroke:#181818;stroke-width:1.0;"/><text fill="#000000" font-family="sans-serif" font-size="13" lengthAdjust="spacing" textLength="23" x="262.1969" y="76.4872">&lt;T&gt;</text></g><!--MD5=[81b785122503469eaeef0b5c9eccfb7c]
@startuml
class "PmpTextBase`1"<T> {
    - bgColor : Color
    - txtColor : Color
    - control : IPropertyManagerPageControl
    + PmpTextBase(type:swPropertyManagerPageControlType_e, caption:string, tip:string)
    + BackGroundColor : Color <<get>> <<set>>
    + TextColor : Color <<get>> <<set>>
}
"PmpControl`1" "<T>" <|- - "PmpTextBase`1"
@enduml

PlantUML version 1.2022.5(Sat Apr 30 20:55:52 AEST 2022)
(GPL source distribution)
Java Runtime: OpenJDK Runtime Environment
JVM: OpenJDK 64-Bit Server VM
Default Encoding: Cp1252
Language: en
Country: AU
--></g></svg>