<?xml version="1.0" encoding="UTF-8" standalone="no"?><svg xmlns="http://www.w3.org/2000/svg" xmlns:xlink="http://www.w3.org/1999/xlink" contentStyleType="text/css" height="874px" preserveAspectRatio="none" style="width:526px;height:874px;background:#FFFFFF;" version="1.1" viewBox="0 0 526 874" width="526px" zoomAndPan="magnify"><defs/><g><!--MD5=[ce14a72508cd01da2164a8c6644e3189]
class PmpEventHandler--><g id="elem_PmpEventHandler"><rect codeLine="1" fill="#F1F1F1" height="752.375" id="PmpEventHandler" rx="2.5" ry="2.5" style="stroke:#181818;stroke-width:0.5;" width="512" x="7" y="115"/><ellipse cx="202.25" cy="131" fill="#ADD1B2" rx="11" ry="11" style="stroke:#181818;stroke-width:1.0;"/><path d="M205.0156,126.875 Q205.1719,126.6563 205.3594,126.5469 Q205.5469,126.4375 205.7656,126.4375 Q206.1406,126.4375 206.375,126.7031 Q206.6094,126.9531 206.6094,127.5625 L206.6094,129.0156 Q206.6094,129.625 206.375,129.8906 Q206.1406,130.1563 205.7656,130.1563 Q205.4219,130.1563 205.2188,129.9531 Q205.0156,129.7656 204.9063,129.25 Q204.8594,128.8906 204.6719,128.7031 Q204.3438,128.3281 203.7344,128.1094 Q203.125,127.8906 202.5,127.8906 Q201.7344,127.8906 201.0938,128.2188 Q200.4688,128.5469 199.9688,129.2969 Q199.4844,130.0469 199.4844,131.0781 L199.4844,132.1719 Q199.4844,133.4063 200.375,134.2344 Q201.2656,135.0469 202.8594,135.0469 Q203.7969,135.0469 204.4531,134.7969 Q204.8438,134.6406 205.2656,134.2031 Q205.5313,133.9375 205.6719,133.8594 Q205.8281,133.7813 206.0313,133.7813 Q206.3594,133.7813 206.6094,134.0469 Q206.875,134.2969 206.875,134.6406 Q206.875,134.9844 206.5313,135.3906 Q206.0313,135.9688 205.2344,136.2969 Q204.1563,136.75 202.8594,136.75 Q201.3438,136.75 200.1406,136.125 Q199.1563,135.625 198.4688,134.5625 Q197.7813,133.4844 197.7813,132.2031 L197.7813,131.0469 Q197.7813,129.7188 198.3906,128.5781 Q199.0156,127.4219 200.1094,126.8125 Q201.2031,126.1875 202.4375,126.1875 Q203.1719,126.1875 203.8125,126.3594 Q204.4688,126.5156 205.0156,126.875 Z " fill="#000000"/><text fill="#000000" font-family="sans-serif" font-size="14" lengthAdjust="spacing" textLength="113" x="222.75" y="136.7285">PmpEventHandler</text><line style="stroke:#181818;stroke-width:0.5;" x1="8" x2="518" y1="147" y2="147"/><rect fill="none" height="6" style="stroke:#C82930;stroke-width:1.0;" width="6" x="15" y="155"/><text fill="#000000" font-family="sans-serif" font-size="14" lengthAdjust="spacing" textLength="292" x="27" y="165.5332">popUpItems : IEnumerable&lt;PopUpMenueItem&gt;</text><ellipse cx="18" cy="175.6094" fill="none" rx="3" ry="3" style="stroke:#038048;stroke-width:1.0;"/><text fill="#000000" font-family="sans-serif" font-size="14" lengthAdjust="spacing" textLength="180" x="27" y="183.1426">UiModel : PmpUiModel «get»</text><line style="stroke:#181818;stroke-width:0.5;" x1="8" x2="518" y1="190.2188" y2="190.2188"/><ellipse cx="18" cy="201.2188" fill="#84BE84" rx="3" ry="3" style="stroke:#038048;stroke-width:1.0;"/><text fill="#000000" font-family="sans-serif" font-size="14" lengthAdjust="spacing" textLength="254" x="27" y="208.752">PmpEventHandler(uiModel:PmpUiModel)</text><ellipse cx="18" cy="218.8281" fill="#84BE84" rx="3" ry="3" style="stroke:#038048;stroke-width:1.0;"/><text fill="#000000" font-family="sans-serif" font-size="14" lengthAdjust="spacing" textLength="139" x="27" y="226.3613">AfterActivation() : void</text><ellipse cx="18" cy="236.4375" fill="#84BE84" rx="3" ry="3" style="stroke:#038048;stroke-width:1.0;"/><text fill="#000000" font-family="sans-serif" font-size="14" lengthAdjust="spacing" textLength="171" x="27" y="243.9707">OnClose(Reason:int) : void</text><ellipse cx="18" cy="254.0469" fill="#84BE84" rx="3" ry="3" style="stroke:#038048;stroke-width:1.0;"/><text fill="#000000" font-family="sans-serif" font-size="14" lengthAdjust="spacing" textLength="114" x="27" y="261.5801">AfterClose() : void</text><ellipse cx="18" cy="271.6563" fill="#84BE84" rx="3" ry="3" style="stroke:#038048;stroke-width:1.0;"/><text fill="#000000" font-family="sans-serif" font-size="14" lengthAdjust="spacing" textLength="96" x="27" y="279.1895">OnHelp() : bool</text><ellipse cx="18" cy="289.2656" fill="#84BE84" rx="3" ry="3" style="stroke:#038048;stroke-width:1.0;"/><text fill="#000000" font-family="sans-serif" font-size="14" lengthAdjust="spacing" textLength="156" x="27" y="296.7988">OnPreviousPage() : bool</text><ellipse cx="18" cy="306.875" fill="#84BE84" rx="3" ry="3" style="stroke:#038048;stroke-width:1.0;"/><text fill="#000000" font-family="sans-serif" font-size="14" lengthAdjust="spacing" textLength="128" x="27" y="314.4082">OnNextPage() : bool</text><ellipse cx="18" cy="324.4844" fill="#84BE84" rx="3" ry="3" style="stroke:#038048;stroke-width:1.0;"/><text fill="#000000" font-family="sans-serif" font-size="14" lengthAdjust="spacing" textLength="117" x="27" y="332.0176">OnPreview() : bool</text><ellipse cx="18" cy="342.0938" fill="#84BE84" rx="3" ry="3" style="stroke:#038048;stroke-width:1.0;"/><text fill="#000000" font-family="sans-serif" font-size="14" lengthAdjust="spacing" textLength="133" x="27" y="349.627">OnWhatsNew() : void</text><ellipse cx="18" cy="359.7031" fill="#84BE84" rx="3" ry="3" style="stroke:#038048;stroke-width:1.0;"/><text fill="#000000" font-family="sans-serif" font-size="14" lengthAdjust="spacing" textLength="100" x="27" y="367.2363">OnUndo() : void</text><ellipse cx="18" cy="377.3125" fill="#84BE84" rx="3" ry="3" style="stroke:#038048;stroke-width:1.0;"/><text fill="#000000" font-family="sans-serif" font-size="14" lengthAdjust="spacing" textLength="101" x="27" y="384.8457">OnRedo() : void</text><ellipse cx="18" cy="394.9219" fill="#84BE84" rx="3" ry="3" style="stroke:#038048;stroke-width:1.0;"/><text fill="#000000" font-family="sans-serif" font-size="14" lengthAdjust="spacing" textLength="169" x="27" y="402.4551">OnTabClicked(Id:int) : bool</text><ellipse cx="18" cy="412.5313" fill="#84BE84" rx="3" ry="3" style="stroke:#038048;stroke-width:1.0;"/><text fill="#000000" font-family="sans-serif" font-size="14" lengthAdjust="spacing" textLength="286" x="27" y="420.0645">OnGroupExpand(Id:int, Expanded:bool) : void</text><ellipse cx="18" cy="430.1406" fill="#84BE84" rx="3" ry="3" style="stroke:#038048;stroke-width:1.0;"/><text fill="#000000" font-family="sans-serif" font-size="14" lengthAdjust="spacing" textLength="272" x="27" y="437.6738">OnGroupCheck(Id:int, Checked:bool) : void</text><ellipse cx="18" cy="447.75" fill="#84BE84" rx="3" ry="3" style="stroke:#038048;stroke-width:1.0;"/><text fill="#000000" font-family="sans-serif" font-size="14" lengthAdjust="spacing" textLength="294" x="27" y="455.2832">OnCheckboxCheck(Id:int, Checked:bool) : void</text><ellipse cx="18" cy="465.3594" fill="#84BE84" rx="3" ry="3" style="stroke:#038048;stroke-width:1.0;"/><text fill="#000000" font-family="sans-serif" font-size="14" lengthAdjust="spacing" textLength="179" x="27" y="472.8926">OnOptionCheck(Id:int) : void</text><ellipse cx="18" cy="482.9688" fill="#84BE84" rx="3" ry="3" style="stroke:#038048;stroke-width:1.0;"/><text fill="#000000" font-family="sans-serif" font-size="14" lengthAdjust="spacing" textLength="174" x="27" y="490.502">OnButtonPress(Id:int) : void</text><ellipse cx="18" cy="500.5781" fill="#84BE84" rx="3" ry="3" style="stroke:#038048;stroke-width:1.0;"/><text fill="#000000" font-family="sans-serif" font-size="14" lengthAdjust="spacing" textLength="278" x="27" y="508.1113">OnTextboxChanged(Id:int, Text:string) : void</text><ellipse cx="18" cy="518.1875" fill="#84BE84" rx="3" ry="3" style="stroke:#038048;stroke-width:1.0;"/><text fill="#000000" font-family="sans-serif" font-size="14" lengthAdjust="spacing" textLength="317" x="27" y="525.7207">OnNumberboxChanged(Id:int, Value:double) : void</text><ellipse cx="18" cy="535.7969" fill="#84BE84" rx="3" ry="3" style="stroke:#038048;stroke-width:1.0;"/><text fill="#000000" font-family="sans-serif" font-size="14" lengthAdjust="spacing" textLength="320" x="27" y="543.3301">OnComboboxEditChanged(Id:int, Text:string) : void</text><ellipse cx="18" cy="553.4063" fill="#84BE84" rx="3" ry="3" style="stroke:#038048;stroke-width:1.0;"/><text fill="#000000" font-family="sans-serif" font-size="14" lengthAdjust="spacing" textLength="333" x="27" y="560.9395">OnComboboxSelectionChanged(Id:int, Item:int) : void</text><ellipse cx="18" cy="571.0156" fill="#84BE84" rx="3" ry="3" style="stroke:#038048;stroke-width:1.0;"/><text fill="#000000" font-family="sans-serif" font-size="14" lengthAdjust="spacing" textLength="310" x="27" y="578.5488">OnListboxSelectionChanged(Id:int, Item:int) : void</text><ellipse cx="18" cy="588.625" fill="#84BE84" rx="3" ry="3" style="stroke:#038048;stroke-width:1.0;"/><text fill="#000000" font-family="sans-serif" font-size="14" lengthAdjust="spacing" textLength="274" x="27" y="596.1582">OnSelectionboxFocusChanged(Id:int) : void</text><ellipse cx="18" cy="606.2344" fill="#84BE84" rx="3" ry="3" style="stroke:#038048;stroke-width:1.0;"/><text fill="#000000" font-family="sans-serif" font-size="14" lengthAdjust="spacing" textLength="322" x="27" y="613.7676">OnSelectionboxListChanged(Id:int, Count:int) : void</text><ellipse cx="18" cy="623.8438" fill="#84BE84" rx="3" ry="3" style="stroke:#038048;stroke-width:1.0;"/><text fill="#000000" font-family="sans-serif" font-size="14" lengthAdjust="spacing" textLength="272" x="27" y="631.377">OnSelectionboxCalloutCreated(Id:int) : void</text><ellipse cx="18" cy="641.4531" fill="#84BE84" rx="3" ry="3" style="stroke:#038048;stroke-width:1.0;"/><text fill="#000000" font-family="sans-serif" font-size="14" lengthAdjust="spacing" textLength="286" x="27" y="648.9863">OnSelectionboxCalloutDestroyed(Id:int) : void</text><ellipse cx="18" cy="659.0625" fill="#84BE84" rx="3" ry="3" style="stroke:#038048;stroke-width:1.0;"/><text fill="#000000" font-family="sans-serif" font-size="14" lengthAdjust="spacing" textLength="486" x="27" y="666.5957">OnSubmitSelection(Id:int, Selection:object, SelType:int, ItemText:string) : bool</text><ellipse cx="18" cy="676.6719" fill="#84BE84" rx="3" ry="3" style="stroke:#038048;stroke-width:1.0;"/><text fill="#000000" font-family="sans-serif" font-size="14" lengthAdjust="spacing" textLength="308" x="27" y="684.2051">OnActiveXControlCreated(Id:int, Status:bool) : int</text><ellipse cx="18" cy="694.2813" fill="#84BE84" rx="3" ry="3" style="stroke:#038048;stroke-width:1.0;"/><text fill="#000000" font-family="sans-serif" font-size="14" lengthAdjust="spacing" textLength="332" x="27" y="701.8145">OnSliderPositionChanged(Id:int, Value:double) : void</text><ellipse cx="18" cy="711.8906" fill="#84BE84" rx="3" ry="3" style="stroke:#038048;stroke-width:1.0;"/><text fill="#000000" font-family="sans-serif" font-size="14" lengthAdjust="spacing" textLength="347" x="27" y="719.4238">OnSliderTrackingCompleted(Id:int, Value:double) : void</text><ellipse cx="18" cy="729.5" fill="#84BE84" rx="3" ry="3" style="stroke:#038048;stroke-width:1.0;"/><text fill="#000000" font-family="sans-serif" font-size="14" lengthAdjust="spacing" textLength="400" x="27" y="737.0332">OnKeystroke(Wparam:int, Message:int, Lparam:int, Id:int) : bool</text><ellipse cx="18" cy="747.1094" fill="#84BE84" rx="3" ry="3" style="stroke:#038048;stroke-width:1.0;"/><text fill="#000000" font-family="sans-serif" font-size="14" lengthAdjust="spacing" textLength="199" x="27" y="754.6426">OnPopupMenuItem(Id:int) : void</text><ellipse cx="18" cy="764.7188" fill="#84BE84" rx="3" ry="3" style="stroke:#038048;stroke-width:1.0;"/><text fill="#000000" font-family="sans-serif" font-size="14" lengthAdjust="spacing" textLength="306" x="27" y="772.252">OnPopupMenuItemUpdate(Id:int, retval:int) : void</text><ellipse cx="18" cy="782.3281" fill="#84BE84" rx="3" ry="3" style="stroke:#038048;stroke-width:1.0;"/><text fill="#000000" font-family="sans-serif" font-size="14" lengthAdjust="spacing" textLength="182" x="27" y="789.8613">OnGainedFocus(Id:int) : void</text><ellipse cx="18" cy="799.9375" fill="#84BE84" rx="3" ry="3" style="stroke:#038048;stroke-width:1.0;"/><text fill="#000000" font-family="sans-serif" font-size="14" lengthAdjust="spacing" textLength="163" x="27" y="807.4707">OnLostFocus(Id:int) : void</text><ellipse cx="18" cy="817.5469" fill="#84BE84" rx="3" ry="3" style="stroke:#038048;stroke-width:1.0;"/><text fill="#000000" font-family="sans-serif" font-size="14" lengthAdjust="spacing" textLength="388" x="27" y="825.0801">OnWindowFromHandleControlCreated(Id:int, Status:bool) : int</text><ellipse cx="18" cy="835.1563" fill="#84BE84" rx="3" ry="3" style="stroke:#038048;stroke-width:1.0;"/><text fill="#000000" font-family="sans-serif" font-size="14" lengthAdjust="spacing" textLength="307" x="27" y="842.6895">OnListboxRMBUp(Id:int, PosX:int, PosY:int) : void</text><ellipse cx="18" cy="852.7656" fill="#84BE84" rx="3" ry="3" style="stroke:#038048;stroke-width:1.0;"/><text fill="#000000" font-family="sans-serif" font-size="14" lengthAdjust="spacing" textLength="383" x="27" y="860.2988">OnNumberBoxTrackingCompleted(Id:int, Value:double) : void</text></g><!--MD5=[b530b1b2853aa50a24ec6339e71e40ac]
class PropertyManagerPage2Handler9--><g id="elem_PropertyManagerPage2Handler9"><rect fill="#F1F1F1" height="48" id="PropertyManagerPage2Handler9" rx="2.5" ry="2.5" style="stroke:#181818;stroke-width:0.5;" width="240" x="143" y="7"/><ellipse cx="158" cy="23" fill="#ADD1B2" rx="11" ry="11" style="stroke:#181818;stroke-width:1.0;"/><path d="M160.7656,18.875 Q160.9219,18.6563 161.1094,18.5469 Q161.2969,18.4375 161.5156,18.4375 Q161.8906,18.4375 162.125,18.7031 Q162.3594,18.9531 162.3594,19.5625 L162.3594,21.0156 Q162.3594,21.625 162.125,21.8906 Q161.8906,22.1563 161.5156,22.1563 Q161.1719,22.1563 160.9688,21.9531 Q160.7656,21.7656 160.6563,21.25 Q160.6094,20.8906 160.4219,20.7031 Q160.0938,20.3281 159.4844,20.1094 Q158.875,19.8906 158.25,19.8906 Q157.4844,19.8906 156.8438,20.2188 Q156.2188,20.5469 155.7188,21.2969 Q155.2344,22.0469 155.2344,23.0781 L155.2344,24.1719 Q155.2344,25.4063 156.125,26.2344 Q157.0156,27.0469 158.6094,27.0469 Q159.5469,27.0469 160.2031,26.7969 Q160.5938,26.6406 161.0156,26.2031 Q161.2813,25.9375 161.4219,25.8594 Q161.5781,25.7813 161.7813,25.7813 Q162.1094,25.7813 162.3594,26.0469 Q162.625,26.2969 162.625,26.6406 Q162.625,26.9844 162.2813,27.3906 Q161.7813,27.9688 160.9844,28.2969 Q159.9063,28.75 158.6094,28.75 Q157.0938,28.75 155.8906,28.125 Q154.9063,27.625 154.2188,26.5625 Q153.5313,25.4844 153.5313,24.2031 L153.5313,23.0469 Q153.5313,21.7188 154.1406,20.5781 Q154.7656,19.4219 155.8594,18.8125 Q156.9531,18.1875 158.1875,18.1875 Q158.9219,18.1875 159.5625,18.3594 Q160.2188,18.5156 160.7656,18.875 Z " fill="#000000"/><text fill="#000000" font-family="sans-serif" font-size="14" lengthAdjust="spacing" textLength="208" x="172" y="28.7285">PropertyManagerPage2Handler9</text><line style="stroke:#181818;stroke-width:0.5;" x1="144" x2="382" y1="39" y2="39"/><line style="stroke:#181818;stroke-width:0.5;" x1="144" x2="382" y1="47" y2="47"/></g><!--MD5=[5c42acd5c3bc258f3917122765298a7e]
reverse link PropertyManagerPage2Handler9 to PmpEventHandler--><g id="link_PropertyManagerPage2Handler9_PmpEventHandler"><path codeLine="43" d="M263,75.13 C263,86.56 263,99.87 263,114.56 " fill="none" id="PropertyManagerPage2Handler9-backto-PmpEventHandler" style="stroke:#181818;stroke-width:1.0;"/><polygon fill="none" points="256,75.03,263,55.03,270,75.03,256,75.03" style="stroke:#181818;stroke-width:1.0;"/></g><!--MD5=[81765731faff70b4363684cab237c3ba]
@startuml
class PmpEventHandler {
    - popUpItems : IEnumerable<PopUpMenueItem>
    + PmpEventHandler(uiModel:PmpUiModel)
    + UiModel : PmpUiModel <<get>>
    + AfterActivation() : void
    + OnClose(Reason:int) : void
    + AfterClose() : void
    + OnHelp() : bool
    + OnPreviousPage() : bool
    + OnNextPage() : bool
    + OnPreview() : bool
    + OnWhatsNew() : void
    + OnUndo() : void
    + OnRedo() : void
    + OnTabClicked(Id:int) : bool
    + OnGroupExpand(Id:int, Expanded:bool) : void
    + OnGroupCheck(Id:int, Checked:bool) : void
    + OnCheckboxCheck(Id:int, Checked:bool) : void
    + OnOptionCheck(Id:int) : void
    + OnButtonPress(Id:int) : void
    + OnTextboxChanged(Id:int, Text:string) : void
    + OnNumberboxChanged(Id:int, Value:double) : void
    + OnComboboxEditChanged(Id:int, Text:string) : void
    + OnComboboxSelectionChanged(Id:int, Item:int) : void
    + OnListboxSelectionChanged(Id:int, Item:int) : void
    + OnSelectionboxFocusChanged(Id:int) : void
    + OnSelectionboxListChanged(Id:int, Count:int) : void
    + OnSelectionboxCalloutCreated(Id:int) : void
    + OnSelectionboxCalloutDestroyed(Id:int) : void
    + OnSubmitSelection(Id:int, Selection:object, SelType:int, ItemText:string) : bool
    + OnActiveXControlCreated(Id:int, Status:bool) : int
    + OnSliderPositionChanged(Id:int, Value:double) : void
    + OnSliderTrackingCompleted(Id:int, Value:double) : void
    + OnKeystroke(Wparam:int, Message:int, Lparam:int, Id:int) : bool
    + OnPopupMenuItem(Id:int) : void
    + OnPopupMenuItemUpdate(Id:int, retval:int) : void
    + OnGainedFocus(Id:int) : void
    + OnLostFocus(Id:int) : void
    + OnWindowFromHandleControlCreated(Id:int, Status:bool) : int
    + OnListboxRMBUp(Id:int, PosX:int, PosY:int) : void
    + OnNumberBoxTrackingCompleted(Id:int, Value:double) : void
}
PropertyManagerPage2Handler9 <|- - PmpEventHandler
@enduml

PlantUML version 1.2022.5(Sat Apr 30 20:55:52 AEST 2022)
(GPL source distribution)
Java Runtime: OpenJDK Runtime Environment
JVM: OpenJDK 64-Bit Server VM
Default Encoding: Cp1252
Language: en
Country: AU
--></g></svg>