<?xml version="1.0" encoding="UTF-8" standalone="no"?><svg xmlns="http://www.w3.org/2000/svg" xmlns:xlink="http://www.w3.org/1999/xlink" contentStyleType="text/css" height="157px" preserveAspectRatio="none" style="width:501px;height:157px;background:#FFFFFF;" version="1.1" viewBox="0 0 501 157" width="501px" zoomAndPan="magnify"><defs/><g><!--MD5=[9a6e5ab9a42eefab8b7e16c17ab51283]
class Resources--><g id="elem_Resources"><rect codeLine="1" fill="#F1F1F1" height="136.0469" id="Resources" rx="2.5" ry="2.5" style="stroke:#181818;stroke-width:0.5;" width="480" x="7" y="7"/><ellipse cx="208.75" cy="23" fill="#ADD1B2" rx="11" ry="11" style="stroke:#181818;stroke-width:1.0;"/><path d="M211.5156,18.875 Q211.6719,18.6563 211.8594,18.5469 Q212.0469,18.4375 212.2656,18.4375 Q212.6406,18.4375 212.875,18.7031 Q213.1094,18.9531 213.1094,19.5625 L213.1094,21.0156 Q213.1094,21.625 212.875,21.8906 Q212.6406,22.1563 212.2656,22.1563 Q211.9219,22.1563 211.7188,21.9531 Q211.5156,21.7656 211.4063,21.25 Q211.3594,20.8906 211.1719,20.7031 Q210.8438,20.3281 210.2344,20.1094 Q209.625,19.8906 209,19.8906 Q208.2344,19.8906 207.5938,20.2188 Q206.9688,20.5469 206.4688,21.2969 Q205.9844,22.0469 205.9844,23.0781 L205.9844,24.1719 Q205.9844,25.4063 206.875,26.2344 Q207.7656,27.0469 209.3594,27.0469 Q210.2969,27.0469 210.9531,26.7969 Q211.3438,26.6406 211.7656,26.2031 Q212.0313,25.9375 212.1719,25.8594 Q212.3281,25.7813 212.5313,25.7813 Q212.8594,25.7813 213.1094,26.0469 Q213.375,26.2969 213.375,26.6406 Q213.375,26.9844 213.0313,27.3906 Q212.5313,27.9688 211.7344,28.2969 Q210.6563,28.75 209.3594,28.75 Q207.8438,28.75 206.6406,28.125 Q205.6563,27.625 204.9688,26.5625 Q204.2813,25.4844 204.2813,24.2031 L204.2813,23.0469 Q204.2813,21.7188 204.8906,20.5781 Q205.5156,19.4219 206.6094,18.8125 Q207.7031,18.1875 208.9375,18.1875 Q209.6719,18.1875 210.3125,18.3594 Q210.9688,18.5156 211.5156,18.875 Z " fill="#000000"/><text fill="#000000" font-family="sans-serif" font-size="14" lengthAdjust="spacing" textLength="68" x="229.25" y="28.7285">Resources</text><line style="stroke:#181818;stroke-width:0.5;" x1="8" x2="486" y1="39" y2="39"/><rect fill="none" height="6" style="stroke:#C82930;stroke-width:1.0;" width="6" x="15" y="47"/><text fill="#000000" font-family="sans-serif" font-size="14" lengthAdjust="spacing" text-decoration="underline" textLength="380" x="27" y="57.5332">resourceMan : global::System.Resources.ResourceManager</text><rect fill="none" height="6" style="stroke:#C82930;stroke-width:1.0;" width="6" x="15" y="64.6094"/><text fill="#000000" font-family="sans-serif" font-size="14" lengthAdjust="spacing" text-decoration="underline" textLength="364" x="27" y="75.1426">resourceCulture : global::System.Globalization.CultureInfo</text><ellipse cx="18" cy="85.2188" fill="none" rx="3" ry="3" style="stroke:#038048;stroke-width:1.0;"/><text fill="#000000" font-family="sans-serif" font-size="14" lengthAdjust="spacing" text-decoration="underline" textLength="454" x="27" y="92.752">ResourceManager : global::System.Resources.ResourceManager «get»</text><ellipse cx="18" cy="102.8281" fill="none" rx="3" ry="3" style="stroke:#038048;stroke-width:1.0;"/><text fill="#000000" font-family="sans-serif" font-size="14" lengthAdjust="spacing" text-decoration="underline" textLength="387" x="27" y="110.3613">Culture : global::System.Globalization.CultureInfo «get» «set»</text><line style="stroke:#181818;stroke-width:0.5;" x1="8" x2="486" y1="117.4375" y2="117.4375"/><text fill="#000000" font-family="sans-serif" font-size="14" lengthAdjust="spacing" textLength="145" x="13" y="135.9707">«internal» Resources()</text></g><!--MD5=[65e0d7a4256708e9943d7c541ef1c276]
@startuml
class Resources {
    - {static} resourceMan : global::System.Resources.ResourceManager
    - {static} resourceCulture : global::System.Globalization.CultureInfo
    <<internal>> Resources()
    + {static} ResourceManager : global::System.Resources.ResourceManager <<get>>
    + {static} Culture : global::System.Globalization.CultureInfo <<get>> <<set>>
}
@enduml

PlantUML version 1.2022.5(Sat Apr 30 20:55:52 AEST 2022)
(GPL source distribution)
Java Runtime: OpenJDK Runtime Environment
JVM: OpenJDK 64-Bit Server VM
Default Encoding: Cp1252
Language: en
Country: AU
--></g></svg>