<?xml version="1.0" encoding="UTF-8" standalone="no"?><svg xmlns="http://www.w3.org/2000/svg" xmlns:xlink="http://www.w3.org/1999/xlink" contentStyleType="text/css" height="222px" preserveAspectRatio="none" style="width:594px;height:222px;background:#FFFFFF;" version="1.1" viewBox="0 0 594 222" width="594px" zoomAndPan="magnify"><defs/><g><!--MD5=[a536e09294ad4478e1b04fd841d50eb7]
class PmpButtonBase`1--><g id="elem_PmpButtonBase`1"><rect codeLine="1" fill="#F1F1F1" height="100.8281" id="PmpButtonBase`1" rx="2.5" ry="2.5" style="stroke:#181818;stroke-width:0.5;" width="576" x="7" y="115"/><ellipse cx="228.25" cy="131" fill="#ADD1B2" rx="11" ry="11" style="stroke:#181818;stroke-width:1.0;"/><path d="M231.0156,126.875 Q231.1719,126.6563 231.3594,126.5469 Q231.5469,126.4375 231.7656,126.4375 Q232.1406,126.4375 232.375,126.7031 Q232.6094,126.9531 232.6094,127.5625 L232.6094,129.0156 Q232.6094,129.625 232.375,129.8906 Q232.1406,130.1563 231.7656,130.1563 Q231.4219,130.1563 231.2188,129.9531 Q231.0156,129.7656 230.9063,129.25 Q230.8594,128.8906 230.6719,128.7031 Q230.3438,128.3281 229.7344,128.1094 Q229.125,127.8906 228.5,127.8906 Q227.7344,127.8906 227.0938,128.2188 Q226.4688,128.5469 225.9688,129.2969 Q225.4844,130.0469 225.4844,131.0781 L225.4844,132.1719 Q225.4844,133.4063 226.375,134.2344 Q227.2656,135.0469 228.8594,135.0469 Q229.7969,135.0469 230.4531,134.7969 Q230.8438,134.6406 231.2656,134.2031 Q231.5313,133.9375 231.6719,133.8594 Q231.8281,133.7813 232.0313,133.7813 Q232.3594,133.7813 232.6094,134.0469 Q232.875,134.2969 232.875,134.6406 Q232.875,134.9844 232.5313,135.3906 Q232.0313,135.9688 231.2344,136.2969 Q230.1563,136.75 228.8594,136.75 Q227.3438,136.75 226.1406,136.125 Q225.1563,135.625 224.4688,134.5625 Q223.7813,133.4844 223.7813,132.2031 L223.7813,131.0469 Q223.7813,129.7188 224.3906,128.5781 Q225.0156,127.4219 226.1094,126.8125 Q227.2031,126.1875 228.4375,126.1875 Q229.1719,126.1875 229.8125,126.3594 Q230.4688,126.5156 231.0156,126.875 Z " fill="#000000"/><text fill="#000000" font-family="sans-serif" font-size="14" lengthAdjust="spacing" textLength="114" x="248.75" y="136.7285">PmpButtonBase`1</text><rect fill="#FFFFFF" height="17.0938" style="stroke:#000000;stroke-width:1.0;stroke-dasharray:2.0,2.0;" width="9" x="577" y="112"/><text fill="#000000" font-family="sans-serif" font-size="12" font-style="italic" lengthAdjust="spacing" textLength="7" x="578" y="125.457">T</text><line style="stroke:#181818;stroke-width:0.5;" x1="8" x2="582" y1="147" y2="147"/><ellipse cx="18" cy="158" fill="none" rx="3" ry="3" style="stroke:#038048;stroke-width:1.0;"/><text fill="#000000" font-family="sans-serif" font-size="14" lengthAdjust="spacing" textLength="198" x="27" y="165.5332">«event» Clicked : EventHandler</text><line style="stroke:#181818;stroke-width:0.5;" x1="8" x2="582" y1="172.6094" y2="172.6094"/><ellipse cx="18" cy="183.6094" fill="#84BE84" rx="3" ry="3" style="stroke:#038048;stroke-width:1.0;"/><text fill="#000000" font-family="sans-serif" font-size="14" lengthAdjust="spacing" textLength="550" x="27" y="191.1426">PmpButtonBase(type:swPropertyManagerPageControlType_e, caption:string, tip:string)</text><text fill="#000000" font-family="sans-serif" font-size="14" lengthAdjust="spacing" textLength="215" x="27" y="208.752">«internal» ClickedCallback() : void</text></g><!--MD5=[22a3ac4e8783a88ac869ee0e2318b515]
class PmpControl`1--><g id="elem_PmpControl`1"><rect fill="#F1F1F1" height="48" id="PmpControl`1" rx="2.5" ry="2.5" style="stroke:#181818;stroke-width:0.5;" width="119" x="235.5" y="7"/><ellipse cx="250.5" cy="23" fill="#ADD1B2" rx="11" ry="11" style="stroke:#181818;stroke-width:1.0;"/><path d="M253.2656,18.875 Q253.4219,18.6563 253.6094,18.5469 Q253.7969,18.4375 254.0156,18.4375 Q254.3906,18.4375 254.625,18.7031 Q254.8594,18.9531 254.8594,19.5625 L254.8594,21.0156 Q254.8594,21.625 254.625,21.8906 Q254.3906,22.1563 254.0156,22.1563 Q253.6719,22.1563 253.4688,21.9531 Q253.2656,21.7656 253.1563,21.25 Q253.1094,20.8906 252.9219,20.7031 Q252.5938,20.3281 251.9844,20.1094 Q251.375,19.8906 250.75,19.8906 Q249.9844,19.8906 249.3438,20.2188 Q248.7188,20.5469 248.2188,21.2969 Q247.7344,22.0469 247.7344,23.0781 L247.7344,24.1719 Q247.7344,25.4063 248.625,26.2344 Q249.5156,27.0469 251.1094,27.0469 Q252.0469,27.0469 252.7031,26.7969 Q253.0938,26.6406 253.5156,26.2031 Q253.7813,25.9375 253.9219,25.8594 Q254.0781,25.7813 254.2813,25.7813 Q254.6094,25.7813 254.8594,26.0469 Q255.125,26.2969 255.125,26.6406 Q255.125,26.9844 254.7813,27.3906 Q254.2813,27.9688 253.4844,28.2969 Q252.4063,28.75 251.1094,28.75 Q249.5938,28.75 248.3906,28.125 Q247.4063,27.625 246.7188,26.5625 Q246.0313,25.4844 246.0313,24.2031 L246.0313,23.0469 Q246.0313,21.7188 246.6406,20.5781 Q247.2656,19.4219 248.3594,18.8125 Q249.4531,18.1875 250.6875,18.1875 Q251.4219,18.1875 252.0625,18.3594 Q252.7188,18.5156 253.2656,18.875 Z " fill="#000000"/><text fill="#000000" font-family="sans-serif" font-size="14" lengthAdjust="spacing" textLength="87" x="264.5" y="28.7285">PmpControl`1</text><line style="stroke:#181818;stroke-width:0.5;" x1="236.5" x2="353.5" y1="39" y2="39"/><line style="stroke:#181818;stroke-width:0.5;" x1="236.5" x2="353.5" y1="47" y2="47"/></g><!--MD5=[885cc6415f1b93ea623d7e28df5b4cce]
reverse link PmpControl`1 to PmpButtonBase`1--><g id="link_PmpControl`1_PmpButtonBase`1"><path codeLine="6" d="M295,75.34 C295,87.95 295,101.82 295,114.8 " fill="none" id="PmpControl`1-backto-PmpButtonBase`1" style="stroke:#181818;stroke-width:1.0;"/><polygon fill="none" points="288,75.08,295,55.08,302,75.08,288,75.08" style="stroke:#181818;stroke-width:1.0;"/><text fill="#000000" font-family="sans-serif" font-size="13" lengthAdjust="spacing" textLength="23" x="269.1969" y="76.4375">&lt;T&gt;</text></g><!--MD5=[cc07874ea39f52186d4abcc614196b8d]
@startuml
class "PmpButtonBase`1"<T> {
    + PmpButtonBase(type:swPropertyManagerPageControlType_e, caption:string, tip:string)
    <<internal>> ClickedCallback() : void
    +  <<event>> Clicked : EventHandler 
}
"PmpControl`1" "<T>" <|- - "PmpButtonBase`1"
@enduml

PlantUML version 1.2022.5(Sat Apr 30 20:55:52 AEST 2022)
(GPL source distribution)
Java Runtime: OpenJDK Runtime Environment
JVM: OpenJDK 64-Bit Server VM
Default Encoding: Cp1252
Language: en
Country: AU
--></g></svg>