<?xml version="1.0" encoding="UTF-8" standalone="no"?><svg xmlns="http://www.w3.org/2000/svg" xmlns:xlink="http://www.w3.org/1999/xlink" contentStyleType="text/css" height="469px" preserveAspectRatio="none" style="width:520px;height:469px;background:#FFFFFF;" version="1.1" viewBox="0 0 520 469" width="520px" zoomAndPan="magnify"><defs/><g><!--MD5=[dd8a04552d963f67c652388c3e6c5fc3]
class AddinMaker--><g id="elem_AddinMaker"><rect codeLine="1" fill="#F1F1F1" height="347.3594" id="AddinMaker" rx="2.5" ry="2.5" style="stroke:#181818;stroke-width:0.5;" width="504" x="9" y="115"/><ellipse cx="218.25" cy="131" fill="#A9DCDF" rx="11" ry="11" style="stroke:#181818;stroke-width:1.0;"/><path d="M220.4375,132.7656 L216.2969,132.7656 L215.875,133.7969 L216.2969,133.7969 Q216.9063,133.7969 217.1719,134.0313 Q217.4375,134.2656 217.4375,134.6563 Q217.4375,135.0313 217.1719,135.2656 Q216.9063,135.5 216.2969,135.5 L214,135.5 Q213.3906,135.5 213.1406,135.2656 Q212.875,135.0313 212.875,134.6406 Q212.875,134.2656 213.1563,134.0313 Q213.4219,133.7813 214.0469,133.7969 L216.7188,127.1406 L215.6094,127.1406 Q215,127.1406 214.7344,126.9063 Q214.4688,126.6719 214.4688,126.2813 Q214.4688,125.9063 214.7344,125.6719 Q215,125.4375 215.6094,125.4375 L219.2813,125.4375 L222.6719,133.7969 Q223.2656,133.7969 223.4531,133.9375 Q223.8438,134.2031 223.8438,134.6563 Q223.8438,135.0313 223.5781,135.2656 Q223.3281,135.5 222.7188,135.5 L220.4219,135.5 Q219.8125,135.5 219.5469,135.2656 Q219.2813,135.0313 219.2813,134.6406 Q219.2813,134.2656 219.5469,134.0313 Q219.8125,133.7969 220.4219,133.7969 L220.8438,133.7969 L220.4375,132.7656 Z M219.7188,131.0625 L218.3594,127.6875 L216.9844,131.0625 L219.7188,131.0625 Z " fill="#000000"/><text fill="#000000" font-family="sans-serif" font-size="14" font-style="italic" lengthAdjust="spacing" textLength="77" x="238.75" y="136.7285">AddinMaker</text><line style="stroke:#181818;stroke-width:0.5;" x1="10" x2="512" y1="147" y2="147"/><rect fill="none" height="6" style="stroke:#C82930;stroke-width:1.0;" width="6" x="17" y="155"/><text fill="#000000" font-family="sans-serif" font-size="14" lengthAdjust="spacing" text-decoration="underline" textLength="117" x="29" y="165.5332">_addinTitle : string</text><polygon fill="none" points="20,170.6094,24,174.6094,20,178.6094,16,174.6094" style="stroke:#B38D22;stroke-width:1.0;"/><text fill="#000000" font-family="sans-serif" font-size="14" lengthAdjust="spacing" textLength="257" x="29" y="183.1426">_commandManager : CommandManager</text><polygon fill="none" points="20,188.2188,24,192.2188,20,196.2188,16,192.2188" style="stroke:#B38D22;stroke-width:1.0;"/><text fill="#000000" font-family="sans-serif" font-size="14" lengthAdjust="spacing" textLength="221" x="29" y="200.752">documentsEventsRepo : Hashtable</text><rect fill="none" height="6" style="stroke:#C82930;stroke-width:1.0;" width="6" x="17" y="207.8281"/><text fill="#000000" font-family="sans-serif" font-size="14" lengthAdjust="spacing" textLength="187" x="29" y="218.3613">_addinUi : AddinUserInterface</text><ellipse cx="20" cy="228.4375" fill="none" rx="3" ry="3" style="stroke:#038048;stroke-width:1.0;"/><text fill="#000000" font-family="sans-serif" font-size="14" lengthAdjust="spacing" textLength="221" x="29" y="235.9707">Solidworks : ISldWorks «get» «set»</text><ellipse cx="20" cy="246.0469" fill="none" rx="3" ry="3" style="stroke:#038048;stroke-width:1.0;"/><text fill="#000000" font-family="sans-serif" font-size="14" lengthAdjust="spacing" textLength="389" x="29" y="253.5801">«event» OnStart : EventHandler&lt;OnConnectToSwEventArgs&gt;</text><ellipse cx="20" cy="263.6563" fill="none" rx="3" ry="3" style="stroke:#038048;stroke-width:1.0;"/><text fill="#000000" font-family="sans-serif" font-size="14" lengthAdjust="spacing" textLength="381" x="29" y="271.1895">«event» OnExit : EventHandler&lt;OnConnectToSwEventArgs&gt;</text><line style="stroke:#181818;stroke-width:0.5;" x1="10" x2="512" y1="278.2656" y2="278.2656"/><ellipse cx="20" cy="289.2656" fill="#84BE84" rx="3" ry="3" style="stroke:#038048;stroke-width:1.0;"/><text fill="#000000" font-family="sans-serif" font-size="14" lengthAdjust="spacing" text-decoration="underline" textLength="141" x="29" y="296.7988">Register(t:Type) : void</text><ellipse cx="20" cy="306.875" fill="#84BE84" rx="3" ry="3" style="stroke:#038048;stroke-width:1.0;"/><text fill="#000000" font-family="sans-serif" font-size="14" lengthAdjust="spacing" text-decoration="underline" textLength="153" x="29" y="314.4082">Unregister(t:Type) : void</text><rect fill="#F24D5C" height="6" style="stroke:#C82930;stroke-width:1.0;" width="6" x="17" y="321.4844"/><text fill="#000000" font-family="sans-serif" font-size="14" lengthAdjust="spacing" textLength="435" x="29" y="332.0176">RemovePMPs(propertyManagerPages:List&lt;PmpFactoryBase&gt;) : void</text><rect fill="#F24D5C" height="6" style="stroke:#C82930;stroke-width:1.0;" width="6" x="17" y="339.0938"/><text fill="#000000" font-family="sans-serif" font-size="14" lengthAdjust="spacing" textLength="255" x="29" y="349.627">DetachEventsFromAllDocuments() : void</text><rect fill="#F24D5C" height="6" style="stroke:#C82930;stroke-width:1.0;" width="6" x="17" y="356.7031"/><text fill="#000000" font-family="sans-serif" font-size="14" lengthAdjust="spacing" textLength="154" x="29" y="367.2363">DetachSwEvents() : void</text><rect fill="#F24D5C" height="6" style="stroke:#C82930;stroke-width:1.0;" width="6" x="17" y="374.3125"/><text fill="#000000" font-family="sans-serif" font-size="14" lengthAdjust="spacing" textLength="478" x="29" y="384.8457">RemoveCmdTabs(commandTabs:IEnumerable&lt;AddinCommandTab&gt;) : void</text><ellipse cx="20" cy="394.9219" fill="#84BE84" rx="3" ry="3" style="stroke:#038048;stroke-width:1.0;"/><text fill="#000000" font-family="sans-serif" font-size="14" lengthAdjust="spacing" textLength="174" x="29" y="402.4551">DisconnectFromSW() : bool</text><ellipse cx="20" cy="412.5313" fill="#84BE84" rx="3" ry="3" style="stroke:#038048;stroke-width:1.0;"/><text fill="#000000" font-family="sans-serif" font-size="14" lengthAdjust="spacing" textLength="303" x="29" y="420.0645">ConnectToSW(ThisSW:object, Cookie:int) : bool</text><ellipse cx="20" cy="430.1406" fill="#84BE84" rx="3" ry="3" style="stroke:#038048;stroke-width:1.0;"/><text fill="#000000" font-family="sans-serif" font-size="14" lengthAdjust="spacing" textLength="461" x="29" y="437.6738">AddCommands(commandTabs:IEnumerable&lt;AddinCommandTab&gt;) : void</text><ellipse cx="20" cy="447.75" fill="#84BE84" rx="3" ry="3" style="stroke:#038048;stroke-width:1.0;"/><text fill="#000000" font-family="sans-serif" font-size="14" font-style="italic" lengthAdjust="spacing" textLength="258" x="29" y="455.2832">GetUserInterFace() : AddinUserInterface</text></g><!--MD5=[8b35f16796247d6570de3ad0d2bf2daf]
class ISwAddin--><g id="elem_ISwAddin"><rect fill="#F1F1F1" height="48" id="ISwAddin" rx="2.5" ry="2.5" style="stroke:#181818;stroke-width:0.5;" width="89" x="216.5" y="7"/><ellipse cx="231.5" cy="23" fill="#ADD1B2" rx="11" ry="11" style="stroke:#181818;stroke-width:1.0;"/><path d="M234.2656,18.875 Q234.4219,18.6563 234.6094,18.5469 Q234.7969,18.4375 235.0156,18.4375 Q235.3906,18.4375 235.625,18.7031 Q235.8594,18.9531 235.8594,19.5625 L235.8594,21.0156 Q235.8594,21.625 235.625,21.8906 Q235.3906,22.1563 235.0156,22.1563 Q234.6719,22.1563 234.4688,21.9531 Q234.2656,21.7656 234.1563,21.25 Q234.1094,20.8906 233.9219,20.7031 Q233.5938,20.3281 232.9844,20.1094 Q232.375,19.8906 231.75,19.8906 Q230.9844,19.8906 230.3438,20.2188 Q229.7188,20.5469 229.2188,21.2969 Q228.7344,22.0469 228.7344,23.0781 L228.7344,24.1719 Q228.7344,25.4063 229.625,26.2344 Q230.5156,27.0469 232.1094,27.0469 Q233.0469,27.0469 233.7031,26.7969 Q234.0938,26.6406 234.5156,26.2031 Q234.7813,25.9375 234.9219,25.8594 Q235.0781,25.7813 235.2813,25.7813 Q235.6094,25.7813 235.8594,26.0469 Q236.125,26.2969 236.125,26.6406 Q236.125,26.9844 235.7813,27.3906 Q235.2813,27.9688 234.4844,28.2969 Q233.4063,28.75 232.1094,28.75 Q230.5938,28.75 229.3906,28.125 Q228.4063,27.625 227.7188,26.5625 Q227.0313,25.4844 227.0313,24.2031 L227.0313,23.0469 Q227.0313,21.7188 227.6406,20.5781 Q228.2656,19.4219 229.3594,18.8125 Q230.4531,18.1875 231.6875,18.1875 Q232.4219,18.1875 233.0625,18.3594 Q233.7188,18.5156 234.2656,18.875 Z " fill="#000000"/><text fill="#000000" font-family="sans-serif" font-size="14" lengthAdjust="spacing" textLength="57" x="245.5" y="28.7285">ISwAddin</text><line style="stroke:#181818;stroke-width:0.5;" x1="217.5" x2="304.5" y1="39" y2="39"/><line style="stroke:#181818;stroke-width:0.5;" x1="217.5" x2="304.5" y1="47" y2="47"/></g><!--MD5=[d8ea9d1af19d141ef4c78773c99121ff]
reverse link ISwAddin to AddinMaker--><g id="link_ISwAddin_AddinMaker"><path codeLine="20" d="M261,75.33 C261,87.05 261,100.49 261,114.79 " fill="none" id="ISwAddin-backto-AddinMaker" style="stroke:#181818;stroke-width:1.0;"/><polygon fill="none" points="254,75.12,261,55.12,268,75.12,254,75.12" style="stroke:#181818;stroke-width:1.0;"/></g><!--MD5=[706e2ea1711e8073f72cbe2515f231b0]
@startuml
abstract class AddinMaker {
    - {static} _addinTitle : string
    # _commandManager : CommandManager
    # documentsEventsRepo : Hashtable
    - _addinUi : AddinUserInterface
    + Solidworks : ISldWorks <<get>> <<set>>
    + {static} Register(t:Type) : void
    + {static} Unregister(t:Type) : void
    - RemovePMPs(propertyManagerPages:List<PmpFactoryBase>) : void
    - DetachEventsFromAllDocuments() : void
    - DetachSwEvents() : void
    - RemoveCmdTabs(commandTabs:IEnumerable<AddinCommandTab>) : void
    + DisconnectFromSW() : bool
    + ConnectToSW(ThisSW:object, Cookie:int) : bool
    + AddCommands(commandTabs:IEnumerable<AddinCommandTab>) : void
    +  <<event>> OnStart : EventHandler<OnConnectToSwEventArgs> 
    +  <<event>> OnExit : EventHandler<OnConnectToSwEventArgs> 
    + {abstract} GetUserInterFace() : AddinUserInterface
}
ISwAddin <|- - AddinMaker
@enduml

PlantUML version 1.2022.5(Sat Apr 30 20:55:52 AEST 2022)
(GPL source distribution)
Java Runtime: OpenJDK Runtime Environment
JVM: OpenJDK 64-Bit Server VM
Default Encoding: Cp1252
Language: en
Country: AU
--></g></svg>