<?xml version="1.0" encoding="UTF-8" standalone="no"?><svg xmlns="http://www.w3.org/2000/svg" xmlns:xlink="http://www.w3.org/1999/xlink" contentStyleType="text/css" height="539px" preserveAspectRatio="none" style="width:662px;height:539px;background:#FFFFFF;" version="1.1" viewBox="0 0 662 539" width="662px" zoomAndPan="magnify"><defs/><g><!--MD5=[816a7a961f7dbd83a8ea02af343639ea]
class PmpComboBox--><g id="elem_PmpComboBox"><rect codeLine="1" fill="#F1F1F1" height="417.7969" id="PmpComboBox" rx="2.5" ry="2.5" style="stroke:#181818;stroke-width:0.5;" width="648" x="7" y="115"/><ellipse cx="278.75" cy="131" fill="#ADD1B2" rx="11" ry="11" style="stroke:#181818;stroke-width:1.0;"/><path d="M281.5156,126.875 Q281.6719,126.6563 281.8594,126.5469 Q282.0469,126.4375 282.2656,126.4375 Q282.6406,126.4375 282.875,126.7031 Q283.1094,126.9531 283.1094,127.5625 L283.1094,129.0156 Q283.1094,129.625 282.875,129.8906 Q282.6406,130.1563 282.2656,130.1563 Q281.9219,130.1563 281.7188,129.9531 Q281.5156,129.7656 281.4063,129.25 Q281.3594,128.8906 281.1719,128.7031 Q280.8438,128.3281 280.2344,128.1094 Q279.625,127.8906 279,127.8906 Q278.2344,127.8906 277.5938,128.2188 Q276.9688,128.5469 276.4688,129.2969 Q275.9844,130.0469 275.9844,131.0781 L275.9844,132.1719 Q275.9844,133.4063 276.875,134.2344 Q277.7656,135.0469 279.3594,135.0469 Q280.2969,135.0469 280.9531,134.7969 Q281.3438,134.6406 281.7656,134.2031 Q282.0313,133.9375 282.1719,133.8594 Q282.3281,133.7813 282.5313,133.7813 Q282.8594,133.7813 283.1094,134.0469 Q283.375,134.2969 283.375,134.6406 Q283.375,134.9844 283.0313,135.3906 Q282.5313,135.9688 281.7344,136.2969 Q280.6563,136.75 279.3594,136.75 Q277.8438,136.75 276.6406,136.125 Q275.6563,135.625 274.9688,134.5625 Q274.2813,133.4844 274.2813,132.2031 L274.2813,131.0469 Q274.2813,129.7188 274.8906,128.5781 Q275.5156,127.4219 276.6094,126.8125 Q277.7031,126.1875 278.9375,126.1875 Q279.6719,126.1875 280.3125,126.3594 Q280.9688,126.5156 281.5156,126.875 Z " fill="#000000"/><text fill="#000000" font-family="sans-serif" font-size="14" lengthAdjust="spacing" textLength="96" x="299.25" y="136.7285">PmpComboBox</text><line style="stroke:#181818;stroke-width:0.5;" x1="8" x2="654" y1="147" y2="147"/><rect fill="none" height="6" style="stroke:#C82930;stroke-width:1.0;" width="6" x="15" y="155"/><text fill="#000000" font-family="sans-serif" font-size="14" lengthAdjust="spacing" textLength="126" x="27" y="165.5332">_items : List&lt;string&gt;</text><rect fill="none" height="6" style="stroke:#C82930;stroke-width:1.0;" width="6" x="15" y="172.6094"/><text fill="#000000" font-family="sans-serif" font-size="14" lengthAdjust="spacing" textLength="155" x="27" y="183.1426">_style : ComboBoxStyles</text><rect fill="none" height="6" style="stroke:#C82930;stroke-width:1.0;" width="6" x="15" y="190.2188"/><text fill="#000000" font-family="sans-serif" font-size="14" lengthAdjust="spacing" textLength="91" x="27" y="200.752">_height : short</text><rect fill="none" height="6" style="stroke:#C82930;stroke-width:1.0;" width="6" x="15" y="207.8281"/><text fill="#000000" font-family="sans-serif" font-size="14" lengthAdjust="spacing" textLength="155" x="27" y="218.3613">_currentSelection : short</text><ellipse cx="18" cy="228.4375" fill="none" rx="3" ry="3" style="stroke:#038048;stroke-width:1.0;"/><text fill="#000000" font-family="sans-serif" font-size="14" lengthAdjust="spacing" textLength="261" x="27" y="235.9707">Items : ReadOnlyCollection&lt;string&gt; «get»</text><ellipse cx="18" cy="246.0469" fill="none" rx="3" ry="3" style="stroke:#038048;stroke-width:1.0;"/><text fill="#000000" font-family="sans-serif" font-size="14" lengthAdjust="spacing" textLength="163" x="27" y="253.5801">Height : short «get» «set»</text><ellipse cx="18" cy="263.6563" fill="none" rx="3" ry="3" style="stroke:#038048;stroke-width:1.0;"/><text fill="#000000" font-family="sans-serif" font-size="14" lengthAdjust="spacing" textLength="228" x="27" y="271.1895">Style : ComboBoxStyles «get» «set»</text><ellipse cx="18" cy="281.2656" fill="none" rx="3" ry="3" style="stroke:#038048;stroke-width:1.0;"/><text fill="#000000" font-family="sans-serif" font-size="14" lengthAdjust="spacing" textLength="229" x="27" y="288.7988">CurrentSelection : short «get» «set»</text><ellipse cx="18" cy="298.875" fill="none" rx="3" ry="3" style="stroke:#038048;stroke-width:1.0;"/><text fill="#000000" font-family="sans-serif" font-size="14" lengthAdjust="spacing" textLength="177" x="27" y="306.4082">EditText : string «get» «set»</text><ellipse cx="18" cy="316.4844" fill="none" rx="3" ry="3" style="stroke:#038048;stroke-width:1.0;"/><text fill="#000000" font-family="sans-serif" font-size="14" lengthAdjust="spacing" textLength="299" x="27" y="324.0176">«event» SelectionChanged : EventHandler&lt;int&gt;</text><ellipse cx="18" cy="334.0938" fill="none" rx="3" ry="3" style="stroke:#038048;stroke-width:1.0;"/><text fill="#000000" font-family="sans-serif" font-size="14" lengthAdjust="spacing" textLength="285" x="27" y="341.627">«event» EditChanged : EventHandler&lt;string&gt;</text><line style="stroke:#181818;stroke-width:0.5;" x1="8" x2="654" y1="348.7031" y2="348.7031"/><ellipse cx="18" cy="359.7031" fill="#84BE84" rx="3" ry="3" style="stroke:#038048;stroke-width:1.0;"/><text fill="#000000" font-family="sans-serif" font-size="14" lengthAdjust="spacing" textLength="446" x="27" y="367.2363">PmpComboBox(items:List&lt;string&gt;, style:ComboBoxStyles, height:short)</text><rect fill="#F24D5C" height="6" style="stroke:#C82930;stroke-width:1.0;" width="6" x="15" y="374.3125"/><text fill="#000000" font-family="sans-serif" font-size="14" lengthAdjust="spacing" textLength="622" x="27" y="384.8457">PmpComboBox_OnDisplay(sender:IPmpControl, eventArgs:PmpControlDisplayingEventArgs) : void</text><ellipse cx="18" cy="394.9219" fill="#84BE84" rx="3" ry="3" style="stroke:#038048;stroke-width:1.0;"/><text fill="#000000" font-family="sans-serif" font-size="14" lengthAdjust="spacing" textLength="273" x="27" y="402.4551">AddItems(items:IEnumerable&lt;string&gt;) : void</text><ellipse cx="18" cy="412.5313" fill="#84BE84" rx="3" ry="3" style="stroke:#038048;stroke-width:1.0;"/><text fill="#000000" font-family="sans-serif" font-size="14" lengthAdjust="spacing" textLength="175" x="27" y="420.0645">GetItem(index:short) : string</text><ellipse cx="18" cy="430.1406" fill="#84BE84" rx="3" ry="3" style="stroke:#038048;stroke-width:1.0;"/><text fill="#000000" font-family="sans-serif" font-size="14" lengthAdjust="spacing" textLength="170" x="27" y="437.6738">Contains(item:string) : bool</text><ellipse cx="18" cy="447.75" fill="#84BE84" rx="3" ry="3" style="stroke:#038048;stroke-width:1.0;"/><text fill="#000000" font-family="sans-serif" font-size="14" lengthAdjust="spacing" textLength="82" x="27" y="455.2832">Clear() : void</text><ellipse cx="18" cy="465.3594" fill="#84BE84" rx="3" ry="3" style="stroke:#038048;stroke-width:1.0;"/><text fill="#000000" font-family="sans-serif" font-size="14" lengthAdjust="spacing" textLength="158" x="27" y="472.8926">Delete(index:short) : void</text><ellipse cx="18" cy="482.9688" fill="#84BE84" rx="3" ry="3" style="stroke:#038048;stroke-width:1.0;"/><text fill="#000000" font-family="sans-serif" font-size="14" lengthAdjust="spacing" textLength="164" x="27" y="490.502">AddItem(item:string) : void</text><text fill="#000000" font-family="sans-serif" font-size="14" lengthAdjust="spacing" textLength="315" x="27" y="508.1113">«internal» SelectionChangedCallback(id:int) : void</text><text fill="#000000" font-family="sans-serif" font-size="14" lengthAdjust="spacing" textLength="308" x="27" y="525.7207">«internal» SelectionEditCallback(val:string) : void</text></g><!--MD5=[22a3ac4e8783a88ac869ee0e2318b515]
class PmpControl`1--><g id="elem_PmpControl`1"><rect fill="#F1F1F1" height="48" id="PmpControl`1" rx="2.5" ry="2.5" style="stroke:#181818;stroke-width:0.5;" width="119" x="271.5" y="7"/><ellipse cx="286.5" cy="23" fill="#ADD1B2" rx="11" ry="11" style="stroke:#181818;stroke-width:1.0;"/><path d="M289.2656,18.875 Q289.4219,18.6563 289.6094,18.5469 Q289.7969,18.4375 290.0156,18.4375 Q290.3906,18.4375 290.625,18.7031 Q290.8594,18.9531 290.8594,19.5625 L290.8594,21.0156 Q290.8594,21.625 290.625,21.8906 Q290.3906,22.1563 290.0156,22.1563 Q289.6719,22.1563 289.4688,21.9531 Q289.2656,21.7656 289.1563,21.25 Q289.1094,20.8906 288.9219,20.7031 Q288.5938,20.3281 287.9844,20.1094 Q287.375,19.8906 286.75,19.8906 Q285.9844,19.8906 285.3438,20.2188 Q284.7188,20.5469 284.2188,21.2969 Q283.7344,22.0469 283.7344,23.0781 L283.7344,24.1719 Q283.7344,25.4063 284.625,26.2344 Q285.5156,27.0469 287.1094,27.0469 Q288.0469,27.0469 288.7031,26.7969 Q289.0938,26.6406 289.5156,26.2031 Q289.7813,25.9375 289.9219,25.8594 Q290.0781,25.7813 290.2813,25.7813 Q290.6094,25.7813 290.8594,26.0469 Q291.125,26.2969 291.125,26.6406 Q291.125,26.9844 290.7813,27.3906 Q290.2813,27.9688 289.4844,28.2969 Q288.4063,28.75 287.1094,28.75 Q285.5938,28.75 284.3906,28.125 Q283.4063,27.625 282.7188,26.5625 Q282.0313,25.4844 282.0313,24.2031 L282.0313,23.0469 Q282.0313,21.7188 282.6406,20.5781 Q283.2656,19.4219 284.3594,18.8125 Q285.4531,18.1875 286.6875,18.1875 Q287.4219,18.1875 288.0625,18.3594 Q288.7188,18.5156 289.2656,18.875 Z " fill="#000000"/><text fill="#000000" font-family="sans-serif" font-size="14" lengthAdjust="spacing" textLength="87" x="300.5" y="28.7285">PmpControl`1</text><line style="stroke:#181818;stroke-width:0.5;" x1="272.5" x2="389.5" y1="39" y2="39"/><line style="stroke:#181818;stroke-width:0.5;" x1="272.5" x2="389.5" y1="47" y2="47"/></g><!--MD5=[bf6ad9210fd7449309b41379603a389c]
reverse link PmpControl`1 to PmpComboBox--><g id="link_PmpControl`1_PmpComboBox"><path codeLine="24" d="M331,75.35 C331,87 331,100.41 331,114.84 " fill="none" id="PmpControl`1-backto-PmpComboBox" style="stroke:#181818;stroke-width:1.0;"/><polygon fill="none" points="324,75.32,331,55.32,338,75.32,324,75.32" style="stroke:#181818;stroke-width:1.0;"/><text fill="#000000" font-family="sans-serif" font-size="13" lengthAdjust="spacing" textLength="207" x="100.0656" y="76.3298">&lt;PropertyManagerPageCombobox&gt;</text></g><!--MD5=[0af4db867168a7966bbfef9d9a8b1ecc]
@startuml
class PmpComboBox {
    - _items : List<string>
    - _style : ComboBoxStyles
    - _height : short
    - _currentSelection : short
    + PmpComboBox(items:List<string>, style:ComboBoxStyles, height:short)
    - PmpComboBox_OnDisplay(sender:IPmpControl, eventArgs:PmpControlDisplayingEventArgs) : void
    + AddItems(items:IEnumerable<string>) : void
    + GetItem(index:short) : string
    + Contains(item:string) : bool
    + Clear() : void
    + Delete(index:short) : void
    + AddItem(item:string) : void
    + Items : ReadOnlyCollection<string> <<get>>
    + Height : short <<get>> <<set>>
    + Style : ComboBoxStyles <<get>> <<set>>
    + CurrentSelection : short <<get>> <<set>>
    + EditText : string <<get>> <<set>>
    <<internal>> SelectionChangedCallback(id:int) : void
    <<internal>> SelectionEditCallback(val:string) : void
    +  <<event>> SelectionChanged : EventHandler<int> 
    +  <<event>> EditChanged : EventHandler<string> 
}
"PmpControl`1" "<PropertyManagerPageCombobox>" <|- - PmpComboBox
@enduml

PlantUML version 1.2022.5(Sat Apr 30 20:55:52 AEST 2022)
(GPL source distribution)
Java Runtime: OpenJDK Runtime Environment
JVM: OpenJDK 64-Bit Server VM
Default Encoding: Cp1252
Language: en
Country: AU
--></g></svg>