<?xml version="1.0" encoding="UTF-8" standalone="no"?><svg xmlns="http://www.w3.org/2000/svg" xmlns:xlink="http://www.w3.org/1999/xlink" contentStyleType="text/css" height="114px" preserveAspectRatio="none" style="width:326px;height:114px;background:#FFFFFF;" version="1.1" viewBox="0 0 326 114" width="326px" zoomAndPan="magnify"><defs/><g><!--MD5=[b807475dcb3615c9657771ff4546fff3]
class RegisteryHelper--><g id="elem_RegisteryHelper"><rect codeLine="1" fill="#F1F1F1" height="93.9219" id="RegisteryHelper" rx="2.5" ry="2.5" style="stroke:#181818;stroke-width:0.5;" width="305" x="7" y="7"/><ellipse cx="104.75" cy="28.3516" fill="#ADD1B2" rx="11" ry="11" style="stroke:#181818;stroke-width:1.0;"/><path d="M107.5156,24.2266 Q107.6719,24.0078 107.8594,23.8984 Q108.0469,23.7891 108.2656,23.7891 Q108.6406,23.7891 108.875,24.0547 Q109.1094,24.3047 109.1094,24.9141 L109.1094,26.3672 Q109.1094,26.9766 108.875,27.2422 Q108.6406,27.5078 108.2656,27.5078 Q107.9219,27.5078 107.7188,27.3047 Q107.5156,27.1172 107.4063,26.6016 Q107.3594,26.2422 107.1719,26.0547 Q106.8438,25.6797 106.2344,25.4609 Q105.625,25.2422 105,25.2422 Q104.2344,25.2422 103.5938,25.5703 Q102.9688,25.8984 102.4688,26.6484 Q101.9844,27.3984 101.9844,28.4297 L101.9844,29.5234 Q101.9844,30.7578 102.875,31.5859 Q103.7656,32.3984 105.3594,32.3984 Q106.2969,32.3984 106.9531,32.1484 Q107.3438,31.9922 107.7656,31.5547 Q108.0313,31.2891 108.1719,31.2109 Q108.3281,31.1328 108.5313,31.1328 Q108.8594,31.1328 109.1094,31.3984 Q109.375,31.6484 109.375,31.9922 Q109.375,32.3359 109.0313,32.7422 Q108.5313,33.3203 107.7344,33.6484 Q106.6563,34.1016 105.3594,34.1016 Q103.8438,34.1016 102.6406,33.4766 Q101.6563,32.9766 100.9688,31.9141 Q100.2813,30.8359 100.2813,29.5547 L100.2813,28.3984 Q100.2813,27.0703 100.8906,25.9297 Q101.5156,24.7734 102.6094,24.1641 Q103.7031,23.5391 104.9375,23.5391 Q105.6719,23.5391 106.3125,23.7109 Q106.9688,23.8672 107.5156,24.2266 Z " fill="#000000"/><text fill="#000000" font-family="sans-serif" font-size="12" font-style="italic" lengthAdjust="spacing" textLength="42" x="154.75" y="24.457">«static»</text><text fill="#000000" font-family="sans-serif" font-size="14" lengthAdjust="spacing" textLength="101" x="125.25" y="41.627">RegisteryHelper</text><line style="stroke:#181818;stroke-width:0.5;" x1="8" x2="311" y1="49.7031" y2="49.7031"/><line style="stroke:#181818;stroke-width:0.5;" x1="8" x2="311" y1="57.7031" y2="57.7031"/><ellipse cx="18" cy="68.7031" fill="#84BE84" rx="3" ry="3" style="stroke:#038048;stroke-width:1.0;"/><text fill="#000000" font-family="sans-serif" font-size="14" lengthAdjust="spacing" text-decoration="underline" textLength="267" x="27" y="76.2363">RegisterSolidworksAddin(type:Type) : void</text><ellipse cx="18" cy="86.3125" fill="#84BE84" rx="3" ry="3" style="stroke:#038048;stroke-width:1.0;"/><text fill="#000000" font-family="sans-serif" font-size="14" lengthAdjust="spacing" text-decoration="underline" textLength="279" x="27" y="93.8457">UnregisterSolidworksAddin(type:Type) : void</text></g><!--MD5=[27db7938686a3b9c41f48d883ccf4057]
@startuml
class RegisteryHelper <<static>> {
    + {static} RegisterSolidworksAddin(type:Type) : void
    + {static} UnregisterSolidworksAddin(type:Type) : void
}
@enduml

PlantUML version 1.2022.5(Sat Apr 30 20:55:52 AEST 2022)
(GPL source distribution)
Java Runtime: OpenJDK Runtime Environment
JVM: OpenJDK 64-Bit Server VM
Default Encoding: Cp1252
Language: en
Country: AU
--></g></svg>