<?xml version="1.0" encoding="UTF-8" standalone="no"?><svg xmlns="http://www.w3.org/2000/svg" xmlns:xlink="http://www.w3.org/1999/xlink" contentStyleType="text/css" height="944px" preserveAspectRatio="none" style="width:1183px;height:944px;background:#FFFFFF;" version="1.1" viewBox="0 0 1183 944" width="1183px" zoomAndPan="magnify"><defs/><g><!--MD5=[9079bd8f87563848a94b672e8710ca8a]
class PmpUiModel--><g id="elem_PmpUiModel"><rect codeLine="1" fill="#F1F1F1" height="822.8125" id="PmpUiModel" rx="2.5" ry="2.5" style="stroke:#181818;stroke-width:0.5;" width="1169" x="7" y="115"/><ellipse cx="548.25" cy="131" fill="#ADD1B2" rx="11" ry="11" style="stroke:#181818;stroke-width:1.0;"/><path d="M551.0156,126.875 Q551.1719,126.6563 551.3594,126.5469 Q551.5469,126.4375 551.7656,126.4375 Q552.1406,126.4375 552.375,126.7031 Q552.6094,126.9531 552.6094,127.5625 L552.6094,129.0156 Q552.6094,129.625 552.375,129.8906 Q552.1406,130.1563 551.7656,130.1563 Q551.4219,130.1563 551.2188,129.9531 Q551.0156,129.7656 550.9063,129.25 Q550.8594,128.8906 550.6719,128.7031 Q550.3438,128.3281 549.7344,128.1094 Q549.125,127.8906 548.5,127.8906 Q547.7344,127.8906 547.0938,128.2188 Q546.4688,128.5469 545.9688,129.2969 Q545.4844,130.0469 545.4844,131.0781 L545.4844,132.1719 Q545.4844,133.4063 546.375,134.2344 Q547.2656,135.0469 548.8594,135.0469 Q549.7969,135.0469 550.4531,134.7969 Q550.8438,134.6406 551.2656,134.2031 Q551.5313,133.9375 551.6719,133.8594 Q551.8281,133.7813 552.0313,133.7813 Q552.3594,133.7813 552.6094,134.0469 Q552.875,134.2969 552.875,134.6406 Q552.875,134.9844 552.5313,135.3906 Q552.0313,135.9688 551.2344,136.2969 Q550.1563,136.75 548.8594,136.75 Q547.3438,136.75 546.1406,136.125 Q545.1563,135.625 544.4688,134.5625 Q543.7813,133.4844 543.7813,132.2031 L543.7813,131.0469 Q543.7813,129.7188 544.3906,128.5781 Q545.0156,127.4219 546.1094,126.8125 Q547.2031,126.1875 548.4375,126.1875 Q549.1719,126.1875 549.8125,126.3594 Q550.4688,126.5156 551.0156,126.875 Z " fill="#000000"/><text fill="#000000" font-family="sans-serif" font-size="14" lengthAdjust="spacing" textLength="78" x="568.75" y="136.7285">PmpUiModel</text><line style="stroke:#181818;stroke-width:0.5;" x1="8" x2="1175" y1="147" y2="147"/><ellipse cx="18" cy="158" fill="none" rx="3" ry="3" style="stroke:#038048;stroke-width:1.0;"/><text fill="#000000" font-family="sans-serif" font-size="14" lengthAdjust="spacing" textLength="358" x="27" y="165.5332">PopUpMenueItems : List&lt;PopUpMenueItem&gt; «get» «set»</text><ellipse cx="18" cy="175.6094" fill="none" rx="3" ry="3" style="stroke:#038048;stroke-width:1.0;"/><text fill="#000000" font-family="sans-serif" font-size="14" lengthAdjust="spacing" textLength="176" x="27" y="183.1426">IconDir : DirectoryInfo «get»</text><ellipse cx="18" cy="193.2188" fill="none" rx="3" ry="3" style="stroke:#038048;stroke-width:1.0;"/><text fill="#000000" font-family="sans-serif" font-size="14" lengthAdjust="spacing" textLength="78" x="27" y="200.752">Id : int «get»</text><ellipse cx="18" cy="210.8281" fill="none" rx="3" ry="3" style="stroke:#038048;stroke-width:1.0;"/><text fill="#000000" font-family="sans-serif" font-size="14" lengthAdjust="spacing" textLength="277" x="27" y="218.3613">AllGroups : IEnumerable&lt;PmpGroup&gt; «get»</text><ellipse cx="18" cy="228.4375" fill="none" rx="3" ry="3" style="stroke:#038048;stroke-width:1.0;"/><text fill="#000000" font-family="sans-serif" font-size="14" lengthAdjust="spacing" textLength="292" x="27" y="235.9707">AllControls : IEnumerable&lt;IPmpControl&gt; «get»</text><ellipse cx="18" cy="246.0469" fill="none" rx="3" ry="3" style="stroke:#038048;stroke-width:1.0;"/><text fill="#000000" font-family="sans-serif" font-size="14" lengthAdjust="spacing" textLength="217" x="27" y="253.5801">Options : PmpOptions «get» «set»</text><ellipse cx="18" cy="263.6563" fill="none" rx="3" ry="3" style="stroke:#038048;stroke-width:1.0;"/><text fill="#000000" font-family="sans-serif" font-size="14" lengthAdjust="spacing" textLength="323" x="27" y="271.1895">PmpGroups : List&lt;PmpGroup&gt; «get» «internal set»</text><ellipse cx="18" cy="281.2656" fill="none" rx="3" ry="3" style="stroke:#038048;stroke-width:1.0;"/><text fill="#000000" font-family="sans-serif" font-size="14" lengthAdjust="spacing" textLength="242" x="27" y="288.7988">PmpTabs : List&lt;PmpTab&gt; «get» «set»</text><ellipse cx="18" cy="298.875" fill="none" rx="3" ry="3" style="stroke:#038048;stroke-width:1.0;"/><text fill="#000000" font-family="sans-serif" font-size="14" lengthAdjust="spacing" textLength="153" x="27" y="306.4082">Title : string «get» «set»</text><ellipse cx="18" cy="316.4844" fill="none" rx="3" ry="3" style="stroke:#038048;stroke-width:1.0;"/><text fill="#000000" font-family="sans-serif" font-size="14" lengthAdjust="spacing" textLength="221" x="27" y="324.0176">Solidworks : ISldWorks «get» «set»</text><ellipse cx="18" cy="334.0938" fill="none" rx="3" ry="3" style="stroke:#038048;stroke-width:1.0;"/><text fill="#000000" font-family="sans-serif" font-size="14" lengthAdjust="spacing" textLength="353" x="27" y="341.627">SolidworksObject : IPropertyManagerPage2 «get» «set»</text><ellipse cx="18" cy="351.7031" fill="none" rx="3" ry="3" style="stroke:#038048;stroke-width:1.0;"/><text fill="#000000" font-family="sans-serif" font-size="14" lengthAdjust="spacing" textLength="216" x="27" y="359.2363">«event» HelpClicked : Func&lt;bool&gt;</text><ellipse cx="18" cy="369.3125" fill="none" rx="3" ry="3" style="stroke:#038048;stroke-width:1.0;"/><text fill="#000000" font-family="sans-serif" font-size="14" lengthAdjust="spacing" textLength="197" x="27" y="376.8457">«event» AfterActivation : Action</text><ellipse cx="18" cy="386.9219" fill="none" rx="3" ry="3" style="stroke:#038048;stroke-width:1.0;"/><text fill="#000000" font-family="sans-serif" font-size="14" lengthAdjust="spacing" textLength="172" x="27" y="394.4551">«event» AfterClose : Action</text><ellipse cx="18" cy="404.5313" fill="none" rx="3" ry="3" style="stroke:#038048;stroke-width:1.0;"/><text fill="#000000" font-family="sans-serif" font-size="14" lengthAdjust="spacing" textLength="282" x="27" y="412.0645">«event» Closing : Action&lt;PmpCloseReason&gt;</text><ellipse cx="18" cy="422.1406" fill="none" rx="3" ry="3" style="stroke:#038048;stroke-width:1.0;"/><text fill="#000000" font-family="sans-serif" font-size="14" lengthAdjust="spacing" textLength="276" x="27" y="429.6738">«event» PreviousPageClicked : Func&lt;bool&gt;</text><ellipse cx="18" cy="439.75" fill="none" rx="3" ry="3" style="stroke:#038048;stroke-width:1.0;"/><text fill="#000000" font-family="sans-serif" font-size="14" lengthAdjust="spacing" textLength="248" x="27" y="447.2832">«event» NextPageClicked : Func&lt;bool&gt;</text><ellipse cx="18" cy="457.3594" fill="none" rx="3" ry="3" style="stroke:#038048;stroke-width:1.0;"/><text fill="#000000" font-family="sans-serif" font-size="14" lengthAdjust="spacing" textLength="191" x="27" y="464.8926">«event» Preview : Func&lt;bool&gt;</text><ellipse cx="18" cy="474.9688" fill="none" rx="3" ry="3" style="stroke:#038048;stroke-width:1.0;"/><text fill="#000000" font-family="sans-serif" font-size="14" lengthAdjust="spacing" textLength="218" x="27" y="482.502">«event» WhatsNewClicked : Action</text><ellipse cx="18" cy="492.5781" fill="none" rx="3" ry="3" style="stroke:#038048;stroke-width:1.0;"/><text fill="#000000" font-family="sans-serif" font-size="14" lengthAdjust="spacing" textLength="185" x="27" y="500.1113">«event» UndoClicked : Action</text><ellipse cx="18" cy="510.1875" fill="none" rx="3" ry="3" style="stroke:#038048;stroke-width:1.0;"/><text fill="#000000" font-family="sans-serif" font-size="14" lengthAdjust="spacing" textLength="186" x="27" y="517.7207">«event» RedoClicked : Action</text><ellipse cx="18" cy="527.7969" fill="none" rx="3" ry="3" style="stroke:#038048;stroke-width:1.0;"/><text fill="#000000" font-family="sans-serif" font-size="14" lengthAdjust="spacing" textLength="178" x="27" y="535.3301">«event» Registering : Action</text><ellipse cx="18" cy="545.4063" fill="none" rx="3" ry="3" style="stroke:#038048;stroke-width:1.0;"/><text fill="#000000" font-family="sans-serif" font-size="14" lengthAdjust="spacing" textLength="236" x="27" y="552.9395">«event» TabClicked : Func&lt;int, bool&gt;</text><ellipse cx="18" cy="563.0156" fill="none" rx="3" ry="3" style="stroke:#038048;stroke-width:1.0;"/><text fill="#000000" font-family="sans-serif" font-size="14" lengthAdjust="spacing" textLength="391" x="27" y="570.5488">«event» KeyStroke : EventHandler&lt;PmpKeyStrokeEventArgs&gt;</text><line style="stroke:#181818;stroke-width:0.5;" x1="8" x2="1175" y1="577.625" y2="577.625"/><ellipse cx="18" cy="588.625" fill="#84BE84" rx="3" ry="3" style="stroke:#038048;stroke-width:1.0;"/><text fill="#000000" font-family="sans-serif" font-size="14" lengthAdjust="spacing" textLength="220" x="27" y="596.1582">PmpUiModel(solidworks:ISldWorks)</text><ellipse cx="18" cy="606.2344" fill="#84BE84" rx="3" ry="3" style="stroke:#038048;stroke-width:1.0;"/><text fill="#000000" font-family="sans-serif" font-size="14" lengthAdjust="spacing" textLength="211" x="27" y="613.7676">SetTitleIcon(bitmap:Bitmap) : void</text><text fill="#000000" font-family="sans-serif" font-size="14" lengthAdjust="spacing" textLength="209" x="27" y="631.377">«internal» UpdateOptions() : void</text><ellipse cx="18" cy="641.4531" fill="#84BE84" rx="3" ry="3" style="stroke:#038048;stroke-width:1.0;"/><text fill="#000000" font-family="sans-serif" font-size="14" lengthAdjust="spacing" textLength="1143" x="27" y="648.9863">SetMessage(caption:string, message:string, messageVisibility:swPropertyManagerPageMessageVisibility, pageMessageExpanded:swPropertyManagerPageMessageExpanded) : void</text><ellipse cx="18" cy="659.0625" fill="#84BE84" rx="3" ry="3" style="stroke:#038048;stroke-width:1.0;"/><text fill="#000000" font-family="sans-serif" font-size="14" lengthAdjust="spacing" textLength="261" x="27" y="666.5957">SetCursor(styles:PmpCursorStyles) : void</text><ellipse cx="18" cy="676.6719" fill="#84BE84" rx="3" ry="3" style="stroke:#038048;stroke-width:1.0;"/><text fill="#000000" font-family="sans-serif" font-size="14" lengthAdjust="spacing" textLength="198" x="27" y="684.2051">GetControl(id:int) : IPmpControl</text><ellipse cx="18" cy="694.2813" fill="#84BE84" rx="3" ry="3" style="stroke:#038048;stroke-width:1.0;"/><text fill="#000000" font-family="sans-serif" font-size="14" lengthAdjust="spacing" textLength="202" x="27" y="701.8145">GetControls() : IEnumerable&lt;T&gt;</text><text fill="#000000" font-family="sans-serif" font-size="14" lengthAdjust="spacing" textLength="245" x="27" y="719.4238">«internal» HelpClickedCallBack() : bool</text><text fill="#000000" font-family="sans-serif" font-size="14" lengthAdjust="spacing" textLength="261" x="27" y="737.0332">«internal» AfterActivationCallBack() : void</text><text fill="#000000" font-family="sans-serif" font-size="14" lengthAdjust="spacing" textLength="236" x="27" y="754.6426">«internal» AfterCloseCallBack() : void</text><text fill="#000000" font-family="sans-serif" font-size="14" lengthAdjust="spacing" textLength="282" x="27" y="772.252">«internal» WhatsNewClickedCallBack() : void</text><text fill="#000000" font-family="sans-serif" font-size="14" lengthAdjust="spacing" textLength="249" x="27" y="789.8613">«internal» UndoClickedCallBack() : void</text><text fill="#000000" font-family="sans-serif" font-size="14" lengthAdjust="spacing" textLength="250" x="27" y="807.4707">«internal» RedoClickedCallBack() : void</text><text fill="#000000" font-family="sans-serif" font-size="14" lengthAdjust="spacing" textLength="280" x="27" y="825.0801">«internal» ClosingCallBack(reason:int) : void</text><text fill="#000000" font-family="sans-serif" font-size="14" lengthAdjust="spacing" textLength="305" x="27" y="842.6895">«internal» PreviousPageClickedCallBack() : bool</text><text fill="#000000" font-family="sans-serif" font-size="14" lengthAdjust="spacing" textLength="288" x="27" y="860.2988">«internal» TabedClickedCallBack(id:int) : bool</text><text fill="#000000" font-family="sans-serif" font-size="14" lengthAdjust="spacing" textLength="220" x="27" y="877.9082">«internal» PreviewCallBack() : bool</text><text fill="#000000" font-family="sans-serif" font-size="14" lengthAdjust="spacing" textLength="277" x="27" y="895.5176">«internal» NextPageClickedCallBack() : bool</text><text fill="#000000" font-family="sans-serif" font-size="14" lengthAdjust="spacing" textLength="542" x="27" y="913.127">«internal» RegisteringCallBack(propertyManagerPage:IPropertyManagerPage2) : void</text><text fill="#000000" font-family="sans-serif" font-size="14" lengthAdjust="spacing" textLength="467" x="27" y="930.7363">«internal» KeyStrokeCallBack(Wparam:int, Message:int, Lparam:int) : bool</text></g><!--MD5=[ab8e484bdef87b57c10aff892c535b8f]
class IWrapSolidworksObject`1--><g id="elem_IWrapSolidworksObject`1"><rect fill="#F1F1F1" height="48" id="IWrapSolidworksObject`1" rx="2.5" ry="2.5" style="stroke:#181818;stroke-width:0.5;" width="190" x="496.5" y="7"/><ellipse cx="511.5" cy="23" fill="#ADD1B2" rx="11" ry="11" style="stroke:#181818;stroke-width:1.0;"/><path d="M514.2656,18.875 Q514.4219,18.6563 514.6094,18.5469 Q514.7969,18.4375 515.0156,18.4375 Q515.3906,18.4375 515.625,18.7031 Q515.8594,18.9531 515.8594,19.5625 L515.8594,21.0156 Q515.8594,21.625 515.625,21.8906 Q515.3906,22.1563 515.0156,22.1563 Q514.6719,22.1563 514.4688,21.9531 Q514.2656,21.7656 514.1563,21.25 Q514.1094,20.8906 513.9219,20.7031 Q513.5938,20.3281 512.9844,20.1094 Q512.375,19.8906 511.75,19.8906 Q510.9844,19.8906 510.3438,20.2188 Q509.7188,20.5469 509.2188,21.2969 Q508.7344,22.0469 508.7344,23.0781 L508.7344,24.1719 Q508.7344,25.4063 509.625,26.2344 Q510.5156,27.0469 512.1094,27.0469 Q513.0469,27.0469 513.7031,26.7969 Q514.0938,26.6406 514.5156,26.2031 Q514.7813,25.9375 514.9219,25.8594 Q515.0781,25.7813 515.2813,25.7813 Q515.6094,25.7813 515.8594,26.0469 Q516.125,26.2969 516.125,26.6406 Q516.125,26.9844 515.7813,27.3906 Q515.2813,27.9688 514.4844,28.2969 Q513.4063,28.75 512.1094,28.75 Q510.5938,28.75 509.3906,28.125 Q508.4063,27.625 507.7188,26.5625 Q507.0313,25.4844 507.0313,24.2031 L507.0313,23.0469 Q507.0313,21.7188 507.6406,20.5781 Q508.2656,19.4219 509.3594,18.8125 Q510.4531,18.1875 511.6875,18.1875 Q512.4219,18.1875 513.0625,18.3594 Q513.7188,18.5156 514.2656,18.875 Z " fill="#000000"/><text fill="#000000" font-family="sans-serif" font-size="14" lengthAdjust="spacing" textLength="158" x="525.5" y="28.7285">IWrapSolidworksObject`1</text><line style="stroke:#181818;stroke-width:0.5;" x1="497.5" x2="685.5" y1="39" y2="39"/><line style="stroke:#181818;stroke-width:0.5;" x1="497.5" x2="685.5" y1="47" y2="47"/></g><!--MD5=[59dd268a979a824263983632eaad3a18]
reverse link IWrapSolidworksObject`1 to PmpUiModel--><g id="link_IWrapSolidworksObject`1_PmpUiModel"><path codeLine="47" d="M591.5,75.21 C591.5,86.62 591.5,99.93 591.5,114.66 " fill="none" id="IWrapSolidworksObject`1-backto-PmpUiModel" style="stroke:#181818;stroke-width:1.0;"/><polygon fill="none" points="584.5,75.14,591.5,55.14,598.5,75.14,584.5,75.14" style="stroke:#181818;stroke-width:1.0;"/><text fill="#000000" font-family="sans-serif" font-size="13" lengthAdjust="spacing" textLength="155" x="417.6094" y="76.5121">&lt;IPropertyManagerPage2&gt;</text></g><!--MD5=[d17037e3dc38e7186e6ac831d5f749bf]
@startuml
class PmpUiModel {
    + PmpUiModel(solidworks:ISldWorks)
    + SetTitleIcon(bitmap:Bitmap) : void
    <<internal>> UpdateOptions() : void
    + PopUpMenueItems : List<PopUpMenueItem> <<get>> <<set>>
    + SetMessage(caption:string, message:string, messageVisibility:swPropertyManagerPageMessageVisibility, pageMessageExpanded:swPropertyManagerPageMessageExpanded) : void
    + SetCursor(styles:PmpCursorStyles) : void
    + GetControl(id:int) : IPmpControl
    + GetControls() : IEnumerable<T>
    + IconDir : DirectoryInfo <<get>>
    + Id : int <<get>>
    + AllGroups : IEnumerable<PmpGroup> <<get>>
    + AllControls : IEnumerable<IPmpControl> <<get>>
    + Options : PmpOptions <<get>> <<set>>
    + PmpGroups : List<PmpGroup> <<get>> <<internal set>>
    + PmpTabs : List<PmpTab> <<get>> <<set>>
    + Title : string <<get>> <<set>>
    + Solidworks : ISldWorks <<get>> <<set>>
    + SolidworksObject : IPropertyManagerPage2 <<get>> <<set>>
    +  <<event>> HelpClicked : Func<bool> 
    +  <<event>> AfterActivation : Action 
    +  <<event>> AfterClose : Action 
    +  <<event>> Closing : Action<PmpCloseReason> 
    +  <<event>> PreviousPageClicked : Func<bool> 
    +  <<event>> NextPageClicked : Func<bool> 
    +  <<event>> Preview : Func<bool> 
    +  <<event>> WhatsNewClicked : Action 
    +  <<event>> UndoClicked : Action 
    +  <<event>> RedoClicked : Action 
    +  <<event>> Registering : Action 
    +  <<event>> TabClicked : Func<int, bool> 
    +  <<event>> KeyStroke : EventHandler<PmpKeyStrokeEventArgs> 
    <<internal>> HelpClickedCallBack() : bool
    <<internal>> AfterActivationCallBack() : void
    <<internal>> AfterCloseCallBack() : void
    <<internal>> WhatsNewClickedCallBack() : void
    <<internal>> UndoClickedCallBack() : void
    <<internal>> RedoClickedCallBack() : void
    <<internal>> ClosingCallBack(reason:int) : void
    <<internal>> PreviousPageClickedCallBack() : bool
    <<internal>> TabedClickedCallBack(id:int) : bool
    <<internal>> PreviewCallBack() : bool
    <<internal>> NextPageClickedCallBack() : bool
    <<internal>> RegisteringCallBack(propertyManagerPage:IPropertyManagerPage2) : void
    <<internal>> KeyStrokeCallBack(Wparam:int, Message:int, Lparam:int) : bool
}
"IWrapSolidworksObject`1" "<IPropertyManagerPage2>" <|- - PmpUiModel
@enduml

PlantUML version 1.2022.5(Sat Apr 30 20:55:52 AEST 2022)
(GPL source distribution)
Java Runtime: OpenJDK Runtime Environment
JVM: OpenJDK 64-Bit Server VM
Default Encoding: Cp1252
Language: en
Country: AU
--></g></svg>