<?xml version="1.0" encoding="UTF-8" standalone="no"?><svg xmlns="http://www.w3.org/2000/svg" xmlns:xlink="http://www.w3.org/1999/xlink" contentStyleType="text/css" height="346px" preserveAspectRatio="none" style="width:533px;height:346px;background:#FFFFFF;" version="1.1" viewBox="0 0 533 346" width="533px" zoomAndPan="magnify"><defs/><g><!--MD5=[7c4c3a9d8544615bcad6ff6a630321ce]
class PmpBitmapButton--><g id="elem_PmpBitmapButton"><rect codeLine="1" fill="#F1F1F1" height="224.0938" id="PmpBitmapButton" rx="2.5" ry="2.5" style="stroke:#181818;stroke-width:0.5;" width="519" x="7" y="115"/><ellipse cx="206.25" cy="131" fill="#ADD1B2" rx="11" ry="11" style="stroke:#181818;stroke-width:1.0;"/><path d="M209.0156,126.875 Q209.1719,126.6563 209.3594,126.5469 Q209.5469,126.4375 209.7656,126.4375 Q210.1406,126.4375 210.375,126.7031 Q210.6094,126.9531 210.6094,127.5625 L210.6094,129.0156 Q210.6094,129.625 210.375,129.8906 Q210.1406,130.1563 209.7656,130.1563 Q209.4219,130.1563 209.2188,129.9531 Q209.0156,129.7656 208.9063,129.25 Q208.8594,128.8906 208.6719,128.7031 Q208.3438,128.3281 207.7344,128.1094 Q207.125,127.8906 206.5,127.8906 Q205.7344,127.8906 205.0938,128.2188 Q204.4688,128.5469 203.9688,129.2969 Q203.4844,130.0469 203.4844,131.0781 L203.4844,132.1719 Q203.4844,133.4063 204.375,134.2344 Q205.2656,135.0469 206.8594,135.0469 Q207.7969,135.0469 208.4531,134.7969 Q208.8438,134.6406 209.2656,134.2031 Q209.5313,133.9375 209.6719,133.8594 Q209.8281,133.7813 210.0313,133.7813 Q210.3594,133.7813 210.6094,134.0469 Q210.875,134.2969 210.875,134.6406 Q210.875,134.9844 210.5313,135.3906 Q210.0313,135.9688 209.2344,136.2969 Q208.1563,136.75 206.8594,136.75 Q205.3438,136.75 204.1406,136.125 Q203.1563,135.625 202.4688,134.5625 Q201.7813,133.4844 201.7813,132.2031 L201.7813,131.0469 Q201.7813,129.7188 202.3906,128.5781 Q203.0156,127.4219 204.1094,126.8125 Q205.2031,126.1875 206.4375,126.1875 Q207.1719,126.1875 207.8125,126.3594 Q208.4688,126.5156 209.0156,126.875 Z " fill="#000000"/><text fill="#000000" font-family="sans-serif" font-size="14" lengthAdjust="spacing" textLength="112" x="226.75" y="136.7285">PmpBitmapButton</text><line style="stroke:#181818;stroke-width:0.5;" x1="8" x2="525" y1="147" y2="147"/><rect fill="none" height="6" style="stroke:#C82930;stroke-width:1.0;" width="6" x="15" y="155"/><text fill="#000000" font-family="sans-serif" font-size="14" lengthAdjust="spacing" textLength="105" x="27" y="165.5332">_bitmap : Bitmap</text><rect fill="none" height="6" style="stroke:#C82930;stroke-width:1.0;" width="6" x="15" y="172.6094"/><text fill="#000000" font-family="sans-serif" font-size="14" lengthAdjust="spacing" textLength="109" x="27" y="183.1426">_fileName : string</text><rect fill="none" height="6" style="stroke:#C82930;stroke-width:1.0;" width="6" x="15" y="190.2188"/><text fill="#000000" font-family="sans-serif" font-size="14" lengthAdjust="spacing" textLength="119" x="27" y="200.752">_iconSize : BtnSize</text><rect fill="none" height="6" style="stroke:#C82930;stroke-width:1.0;" width="6" x="15" y="207.8281"/><text fill="#000000" font-family="sans-serif" font-size="14" lengthAdjust="spacing" textLength="92" x="27" y="218.3613">_opacity : byte</text><rect fill="none" height="6" style="stroke:#C82930;stroke-width:1.0;" width="6" x="15" y="225.4375"/><text fill="#000000" font-family="sans-serif" font-size="14" lengthAdjust="spacing" textLength="193" x="27" y="235.9707">_standardIcon : BitmapButtons</text><line style="stroke:#181818;stroke-width:0.5;" x1="8" x2="525" y1="243.0469" y2="243.0469"/><ellipse cx="18" cy="254.0469" fill="#84BE84" rx="3" ry="3" style="stroke:#038048;stroke-width:1.0;"/><text fill="#000000" font-family="sans-serif" font-size="14" lengthAdjust="spacing" textLength="475" x="27" y="261.5801">PmpBitmapButton(bitmap:Bitmap, tip:string, iconSizes:BtnSize, opacity:byte)</text><ellipse cx="18" cy="271.6563" fill="#84BE84" rx="3" ry="3" style="stroke:#038048;stroke-width:1.0;"/><text fill="#000000" font-family="sans-serif" font-size="14" lengthAdjust="spacing" textLength="361" x="27" y="279.1895">PmpBitmapButton(standardIcon:BitmapButtons, tip:string)</text><rect fill="#F24D5C" height="6" style="stroke:#C82930;stroke-width:1.0;" width="6" x="15" y="286.2656"/><text fill="#000000" font-family="sans-serif" font-size="14" lengthAdjust="spacing" textLength="240" x="27" y="296.7988">PmpBitmapButton_OnRegister() : void</text><ellipse cx="18" cy="306.875" fill="#84BE84" rx="3" ry="3" style="stroke:#038048;stroke-width:1.0;"/><text fill="#000000" font-family="sans-serif" font-size="14" lengthAdjust="spacing" textLength="493" x="27" y="314.4082">SetButtonIcon(bitmap:Bitmap, fileName:string, size:BtnSize, opacity:byte) : void</text><ellipse cx="18" cy="324.4844" fill="#84BE84" rx="3" ry="3" style="stroke:#038048;stroke-width:1.0;"/><text fill="#000000" font-family="sans-serif" font-size="14" lengthAdjust="spacing" textLength="313" x="27" y="332.0176">SetButtonIcon(standardIcon:BitmapButtons) : void</text></g><!--MD5=[a536e09294ad4478e1b04fd841d50eb7]
class PmpButtonBase`1--><g id="elem_PmpButtonBase`1"><rect fill="#F1F1F1" height="48" id="PmpButtonBase`1" rx="2.5" ry="2.5" style="stroke:#181818;stroke-width:0.5;" width="146" x="193.5" y="7"/><ellipse cx="208.5" cy="23" fill="#ADD1B2" rx="11" ry="11" style="stroke:#181818;stroke-width:1.0;"/><path d="M211.2656,18.875 Q211.4219,18.6563 211.6094,18.5469 Q211.7969,18.4375 212.0156,18.4375 Q212.3906,18.4375 212.625,18.7031 Q212.8594,18.9531 212.8594,19.5625 L212.8594,21.0156 Q212.8594,21.625 212.625,21.8906 Q212.3906,22.1563 212.0156,22.1563 Q211.6719,22.1563 211.4688,21.9531 Q211.2656,21.7656 211.1563,21.25 Q211.1094,20.8906 210.9219,20.7031 Q210.5938,20.3281 209.9844,20.1094 Q209.375,19.8906 208.75,19.8906 Q207.9844,19.8906 207.3438,20.2188 Q206.7188,20.5469 206.2188,21.2969 Q205.7344,22.0469 205.7344,23.0781 L205.7344,24.1719 Q205.7344,25.4063 206.625,26.2344 Q207.5156,27.0469 209.1094,27.0469 Q210.0469,27.0469 210.7031,26.7969 Q211.0938,26.6406 211.5156,26.2031 Q211.7813,25.9375 211.9219,25.8594 Q212.0781,25.7813 212.2813,25.7813 Q212.6094,25.7813 212.8594,26.0469 Q213.125,26.2969 213.125,26.6406 Q213.125,26.9844 212.7813,27.3906 Q212.2813,27.9688 211.4844,28.2969 Q210.4063,28.75 209.1094,28.75 Q207.5938,28.75 206.3906,28.125 Q205.4063,27.625 204.7188,26.5625 Q204.0313,25.4844 204.0313,24.2031 L204.0313,23.0469 Q204.0313,21.7188 204.6406,20.5781 Q205.2656,19.4219 206.3594,18.8125 Q207.4531,18.1875 208.6875,18.1875 Q209.4219,18.1875 210.0625,18.3594 Q210.7188,18.5156 211.2656,18.875 Z " fill="#000000"/><text fill="#000000" font-family="sans-serif" font-size="14" lengthAdjust="spacing" textLength="114" x="222.5" y="28.7285">PmpButtonBase`1</text><line style="stroke:#181818;stroke-width:0.5;" x1="194.5" x2="338.5" y1="39" y2="39"/><line style="stroke:#181818;stroke-width:0.5;" x1="194.5" x2="338.5" y1="47" y2="47"/></g><!--MD5=[7cf2fc365d233037dfb8a43db99ef95d]
reverse link PmpButtonBase`1 to PmpBitmapButton--><g id="link_PmpButtonBase`1_PmpBitmapButton"><path codeLine="13" d="M266.5,75.19 C266.5,87.19 266.5,100.79 266.5,114.79 " fill="none" id="PmpButtonBase`1-backto-PmpBitmapButton" style="stroke:#181818;stroke-width:1.0;"/><polygon fill="none" points="259.5,75.02,266.5,55.02,273.5,75.02,259.5,75.02" style="stroke:#181818;stroke-width:1.0;"/><text fill="#000000" font-family="sans-serif" font-size="13" lengthAdjust="spacing" textLength="224" x="15.2" y="76.3628">&lt;PropertyManagerPageBitmapButton&gt;</text></g><!--MD5=[089df0ee7833b3a325a6bd5d89b9d846]
@startuml
class PmpBitmapButton {
    - _bitmap : Bitmap
    - _fileName : string
    - _iconSize : BtnSize
    - _opacity : byte
    - _standardIcon : BitmapButtons
    + PmpBitmapButton(bitmap:Bitmap, tip:string, iconSizes:BtnSize, opacity:byte)
    + PmpBitmapButton(standardIcon:BitmapButtons, tip:string)
    - PmpBitmapButton_OnRegister() : void
    + SetButtonIcon(bitmap:Bitmap, fileName:string, size:BtnSize, opacity:byte) : void
    + SetButtonIcon(standardIcon:BitmapButtons) : void
}
"PmpButtonBase`1" "<PropertyManagerPageBitmapButton>" <|- - PmpBitmapButton
@enduml

PlantUML version 1.2022.5(Sat Apr 30 20:55:52 AEST 2022)
(GPL source distribution)
Java Runtime: OpenJDK Runtime Environment
JVM: OpenJDK 64-Bit Server VM
Default Encoding: Cp1252
Language: en
Country: AU
--></g></svg>