<?xml version="1.0" encoding="UTF-8" standalone="no"?><svg xmlns="http://www.w3.org/2000/svg" xmlns:xlink="http://www.w3.org/1999/xlink" contentStyleType="text/css" height="209px" preserveAspectRatio="none" style="width:250px;height:209px;background:#FFFFFF;" version="1.1" viewBox="0 0 250 209" width="250px" zoomAndPan="magnify"><defs/><g><!--MD5=[14d1ffdc72796e8b36fa29d45636ed66]
class NumberBoxStyles--><g id="elem_NumberBoxStyles"><rect codeLine="1" fill="#F1F1F1" height="188.875" id="NumberBoxStyles" rx="2.5" ry="2.5" style="stroke:#181818;stroke-width:0.5;" width="229" x="7" y="7"/><ellipse cx="62.25" cy="23" fill="#EB937F" rx="11" ry="11" style="stroke:#181818;stroke-width:1.0;"/><path d="M61.1094,23.7969 L61.1094,26.2969 L65.4375,26.2969 L65.4375,25.375 Q65.4375,24.7656 65.6719,24.5 Q65.9219,24.2344 66.2969,24.2344 Q66.6719,24.2344 66.9063,24.5 Q67.1406,24.7656 67.1406,25.375 L67.1406,28 L59.1406,28 Q58.5156,28 58.25,27.7656 Q58,27.5313 58,27.1406 Q58,26.7656 58.2656,26.5313 Q58.5313,26.2969 59.1406,26.2969 L59.4063,26.2969 L59.4063,19.6406 L59.1406,19.6406 Q58.5156,19.6406 58.25,19.4063 Q58,19.1719 58,18.7813 Q58,18.4063 58.25,18.1719 Q58.5156,17.9375 59.1406,17.9375 L66.7656,17.9375 L66.7656,20.5313 Q66.7656,21.1406 66.5313,21.4063 Q66.3125,21.6563 65.9219,21.6563 Q65.5469,21.6563 65.3125,21.4063 Q65.0781,21.1406 65.0781,20.5313 L65.0781,19.6406 L61.1094,19.6406 L61.1094,22.0938 L62.5938,22.0938 Q62.5938,21.4375 62.7188,21.25 Q62.9844,20.8438 63.4531,20.8438 Q63.8281,20.8438 64.0625,21.1094 Q64.2969,21.3594 64.2969,21.9688 L64.2969,23.9375 Q64.2969,24.4844 64.1719,24.6719 Q63.9063,25.0625 63.4531,25.0625 Q62.9844,25.0625 62.7188,24.6563 Q62.5938,24.4688 62.5938,23.7969 L61.1094,23.7969 Z " fill="#000000"/><text fill="#000000" font-family="sans-serif" font-size="14" lengthAdjust="spacing" textLength="110" x="82.75" y="28.7285">NumberBoxStyles</text><line style="stroke:#181818;stroke-width:0.5;" x1="8" x2="235" y1="39" y2="39"/><text fill="#000000" font-family="sans-serif" font-size="14" lengthAdjust="spacing" textLength="65" x="13" y="57.5332">Default=0,</text><text fill="#000000" font-family="sans-serif" font-size="14" lengthAdjust="spacing" textLength="144" x="13" y="75.1426">AvoidSelectionText= 4,</text><text fill="#000000" font-family="sans-serif" font-size="14" lengthAdjust="spacing" textLength="116" x="13" y="92.752">ComboEditBox= 1,</text><text fill="#000000" font-family="sans-serif" font-size="14" lengthAdjust="spacing" textLength="134" x="13" y="110.3613">EditBoxReadOnly= 2,</text><text fill="#000000" font-family="sans-serif" font-size="14" lengthAdjust="spacing" textLength="119" x="13" y="127.9707">NoScrollArrows= 8,</text><text fill="#000000" font-family="sans-serif" font-size="14" lengthAdjust="spacing" textLength="68" x="13" y="145.5801">Slider= 16,</text><text fill="#000000" font-family="sans-serif" font-size="14" lengthAdjust="spacing" textLength="217" x="13" y="163.1895">SuppressNotifyWhileTracking= 64,</text><text fill="#000000" font-family="sans-serif" font-size="14" lengthAdjust="spacing" textLength="112" x="13" y="180.7988">Thumbwheel= 32,</text><line style="stroke:#181818;stroke-width:0.5;" x1="8" x2="235" y1="187.875" y2="187.875"/></g><!--MD5=[a427f5b2a52235e9528c01dda69c23a2]
@startuml
enum NumberBoxStyles {
    Default=0,
    AvoidSelectionText= 4,
    ComboEditBox= 1,
    EditBoxReadOnly= 2,
    NoScrollArrows= 8,
    Slider= 16,
    SuppressNotifyWhileTracking= 64,
    Thumbwheel= 32,
}
@enduml

PlantUML version 1.2022.5(Sat Apr 30 20:55:52 AEST 2022)
(GPL source distribution)
Java Runtime: OpenJDK Runtime Environment
JVM: OpenJDK 64-Bit Server VM
Default Encoding: Cp1252
Language: en
Country: AU
--></g></svg>