<?xml version="1.0" encoding="UTF-8" standalone="no"?><svg xmlns="http://www.w3.org/2000/svg" xmlns:xlink="http://www.w3.org/1999/xlink" contentStyleType="text/css" height="121px" preserveAspectRatio="none" style="width:434px;height:121px;background:#FFFFFF;" version="1.1" viewBox="0 0 434 121" width="434px" zoomAndPan="magnify"><defs/><g><!--MD5=[c6db7ac74796ff7df2f957ceaa714c14]
class AddinUserInterface--><g id="elem_AddinUserInterface"><rect codeLine="1" fill="#F1F1F1" height="100.8281" id="AddinUserInterface" rx="2.5" ry="2.5" style="stroke:#181818;stroke-width:0.5;" width="413" x="7" y="7"/><ellipse cx="149.25" cy="23" fill="#ADD1B2" rx="11" ry="11" style="stroke:#181818;stroke-width:1.0;"/><path d="M152.0156,18.875 Q152.1719,18.6563 152.3594,18.5469 Q152.5469,18.4375 152.7656,18.4375 Q153.1406,18.4375 153.375,18.7031 Q153.6094,18.9531 153.6094,19.5625 L153.6094,21.0156 Q153.6094,21.625 153.375,21.8906 Q153.1406,22.1563 152.7656,22.1563 Q152.4219,22.1563 152.2188,21.9531 Q152.0156,21.7656 151.9063,21.25 Q151.8594,20.8906 151.6719,20.7031 Q151.3438,20.3281 150.7344,20.1094 Q150.125,19.8906 149.5,19.8906 Q148.7344,19.8906 148.0938,20.2188 Q147.4688,20.5469 146.9688,21.2969 Q146.4844,22.0469 146.4844,23.0781 L146.4844,24.1719 Q146.4844,25.4063 147.375,26.2344 Q148.2656,27.0469 149.8594,27.0469 Q150.7969,27.0469 151.4531,26.7969 Q151.8438,26.6406 152.2656,26.2031 Q152.5313,25.9375 152.6719,25.8594 Q152.8281,25.7813 153.0313,25.7813 Q153.3594,25.7813 153.6094,26.0469 Q153.875,26.2969 153.875,26.6406 Q153.875,26.9844 153.5313,27.3906 Q153.0313,27.9688 152.2344,28.2969 Q151.1563,28.75 149.8594,28.75 Q148.3438,28.75 147.1406,28.125 Q146.1563,27.625 145.4688,26.5625 Q144.7813,25.4844 144.7813,24.2031 L144.7813,23.0469 Q144.7813,21.7188 145.3906,20.5781 Q146.0156,19.4219 147.1094,18.8125 Q148.2031,18.1875 149.4375,18.1875 Q150.1719,18.1875 150.8125,18.3594 Q151.4688,18.5156 152.0156,18.875 Z " fill="#000000"/><text fill="#000000" font-family="sans-serif" font-size="14" lengthAdjust="spacing" textLength="120" x="169.75" y="28.7285">AddinUserInterface</text><line style="stroke:#181818;stroke-width:0.5;" x1="8" x2="419" y1="39" y2="39"/><ellipse cx="18" cy="50" fill="none" rx="3" ry="3" style="stroke:#038048;stroke-width:1.0;"/><text fill="#000000" font-family="sans-serif" font-size="14" lengthAdjust="spacing" textLength="117" x="27" y="57.5332">Id : int «get» «set»</text><ellipse cx="18" cy="67.6094" fill="none" rx="3" ry="3" style="stroke:#038048;stroke-width:1.0;"/><text fill="#000000" font-family="sans-serif" font-size="14" lengthAdjust="spacing" textLength="387" x="27" y="75.1426">PropertyManagerPages : List&lt;PmpFactoryBase&gt; «get» «set»</text><ellipse cx="18" cy="85.2188" fill="none" rx="3" ry="3" style="stroke:#038048;stroke-width:1.0;"/><text fill="#000000" font-family="sans-serif" font-size="14" lengthAdjust="spacing" textLength="350" x="27" y="92.752">CommandTabs : List&lt;AddinCommandTab&gt; «get» «set»</text><line style="stroke:#181818;stroke-width:0.5;" x1="8" x2="419" y1="99.8281" y2="99.8281"/></g><!--MD5=[1d1f70a0b2a97acb0c27fed3c47cf681]
@startuml
class AddinUserInterface {
    + Id : int <<get>> <<set>>
    + PropertyManagerPages : List<PmpFactoryBase> <<get>> <<set>>
    + CommandTabs : List<AddinCommandTab> <<get>> <<set>>
}
@enduml

PlantUML version 1.2022.5(Sat Apr 30 20:55:52 AEST 2022)
(GPL source distribution)
Java Runtime: OpenJDK Runtime Environment
JVM: OpenJDK 64-Bit Server VM
Default Encoding: Cp1252
Language: en
Country: AU
--></g></svg>