<?xml version="1.0" encoding="UTF-8" standalone="no"?><svg xmlns="http://www.w3.org/2000/svg" xmlns:xlink="http://www.w3.org/1999/xlink" contentStyleType="text/css" height="157px" preserveAspectRatio="none" style="width:250px;height:157px;background:#FFFFFF;" version="1.1" viewBox="0 0 250 157" width="250px" zoomAndPan="magnify"><defs/><g><!--MD5=[3fdf7de726c193d0ced092d6fc9ba682]
class SelectionBoxStyles--><g id="elem_SelectionBoxStyles"><rect codeLine="1" fill="#F1F1F1" height="136.0469" id="SelectionBoxStyles" rx="2.5" ry="2.5" style="stroke:#181818;stroke-width:0.5;" width="229" x="7" y="7"/><ellipse cx="57.75" cy="23" fill="#EB937F" rx="11" ry="11" style="stroke:#181818;stroke-width:1.0;"/><path d="M56.6094,23.7969 L56.6094,26.2969 L60.9375,26.2969 L60.9375,25.375 Q60.9375,24.7656 61.1719,24.5 Q61.4219,24.2344 61.7969,24.2344 Q62.1719,24.2344 62.4063,24.5 Q62.6406,24.7656 62.6406,25.375 L62.6406,28 L54.6406,28 Q54.0156,28 53.75,27.7656 Q53.5,27.5313 53.5,27.1406 Q53.5,26.7656 53.7656,26.5313 Q54.0313,26.2969 54.6406,26.2969 L54.9063,26.2969 L54.9063,19.6406 L54.6406,19.6406 Q54.0156,19.6406 53.75,19.4063 Q53.5,19.1719 53.5,18.7813 Q53.5,18.4063 53.75,18.1719 Q54.0156,17.9375 54.6406,17.9375 L62.2656,17.9375 L62.2656,20.5313 Q62.2656,21.1406 62.0313,21.4063 Q61.8125,21.6563 61.4219,21.6563 Q61.0469,21.6563 60.8125,21.4063 Q60.5781,21.1406 60.5781,20.5313 L60.5781,19.6406 L56.6094,19.6406 L56.6094,22.0938 L58.0938,22.0938 Q58.0938,21.4375 58.2188,21.25 Q58.4844,20.8438 58.9531,20.8438 Q59.3281,20.8438 59.5625,21.1094 Q59.7969,21.3594 59.7969,21.9688 L59.7969,23.9375 Q59.7969,24.4844 59.6719,24.6719 Q59.4063,25.0625 58.9531,25.0625 Q58.4844,25.0625 58.2188,24.6563 Q58.0938,24.4688 58.0938,23.7969 L56.6094,23.7969 Z " fill="#000000"/><text fill="#000000" font-family="sans-serif" font-size="14" lengthAdjust="spacing" textLength="119" x="78.25" y="28.7285">SelectionBoxStyles</text><line style="stroke:#181818;stroke-width:0.5;" x1="8" x2="235" y1="39" y2="39"/><text fill="#000000" font-family="sans-serif" font-size="14" lengthAdjust="spacing" textLength="69" x="13" y="57.5332">Default= 0,</text><text fill="#000000" font-family="sans-serif" font-size="14" lengthAdjust="spacing" textLength="68" x="13" y="75.1426">HScroll= 1,</text><text fill="#000000" font-family="sans-serif" font-size="14" lengthAdjust="spacing" textLength="137" x="13" y="92.752">MultipleItemSelect= 4,</text><text fill="#000000" font-family="sans-serif" font-size="14" lengthAdjust="spacing" textLength="149" x="13" y="110.3613">UpAndDownButtons= 2,</text><text fill="#000000" font-family="sans-serif" font-size="14" lengthAdjust="spacing" textLength="217" x="13" y="127.9707">WantListboxSelectionChanged= 8,</text><line style="stroke:#181818;stroke-width:0.5;" x1="8" x2="235" y1="135.0469" y2="135.0469"/></g><!--MD5=[49b702c2c3248a12d75b365fe25090ee]
@startuml
enum SelectionBoxStyles {
    Default= 0,
    HScroll= 1,
    MultipleItemSelect= 4,
    UpAndDownButtons= 2,
    WantListboxSelectionChanged= 8,
}
@enduml

PlantUML version 1.2022.5(Sat Apr 30 20:55:52 AEST 2022)
(GPL source distribution)
Java Runtime: OpenJDK Runtime Environment
JVM: OpenJDK 64-Bit Server VM
Default Encoding: Cp1252
Language: en
Country: AU
--></g></svg>