<?xml version="1.0" encoding="UTF-8" standalone="no"?><svg xmlns="http://www.w3.org/2000/svg" xmlns:xlink="http://www.w3.org/1999/xlink" contentStyleType="text/css" height="539px" preserveAspectRatio="none" style="width:414px;height:539px;background:#FFFFFF;" version="1.1" viewBox="0 0 414 539" width="414px" zoomAndPan="magnify"><defs/><g><!--MD5=[b6e386494f9fee50c241449443a20576]
class PmpSlider--><g id="elem_PmpSlider"><rect codeLine="1" fill="#F1F1F1" height="417.7969" id="PmpSlider" rx="2.5" ry="2.5" style="stroke:#181818;stroke-width:0.5;" width="399" x="8.4281" y="115"/><ellipse cx="171.6781" cy="131" fill="#ADD1B2" rx="11" ry="11" style="stroke:#181818;stroke-width:1.0;"/><path d="M174.4438,126.875 Q174.6,126.6563 174.7875,126.5469 Q174.975,126.4375 175.1938,126.4375 Q175.5688,126.4375 175.8031,126.7031 Q176.0375,126.9531 176.0375,127.5625 L176.0375,129.0156 Q176.0375,129.625 175.8031,129.8906 Q175.5688,130.1563 175.1938,130.1563 Q174.85,130.1563 174.6469,129.9531 Q174.4438,129.7656 174.3344,129.25 Q174.2875,128.8906 174.1,128.7031 Q173.7719,128.3281 173.1625,128.1094 Q172.5531,127.8906 171.9281,127.8906 Q171.1625,127.8906 170.5219,128.2188 Q169.8969,128.5469 169.3969,129.2969 Q168.9125,130.0469 168.9125,131.0781 L168.9125,132.1719 Q168.9125,133.4063 169.8031,134.2344 Q170.6938,135.0469 172.2875,135.0469 Q173.225,135.0469 173.8813,134.7969 Q174.2719,134.6406 174.6938,134.2031 Q174.9594,133.9375 175.1,133.8594 Q175.2563,133.7813 175.4594,133.7813 Q175.7875,133.7813 176.0375,134.0469 Q176.3031,134.2969 176.3031,134.6406 Q176.3031,134.9844 175.9594,135.3906 Q175.4594,135.9688 174.6625,136.2969 Q173.5844,136.75 172.2875,136.75 Q170.7719,136.75 169.5688,136.125 Q168.5844,135.625 167.8969,134.5625 Q167.2094,133.4844 167.2094,132.2031 L167.2094,131.0469 Q167.2094,129.7188 167.8188,128.5781 Q168.4438,127.4219 169.5375,126.8125 Q170.6313,126.1875 171.8656,126.1875 Q172.6,126.1875 173.2406,126.3594 Q173.8969,126.5156 174.4438,126.875 Z " fill="#000000"/><text fill="#000000" font-family="sans-serif" font-size="14" lengthAdjust="spacing" textLength="64" x="192.1781" y="136.7285">PmpSlider</text><line style="stroke:#181818;stroke-width:0.5;" x1="9.4281" x2="406.4281" y1="147" y2="147"/><rect fill="none" height="6" style="stroke:#C82930;stroke-width:1.0;" width="6" x="16.4281" y="155"/><text fill="#000000" font-family="sans-serif" font-size="14" lengthAdjust="spacing" textLength="123" x="28.4281" y="165.5332">_style : SliderStyles</text><rect fill="none" height="6" style="stroke:#C82930;stroke-width:1.0;" width="6" x="16.4281" y="172.6094"/><text fill="#000000" font-family="sans-serif" font-size="14" lengthAdjust="spacing" textLength="91" x="28.4281" y="183.1426">_height : short</text><rect fill="none" height="6" style="stroke:#C82930;stroke-width:1.0;" width="6" x="16.4281" y="190.2188"/><text fill="#000000" font-family="sans-serif" font-size="14" lengthAdjust="spacing" textLength="83" x="28.4281" y="200.752">_lineSize : int</text><rect fill="none" height="6" style="stroke:#C82930;stroke-width:1.0;" width="6" x="16.4281" y="207.8281"/><text fill="#000000" font-family="sans-serif" font-size="14" lengthAdjust="spacing" textLength="112" x="28.4281" y="218.3613">_position : double</text><rect fill="none" height="6" style="stroke:#C82930;stroke-width:1.0;" width="6" x="16.4281" y="225.4375"/><text fill="#000000" font-family="sans-serif" font-size="14" lengthAdjust="spacing" textLength="94" x="28.4281" y="235.9707">_rangeMin : int</text><rect fill="none" height="6" style="stroke:#C82930;stroke-width:1.0;" width="6" x="16.4281" y="243.0469"/><text fill="#000000" font-family="sans-serif" font-size="14" lengthAdjust="spacing" textLength="97" x="28.4281" y="253.5801">_rangeMax : int</text><rect fill="none" height="6" style="stroke:#C82930;stroke-width:1.0;" width="6" x="16.4281" y="260.6563"/><text fill="#000000" font-family="sans-serif" font-size="14" lengthAdjust="spacing" textLength="93" x="28.4281" y="271.1895">_pageSize : int</text><rect fill="none" height="6" style="stroke:#C82930;stroke-width:1.0;" width="6" x="16.4281" y="278.2656"/><text fill="#000000" font-family="sans-serif" font-size="14" lengthAdjust="spacing" textLength="87" x="28.4281" y="288.7988">_tickMark : int</text><ellipse cx="19.4281" cy="298.875" fill="none" rx="3" ry="3" style="stroke:#038048;stroke-width:1.0;"/><text fill="#000000" font-family="sans-serif" font-size="14" lengthAdjust="spacing" textLength="196" x="28.4281" y="306.4082">Style : SliderStyles «get» «set»</text><ellipse cx="19.4281" cy="316.4844" fill="none" rx="3" ry="3" style="stroke:#038048;stroke-width:1.0;"/><text fill="#000000" font-family="sans-serif" font-size="14" lengthAdjust="spacing" textLength="163" x="28.4281" y="324.0176">Height : short «get» «set»</text><ellipse cx="19.4281" cy="334.0938" fill="none" rx="3" ry="3" style="stroke:#038048;stroke-width:1.0;"/><text fill="#000000" font-family="sans-serif" font-size="14" lengthAdjust="spacing" textLength="159" x="28.4281" y="341.627">LineSize : int «get» «set»</text><ellipse cx="19.4281" cy="351.7031" fill="none" rx="3" ry="3" style="stroke:#038048;stroke-width:1.0;"/><text fill="#000000" font-family="sans-serif" font-size="14" lengthAdjust="spacing" textLength="165" x="28.4281" y="359.2363">PageSize : int «get» «set»</text><ellipse cx="19.4281" cy="369.3125" fill="none" rx="3" ry="3" style="stroke:#038048;stroke-width:1.0;"/><text fill="#000000" font-family="sans-serif" font-size="14" lengthAdjust="spacing" textLength="156" x="28.4281" y="376.8457">Position : int «get» «set»</text><ellipse cx="19.4281" cy="386.9219" fill="none" rx="3" ry="3" style="stroke:#038048;stroke-width:1.0;"/><text fill="#000000" font-family="sans-serif" font-size="14" lengthAdjust="spacing" textLength="200" x="28.4281" y="394.4551">TickFrequency : int «get» «set»</text><ellipse cx="19.4281" cy="404.5313" fill="none" rx="3" ry="3" style="stroke:#038048;stroke-width:1.0;"/><text fill="#000000" font-family="sans-serif" font-size="14" lengthAdjust="spacing" textLength="319" x="28.4281" y="412.0645">«event» PositionChanged : EventHandler&lt;double&gt;</text><ellipse cx="19.4281" cy="422.1406" fill="none" rx="3" ry="3" style="stroke:#038048;stroke-width:1.0;"/><text fill="#000000" font-family="sans-serif" font-size="14" lengthAdjust="spacing" textLength="334" x="28.4281" y="429.6738">«event» TrackingCompleted : EventHandler&lt;double&gt;</text><line style="stroke:#181818;stroke-width:0.5;" x1="9.4281" x2="406.4281" y1="436.75" y2="436.75"/><ellipse cx="19.4281" cy="447.75" fill="#84BE84" rx="3" ry="3" style="stroke:#038048;stroke-width:1.0;"/><text fill="#000000" font-family="sans-serif" font-size="14" lengthAdjust="spacing" textLength="250" x="28.4281" y="455.2832">PmpSlider(styles:SliderStyles, tip:string)</text><ellipse cx="19.4281" cy="465.3594" fill="#84BE84" rx="3" ry="3" style="stroke:#038048;stroke-width:1.0;"/><text fill="#000000" font-family="sans-serif" font-size="14" lengthAdjust="spacing" textLength="205" x="28.4281" y="472.8926">SetRange(min:int, max:int) : bool</text><ellipse cx="19.4281" cy="482.9688" fill="#84BE84" rx="3" ry="3" style="stroke:#038048;stroke-width:1.0;"/><text fill="#000000" font-family="sans-serif" font-size="14" lengthAdjust="spacing" textLength="206" x="28.4281" y="490.502">GetRange(min:int, max:int) : void</text><text fill="#000000" font-family="sans-serif" font-size="14" lengthAdjust="spacing" textLength="358" x="28.4281" y="508.1113">«internal» PositionChangedCallback(value:double) : void</text><text fill="#000000" font-family="sans-serif" font-size="14" lengthAdjust="spacing" textLength="373" x="28.4281" y="525.7207">«internal» TrackingCompletedCallback(value:double) : void</text></g><!--MD5=[22a3ac4e8783a88ac869ee0e2318b515]
class PmpControl`1--><g id="elem_PmpControl`1"><rect fill="#F1F1F1" height="48" id="PmpControl`1" rx="2.5" ry="2.5" style="stroke:#181818;stroke-width:0.5;" width="119" x="148.4281" y="7"/><ellipse cx="163.4281" cy="23" fill="#ADD1B2" rx="11" ry="11" style="stroke:#181818;stroke-width:1.0;"/><path d="M166.1938,18.875 Q166.35,18.6563 166.5375,18.5469 Q166.725,18.4375 166.9438,18.4375 Q167.3188,18.4375 167.5531,18.7031 Q167.7875,18.9531 167.7875,19.5625 L167.7875,21.0156 Q167.7875,21.625 167.5531,21.8906 Q167.3188,22.1563 166.9438,22.1563 Q166.6,22.1563 166.3969,21.9531 Q166.1938,21.7656 166.0844,21.25 Q166.0375,20.8906 165.85,20.7031 Q165.5219,20.3281 164.9125,20.1094 Q164.3031,19.8906 163.6781,19.8906 Q162.9125,19.8906 162.2719,20.2188 Q161.6469,20.5469 161.1469,21.2969 Q160.6625,22.0469 160.6625,23.0781 L160.6625,24.1719 Q160.6625,25.4063 161.5531,26.2344 Q162.4438,27.0469 164.0375,27.0469 Q164.975,27.0469 165.6313,26.7969 Q166.0219,26.6406 166.4438,26.2031 Q166.7094,25.9375 166.85,25.8594 Q167.0063,25.7813 167.2094,25.7813 Q167.5375,25.7813 167.7875,26.0469 Q168.0531,26.2969 168.0531,26.6406 Q168.0531,26.9844 167.7094,27.3906 Q167.2094,27.9688 166.4125,28.2969 Q165.3344,28.75 164.0375,28.75 Q162.5219,28.75 161.3188,28.125 Q160.3344,27.625 159.6469,26.5625 Q158.9594,25.4844 158.9594,24.2031 L158.9594,23.0469 Q158.9594,21.7188 159.5688,20.5781 Q160.1938,19.4219 161.2875,18.8125 Q162.3813,18.1875 163.6156,18.1875 Q164.35,18.1875 164.9906,18.3594 Q165.6469,18.5156 166.1938,18.875 Z " fill="#000000"/><text fill="#000000" font-family="sans-serif" font-size="14" lengthAdjust="spacing" textLength="87" x="177.4281" y="28.7285">PmpControl`1</text><line style="stroke:#181818;stroke-width:0.5;" x1="149.4281" x2="266.4281" y1="39" y2="39"/><line style="stroke:#181818;stroke-width:0.5;" x1="149.4281" x2="266.4281" y1="47" y2="47"/></g><!--MD5=[30afdc68c48ef73f4fe00f93f2f1f07d]
reverse link PmpControl`1 to PmpSlider--><g id="link_PmpControl`1_PmpSlider"><path codeLine="24" d="M207.9281,75.35 C207.9281,87 207.9281,100.41 207.9281,114.84 " fill="none" id="PmpControl`1-backto-PmpSlider" style="stroke:#181818;stroke-width:1.0;"/><polygon fill="none" points="200.9281,75.32,207.9281,55.32,214.9281,75.32,200.9281,75.32" style="stroke:#181818;stroke-width:1.0;"/><text fill="#000000" font-family="sans-serif" font-size="13" lengthAdjust="spacing" textLength="181" x="6" y="76.3298">&lt;IPropertyManagerPageSlider&gt;</text></g><!--MD5=[1cbbacae0f7c42132292ff6f272aeed2]
@startuml
class PmpSlider {
    - _style : SliderStyles
    - _height : short
    - _lineSize : int
    - _position : double
    - _rangeMin : int
    - _rangeMax : int
    - _pageSize : int
    - _tickMark : int
    + PmpSlider(styles:SliderStyles, tip:string)
    + Style : SliderStyles <<get>> <<set>>
    + Height : short <<get>> <<set>>
    + LineSize : int <<get>> <<set>>
    + PageSize : int <<get>> <<set>>
    + Position : int <<get>> <<set>>
    + TickFrequency : int <<get>> <<set>>
    + SetRange(min:int, max:int) : bool
    + GetRange(min:int, max:int) : void
    <<internal>> PositionChangedCallback(value:double) : void
    <<internal>> TrackingCompletedCallback(value:double) : void
    +  <<event>> PositionChanged : EventHandler<double> 
    +  <<event>> TrackingCompleted : EventHandler<double> 
}
"PmpControl`1" "<IPropertyManagerPageSlider>" <|- - PmpSlider
@enduml

PlantUML version 1.2022.5(Sat Apr 30 20:55:52 AEST 2022)
(GPL source distribution)
Java Runtime: OpenJDK Runtime Environment
JVM: OpenJDK 64-Bit Server VM
Default Encoding: Cp1252
Language: en
Country: AU
--></g></svg>